ISO-10303-21;
HEADER;
FILE_DESCRIPTION (( 'STEP AP214' ),
    '1' );
FILE_NAME ('4mm_banana_socket_nut.STEP',
    '2026-07-03T19:34:52',
    ( '' ),
    ( '' ),
    'SwSTEP 2.0',
    'SolidWorks 2026',
    '' );
FILE_SCHEMA (( 'AUTOMOTIVE_DESIGN' ));
ENDSEC;

DATA;
#1 = PLANE ( 'NONE',  #23 ) ;
#2 = DIRECTION ( 'NONE',  ( -0.000000000000000000, 0.000000000000000000, 1.000000000000000000 ) ) ;
#3 = B_SPLINE_CURVE_WITH_KNOTS ( 'NONE', 3,
 ( #368, #244, #321, #323, #124, #129, #203, #49 ),
 .UNSPECIFIED., .F., .F.,
 ( 4, 2, 2, 4 ),
 ( 2.380740674693438112E-07, 0.001851557466009770038, 0.002777217161980919356, 0.003702876857952069542 ),
 .UNSPECIFIED. ) ;
#4 = ORIENTED_EDGE ( 'NONE', *, *, #267, .F. ) ;
#5 = CARTESIAN_POINT ( 'NONE',  ( 3.516333780138294784, -1.036510412143833770, -0.2595312364297474028 ) ) ;
#6 = ORIENTED_EDGE ( 'NONE', *, *, #413, .T. ) ;
#7 = CARTESIAN_POINT ( 'NONE',  ( 0.000000000000000000, -1.249999999999999334, 0.000000000000000000 ) ) ;
#8 = ORIENTED_EDGE ( 'NONE', *, *, #421, .T. ) ;
#9 = AXIS2_PLACEMENT_3D ( 'NONE', #140, #466, #104 ) ;
#10 = CARTESIAN_POINT ( 'NONE',  ( -1.833087104677060486, -1.249999999999999334, -3.175000000000001599 ) ) ;
#11 = ORIENTED_EDGE ( 'NONE', *, *, #402, .F. ) ;
#12 = ORIENTED_EDGE ( 'NONE', *, *, #354, .F. ) ;
#13 = B_SPLINE_CURVE_WITH_KNOTS ( 'NONE', 3,
 ( #379, #68, #302, #25, #470, #212, #460, #374 ),
 .UNSPECIFIED., .F., .F.,
 ( 4, 2, 2, 4 ),
 ( 2.380740674736284215E-07, 0.001851557466009772640, 0.002777217161980922392, 0.003702876857952071710 ),
 .UNSPECIFIED. ) ;
#14 = FACE_OUTER_BOUND ( 'NONE', #78, .T. ) ;
#15 = ORIENTED_EDGE ( 'NONE', *, *, #109, .T. ) ;
#16 = MECHANICAL_DESIGN_GEOMETRIC_PRESENTATION_REPRESENTATION (  '', ( #463 ), #138 ) ;
#17 = DIRECTION ( 'NONE',  ( 0.4999999999999998890, 0.000000000000000000, -0.8660254037844387076 ) ) ;
#18 = DIRECTION ( 'NONE',  ( 0.000000000000000000, 0.000000000000000000, -1.000000000000000000 ) ) ;
#19 = CARTESIAN_POINT ( 'NONE',  ( 3.366866303064639965, 1.122805500267965551, -0.5184165008004533171 ) ) ;
#20 = DIRECTION ( 'NONE',  ( -0.000000000000000000, 1.000000000000000000, -0.000000000000000000 ) ) ;
#21 = PLANE ( 'NONE',  #491 ) ;
#22 = CARTESIAN_POINT ( 'NONE',  ( 3.666174209354124525, -1.249999999999999334, -4.305185255295723459E-16 ) ) ;
#23 = AXIS2_PLACEMENT_3D ( 'NONE', #10, #2, #82 ) ;
#24 = B_SPLINE_CURVE_WITH_KNOTS ( 'NONE', 3,
 ( #437, #346, #187, #192, #348, #237, #5, #235 ),
 .UNSPECIFIED., .F., .F.,
 ( 4, 2, 2, 4 ),
 ( 2.380740674720530196E-07, 0.001851557466009770688, 0.002777217161980920224, 0.003702876857952069542 ),
 .UNSPECIFIED. ) ;
#25 = CARTESIAN_POINT ( 'NONE',  ( -2.903726902056610992, 1.233776848240156543, -1.320597474333371490 ) ) ;
#26 = CARTESIAN_POINT ( 'NONE',  ( 1.833087104677063151, 0.9499999999999959588, -3.175000000000001599 ) ) ;
#27 = CARTESIAN_POINT ( 'NONE',  ( 3.888253587646774443E-16, 1.233579561989600171, 3.174999999999999822 ) ) ;
#28 = CARTESIAN_POINT ( 'NONE',  ( -2.436187538471293657, -1.233181647331636155, 2.130399406601558354 ) ) ;
#29 = CARTESIAN_POINT ( 'NONE',  ( -3.666174209354124081, 0.9499999999999995115, 2.602085213965210247E-15 ) ) ;
#30 = DIRECTION ( 'NONE',  ( 0.000000000000000000, 0.000000000000000000, -1.000000000000000000 ) ) ;
#31 = LINE ( 'NONE', #333, #409 ) ;
#32 = LINE ( 'NONE', #301, #436 ) ;
#33 = CARTESIAN_POINT ( 'NONE',  ( 0.000000000000000000, 0.000000000000000000, 0.000000000000000000 ) ) ;
#34 = PLANE ( 'NONE',  #44 ) ;
#35 = FACE_OUTER_BOUND ( 'NONE', #420, .T. ) ;
#36 = EDGE_LOOP ( 'NONE', ( #395, #276, #404, #231, #435, #236, #11 ) ) ;
#37 = CIRCLE ( 'NONE', #315, 3.146558967083456171 ) ;
#38 = CARTESIAN_POINT ( 'NONE',  ( -1.235864791576345434, 1.122403231617398411, 3.175000000000000266 ) ) ;
#39 = ORIENTED_EDGE ( 'NONE', *, *, #250, .T. ) ;
#40 = DIRECTION ( 'NONE',  ( 0.000000000000000000, -0.000000000000000000, -1.000000000000000000 ) ) ;
#41 = ORIENTED_EDGE ( 'NONE', *, *, #473, .T. ) ;
#42 = FILL_AREA_STYLE ('',( #394 ) ) ;
#43 = ORIENTED_EDGE ( 'NONE', *, *, #54, .T. ) ;
#44 = AXIS2_PLACEMENT_3D ( 'NONE', #380, #459, #337 ) ;
#45 = VECTOR ( 'NONE', #510, 1000.000000000000000 ) ;
#46 = DIRECTION ( 'NONE',  ( 0.000000000000000000, -0.000000000000000000, -1.000000000000000000 ) ) ;
#47 = ADVANCED_FACE ( 'NONE', ( #359 ), #123, .F. ) ;
#48 = VERTEX_POINT ( 'NONE', #201 ) ;
#49 = CARTESIAN_POINT ( 'NONE',  ( -1.833087104677060486, -0.9499999999999995115, -3.175000000000001599 ) ) ;
#50 = ORIENTED_EDGE ( 'NONE', *, *, #217, .T. ) ;
#51 = DIRECTION ( 'NONE',  ( 0.000000000000000000, 0.000000000000000000, 1.000000000000000000 ) ) ;
#52 = SURFACE_STYLE_USAGE ( .BOTH. , #406 ) ;
#53 = DIRECTION ( 'NONE',  ( -0.4999999999999998890, 0.000000000000000000, 0.8660254037844385966 ) ) ;
#54 = EDGE_CURVE ( 'NONE', #334, #391, #489, .T. ) ;
#55 = CONICAL_SURFACE ( 'NONE', #240, 3.146558967083455727, 1.047197551196604737 ) ;
#56 = CARTESIAN_POINT ( 'NONE',  ( 3.888253587646774443E-16, 1.233579561989600171, 3.174999999999999822 ) ) ;
#57 = PRODUCT_DEFINITION_SHAPE ( 'NONE', 'NONE',  #125 ) ;
#58 = CARTESIAN_POINT ( 'NONE',  ( 0.000000000000000000, 1.249999999999997558, 0.000000000000000000 ) ) ;
#59 = CARTESIAN_POINT ( 'NONE',  ( -1.833087104677060708, 0.9499999999999995115, -3.175000000000001155 ) ) ;
#60 = ORIENTED_EDGE ( 'NONE', *, *, #189, .F. ) ;
#61 = CARTESIAN_POINT ( 'NONE',  ( 3.853423367367155817E-16, 1.249999999999997558, 3.146558967083455727 ) ) ;
#62 = EDGE_CURVE ( 'NONE', #289, #88, #446, .T. ) ;
#63 = EDGE_LOOP ( 'NONE', ( #196, #89, #355, #349, #15, #85, #386 ) ) ;
#64 = CARTESIAN_POINT ( 'NONE',  ( -1.833087104677060930, -1.249999999999999334, 3.175000000000000266 ) ) ;
#65 = LINE ( 'NONE', #178, #398 ) ;
#66 = EDGE_CURVE ( 'NONE', #245, #80, #92, .T. ) ;
#67 = CONICAL_SURFACE ( 'NONE', #362, 3.666174209354124525, 1.047197551196604737 ) ;
#68 = CARTESIAN_POINT ( 'NONE',  ( -2.132395010966545712, 1.122805500267965328, -2.656583499199548726 ) ) ;
#69 = CARTESIAN_POINT ( 'NONE',  ( 3.059414132961652211, 1.206713126527464430, 1.050939280316133928 ) ) ;
#70 = EDGE_LOOP ( 'NONE', ( #248, #441 ) ) ;
#71 =( NAMED_UNIT ( * ) PLANE_ANGLE_UNIT ( ) SI_UNIT ( $, .RADIAN. ) );
#72 = CARTESIAN_POINT ( 'NONE',  ( 3.666174209354124081, 0.9499999999999995115, -1.084202172485504237E-15 ) ) ;
#73 = ORIENTED_EDGE ( 'NONE', *, *, #223, .F. ) ;
#74 = CARTESIAN_POINT ( 'NONE',  ( -1.833087104677060708, 0.9499999999999995115, -3.175000000000001155 ) ) ;
#75 = DIRECTION ( 'NONE',  ( 0.000000000000000000, -1.000000000000000000, 0.000000000000000000 ) ) ;
#76 = CARTESIAN_POINT ( 'NONE',  ( 0.6274379993957162061, -1.233579561989599505, -3.175000000000001599 ) ) ;
#77 = EDGE_CURVE ( 'NONE', #157, #154, #364, .T. ) ;
#78 = EDGE_LOOP ( 'NONE', ( #324, #309, #320, #243 ) ) ;
#79 = DIRECTION ( 'NONE',  ( 0.000000000000000000, 0.000000000000000000, -1.000000000000000000 ) ) ;
#80 = VERTEX_POINT ( 'NONE', #142 ) ;
#81 = ADVANCED_FACE ( 'NONE', ( #224 ), #102, .F. ) ;
#82 = DIRECTION ( 'NONE',  ( 1.000000000000000000, 0.000000000000000000, 0.000000000000000000 ) ) ;
#83 = ORIENTED_EDGE ( 'NONE', *, *, #335, .T. ) ;
#84 = CARTESIAN_POINT ( 'NONE',  ( 1.833087104677063151, 0.9499999999999959588, -3.175000000000001599 ) ) ;
#85 = ORIENTED_EDGE ( 'NONE', *, *, #365, .T. ) ;
#86 = EDGE_CURVE ( 'NONE', #208, #154, #32, .T. ) ;
#87 = CARTESIAN_POINT ( 'NONE',  ( 0.000000000000000000, 1.249999999999997558, 0.000000000000000000 ) ) ;
#88 = VERTEX_POINT ( 'NONE', #384 ) ;
#89 = ORIENTED_EDGE ( 'NONE', *, *, #223, .T. ) ;
#90 =( NAMED_UNIT ( * ) SI_UNIT ( $, .STERADIAN. ) SOLID_ANGLE_UNIT ( ) );
#91 = ORIENTED_EDGE ( 'NONE', *, *, #393, .F. ) ;
#92 = B_SPLINE_CURVE_WITH_KNOTS ( 'NONE', 3,
 ( #93, #407, #502, #204 ),
 .UNSPECIFIED., .F., .F.,
 ( 4, 4 ),
 ( 0.003995386356717293801, 0.005860318273239777803 ),
 .UNSPECIFIED. ) ;
#93 = CARTESIAN_POINT ( 'NONE',  ( -1.833087104677060486, -0.9499999999999995115, -3.175000000000001599 ) ) ;
#94 = VECTOR ( 'NONE', #166, 1000.000000000000000 ) ;
#95 = SURFACE_STYLE_FILL_AREA ( #42 ) ;
#96 = ORIENTED_EDGE ( 'NONE', *, *, #488, .T. ) ;
#97 = CARTESIAN_POINT ( 'NONE',  ( 0.000000000000000000, 1.249999999999997558, -3.146558967083455727 ) ) ;
#98 = CARTESIAN_POINT ( 'NONE',  ( 2.134020449948543341, 1.107898174753725984, -2.653768156298131231 ) ) ;
#99 = DIRECTION ( 'NONE',  ( -0.000000000000000000, 1.000000000000000000, -0.000000000000000000 ) ) ;
#100 = CARTESIAN_POINT ( 'NONE',  ( -2.903726902056610548, -1.233776848240156765, 1.320597474333374155 ) ) ;
#101 = CONICAL_SURFACE ( 'NONE', #387, 3.146558967083455727, 1.047197551196604737 ) ;
#102 = CYLINDRICAL_SURFACE ( 'NONE', #345, 2.000000000000000000 ) ;
#103 = VERTEX_POINT ( 'NONE', #295 ) ;
#104 = DIRECTION ( 'NONE',  ( 0.000000000000000000, 0.000000000000000000, 1.000000000000000000 ) ) ;
#105 = ADVANCED_FACE ( 'NONE', ( #430 ), #34, .F. ) ;
#106 = CARTESIAN_POINT ( 'NONE',  ( -3.666174209354122748, -1.249999999999999334, 5.879297062632080204E-16 ) ) ;
#107 = CARTESIAN_POINT ( 'NONE',  ( -3.063073775559887579, 1.233181647331636377, 1.044600593398445687 ) ) ;
#108 = CARTESIAN_POINT ( 'NONE',  ( 2.903726902056613213, 1.233776848240156099, 1.320597474333371046 ) ) ;
#109 = EDGE_CURVE ( 'NONE', #451, #103, #207, .T. ) ;
#110 = FACE_OUTER_BOUND ( 'NONE', #263, .T. ) ;
#111 = CARTESIAN_POINT ( 'NONE',  ( 3.888253587646774443E-16, 1.233579561989600171, 3.174999999999999822 ) ) ;
#112 = EDGE_LOOP ( 'NONE', ( #265, #73 ) ) ;
#113 = FACE_OUTER_BOUND ( 'NONE', #112, .T. ) ;
#114 = ORIENTED_EDGE ( 'NONE', *, *, #66, .F. ) ;
#115 = PLANE ( 'NONE',  #162 ) ;
#116 = VERTEX_POINT ( 'NONE', #134 ) ;
#117 = CARTESIAN_POINT ( 'NONE',  ( -1.833087104677059154, 0.9499999999999995115, 3.175000000000002487 ) ) ;
#118 = VERTEX_POINT ( 'NONE', #300 ) ;
#119 = CARTESIAN_POINT ( 'NONE',  ( 3.666174209354124525, -0.9499999999999995115, 6.505213034913026604E-16 ) ) ;
#120 = EDGE_LOOP ( 'NONE', ( #60, #193 ) ) ;
#121 = AXIS2_PLACEMENT_3D ( 'NONE', #233, #390, #40 ) ;
#122 = CARTESIAN_POINT ( 'NONE',  ( 4.173504974414337107E-16, 1.249999999999997558, 3.146558967083455727 ) ) ;
#123 = PLANE ( 'NONE',  #500 ) ;
#124 = CARTESIAN_POINT ( 'NONE',  ( -2.439847181069533910, -1.206713126527466207, -2.124060719683865894 ) ) ;
#125 = PRODUCT_DEFINITION ( 'UNKNOWN', '', #202, #255 ) ;
#126 = ORIENTED_EDGE ( 'NONE', *, *, #62, .F. ) ;
#127 = PRODUCT ( '4mm_banana_socket_nut', '4mm_banana_socket_nut', '', ( #396 ) ) ;
#128 = B_SPLINE_CURVE_WITH_KNOTS ( 'NONE', 3,
 ( #153, #476, #484, #279 ),
 .UNSPECIFIED., .F., .F.,
 ( 4, 4 ),
 ( 0.005860318273239779538, 0.007724211672967957326 ),
 .UNSPECIFIED. ) ;
#129 = CARTESIAN_POINT ( 'NONE',  ( -2.134020449948542453, -1.107898174753728204, -2.653768156298128567 ) ) ;
#130 = CARTESIAN_POINT ( 'NONE',  ( 3.063073775559890244, 1.233181647331635711, -1.044600593398445687 ) ) ;
#131 = CARTESIAN_POINT ( 'NONE',  ( 1.833087104677064483, -0.9499999999999995115, 3.174999999999999378 ) ) ;
#132 = ORIENTED_EDGE ( 'NONE', *, *, #242, .F. ) ;
#133 = CARTESIAN_POINT ( 'NONE',  ( 1.833087104677064483, -0.9499999999999995115, 3.174999999999999378 ) ) ;
#134 = CARTESIAN_POINT ( 'NONE',  ( 3.666174209354124525, -0.9499999999999995115, 6.505213034913026604E-16 ) ) ;
#135 = CARTESIAN_POINT ( 'NONE',  ( -1.982927533892890670, 1.036510412143833326, 2.915468763570254751 ) ) ;
#136 = CARTESIAN_POINT ( 'NONE',  ( 2.132395010966548377, 1.122805500267965551, 2.656583499199546949 ) ) ;
#137 = CARTESIAN_POINT ( 'NONE',  ( 0.000000000000000000, -1.249999999999999334, 2.000000000000000000 ) ) ;
#138 =( GEOMETRIC_REPRESENTATION_CONTEXT ( 3 ) GLOBAL_UNCERTAINTY_ASSIGNED_CONTEXT ( ( #167 ) ) GLOBAL_UNIT_ASSIGNED_CONTEXT ( ( #252, #291, #90 ) ) REPRESENTATION_CONTEXT ( 'NONE', 'WORKASPACE' ) );
#139 = EDGE_CURVE ( 'NONE', #88, #289, #269, .T. ) ;
#140 = CARTESIAN_POINT ( 'NONE',  ( 0.000000000000000000, -1.249999999999997558, 0.000000000000000000 ) ) ;
#141 =( NAMED_UNIT ( * ) SI_UNIT ( $, .STERADIAN. ) SOLID_ANGLE_UNIT ( ) );
#142 = CARTESIAN_POINT ( 'NONE',  ( 3.888253587678328879E-16, -1.233579561989599505, -3.175000000000001599 ) ) ;
#143 = FACE_OUTER_BOUND ( 'NONE', #36, .T. ) ;
#144 = FACE_OUTER_BOUND ( 'NONE', #287, .T. ) ;
#145 = EDGE_CURVE ( 'NONE', #334, #447, #65, .T. ) ;
#146 = LINE ( 'NONE', #432, #147 ) ;
#147 = VECTOR ( 'NONE', #350, 1000.000000000000000 ) ;
#148 = EDGE_CURVE ( 'NONE', #103, #424, #423, .T. ) ;
#149 = DIRECTION ( 'NONE',  ( 0.000000000000000000, 0.000000000000000000, 1.000000000000000000 ) ) ;
#150 = ORIENTED_EDGE ( 'NONE', *, *, #206, .F. ) ;
#151 = FACE_BOUND ( 'NONE', #120, .T. ) ;
#152 = VERTEX_POINT ( 'NONE', #339 ) ;
#153 = CARTESIAN_POINT ( 'NONE',  ( -3.470987982972451944E-26, -1.233579561989600393, 3.174999999999999822 ) ) ;
#154 = VERTEX_POINT ( 'NONE', #26 ) ;
#155 = VECTOR ( 'NONE', #247, 1000.000000000000000 ) ;
#156 = DIRECTION ( 'NONE',  ( 0.000000000000000000, 0.000000000000000000, -1.000000000000000000 ) ) ;
#157 = VERTEX_POINT ( 'NONE', #72 ) ;
#158 = CARTESIAN_POINT ( 'NONE',  ( 1.235864791576349209, -1.122403231617398411, 3.174999999999999378 ) ) ;
#159 = VERTEX_POINT ( 'NONE', #469 ) ;
#160 = DIRECTION ( 'NONE',  ( -0.8660254037844388186, 0.000000000000000000, 0.4999999999999997780 ) ) ;
#161 = VERTEX_POINT ( 'NONE', #175 ) ;
#162 = AXIS2_PLACEMENT_3D ( 'NONE', #440, #185, #46 ) ;
#163 = EDGE_CURVE ( 'NONE', #48, #157, #351, .T. ) ;
#164 = CARTESIAN_POINT ( 'NONE',  ( 2.134020449948544673, -1.107898174753727760, 2.653768156298127678 ) ) ;
#165 = VERTEX_POINT ( 'NONE', #462 ) ;
#166 = DIRECTION ( 'NONE',  ( -0.000000000000000000, 1.000000000000000000, -0.000000000000000000 ) ) ;
#167 = UNCERTAINTY_MEASURE_WITH_UNIT (LENGTH_MEASURE( 1.000000000000000082E-05 ), #252, 'distance_accuracy_value', 'NONE');
#168 = ORIENTED_EDGE ( 'NONE', *, *, #148, .F. ) ;
#169 = DIRECTION ( 'NONE',  ( 0.4999999999999997224, 0.000000000000000000, 0.8660254037844387076 ) ) ;
#170 = DIRECTION ( 'NONE',  ( 0.000000000000000000, -1.000000000000000000, 0.000000000000000000 ) ) ;
#171 = CIRCLE ( 'NONE', #9, 3.146558967083456171 ) ;
#172 = CARTESIAN_POINT ( 'NONE',  ( 0.6274379993957168722, 1.233579561989600393, 3.174999999999999822 ) ) ;
#173 = ORIENTED_EDGE ( 'NONE', *, *, #54, .F. ) ;
#174 = CARTESIAN_POINT ( 'NONE',  ( -3.666174209354124081, 0.9499999999999995115, 2.602085213965210247E-15 ) ) ;
#175 = CARTESIAN_POINT ( 'NONE',  ( 4.173504974414336614E-16, -1.249999999999997558, -3.146558967083456171 ) ) ;
#176 = EDGE_CURVE ( 'NONE', #165, #161, #171, .T. ) ;
#177 = LINE ( 'NONE', #64, #251 ) ;
#178 = CARTESIAN_POINT ( 'NONE',  ( 0.000000000000000000, 1.249999999999997558, -3.146558967083455727 ) ) ;
#179 = CIRCLE ( 'NONE', #381, 2.000000000000000000 ) ;
#180 = DIRECTION ( 'NONE',  ( -0.000000000000000000, 1.000000000000000000, -0.000000000000000000 ) ) ;
#181 = DIRECTION ( 'NONE',  ( -0.000000000000000000, 1.000000000000000000, -0.000000000000000000 ) ) ;
#182 = CARTESIAN_POINT ( 'NONE',  ( -1.236591795862496124, 1.122193363557215218, -3.175000000000001599 ) ) ;
#183 = SHAPE_DEFINITION_REPRESENTATION ( #57, #260 ) ;
#184 = CARTESIAN_POINT ( 'NONE',  ( -3.059414132961649990, -1.206713126527466651, 1.050939280316137037 ) ) ;
#185 = DIRECTION ( 'NONE',  ( 0.000000000000000000, -1.000000000000000000, 0.000000000000000000 ) ) ;
#186 = ORIENTED_EDGE ( 'NONE', *, *, #189, .T. ) ;
#187 = CARTESIAN_POINT ( 'NONE',  ( 2.436187538471296765, -1.233181647331635267, -2.130399406601557466 ) ) ;
#188 = ORIENTED_EDGE ( 'NONE', *, *, #163, .T. ) ;
#189 = EDGE_CURVE ( 'NONE', #152, #118, #373, .T. ) ;
#190 = PLANE ( 'NONE',  #275 ) ;
#191 = EDGE_LOOP ( 'NONE', ( #186, #280, #227, #492 ) ) ;
#192 = CARTESIAN_POINT ( 'NONE',  ( 2.903726902056612325, -1.233776848240155877, -1.320597474333372157 ) ) ;
#193 = ORIENTED_EDGE ( 'NONE', *, *, #335, .F. ) ;
#194 = AXIS2_PLACEMENT_3D ( 'NONE', #329, #170, #18 ) ;
#195 = CARTESIAN_POINT ( 'NONE',  ( 0.6277875928326875909, 1.233579561989599283, -3.175000000000001599 ) ) ;
#196 = ORIENTED_EDGE ( 'NONE', *, *, #429, .F. ) ;
#197 = EDGE_CURVE ( 'NONE', #447, #411, #426, .T. ) ;
#198 = ORIENTED_EDGE ( 'NONE', *, *, #445, .T. ) ;
#199 = APPLICATION_PROTOCOL_DEFINITION ( 'draft international standard', 'automotive_design', 1998, #439 ) ;
#200 = CARTESIAN_POINT ( 'NONE',  ( 2.595534411974575129, -1.233776848240156543, 1.854402525666627222 ) ) ;
#201 = CARTESIAN_POINT ( 'NONE',  ( 1.833087104677064483, 0.9499999999999995115, 3.174999999999999378 ) ) ;
#202 = PRODUCT_DEFINITION_FORMATION_WITH_SPECIFIED_SOURCE ( 'ANY', '', #127, .NOT_KNOWN. ) ;
#203 = CARTESIAN_POINT ( 'NONE',  ( -1.982927533892892447, -1.036510412143834214, -2.915468763570253419 ) ) ;
#204 = CARTESIAN_POINT ( 'NONE',  ( 3.888253587678328879E-16, -1.233579561989599505, -3.175000000000001599 ) ) ;
#205 = DIRECTION ( 'NONE',  ( -0.000000000000000000, 1.000000000000000000, -0.000000000000000000 ) ) ;
#206 = EDGE_CURVE ( 'NONE', #391, #334, #290, .T. ) ;
#207 = B_SPLINE_CURVE_WITH_KNOTS ( 'NONE', 3,
 ( #377, #383, #28, #100, #184, #216, #344, #416 ),
 .UNSPECIFIED., .F., .F.,
 ( 4, 2, 2, 4 ),
 ( 2.380740674706922612E-07, 0.001851557466009767870, 0.002777217161980916321, 0.003702876857952064771 ),
 .UNSPECIFIED. ) ;
#208 = VERTEX_POINT ( 'NONE', #511 ) ;
#209 = CARTESIAN_POINT ( 'NONE',  ( -1.833087104677059154, 0.9499999999999995115, 3.175000000000002487 ) ) ;
#210 = ORIENTED_EDGE ( 'NONE', *, *, #455, .T. ) ;
#211 = B_SPLINE_CURVE_WITH_KNOTS ( 'NONE', 3,
 ( #29, #503, #107, #268, #259, #428, #135, #209 ),
 .UNSPECIFIED., .F., .F.,
 ( 4, 2, 2, 4 ),
 ( 2.380740674735616647E-07, 0.001851557466009771990, 0.002777217161980920224, 0.003702876857952068675 ),
 .UNSPECIFIED. ) ;
#212 = CARTESIAN_POINT ( 'NONE',  ( -3.365240864082643668, 1.107898174753727760, -0.5212318437018704786 ) ) ;
#213 = DIRECTION ( 'NONE',  ( 0.000000000000000000, 0.000000000000000000, -1.000000000000000000 ) ) ;
#214 = ADVANCED_FACE ( 'NONE', ( #144 ), #55, .T. ) ;
#215 = CARTESIAN_POINT ( 'NONE',  ( 3.666174209354124525, -1.249999999999999334, -4.305185255295723459E-16 ) ) ;
#216 = CARTESIAN_POINT ( 'NONE',  ( -3.365240864082641004, -1.107898174753728648, 0.5212318437018739203 ) ) ;
#217 = EDGE_CURVE ( 'NONE', #154, #447, #246, .T. ) ;
#218 = LINE ( 'NONE', #215, #221 ) ;
#219 = DIRECTION ( 'NONE',  ( 0.000000000000000000, -1.000000000000000000, 0.000000000000000000 ) ) ;
#220 = B_SPLINE_CURVE_WITH_KNOTS ( 'NONE', 3,
 ( #117, #38, #271, #111 ),
 .UNSPECIFIED., .F., .F.,
 ( 4, 4 ),
 ( 0.003995386356717295535, 0.005860318273239776068 ),
 .UNSPECIFIED. ) ;
#221 = VECTOR ( 'NONE', #340, 1000.000000000000000 ) ;
#222 = DIRECTION ( 'NONE',  ( -0.000000000000000000, 1.000000000000000000, -0.000000000000000000 ) ) ;
#223 = EDGE_CURVE ( 'NONE', #161, #165, #37, .T. ) ;
#224 = FACE_OUTER_BOUND ( 'NONE', #191, .T. ) ;
#225 = B_SPLINE_CURVE_WITH_KNOTS ( 'NONE', 3,
 ( #272, #76, #442, #226 ),
 .UNSPECIFIED., .F., .F.,
 ( 4, 4 ),
 ( 0.005860318273239777803, 0.007724211672967956459 ),
 .UNSPECIFIED. ) ;
#226 = CARTESIAN_POINT ( 'NONE',  ( 1.833087104677060930, -0.9499999999999995115, -3.175000000000001599 ) ) ;
#227 = ORIENTED_EDGE ( 'NONE', *, *, #139, .F. ) ;
#228 = DIRECTION ( 'NONE',  ( 0.000000000000000000, -1.000000000000000000, 0.000000000000000000 ) ) ;
#229 = PRESENTATION_LAYER_ASSIGNMENT (  '', '', ( #463 ) ) ;
#230 =( GEOMETRIC_REPRESENTATION_CONTEXT ( 3 ) GLOBAL_UNCERTAINTY_ASSIGNED_CONTEXT ( ( #456 ) ) GLOBAL_UNIT_ASSIGNED_CONTEXT ( ( #299, #71, #141 ) ) REPRESENTATION_CONTEXT ( 'NONE', 'WORKASPACE' ) );
#231 = ORIENTED_EDGE ( 'NONE', *, *, #307, .T. ) ;
#232 = ADVANCED_FACE ( 'NONE', ( #110 ), #1, .F. ) ;
#233 = CARTESIAN_POINT ( 'NONE',  ( 0.000000000000000000, -1.249999999999999334, 0.000000000000000000 ) ) ;
#234 = ORIENTED_EDGE ( 'NONE', *, *, #467, .T. ) ;
#235 = CARTESIAN_POINT ( 'NONE',  ( 3.666174209354124525, -0.9499999999999995115, 6.505213034913026604E-16 ) ) ;
#236 = ORIENTED_EDGE ( 'NONE', *, *, #372, .T. ) ;
#237 = CARTESIAN_POINT ( 'NONE',  ( 3.365240864082644112, -1.107898174753727316, -0.5212318437018720330 ) ) ;
#238 = ADVANCED_FACE ( 'NONE', ( #305 ), #274, .F. ) ;
#239 = ORIENTED_EDGE ( 'NONE', *, *, #307, .F. ) ;
#240 = AXIS2_PLACEMENT_3D ( 'NONE', #87, #474, #156 ) ;
#241 = DIRECTION ( 'NONE',  ( 1.000000000000000000, 0.000000000000000000, 0.000000000000000000 ) ) ;
#242 = EDGE_CURVE ( 'NONE', #159, #451, #128, .T. ) ;
#243 = ORIENTED_EDGE ( 'NONE', *, *, #148, .T. ) ;
#244 = CARTESIAN_POINT ( 'NONE',  ( -3.366866303064639521, -1.122805500267965773, -0.5184165008004494313 ) ) ;
#245 = VERTEX_POINT ( 'NONE', #314 ) ;
#246 = B_SPLINE_CURVE_WITH_KNOTS ( 'NONE', 3,
 ( #84, #482, #195, #353 ),
 .UNSPECIFIED., .F., .F.,
 ( 4, 4 ),
 ( 0.003995386356717292933, 0.005860318273239777803 ),
 .UNSPECIFIED. ) ;
#247 = DIRECTION ( 'NONE',  ( 0.000000000000000000, 0.4999999999999939493, 0.8660254037844421493 ) ) ;
#248 = ORIENTED_EDGE ( 'NONE', *, *, #139, .T. ) ;
#249 = AXIS2_PLACEMENT_3D ( 'NONE', #288, #490, #17 ) ;
#250 = EDGE_CURVE ( 'NONE', #477, #347, #220, .T. ) ;
#251 = VECTOR ( 'NONE', #415, 1000.000000000000000 ) ;
#252 =( LENGTH_UNIT ( ) NAMED_UNIT ( * ) SI_UNIT ( .MILLI., .METRE. ) );
#253 = ORIENTED_EDGE ( 'NONE', *, *, #445, .F. ) ;
#254 = LINE ( 'NONE', #61, #480 ) ;
#255 = PRODUCT_DEFINITION_CONTEXT ( 'detailed design', #439, 'design' ) ;
#256 = CARTESIAN_POINT ( 'NONE',  ( 1.982927533892894445, 1.036510412143832660, -2.915468763570254307 ) ) ;
#257 = DIRECTION ( 'NONE',  ( 0.000000000000000000, 0.000000000000000000, 1.000000000000000000 ) ) ;
#258 = VECTOR ( 'NONE', #264, 1000.000000000000000 ) ;
#259 = CARTESIAN_POINT ( 'NONE',  ( -2.439847181069531246, 1.206713126527464874, 2.124060719683867227 ) ) ;
#260 = ADVANCED_BREP_SHAPE_REPRESENTATION ( '4mm_banana_socket_nut', ( #317, #283 ), #230 ) ;
#261 = CARTESIAN_POINT ( 'NONE',  ( 0.000000000000000000, 1.250000000000001110, 0.000000000000000000 ) ) ;
#262 = EDGE_CURVE ( 'NONE', #118, #289, #146, .T. ) ;
#263 = EDGE_LOOP ( 'NONE', ( #273, #496, #4, #114, #6, #464 ) ) ;
#264 = DIRECTION ( 'NONE',  ( -0.000000000000000000, 1.000000000000000000, -0.000000000000000000 ) ) ;
#265 = ORIENTED_EDGE ( 'NONE', *, *, #176, .F. ) ;
#266 = CARTESIAN_POINT ( 'NONE',  ( 0.000000000000000000, -1.249999999999999334, 0.000000000000000000 ) ) ;
#267 = EDGE_CURVE ( 'NONE', #80, #208, #225, .T. ) ;
#268 = CARTESIAN_POINT ( 'NONE',  ( -2.595534411974571132, 1.233776848240156099, 1.854402525666628998 ) ) ;
#269 = CIRCLE ( 'NONE', #332, 2.000000000000000000 ) ;
#270 = CARTESIAN_POINT ( 'NONE',  ( 3.365240864082644556, 1.107898174753727094, 0.5212318437018712558 ) ) ;
#271 = CARTESIAN_POINT ( 'NONE',  ( -0.6277875928326860366, 1.233579561989599949, 3.174999999999999822 ) ) ;
#272 = CARTESIAN_POINT ( 'NONE',  ( 3.888253587678328879E-16, -1.233579561989599505, -3.175000000000001599 ) ) ;
#273 = ORIENTED_EDGE ( 'NONE', *, *, #217, .F. ) ;
#274 = CYLINDRICAL_SURFACE ( 'NONE', #304, 2.000000000000000000 ) ;
#275 = AXIS2_PLACEMENT_3D ( 'NONE', #366, #160, #169 ) ;
#276 = ORIENTED_EDGE ( 'NONE', *, *, #429, .T. ) ;
#277 = CARTESIAN_POINT ( 'NONE',  ( 0.000000000000000000, -1.249999999999997558, 0.000000000000000000 ) ) ;
#278 = ORIENTED_EDGE ( 'NONE', *, *, #488, .F. ) ;
#279 = CARTESIAN_POINT ( 'NONE',  ( -1.833087104677060486, -0.9499999999999995115, 3.175000000000002487 ) ) ;
#280 = ORIENTED_EDGE ( 'NONE', *, *, #262, .T. ) ;
#281 = CARTESIAN_POINT ( 'NONE',  ( 3.063073775559891132, -1.233181647331635711, 1.044600593398443911 ) ) ;
#282 = EDGE_LOOP ( 'NONE', ( #316, #168, #357, #96 ) ) ;
#283 = AXIS2_PLACEMENT_3D ( 'NONE', #33, #51, #241 ) ;
#284 = CARTESIAN_POINT ( 'NONE',  ( 0.6277875928326870358, -1.233579561989600837, 3.174999999999999822 ) ) ;
#285 = ORIENTED_EDGE ( 'NONE', *, *, #86, .T. ) ;
#286 = LINE ( 'NONE', #450, #454 ) ;
#287 = EDGE_LOOP ( 'NONE', ( #12, #173, #371, #292, #234, #41, #39 ) ) ;
#288 = CARTESIAN_POINT ( 'NONE',  ( -3.666174209354122748, -1.249999999999999334, 5.879297062632080204E-16 ) ) ;
#289 = VERTEX_POINT ( 'NONE', #478 ) ;
#290 = CIRCLE ( 'NONE', #408, 3.146558967083455727 ) ;
#291 =( NAMED_UNIT ( * ) PLANE_ANGLE_UNIT ( ) SI_UNIT ( $, .RADIAN. ) );
#292 = ORIENTED_EDGE ( 'NONE', *, *, #197, .T. ) ;
#293 = ADVANCED_FACE ( 'NONE', ( #397 ), #101, .T. ) ;
#294 = FACE_OUTER_BOUND ( 'NONE', #63, .T. ) ;
#295 = CARTESIAN_POINT ( 'NONE',  ( -3.666174209354124969, -0.9499999999999995115, 3.252606517456513302E-15 ) ) ;
#296 = DIRECTION ( 'NONE',  ( 0.000000000000000000, 0.000000000000000000, 1.000000000000000000 ) ) ;
#297 = ADVANCED_FACE ( 'NONE', ( #385, #35 ), #115, .F. ) ;
#298 = CARTESIAN_POINT ( 'NONE',  ( 3.666174209354124081, 0.9499999999999995115, -1.084202172485504237E-15 ) ) ;
#299 =( LENGTH_UNIT ( ) NAMED_UNIT ( * ) SI_UNIT ( .MILLI., .METRE. ) );
#300 = CARTESIAN_POINT ( 'NONE',  ( 2.449293598294706414E-16, -1.249999999999999334, -2.000000000000000000 ) ) ;
#301 = CARTESIAN_POINT ( 'NONE',  ( 1.833087104677063151, -1.249999999999999334, -3.175000000000001599 ) ) ;
#302 = CARTESIAN_POINT ( 'NONE',  ( -2.436187538471294101, 1.233181647331636377, -2.130399406601555246 ) ) ;
#303 = DIRECTION ( 'NONE',  ( -0.000000000000000000, 1.000000000000000000, -0.000000000000000000 ) ) ;
#304 = AXIS2_PLACEMENT_3D ( 'NONE', #7, #308, #319 ) ;
#305 = FACE_OUTER_BOUND ( 'NONE', #322, .T. ) ;
#306 = B_SPLINE_CURVE_WITH_KNOTS ( 'NONE', 3,
 ( #27, #172, #418, #422 ),
 .UNSPECIFIED., .F., .F.,
 ( 4, 4 ),
 ( 0.005860318273239776068, 0.007724211672967959061 ),
 .UNSPECIFIED. ) ;
#307 = EDGE_CURVE ( 'NONE', #208, #116, #24, .T. ) ;
#308 = DIRECTION ( 'NONE',  ( -0.000000000000000000, 1.000000000000000000, -0.000000000000000000 ) ) ;
#309 = ORIENTED_EDGE ( 'NONE', *, *, #413, .F. ) ;
#310 = ADVANCED_FACE ( 'NONE', ( #151, #113 ), #311, .T. ) ;
#311 = PLANE ( 'NONE',  #121 ) ;
#312 = ORIENTED_EDGE ( 'NONE', *, *, #145, .F. ) ;
#313 = B_SPLINE_CURVE_WITH_KNOTS ( 'NONE', 3,
 ( #131, #158, #284, #412 ),
 .UNSPECIFIED., .F., .F.,
 ( 4, 4 ),
 ( 0.003995386356717292933, 0.005860318273239779538 ),
 .UNSPECIFIED. ) ;
#314 = CARTESIAN_POINT ( 'NONE',  ( -1.833087104677060486, -0.9499999999999995115, -3.175000000000001599 ) ) ;
#315 = AXIS2_PLACEMENT_3D ( 'NONE', #277, #388, #149 ) ;
#316 = ORIENTED_EDGE ( 'NONE', *, *, #473, .F. ) ;
#317 = MANIFOLD_SOLID_BREP ( 'Bruto-Borne_4mm-1', #427 ) ;
#318 = APPLICATION_CONTEXT ( 'automotive_design' ) ;
#319 = DIRECTION ( 'NONE',  ( 0.000000000000000000, 0.000000000000000000, 1.000000000000000000 ) ) ;
#320 = ORIENTED_EDGE ( 'NONE', *, *, #365, .F. ) ;
#321 = CARTESIAN_POINT ( 'NONE',  ( -3.063073775559889800, -1.233181647331636821, -1.044600593398442134 ) ) ;
#322 = EDGE_LOOP ( 'NONE', ( #453, #83, #210, #126 ) ) ;
#323 = CARTESIAN_POINT ( 'NONE',  ( -2.595534411974573352, -1.233776848240157209, -1.854402525666627222 ) ) ;
#324 = ORIENTED_EDGE ( 'NONE', *, *, #467, .F. ) ;
#325 = AXIS2_PLACEMENT_3D ( 'NONE', #508, #181, #505 ) ;
#326 = CARTESIAN_POINT ( 'NONE',  ( 1.982927533892895777, -1.036510412143834658, 2.915468763570251198 ) ) ;
#327 = ADVANCED_FACE ( 'NONE', ( #495 ), #190, .F. ) ;
#328 = EDGE_LOOP ( 'NONE', ( #150, #433, #198, #188, #438, #50, #312 ) ) ;
#329 = CARTESIAN_POINT ( 'NONE',  ( 0.000000000000000000, 1.250000000000001110, 0.000000000000000000 ) ) ;
#330 = LINE ( 'NONE', #448, #94 ) ;
#331 = CARTESIAN_POINT ( 'NONE',  ( 2.595534411974574240, 1.233776848240155877, -1.854402525666630330 ) ) ;
#332 = AXIS2_PLACEMENT_3D ( 'NONE', #261, #75, #213 ) ;
#333 = CARTESIAN_POINT ( 'NONE',  ( 4.489768510602107410E-16, -0.9499999999999995115, -3.666174209354124525 ) ) ;
#334 = VERTEX_POINT ( 'NONE', #97 ) ;
#335 = EDGE_CURVE ( 'NONE', #118, #152, #179, .T. ) ;
#336 = CARTESIAN_POINT ( 'NONE',  ( 1.833087104677063151, -1.249999999999999334, 3.174999999999999378 ) ) ;
#337 = DIRECTION ( 'NONE',  ( -0.5000000000000000000, 0.000000000000000000, -0.8660254037844385966 ) ) ;
#338 = CARTESIAN_POINT ( 'NONE',  ( 0.000000000000000000, -0.9499999999999995115, 0.000000000000000000 ) ) ;
#339 = CARTESIAN_POINT ( 'NONE',  ( 0.000000000000000000, -1.249999999999999334, 2.000000000000000000 ) ) ;
#340 = DIRECTION ( 'NONE',  ( -0.000000000000000000, 1.000000000000000000, -0.000000000000000000 ) ) ;
#341 = CARTESIAN_POINT ( 'NONE',  ( 0.000000000000000000, 1.249999999999997558, 0.000000000000000000 ) ) ;
#342 = CARTESIAN_POINT ( 'NONE',  ( -1.833087104677060486, -0.9499999999999995115, 3.175000000000002487 ) ) ;
#343 = DIRECTION ( 'NONE',  ( 0.000000000000000000, 0.000000000000000000, 1.000000000000000000 ) ) ;
#344 = CARTESIAN_POINT ( 'NONE',  ( -3.516333780138290344, -1.036510412143835547, 0.2595312364297496788 ) ) ;
#345 = AXIS2_PLACEMENT_3D ( 'NONE', #504, #180, #257 ) ;
#346 = CARTESIAN_POINT ( 'NONE',  ( 2.132395010966547044, -1.122805500267964440, -2.656583499199550058 ) ) ;
#347 = VERTEX_POINT ( 'NONE', #56 ) ;
#348 = CARTESIAN_POINT ( 'NONE',  ( 3.059414132961652655, -1.206713126527464874, -1.050939280316135482 ) ) ;
#349 = ORIENTED_EDGE ( 'NONE', *, *, #242, .T. ) ;
#350 = DIRECTION ( 'NONE',  ( -0.000000000000000000, 1.000000000000000000, -0.000000000000000000 ) ) ;
#351 = B_SPLINE_CURVE_WITH_KNOTS ( 'NONE', 3,
 ( #471, #136, #506, #108, #69, #270, #419, #298 ),
 .UNSPECIFIED., .F., .F.,
 ( 4, 2, 2, 4 ),
 ( 2.380740674736130161E-07, 0.001851557466009769604, 0.002777217161980918489, 0.003702876857952067374 ),
 .UNSPECIFIED. ) ;
#352 = ORIENTED_EDGE ( 'NONE', *, *, #163, .F. ) ;
#353 = CARTESIAN_POINT ( 'NONE',  ( -3.628760164016654305E-26, 1.233579561989599060, -3.175000000000001599 ) ) ;
#354 = EDGE_CURVE ( 'NONE', #391, #347, #254, .T. ) ;
#355 = ORIENTED_EDGE ( 'NONE', *, *, #402, .T. ) ;
#356 = LINE ( 'NONE', #498, #155 ) ;
#357 = ORIENTED_EDGE ( 'NONE', *, *, #109, .F. ) ;
#358 = DIRECTION ( 'NONE',  ( 1.060575238724911229E-16, -0.4999999999999939493, 0.8660254037844421493 ) ) ;
#359 = FACE_OUTER_BOUND ( 'NONE', #487, .T. ) ;
#360 = CARTESIAN_POINT ( 'NONE',  ( 2.439847181069535242, -1.206713126527465318, 2.124060719683864562 ) ) ;
#361 = DIRECTION ( 'NONE',  ( 0.000000000000000000, 0.000000000000000000, 1.000000000000000000 ) ) ;
#362 = AXIS2_PLACEMENT_3D ( 'NONE', #338, #99, #296 ) ;
#363 = PRODUCT_RELATED_PRODUCT_CATEGORY ( 'part', '', ( #127 ) ) ;
#364 = B_SPLINE_CURVE_WITH_KNOTS ( 'NONE', 3,
 ( #367, #19, #130, #331, #499, #98, #256, #414 ),
 .UNSPECIFIED., .F., .F.,
 ( 4, 2, 2, 4 ),
 ( 2.380740674732717677E-07, 0.001851557466009770472, 0.002777217161980918923, 0.003702876857952068241 ),
 .UNSPECIFIED. ) ;
#365 = EDGE_CURVE ( 'NONE', #103, #245, #3, .T. ) ;
#366 = CARTESIAN_POINT ( 'NONE',  ( 1.833087104677063151, -1.249999999999999334, -3.175000000000001599 ) ) ;
#367 = CARTESIAN_POINT ( 'NONE',  ( 3.666174209354124081, 0.9499999999999995115, -1.084202172485504237E-15 ) ) ;
#368 = CARTESIAN_POINT ( 'NONE',  ( -3.666174209354124969, -0.9499999999999995115, 3.252606517456513302E-15 ) ) ;
#369 = ORIENTED_EDGE ( 'NONE', *, *, #405, .F. ) ;
#370 = DIRECTION ( 'NONE',  ( -2.365849761790802036E-16, 0.000000000000000000, -1.000000000000000000 ) ) ;
#371 = ORIENTED_EDGE ( 'NONE', *, *, #145, .T. ) ;
#372 = EDGE_CURVE ( 'NONE', #494, #159, #313, .T. ) ;
#373 = CIRCLE ( 'NONE', #472, 2.000000000000000000 ) ;
#374 = CARTESIAN_POINT ( 'NONE',  ( -3.666174209354124081, 0.9499999999999995115, 2.602085213965210247E-15 ) ) ;
#375 = DIRECTION ( 'NONE',  ( 0.000000000000000000, -0.4999999999999939493, -0.8660254037844421493 ) ) ;
#376 = DIRECTION ( 'NONE',  ( -1.000000000000000000, 0.000000000000000000, 2.365849761790802036E-16 ) ) ;
#377 = CARTESIAN_POINT ( 'NONE',  ( -1.833087104677060486, -0.9499999999999995115, 3.175000000000002487 ) ) ;
#378 = ADVANCED_FACE ( 'NONE', ( #14 ), #403, .F. ) ;
#379 = CARTESIAN_POINT ( 'NONE',  ( -1.833087104677060708, 0.9499999999999995115, -3.175000000000001155 ) ) ;
#380 = CARTESIAN_POINT ( 'NONE',  ( -1.833087104677060930, -1.249999999999999334, 3.175000000000000266 ) ) ;
#381 = AXIS2_PLACEMENT_3D ( 'NONE', #444, #400, #410 ) ;
#382 = DIRECTION ( 'NONE',  ( 1.060575238724911229E-16, 0.4999999999999939493, -0.8660254037844421493 ) ) ;
#383 = CARTESIAN_POINT ( 'NONE',  ( -2.132395010966544380, -1.122805500267965328, 2.656583499199550058 ) ) ;
#384 = CARTESIAN_POINT ( 'NONE',  ( 0.000000000000000000, 1.250000000000001110, 2.000000000000000000 ) ) ;
#385 = FACE_BOUND ( 'NONE', #70, .T. ) ;
#386 = ORIENTED_EDGE ( 'NONE', *, *, #66, .T. ) ;
#387 = AXIS2_PLACEMENT_3D ( 'NONE', #434, #228, #79 ) ;
#388 = DIRECTION ( 'NONE',  ( -0.000000000000000000, 1.000000000000000000, -0.000000000000000000 ) ) ;
#389 = ORIENTED_EDGE ( 'NONE', *, *, #372, .F. ) ;
#390 = DIRECTION ( 'NONE',  ( 0.000000000000000000, -1.000000000000000000, 0.000000000000000000 ) ) ;
#391 = VERTEX_POINT ( 'NONE', #122 ) ;
#392 = APPLICATION_PROTOCOL_DEFINITION ( 'draft international standard', 'automotive_design', 1998, #318 ) ;
#393 = EDGE_CURVE ( 'NONE', #494, #48, #330, .T. ) ;
#394 = FILL_AREA_STYLE_COLOUR ( '', #507 ) ;
#395 = ORIENTED_EDGE ( 'NONE', *, *, #176, .T. ) ;
#396 = PRODUCT_CONTEXT ( 'NONE', #318, 'mechanical' ) ;
#397 = FACE_OUTER_BOUND ( 'NONE', #328, .T. ) ;
#398 = VECTOR ( 'NONE', #375, 1000.000000000000000 ) ;
#399 = ORIENTED_EDGE ( 'NONE', *, *, #421, .F. ) ;
#400 = DIRECTION ( 'NONE',  ( 0.000000000000000000, -1.000000000000000000, 0.000000000000000000 ) ) ;
#401 = ORIENTED_EDGE ( 'NONE', *, *, #206, .T. ) ;
#402 = EDGE_CURVE ( 'NONE', #165, #159, #356, .T. ) ;
#403 = PLANE ( 'NONE',  #249 ) ;
#404 = ORIENTED_EDGE ( 'NONE', *, *, #267, .T. ) ;
#405 = EDGE_CURVE ( 'NONE', #116, #494, #475, .T. ) ;
#406 = SURFACE_SIDE_STYLE ('',( #95 ) ) ;
#407 = CARTESIAN_POINT ( 'NONE',  ( -1.235864791576346544, -1.122403231617397967, -3.175000000000001599 ) ) ;
#408 = AXIS2_PLACEMENT_3D ( 'NONE', #341, #222, #343 ) ;
#409 = VECTOR ( 'NONE', #382, 1000.000000000000000 ) ;
#410 = DIRECTION ( 'NONE',  ( 0.000000000000000000, 0.000000000000000000, -1.000000000000000000 ) ) ;
#411 = VERTEX_POINT ( 'NONE', #59 ) ;
#412 = CARTESIAN_POINT ( 'NONE',  ( -3.470987982972451944E-26, -1.233579561989600393, 3.174999999999999822 ) ) ;
#413 = EDGE_CURVE ( 'NONE', #245, #411, #286, .T. ) ;
#414 = CARTESIAN_POINT ( 'NONE',  ( 1.833087104677063151, 0.9499999999999959588, -3.175000000000001599 ) ) ;
#415 = DIRECTION ( 'NONE',  ( -0.000000000000000000, 1.000000000000000000, -0.000000000000000000 ) ) ;
#416 = CARTESIAN_POINT ( 'NONE',  ( -3.666174209354124969, -0.9499999999999995115, 3.252606517456513302E-15 ) ) ;
#417 = AXIS2_PLACEMENT_3D ( 'NONE', #58, #20, #361 ) ;
#418 = CARTESIAN_POINT ( 'NONE',  ( 1.236591795862498122, 1.122193363557216106, 3.174999999999999378 ) ) ;
#419 = CARTESIAN_POINT ( 'NONE',  ( 3.516333780138293452, 1.036510412143833326, 0.2595312364297472918 ) ) ;
#420 = EDGE_LOOP ( 'NONE', ( #43, #401 ) ) ;
#421 = EDGE_CURVE ( 'NONE', #116, #157, #218, .T. ) ;
#422 = CARTESIAN_POINT ( 'NONE',  ( 1.833087104677064483, 0.9499999999999995115, 3.174999999999999378 ) ) ;
#423 = LINE ( 'NONE', #106, #258 ) ;
#424 = VERTEX_POINT ( 'NONE', #174 ) ;
#425 = CARTESIAN_POINT ( 'NONE',  ( -0.6274379993957158730, 1.233579561989599283, -3.175000000000001599 ) ) ;
#426 = B_SPLINE_CURVE_WITH_KNOTS ( 'NONE', 3,
 ( #509, #425, #182, #74 ),
 .UNSPECIFIED., .F., .F.,
 ( 4, 4 ),
 ( 0.005860318273239777803, 0.007724211672967958194 ),
 .UNSPECIFIED. ) ;
#427 = CLOSED_SHELL ( 'NONE', ( #293, #431, #81, #310, #297, #238, #497, #214, #232, #378, #105, #461, #47, #327 ) ) ;
#428 = CARTESIAN_POINT ( 'NONE',  ( -2.134020449948540232, 1.107898174753727316, 2.653768156298129899 ) ) ;
#429 = EDGE_CURVE ( 'NONE', #161, #80, #31, .T. ) ;
#430 = FACE_OUTER_BOUND ( 'NONE', #282, .T. ) ;
#431 = ADVANCED_FACE ( 'NONE', ( #143 ), #481, .T. ) ;
#432 = CARTESIAN_POINT ( 'NONE',  ( 2.449293598294706414E-16, -1.249999999999999334, -2.000000000000000000 ) ) ;
#433 = ORIENTED_EDGE ( 'NONE', *, *, #354, .T. ) ;
#434 = CARTESIAN_POINT ( 'NONE',  ( 0.000000000000000000, 1.249999999999997558, 0.000000000000000000 ) ) ;
#435 = ORIENTED_EDGE ( 'NONE', *, *, #405, .T. ) ;
#436 = VECTOR ( 'NONE', #303, 1000.000000000000000 ) ;
#437 = CARTESIAN_POINT ( 'NONE',  ( 1.833087104677060930, -0.9499999999999995115, -3.175000000000001599 ) ) ;
#438 = ORIENTED_EDGE ( 'NONE', *, *, #77, .T. ) ;
#439 = APPLICATION_CONTEXT ( 'automotive_design' ) ;
#440 = CARTESIAN_POINT ( 'NONE',  ( 0.000000000000000000, 1.250000000000001110, 0.000000000000000000 ) ) ;
#441 = ORIENTED_EDGE ( 'NONE', *, *, #62, .T. ) ;
#442 = CARTESIAN_POINT ( 'NONE',  ( 1.236591795862495680, -1.122193363557215662, -3.175000000000001599 ) ) ;
#443 = ORIENTED_EDGE ( 'NONE', *, *, #77, .F. ) ;
#444 = CARTESIAN_POINT ( 'NONE',  ( 0.000000000000000000, -1.249999999999999334, 0.000000000000000000 ) ) ;
#445 = EDGE_CURVE ( 'NONE', #347, #48, #306, .T. ) ;
#446 = CIRCLE ( 'NONE', #194, 2.000000000000000000 ) ;
#447 = VERTEX_POINT ( 'NONE', #465 ) ;
#448 = CARTESIAN_POINT ( 'NONE',  ( 1.833087104677063151, -1.249999999999999334, 3.174999999999999378 ) ) ;
#449 = DIRECTION ( 'NONE',  ( -0.8660254037844387076, 0.000000000000000000, -0.4999999999999999445 ) ) ;
#450 = CARTESIAN_POINT ( 'NONE',  ( -1.833087104677060486, -1.249999999999999334, -3.175000000000001599 ) ) ;
#451 = VERTEX_POINT ( 'NONE', #342 ) ;
#452 = CARTESIAN_POINT ( 'NONE',  ( 3.366866303064640409, -1.122805500267965328, 0.5184165008004518738 ) ) ;
#453 = ORIENTED_EDGE ( 'NONE', *, *, #262, .F. ) ;
#454 = VECTOR ( 'NONE', #205, 1000.000000000000000 ) ;
#455 = EDGE_CURVE ( 'NONE', #152, #88, #458, .T. ) ;
#456 = UNCERTAINTY_MEASURE_WITH_UNIT (LENGTH_MEASURE( 1.000000000000000082E-05 ), #299, 'distance_accuracy_value', 'NONE');
#457 = ORIENTED_EDGE ( 'NONE', *, *, #393, .T. ) ;
#458 = LINE ( 'NONE', #137, #45 ) ;
#459 = DIRECTION ( 'NONE',  ( 0.8660254037844387076, 0.000000000000000000, -0.5000000000000001110 ) ) ;
#460 = CARTESIAN_POINT ( 'NONE',  ( -3.516333780138292564, 1.036510412143834214, -0.2595312364297455154 ) ) ;
#461 = ADVANCED_FACE ( 'NONE', ( #501 ), #21, .F. ) ;
#462 = CARTESIAN_POINT ( 'NONE',  ( 0.000000000000000000, -1.249999999999997558, 3.146558967083456171 ) ) ;
#463 = STYLED_ITEM ( 'NONE', ( #486 ), #317 ) ;
#464 = ORIENTED_EDGE ( 'NONE', *, *, #197, .F. ) ;
#465 = CARTESIAN_POINT ( 'NONE',  ( -3.628760164016654305E-26, 1.233579561989599060, -3.175000000000001599 ) ) ;
#466 = DIRECTION ( 'NONE',  ( -0.000000000000000000, 1.000000000000000000, -0.000000000000000000 ) ) ;
#467 = EDGE_CURVE ( 'NONE', #411, #424, #13, .T. ) ;
#468 = CARTESIAN_POINT ( 'NONE',  ( -1.833087104677059154, 0.9499999999999995115, 3.175000000000002487 ) ) ;
#469 = CARTESIAN_POINT ( 'NONE',  ( -3.470987982972451944E-26, -1.233579561989600393, 3.174999999999999822 ) ) ;
#470 = CARTESIAN_POINT ( 'NONE',  ( -3.059414132961651767, 1.206713126527465763, -1.050939280316133928 ) ) ;
#471 = CARTESIAN_POINT ( 'NONE',  ( 1.833087104677064483, 0.9499999999999995115, 3.174999999999999378 ) ) ;
#472 = AXIS2_PLACEMENT_3D ( 'NONE', #266, #219, #30 ) ;
#473 = EDGE_CURVE ( 'NONE', #424, #477, #211, .T. ) ;
#474 = DIRECTION ( 'NONE',  ( 0.000000000000000000, -1.000000000000000000, 0.000000000000000000 ) ) ;
#475 = B_SPLINE_CURVE_WITH_KNOTS ( 'NONE', 3,
 ( #119, #452, #281, #200, #360, #164, #326, #493 ),
 .UNSPECIFIED., .F., .F.,
 ( 4, 2, 2, 4 ),
 ( 2.380740674736047311E-07, 0.001851557466009769171, 0.002777217161980917188, 0.003702876857952065639 ),
 .UNSPECIFIED. ) ;
#476 = CARTESIAN_POINT ( 'NONE',  ( -0.6274379993957167612, -1.233579561989600393, 3.174999999999999822 ) ) ;
#477 = VERTEX_POINT ( 'NONE', #468 ) ;
#478 = CARTESIAN_POINT ( 'NONE',  ( 2.449293598294706414E-16, 1.250000000000001110, -2.000000000000000000 ) ) ;
#479 = ORIENTED_EDGE ( 'NONE', *, *, #250, .F. ) ;
#480 = VECTOR ( 'NONE', #358, 1000.000000000000000 ) ;
#481 = CONICAL_SURFACE ( 'NONE', #325, 3.666174209354124525, 1.047197551196604737 ) ;
#482 = CARTESIAN_POINT ( 'NONE',  ( 1.235864791576348543, 1.122403231617397079, -3.175000000000001599 ) ) ;
#483 = EDGE_LOOP ( 'NONE', ( #479, #278, #132, #389, #457, #253 ) ) ;
#484 = CARTESIAN_POINT ( 'NONE',  ( -1.236591795862496124, -1.122193363557216328, 3.175000000000000266 ) ) ;
#485 = EDGE_LOOP ( 'NONE', ( #443, #399, #239, #285 ) ) ;
#486 = PRESENTATION_STYLE_ASSIGNMENT (( #52 ) ) ;
#487 = EDGE_LOOP ( 'NONE', ( #352, #91, #369, #8 ) ) ;
#488 = EDGE_CURVE ( 'NONE', #451, #477, #177, .T. ) ;
#489 = CIRCLE ( 'NONE', #417, 3.146558967083455727 ) ;
#490 = DIRECTION ( 'NONE',  ( 0.8660254037844387076, 0.000000000000000000, 0.4999999999999998890 ) ) ;
#491 = AXIS2_PLACEMENT_3D ( 'NONE', #336, #370, #376 ) ;
#492 = ORIENTED_EDGE ( 'NONE', *, *, #455, .F. ) ;
#493 = CARTESIAN_POINT ( 'NONE',  ( 1.833087104677064483, -0.9499999999999995115, 3.174999999999999378 ) ) ;
#494 = VERTEX_POINT ( 'NONE', #133 ) ;
#495 = FACE_OUTER_BOUND ( 'NONE', #485, .T. ) ;
#496 = ORIENTED_EDGE ( 'NONE', *, *, #86, .F. ) ;
#497 = ADVANCED_FACE ( 'NONE', ( #294 ), #67, .T. ) ;
#498 = CARTESIAN_POINT ( 'NONE',  ( 0.000000000000000000, -0.9499999999999995115, 3.666174209354124525 ) ) ;
#499 = CARTESIAN_POINT ( 'NONE',  ( 2.439847181069534354, 1.206713126527464208, -2.124060719683867671 ) ) ;
#500 = AXIS2_PLACEMENT_3D ( 'NONE', #22, #449, #53 ) ;
#501 = FACE_OUTER_BOUND ( 'NONE', #483, .T. ) ;
#502 = CARTESIAN_POINT ( 'NONE',  ( -0.6277875928326859256, -1.233579561989599505, -3.175000000000001599 ) ) ;
#503 = CARTESIAN_POINT ( 'NONE',  ( -3.366866303064638188, 1.122805500267966217, 0.5184165008004534281 ) ) ;
#504 = CARTESIAN_POINT ( 'NONE',  ( 0.000000000000000000, -1.249999999999999334, 0.000000000000000000 ) ) ;
#505 = DIRECTION ( 'NONE',  ( 0.000000000000000000, 0.000000000000000000, 1.000000000000000000 ) ) ;
#506 = CARTESIAN_POINT ( 'NONE',  ( 2.436187538471298097, 1.233181647331635933, 2.130399406601555246 ) ) ;
#507 = COLOUR_RGB ( '',0.7921568627450980005, 0.8196078431372548767, 0.9333333333333333481 ) ;
#508 = CARTESIAN_POINT ( 'NONE',  ( 0.000000000000000000, -0.9499999999999995115, 0.000000000000000000 ) ) ;
#509 = CARTESIAN_POINT ( 'NONE',  ( -3.628760164016654305E-26, 1.233579561989599060, -3.175000000000001599 ) ) ;
#510 = DIRECTION ( 'NONE',  ( -0.000000000000000000, 1.000000000000000000, -0.000000000000000000 ) ) ;
#511 = CARTESIAN_POINT ( 'NONE',  ( 1.833087104677060930, -0.9499999999999995115, -3.175000000000001599 ) ) ;
ENDSEC;
END-ISO-10303-21;
