M48
;Layer_Color=9474304
;FILE_FORMAT=2:4
INCH,LZ
;TYPE=PLATED
T1F00S00C0.0118
T2F00S00C0.0217
T3F00S00C0.0354
T4F00S00C0.0390
T5F00S00C0.0433
T6F00S00C0.0512
T8F00S00C0.0591
T9F00S00C0.0950
T10F00S00C0.1260
T11F00S00C0.1654
%
T01
X12444Y0755
X12465Y0755
X12486
Y07571
Y07592
Y07613
Y07634
Y07655
Y07676
Y07697
Y07718
Y07739
Y0776
X12465
X12444
Y07739
X12465
Y07718
X12444
Y07697
X12465Y07697
Y07676
Y07655
X12444Y07655
Y07634
X12465
Y07613
X12444
Y07592
X12465
Y07571
X12444
Y07676
X12507
Y07655
Y07634
Y07613
Y07592
Y07571
Y0755
X12568Y07477
X12589
X1261
Y07456
X12589
X12568
Y07435
Y07414
X12589
Y07435
X1261
X1261Y07414
X12631
X12652
X12652Y07435
X12673
X12673Y07414
X12694
Y07435
X12715
Y07414
X12736
Y07435
X12757
X12757Y07414
X12778
X12778Y07435
Y07456
Y07477
X12757
X12736
X12715
X12694
Y07456
X12715
X12736
X12757
X12673
X12652
X12631
Y07477
X12652
X12673
X12631Y07435
X12855Y0751
X12876Y0751
X12897
X12918
Y07531
Y07552
Y07573
Y07594
X12897
Y07573
Y07552
Y07531
X12876
X12855
Y07552
X12876
Y07573
X12855
Y07594
X12876
Y07615
Y07636
Y07657
X12855Y07657
Y07636
Y07615
X12897Y07615
Y07636
Y07657
X12918
Y07636
Y07615
Y07678
Y07699
Y0772
X12897
Y07699
Y07678
X12876
X12855
Y07699
X12876
Y0772
X12855
X12774Y07782
X12753
X12753Y07803
X12732
Y07782
X12711
Y07803
X1269
Y07782
X12669
X12669Y07803
X12648
X12627
X12627Y07782
X12648
X12606
X12606Y07803
X12585
Y07782
X12564
Y07803
X12507Y0776
Y07739
Y07718
Y07697
X12774Y07803
X13123Y07708
X13144
Y07687
X13123
Y07666
Y07645
Y07624
X13144Y07624
Y07603
X13123Y07603
Y07582
X13144
Y07561
X13123
Y0754
X13144
Y07519
X13123Y07519
Y07498
X13144Y07498
X13165
X13186
Y07519
Y0754
Y07561
Y07582
X13165
Y07561
Y0754
Y07519
Y07603
Y07624
Y07645
X13186
Y07624
Y07603
Y07666
Y07687
Y07708
X13165
Y07687
Y07666
X13144
Y07645
X13259Y07467
X1328
X1328Y07446
X13301
Y07467
X13322
Y07446
X13343
Y07467
X13364
X13364Y07446
X13385
X13406
X13406Y07467
X13385
X13427
X13427Y07446
X13448
Y07467
X13469
Y07446
Y07425
Y07404
X13448
X13427
Y07425
X13448
X13406
X13385
X13364
Y07404
X13385
X13406
X13343
X13322
X13301
X1328
Y07425
X13301
X13322
X13343
X13259
Y07404
Y07446
X13527Y07487
Y07508
Y07529
X13548
Y07508
Y07487
X13569
X1359
Y07508
X13569
Y07529
X1359Y07529
Y0755
Y07571
X13569Y07571
Y07592
X1359Y07592
Y07613
X13569
Y07634
X1359
Y07655
X13569
Y07676
X1359Y07676
Y07697
X13569Y07697
X13548
X13527
Y07676
Y07655
Y07634
Y07613
X13548
Y07634
Y07655
Y07676
Y07592
Y07571
Y0755
X13527
Y07571
Y07592
X13569Y0755
X13729Y07545
X1375
Y07566
X13729
Y07587
X1375
Y07608
X13729
Y07629
X1375
Y0765
X13729
X13771
Y07629
X13792
Y0765
X13813
Y07629
X13834
Y0765
X13855
X13876
X13897
Y07629
X13876
X13855
Y07608
X13876
X13897
Y07587
X13876
X13855
Y07566
X13876
X13897
Y07545
X13876
X13855
Y07524
X13876
X13897
Y07503
Y07482
X13876
Y07503
X13855
Y07482
Y07461
X13876
X13897
Y0744
X13876
X13855
Y07419
X13876
X13897
X13918
X13939
X1396
X13981
Y0744
Y07461
X1396
Y0744
X13939
Y07461
X13918
Y0744
Y07482
Y07503
Y07524
X13939
Y07503
X139485Y0751
X1396Y07503
Y07482
X13981
Y07503
Y07524
X1396
Y07545
X13981
Y07566
Y07587
Y07608
X1396
Y07587
Y07566
X13939
Y07545
X13918
Y07566
Y07587
X13939
Y07608
X13918
Y07629
Y0765
X13939
Y07629
X1396
Y0765
X13981
Y07629
X14002
Y0765
Y07608
Y07587
Y07566
Y07545
Y07524
Y07503
Y07482
Y07461
Y0744
Y07419
X13939Y07482
X13834
Y07503
Y07524
X13813
Y07503
Y07482
X13792
Y07503
Y07524
X13771
Y07503
Y07482
Y07461
X13792
X13813
X13834
Y0744
Y07419
X13813
Y0744
X13792
Y07419
X13771
Y0744
X1375
X13729
Y07461
X1375
Y07482
Y07503
Y07524
X13729
Y07503
Y07482
Y07419
X1375
X13771Y07545
X13792
X13813
X13834
Y07566
Y07587
Y07608
X13813
Y07587
Y07566
X13792
Y07587
Y07608
X13771
Y07587
Y07566
X149809Y075941
X150215Y076585
X150997Y076667
X14946Y077156
X148966Y078221
X148915Y079205
X148105Y079125
X148143Y079779
X148005Y080334
X147125Y080225
X147395Y080745
X147025Y081345
X147269Y079459
X147415Y078715
X14575Y079391
X14334Y080325
X14412Y0813
X14261Y08239
X141975Y083545
X141015Y083565
X140715Y084435
X1415Y084404
X143035Y084435
X143065Y084905
X142895Y085275
X142995Y083921
X144845Y08395
X145359Y083735
X147495Y083885
X147765Y083595
X147931Y083271
X148282Y082966
X148805Y083185
X148665Y082395
X151425Y081965
Y080865
X150905Y081305
X14751Y08611
X145205Y086191
X144535Y086215
X144265Y085965
X143999Y086374
X143375Y08625
X142375Y086515
X14218Y08604
X141015Y086195
X140935Y086575
X141155Y087175
X140956Y087533
X141465Y088035
X14187Y087671
X142855Y088055
X143755Y087369
X145801Y087676
X14669Y0914
X146922Y0929
X147495Y092975
X147275Y093215
X147962Y093195
X147545Y093665
X14458Y09346
X143791Y09305
X14196Y09354
X14087Y09094
X1409Y09063
X14086Y09014
X14083Y08234
X151335Y093525
X13936Y0937
X13924Y0915
X13915Y09121
X14061Y09159
X14055Y09014
X13874Y08958
X13869Y08895
X138165Y089115
X137755Y088725
X1368Y0882
X13748Y08733
X13807
X13863Y08732
X13916Y08733
X13992Y08732
X14025Y0876
X140065Y087785
X13977Y087908
X14057Y08695
X14029Y08632
X13992Y08569
X139005Y085615
X138635Y085285
X138079Y08508
X136805Y084965
X13623Y08666
X13405Y08736
X132595Y087165
X132235Y087245
X131856Y087174
X131885Y086695
X132274Y086813
X132615Y086675
X133048Y086682
X132995Y085065
X132565Y085045
X13257Y08548
X132095Y085475
X131253Y087211
X131256Y088041
X131255Y088575
X131235Y088945
X131255Y089605
Y089945
X130803Y090565
X12994Y08923
X13065Y08806
X13016Y08722
X12922Y08544
Y08523
X12901
Y08544
X1288
Y08523
X12859
X12838
X12817
X12817Y08523
X12796
X12775
Y08544
X12796
X12817
X12838
X12859
X12859Y08502
X12838
X12817
X12817Y08502
X12796
X12775
X12775Y08481
X12796
X12817
X12838
X12859
X1288
Y08502
X12901
X12922
Y08481
X12901
X12754
Y08502
X12733
Y08481
X12712
Y08502
Y08523
X12733
X12754
Y08544
X12733
X12712
X12607Y0867
X12586
Y08691
X12607
Y08712
X12586
Y08733
Y08754
Y08775
X12586
Y08775
Y08796
Y08796
Y08817
Y08817
Y08838
Y08838
Y08859
Y08859
Y0888
Y08901
Y08901
Y08922
Y08922
Y08943
X12607Y08943
Y08964
X12586
Y08964
X12565
Y08985
X12586
Y08985
X12607
X12628
X12649Y08985
X12649
Y08985
Y08964
Y08964
X1267Y08964
Y08985
X1267
Y09006
Y09027
X12691
Y09006
Y08985
Y08964
Y08943
X12712
Y08922
Y08922
Y08901
Y08901
Y0888
Y08859
Y08838
X12733
X12733
Y08859
X12733
Y0888
X12733
X12733Y0888
Y08901
Y08922
Y08943
Y08964
X12712
Y08964
Y08985
Y08985
X12733
Y08985
Y09006
Y09027
X12712Y09027
Y09006
Y09048
X12733
Y09069
X12712
Y0909
X12733
X12754
Y09069
Y09048
X12775
Y09069
Y0909
Y09027
Y09006
Y08985
Y08985
X12754
Y08985
Y09006
Y09027
Y08964
Y08943
X12775
Y08964
Y08922
Y08901
Y0888
X12754Y0888
X12754Y0888
Y08901
Y08922
X12754Y08859
X12754Y08859
X12754Y08838
X12754Y08838
X12775
Y08859
Y08817
X12754
X12754
X12733
X12733
Y08796
X12733
X12754
X12754
X12775
Y08775
X12754
X12754
X12733
X12733
X12712
Y08796
Y08817
X12691
Y08817
Y08796
Y08796
Y08775
Y08775
X1267
Y08796
Y08817
Y08838
Y08859
Y0888
X1267Y0888
Y08901
Y08922
X12649Y08922
Y08922
Y08901
Y08901
Y0888
Y08859
Y08859
Y08838
Y08838
Y08817
Y08817
Y08796
Y08796
Y08775
Y08775
X12628
X12628Y08775
Y08796
X12628Y08796
Y08817
X12628Y08817
Y08838
X12628Y08838
Y08859
X12628Y08859
X12628Y0888
X12628Y0888
Y08901
Y08922
X12607
Y08901
Y0888
X12607Y0888
Y08859
Y08838
Y08817
Y08796
Y08775
Y08754
Y08733
X12565Y08733
Y08754
Y08775
X12565
Y08796
Y08817
Y08838
Y08859
Y0888
X12565Y0888
Y08901
Y08922
X12544
Y08901
Y0888
X12544Y0888
Y08859
Y08838
X12523Y08838
X12523Y08838
Y08859
Y0888
Y08901
Y08922
Y08943
X12544Y08943
Y08964
X12523
Y08985
X12544
X12565Y08943
X12628Y08943
Y08964
X12649Y08943
X1267Y08943
X12691Y08922
Y08901
Y0888
Y08859
Y08859
Y08838
Y08838
X12544Y08817
Y08796
Y08796
Y08775
Y08775
Y08754
X12523
X12523Y08754
X12523Y08733
X12523Y08733
Y08712
X12502
Y08691
X12523
Y0867
X12502
X12544Y0867
X12565
Y08691
Y08712
X12544
Y08733
Y08733
X12502Y08733
X12502
Y08754
X12502Y08754
Y08775
X12502Y08775
X12523
X12523Y08775
Y08796
X12523Y08796
Y08817
X12523Y08817
X12502Y08817
Y08796
Y08838
X12544Y08691
X12628Y09006
Y09027
Y09048
X12649
Y09069
X12628
Y0909
X12649
X1267
Y09069
Y09048
X12691
Y09069
Y0909
X12649Y09027
Y09006
X12662Y09369
X12906Y093
X13346Y09305
X13475Y092995
X13563Y09283
X13594Y09272
X13588Y09309
X13679Y09282
X137246Y092666
X13811Y0925
X13657Y09169
X13652Y091
X1355Y09064
X13524Y09041
X13533Y09149
X134029Y091232
X13405Y09083
X1339Y09013
X13393Y08979
X13433Y09207
X1364Y08941
X13706Y08968
X13726Y08993
X139138Y084348
X139665Y084095
X139925Y083655
X140365Y084613
X14047Y0813
X138761Y081409
X13872Y0808
Y0808
Y08059
Y08059
Y08038
Y08038
X13851
X13851
Y08059
X13851Y08059
X13851Y0808
X13851Y0808
X1383Y0808
X13809
Y08059
X1383
Y08038
X13809Y08038
Y08017
Y07996
Y07996
X1383
X1383
X13851
X13851
Y07996
Y07996
X13851Y08017
X13851Y08017
X13872Y08017
Y08017
Y07996
Y07996
Y07975
Y07975
X13851
X13851
X13851Y07975
Y07954
Y07933
Y07933
Y07912
Y07912
Y07891
X13872Y07891
Y07912
Y07933
Y07954
X13893
Y07975
Y07975
Y07996
Y08017
X13914
Y07996
Y07975
Y07975
Y07954
Y07933
Y07912
Y07891
X13893
Y07912
Y07933
X1383Y07933
Y07912
Y07891
X13809
Y07912
Y07933
X13788Y07933
Y07954
X13809Y07954
Y07975
X13788
Y07996
X1383Y08017
Y07975
X1383Y07975
Y07954
X13788Y07912
Y07891
X13893Y08038
Y08059
Y0808
X13914
Y08059
Y08038
X13837Y08232
X13688Y08238
X13726Y08143
X12774Y07845
Y07824
X12753
Y07845
X12732
X12711
X1269
Y07824
X12711
X12732
X12669
X12648
X12627
Y07845
X12648
X12669
X12606
X12585
X12564
Y07824
X12585
X12606
X12269Y07871
X12248
X12227
X12206Y07871
Y07892
X12227
Y07913
X12206
Y07934
X12227
Y07955
X12206
Y07976
Y07997
X12227
Y08018
X12206Y08018
Y08039
X12227
Y0806
X12206
Y08081
X12227
Y08102
X12206
Y08123
Y08144
X12227
Y08144
Y08123
X12248
Y08144
Y08144
Y08165
Y08186
Y08207
Y08228
X12269
Y08207
Y08186
Y08165
Y08144
Y08144
Y08123
Y08102
X12248
Y08081
Y0806
Y08039
X12269
Y0806
Y08081
Y08018
Y07997
Y07976
X12248
Y07997
Y08018
X12227Y07976
X12248Y07955
Y07934
Y07913
Y07892
X12269
Y07913
Y07934
Y07955
X12227Y08165
X12206
Y08186
X12227
Y08207
X12206
Y08228
X12227
Y08249
Y0827
Y0827
X12206
Y08249
Y08291
X12227
Y08291
Y08312
X12206
Y08333
X12227
Y08354
X12206
Y08375
X12227
Y08375
Y08396
Y08396
Y08417
Y08417
X12206
Y08396
Y08438
X12227
Y08459
X12206
Y0848
X12227
Y08501
X12206
Y08522
Y08543
X12227
Y08543
Y08522
X12248
Y08543
Y08543
Y08564
Y08585
Y08606
Y08627
X12269
Y08606
Y08585
Y08564
Y08543
Y08543
Y08522
Y08501
X12248
Y0848
Y08459
Y08438
Y08417
Y08417
Y08396
Y08396
Y08375
Y08375
Y08354
Y08333
Y08312
X12269
Y08333
Y08354
Y08375
Y08375
Y08396
Y08396
Y08417
Y08417
Y08438
Y08459
Y0848
X12227Y08564
X12206
Y08585
X12227
Y08606
X12206
Y08627
X12227
Y08648
Y08669
X12206
Y08648
Y0869
Y08711
X12227
Y08732
X12206
Y08753
X12227
Y08774
X12206
Y08795
Y08816
X12227
Y08795
X12248
Y08816
X12269
Y08795
Y08774
X12248
Y08753
Y08732
Y08711
X12269
Y08732
Y08753
Y0869
Y08669
Y08648
X12248
Y08669
Y0869
X12227
X1246Y08691
X12481
Y0867
X1246
Y08712
X12481
Y08733
Y08754
Y08754
Y08775
Y08775
Y08796
Y08817
Y08838
X1246Y08775
Y08754
Y08733
X124Y09192
X12379
X12358
Y09213
X12379
X124
Y09234
X12379
X12358
Y09255
X12379
X124
Y09276
X12379
X12358
Y09297
X12379
X124
Y09318
Y09339
X12379
Y09318
X12358
Y09339
Y0936
X12379
X124
X12337
X12316
X12295
X12274
Y09339
Y09318
Y09297
X12295
Y09318
Y09339
X12316
Y09318
Y09297
X12337
Y09318
Y09339
Y09276
Y09255
Y09234
Y09213
X12316
Y09234
Y09255
Y09276
X12295
Y09255
Y09234
Y09213
X12274
Y09234
Y09255
Y09276
X12253
X12232
Y09255
X12253
Y09234
X12232
Y09213
X12253
Y09192
X12232Y09192
X12274Y09192
X12295
X12316
X12337
X12253Y09297
Y09318
Y09339
X12232Y09339
Y09318
Y09297
Y0936
X12253
X12248Y08291
Y08291
Y0827
Y0827
Y08249
X12269
Y0827
Y0827
Y08291
Y08291
X12274Y09381
X12295
X12316
X12337
Y09402
Y09423
X12316
Y09402
X12295
Y09423
X12274
Y09402
X12253
X12232
Y09381
X12253
Y09423
X12232
Y09444
X12253Y09444
Y09465
Y09465
X12232
Y09486
X12253
Y09507
X12232
Y09528
X12253
Y09549
X12232
Y0957
X12253Y0957
Y09591
Y09612
X12232Y09612
Y09591
X12274
Y0957
X12295
Y09591
Y09612
X12316
Y09591
Y0957
X12337
Y09591
Y09612
X12358
X12379
X124
Y09591
Y0957
X12379
Y09591
X12358
Y0957
Y09549
X12379
X124
Y09528
X12379
X12358
Y09507
X12379
X124
Y09486
X12379
X12358
Y09465
Y09465
Y09444
X12379
Y09465
Y09465
X124
Y09465
Y09444
Y09423
X12379
X12358
Y09402
X12379
X124
Y09381
X12379
X12358
X12337Y09444
Y09465
Y09465
X12316
Y09465
Y09444
X12295
Y09465
Y09465
X12274
Y09465
Y09444
Y09486
X12295
X12316
X12337
Y09507
Y09528
Y09549
X12316
Y09528
Y09507
X12295
Y09528
Y09549
X12274
Y09528
Y09507
Y09612
Y09633
X12295
X12316
X12337
Y09654
Y09675
Y09696
X12316
Y09675
Y09654
X12295
Y09675
Y09696
X12274
Y09675
Y09654
X12253
X12232
Y09675
X12253
Y09696
X12232
Y09717
X12253Y09717
Y09738
X12232
X12274
Y09717
X12295
Y09738
X12316
Y09717
X12337
Y09738
X12358
X12379
X124
Y09717
X12379
X12358
Y09696
X12379
X124
Y09675
X12379
X12358
Y09654
X12379
X124
Y09633
X12379
X12358
X12253
X12232
X12361Y09995
X12382Y09995
X12403
X12424
X12445
X12466
X12487
Y10016
Y10037
Y10058
Y10079
Y101
Y10121
Y10142
Y10163
Y10184
Y10205
Y10226
Y10247
Y10268
X12466
Y10247
X12445
Y10268
X12424
Y10247
X12403
Y10268
X12382
Y10247
X12361Y10247
Y10268
Y10226
X12382
Y10205
X12361
Y10184
X12382
Y10163
X12361
Y10142
X12382Y10142
Y10121
Y101
X12361Y101
Y10079
X12382
Y10058
X12361
Y10037
X12382
Y10016
X12361
X12403
X12424
X12445
X12466
Y10037
Y10058
Y10079
X12445
Y10058
Y10037
X12424
Y10058
Y10079
X12403
Y10058
Y10037
Y101
Y10121
Y10142
X12424
Y10121
Y101
X12445
Y10121
Y10142
X12466
Y10121
Y101
Y10163
Y10184
Y10205
Y10226
X12445
Y10205
Y10184
Y10163
X12424
Y10184
Y10205
Y10226
X12403
Y10205
Y10184
Y10163
X12361Y10121
X12352Y10436
X12331
X1231
X12289
Y10457
X1231
X12331
X12352
Y10478
Y10499
Y1052
X12331
Y10499
Y10478
X1231
Y10499
Y1052
X12289
Y10499
Y10478
X12268
X12247
Y10457
X12268
Y10436
X12247Y10436
Y10499
X12268
Y1052
X12247
Y10541
X12268Y10541
Y10562
Y10583
X12247Y10583
Y10562
X12289
Y10541
X1231
Y10562
Y10583
X12331
Y10562
Y10541
X12352
Y10562
Y10583
X12373
X12394
X12415
Y10562
Y10541
X12394
Y10562
X12373
Y10541
Y1052
X12394
X12415
Y10499
X12394
X12373
Y10478
X12394
X12415
Y10457
X12394
X12373
Y10436
X12394
X12415
Y10604
X12394
X12373
Y10625
X12394
X12415
Y10646
X12394
X12373
Y10667
X12394
X12415
Y10688
Y10709
X12394
Y10688
X12373
Y10709
X12352
Y10688
X12331
Y10709
X1231
Y10688
X12289
Y10709
X12268
Y10688
X12247Y10688
Y10709
Y10667
X12268
Y10646
X12247
Y10625
X12268
Y10604
X12247
X12289
X1231
X12331
X12352
Y10625
Y10646
Y10667
X12331
Y10646
Y10625
X1231
Y10646
Y10667
X12289
Y10646
Y10625
Y10583
X12508Y10268
X12529
Y10247
X12508
Y10226
X12529
Y10205
X12508
Y10184
X12529
Y10163
X12508
Y10142
X12529
Y10121
Y101
X12508
Y10121
Y10079
X12529
Y10058
X12508
Y10037
X12529
Y10016
X12508
Y09995
X12529
X12787Y09996
X12808
Y09975
X12787
Y09954
X12808
X12829
X1285
X12871
X12892
Y09975
Y09996
Y10017
X12871
Y09996
Y09975
X1285
Y09996
Y10017
X12829
Y09996
Y09975
Y09933
X1285
X12871
X12892
X12913
X12934
X12955
X12976
X12997
X13018
X13039
X1306
Y09954
Y09975
Y09996
Y10017
Y10038
Y10059
Y1008
Y10101
Y10122
Y10143
Y10164
Y10185
Y10206
Y10206
Y10227
Y10248
Y10269
Y1029
Y10311
Y10332
Y10353
Y10374
Y10395
Y10416
Y10437
Y10458
Y10479
X13039
Y10458
X13018
Y10479
X12997
Y10458
X12976
Y10479
X12955
Y10458
X12934
Y10479
X12913
Y10458
Y10437
X12934
X12955
Y10416
X12934
X12913
Y10395
X12934
X12955
Y10374
X12934
X12913
Y10353
X12934
X12955
Y10332
Y10311
X12934
Y10332
X12913
Y10311
Y1029
X12934
X12955
Y10269
X12934
X12913
Y10248
X12934
X12955
Y10227
X12934
X12913
Y10206
Y10206
Y10185
X12934
Y10206
Y10206
X12955
Y10206
Y10185
X12976
Y10206
Y10206
X12997
Y10206
Y10185
X13018
Y10206
Y10206
X13039
Y10206
Y10185
Y10164
Y10143
Y10122
Y10101
X13018
Y10122
Y10143
Y10164
X12997
Y10143
Y10122
Y10101
X12976
Y10122
Y10143
Y10164
X12955
X12934
X12913
Y10143
X12934
X12955
Y10122
X12934
X12913
Y10101
X12934
X12955
Y1008
Y10059
Y10038
X12934
Y10059
Y1008
X12913
Y10059
Y10038
Y10017
X12934
X12955
Y09996
X12934
X12913
Y09975
X12934
X12955
Y09954
X12934
X12913
X12976
X12997
X13018
X13039
Y09975
Y09996
Y10017
X13018
Y09996
Y09975
X12997
Y09996
Y10017
X12976
Y09996
Y09975
Y10038
Y10059
Y1008
X12997
Y10059
Y10038
X13018
Y10059
Y1008
X13039
Y10059
Y10038
X12892
Y10059
Y1008
X12871
Y10059
Y10038
X1285
Y10059
Y1008
X12829
Y10059
Y10038
X12808
Y10059
Y1008
X12787Y1008
Y10059
Y10038
Y10017
X12808
Y10101
X12787
Y10122
X12808
Y10143
X12787
Y10164
X12808
X12829
X1285
X12871
X12892
Y10143
Y10122
Y10101
X12871
Y10122
Y10143
X1285
Y10122
Y10101
X12829
Y10122
Y10143
Y10185
Y10206
Y10206
X1285
Y10206
Y10185
X12871
Y10206
Y10206
X12892
Y10206
Y10185
Y10227
Y10248
Y10269
Y1029
X12871
Y10269
Y10248
Y10227
X1285
Y10248
Y10269
Y1029
X12829
Y10269
Y10248
Y10227
X12808
X12787
Y10206
X12808
Y10206
Y10185
X12787Y10185
Y10248
X12808
Y10269
X12787
Y1029
X12808
Y10311
Y10332
Y10353
X12787Y10353
Y10332
Y10311
X12829Y10311
Y10332
Y10353
X1285
Y10332
Y10311
X12871
Y10332
Y10353
X12892
Y10332
Y10311
Y10374
Y10395
Y10416
Y10437
X12871
Y10416
Y10395
Y10374
X1285
Y10395
Y10416
Y10437
X12829
Y10416
Y10395
Y10374
X12808
X12787
Y10395
X12808
Y10416
X12787
Y10437
X12808
Y10458
Y10479
X12787
Y10458
X12829Y10458
Y10479
X1285
Y10458
X12871
Y10479
X12892
Y10458
X12976Y10437
X12997
X13018
X13039
Y10416
Y10395
Y10374
X13018
Y10395
Y10416
X12997
Y10395
Y10374
X12976
Y10395
Y10416
Y10353
Y10332
Y10311
X12997
Y10332
Y10353
X13018
Y10332
Y10311
X13039
Y10332
Y10353
Y1029
Y10269
Y10248
Y10227
X13018
Y10248
Y10269
Y1029
X12997
Y10269
Y10248
Y10227
X12976
Y10248
Y10269
Y1029
X12808Y09933
X12787Y09933
X1278Y10937
X12759
X12738
X12717
X12696
X12675
X12654
X12633
X12612
X12591
X1257Y10937
X12801Y10937
X12822
X12843
X13177Y10937
X13198Y10937
X13219
X1324
X13261
X13282
X13303
X13324
X13345
X13513Y0939
X13698Y09556
X142575Y09504
X14314Y09549
X14355Y09459
X14511Y09454
X14812Y09482
X14818Y09428
X14816Y09581
X14926Y09632
X151295Y095425
Y094474
X150815Y094265
X148004Y104433
X148152Y104582
X148301Y10473
X148152Y104878
X148004Y105027
X147855Y105175
X147707Y105324
X14741
X147261Y105472
X147113Y105621
Y105324
X147261Y105175
X147113Y105027
X146964Y105175
X146816Y105324
Y105027
X146964Y104878
X147261Y104878
X14741Y10473
X147261Y104582
X147113Y10473
X146964Y104582
Y104285
X147113Y104433
X147261Y104285
X147113Y104136
X146964Y103988
X147261Y103988
X14741Y104136
Y104433
X147707
X147558Y104285
Y104582
X147707Y10473
X147558Y104878
X147855
X148004Y10473
X147855Y104582
Y104285
X147707Y104136
X147558Y103988
X14741Y103839
X147261Y103691
X147113Y103839
X146816Y103839
X146964Y103691
X146816Y103542
X146667Y103691
X146519Y103839
Y103542
X14637Y103691
Y103988
X146667
X146519Y104136
X146816Y104136
Y104433
X146667Y104285
X146667Y104582
X146816Y10473
X146667Y104878
X146519Y105027
Y10473
Y104433
X14637Y104582
X146222Y10473
X14637Y104878
X14637Y105175
X146222Y105027
X146073Y105175
X146222Y105324
X146073Y105472
X145925Y105324
X145776Y105175
X145925Y105027
X146073Y104878
X145925Y10473
X145776Y104878
Y104582
X145628Y10473
X145479Y104878
X145331Y10473
X145479Y104582
X145628Y104433
X145479Y104285
X145331Y104433
X145182Y104582
Y104878
X145034Y10473
X144885Y104878
Y105175
X145034Y105027
X145182Y105175
X145034Y105324
X145182Y105472
X145331Y105324
X145331Y105621
X145479Y105472
Y105769
X145776
X145628Y105918
Y105621
X145925Y105621
X145776Y105472
X145628Y105324
X145479Y105175
X145628Y105027
X145331
X144737
X144588Y104878
X144737Y10473
X14444
X144588Y104582
X144885Y104582
Y104285
X145034Y104433
X145182Y104285
X145034Y104136
X145331
X145182Y103988
X145331Y103839
X145479Y103988
X145628Y103839
X145776Y103691
X145479
X145628Y103542
X145925Y103542
X145776Y103394
X145925Y103245
X146073Y103394
X146222Y103245
X146073Y103097
X14637
X146222Y102948
X14637Y1028
X146519Y102948
X146667Y103097
X146816Y103245
X146964Y103394
X147113Y103542
X146667Y103394
X14637
X146519Y103245
X146222Y103542
Y103839
X146073Y103691
X145925Y103839
Y104136
X146073Y103988
X146222Y104136
X146073Y104285
X145925Y104433
X145776Y104285
X145776Y103988
X145628Y104136
X14637Y104285
X146222Y104433
X146073Y104582
X146519Y105324
X146667Y105472
X14637
Y105769
X146519Y105918
X146667Y105769
X146519Y105621
X146816
X146964Y105769
X146816Y105918
X147113Y105918
X146964Y106066
X146816Y106215
X146667Y106363
X146519Y106215
X146667Y106066
X14637
X14637Y106363
X146222Y106512
X146073Y106363
X146222Y106215
X146073Y106066
X145925Y106215
X145776Y106066
X145925Y105918
X146222Y105918
X146073Y105769
X146222Y105621
X146667Y105175
X146964Y105472
X14741Y105621
X147558Y105472
Y105175
X147707Y105027
X14741
X147261Y105769
X146519Y106512
X14637Y10666
X1475Y10884
X147797
X147648Y108988
Y108692
X147945Y108692
Y108395
X148094Y108543
X148242Y108395
X148094Y108246
X148391
X148242Y108098
X148391Y107949
X148539Y108098
X148688Y107949
X148836Y107801
X148539
X148688Y107652
X148985Y107652
X148836Y107504
X148985Y107355
X149133Y107504
X149282Y107355
X149133Y107207
X14943
X149282Y107058
X14943Y10691
X149579Y107058
X149727Y107207
X149876Y107355
X150024Y107504
X150173Y107652
X150321Y107801
X15047Y107949
X150618Y108098
X150767Y108246
X150915Y108395
X151064Y108543
X151212Y108692
X151361Y10884
X151212Y108988
X151064Y109137
X150915Y109285
Y108988
X151064Y10884
X150915Y108692
X150767Y10884
X150618Y108988
Y108692
X15047Y10884
X150321Y108988
Y108692
X150173Y10884
X150024Y108988
Y109285
X150173Y109137
X150321Y109285
X15047Y109137
X150767
X150618Y109285
X150767Y108543
X150618Y108395
X15047Y108543
Y108246
X150173
X150321Y108395
X150173Y108543
X150024Y108395
Y108692
X149876Y108543
Y108246
X149727Y108395
X149727Y108692
X149876Y10884
X149727Y108988
X149579Y109137
Y10884
Y108543
X14943Y108692
X149282Y10884
X14943Y108988
X14943Y109285
X149282Y109137
X149133Y109285
X148985Y109137
X148836Y109285
X148539Y109285
X148688Y109137
X148391
X148539Y108988
X148688Y10884
X148391
X148539Y108692
X148836
X148985Y10884
X148836Y108988
X149133Y108988
Y108692
X149282Y108543
X14943Y108395
X149133
X149282Y108246
X149133Y108098
X148985Y108246
X148836Y108395
X148985Y108543
X148688Y108543
X148539Y108395
X148391Y108543
X148242Y108692
Y108988
X148094Y10884
X147945Y108988
Y109285
X148094Y109137
X148242Y109285
X147797Y109137
Y108543
X148688Y108246
X148836Y108098
X148985Y107949
X149282Y107949
Y107652
X149133Y107801
X14943
X149727
X149579Y107949
Y107652
X149876
Y107949
X150024Y107801
X150173Y107949
X150321Y108098
X150024Y108098
X149727Y108098
X149579Y108246
X14943Y108098
Y107504
X149727
X149579Y107355
X149876Y109137
X149727Y109285
X144737Y104433
X14288Y10957
Y10978
Y10999
Y1102
Y11041
Y11062
Y11083
Y11104
Y11125
Y11146
Y11167
Y11188
Y11209
Y1123
X14267
Y11209
X14246
Y1123
X14225
Y11209
X14204
Y1123
X14183
Y11209
X14162
Y1123
X14141
Y11209
Y11188
X14162
X14183
Y11167
X14162
X14141
Y11146
X14162
X14183
Y11125
X14162
X14141
Y11104
X14162
X14183
Y11083
Y11062
X14162
Y11083
X14141
Y11062
Y11041
X14162
X14183
Y1102
X14162
X14141
Y10999
X14162
X14183
Y10978
X14162
X14141
Y10957
X14162
X14183
X14204
X14225
X14246
X14267
Y10978
Y10999
Y1102
Y11041
X14246
Y1102
Y10999
Y10978
X14225
Y10999
Y1102
Y11041
X14204
Y1102
Y10999
Y10978
X1412
Y10999
Y1102
Y11041
X14099
Y1102
Y10999
Y10978
X14078
Y10999
Y1102
Y11041
Y11062
Y11083
Y11104
X14099
Y11083
Y11062
X1412
Y11083
Y11104
Y11125
Y11146
Y11167
Y11188
X14099
Y11167
Y11146
Y11125
X14078
Y11146
Y11167
Y11188
Y11209
Y1123
X14099
Y11209
X1412
Y1123
X14204Y11188
X14225
X14246
X14267
Y11167
Y11146
Y11125
X14246
Y11146
Y11167
X14225
Y11146
Y11125
X14204
Y11146
Y11167
Y11104
Y11083
Y11062
X14225
Y11083
Y11104
X14246
Y11083
Y11062
X14267
Y11083
Y11104
X1412Y10957
X14099
X14078
X148094Y109434
X148242Y109582
X148391Y109434
X148391Y109731
X148539Y109582
Y109879
X148836
X148688Y110028
Y109731
X148985Y109731
X148836Y109582
X148985Y109434
X149133Y109582
X149282Y109434
X149579Y109434
X149727Y109582
X14943
Y109879
X149579Y110028
X149727Y109879
X149579Y109731
X149876
X150024Y109879
X149876Y110028
X150173Y110028
X150024Y110176
X149876Y110325
X149727Y110473
X149579Y110325
X149727Y110176
X14943
X14943Y110473
X149282Y110622
X149133Y110473
X149282Y110325
X149133Y110176
X148985Y110325
X148836Y110176
X148985Y110028
X149282Y110028
X149133Y109879
X149282Y109731
X148688Y109434
X149876Y109434
X150024Y109582
X150173Y109434
X15047
X150321Y109582
X150173Y109731
X15047Y109731
X150618Y109582
X150767Y109434
X150321Y109879
X149579Y110622
X14943Y11077
X14057Y11083
X14057
Y11062
X14057
Y11041
X14057
Y1102
X14057
Y10999
X14057
Y10978
X14057
Y10957
X14057
X14036
X14036
X14015
X13994
X13973
Y10978
X13994
X14015
X14036
X14036
Y10999
X14036
X14015
Y1102
X14036
X14036
Y11041
X14036
X14015
X13994
Y1102
Y10999
X13973
Y1102
Y11041
Y11062
Y11083
Y11104
X13994
Y11083
Y11062
X14015
X14036
X14036
Y11083
X14036
Y11104
X14036
X14057
X14057
Y11125
X14057
Y11146
X14057
Y11167
X14057
Y11188
X14057
Y11209
X14057
Y1123
X14057
X14036
X14036
Y11209
X14036
X14015
Y1123
X13994
Y11209
X13973
Y1123
X13952
Y11209
X13931
X1391
Y1123
X13931
Y11188
X13952
Y11167
X13931
X1391
Y11188
X13889
Y11167
Y11146
Y11125
X13868
Y11146
Y11167
Y11188
X13847
Y11167
Y11146
Y11125
X13826
Y11146
Y11167
Y11188
Y11209
Y1123
X13847
Y11209
X13868
Y1123
X13889
Y11209
X13805
Y1123
X13784
Y11209
Y11188
X13805
Y11167
X13784
Y11146
X13805
Y11125
X13784
Y11104
X13805
Y11083
Y11062
X13784
Y11083
X13826
Y11062
X13847
Y11083
Y11104
X13868
Y11083
Y11062
X13889
Y11083
Y11104
X1391
X13931
X13952
Y11083
Y11062
X13931
Y11083
X1391
Y11062
Y11041
X13931
X13952
Y1102
X13931
X1391
Y10999
X13931
X13952
Y10978
X13931
X1391
Y10957
X13931
X13952
X13889
X13868
X13847
X13826
Y10978
X13847
X13868
X13889
Y10999
Y1102
Y11041
X13868
Y1102
Y10999
X13847
Y1102
Y11041
X13826
Y1102
Y10999
X13805
X13784
Y10978
X13805
Y10957
X13784
Y1102
X13805
Y11041
X13784
X13826Y11104
X1391Y11125
X13931
X13952
Y11146
X13931
X1391
X13973
X13994
X14015
X14036
X14036
Y11125
X14036
X14015
X13994
X13973
Y11167
X13994
X14015
X14036
X14036
Y11188
X14036
X14015
X13994
X13973
X14015Y11104
Y11083
X13345Y11084
Y11063
Y11042
X13324
Y11063
Y11084
X13303
Y11063
Y11042
Y11021
X13324
X13345
Y11
X13324
X13303
Y10979
X13324
X13345
Y10958
X13324
X13303
X13282
Y10979
Y11
Y11021
X13261
Y11
Y10979
Y10958
X1324
Y10979
Y11
Y11021
X13219
Y11
Y10979
Y10958
X13198
X13177
Y10979
X13198
Y11
X13177
Y11021
X13198
Y11042
Y11063
Y11084
X13177Y11084
Y11063
Y11042
X13219Y11042
Y11063
Y11084
X1324
Y11063
Y11042
X13261
Y11063
Y11084
X13282
Y11063
Y11042
Y11105
Y11126
Y11147
Y11168
X13261
Y11147
Y11126
Y11105
X1324
Y11126
Y11147
Y11168
X13219
Y11147
Y11126
Y11105
X13198
X13177
Y11126
X13198
Y11147
X13177
Y11168
X13198
Y11189
Y1121
X13177
Y11189
X13219Y11189
Y1121
X1324
Y11189
X13261
Y1121
X13282
Y11189
X13303
X13324
X13345
Y1121
X13324
X13303
Y11168
X13324
X13345
Y11147
X13324
X13303
Y11126
X13324
X13345
Y11105
X13324
X13303
X12843
Y11126
Y11147
Y11168
X12822
X12801
X1278
X12759
Y11147
Y11126
Y11105
X1278
Y11126
Y11147
X12801
Y11126
Y11105
X12822
Y11126
Y11147
Y11189
Y1121
X12801
Y11189
X1278
Y1121
X12759
Y11189
X12738
Y1121
X12717
X12696
Y11189
X12717
Y11168
X12696
Y11147
X12717
X12738
Y11126
X12717
X12696
Y11105
X12717
X12738
Y11084
X12717
X12696
Y11063
Y11042
X12717
Y11063
X12738
Y11042
Y11021
X12717
X12696
Y11
X12717
X12738
Y10979
X12717
X12696
Y10958
X12717
X12738
X12759
Y10979
Y11
Y11021
X1278
Y11
Y10979
Y10958
X12801
Y10979
Y11
Y11021
X12822
Y11
Y10979
Y10958
X12843
Y10979
Y11
Y11021
Y11042
Y11063
Y11084
X12822
Y11063
Y11042
X12801
Y11063
Y11084
X1278
Y11063
Y11042
X12759
Y11063
Y11084
X12675
Y11063
Y11042
X12654
Y11063
Y11084
X12633
Y11063
Y11042
X12612
Y11063
Y11084
X12591
Y11063
X1257
Y11042
Y11021
X12591
Y11
X1257
Y10979
X12591
Y10958
X1257
X12612
Y10979
Y11
Y11021
X12633
Y11
Y10979
Y10958
X12654
Y10979
Y11
Y11021
X12675
Y11
Y10979
Y10958
Y11105
X12654
X12633
X12612
Y11126
Y11147
Y11168
X12633
Y11147
Y11126
X12654
Y11147
Y11168
X12675
Y11147
Y11126
Y11189
Y1121
X12654
Y11189
X12633
Y1121
X12612
Y11189
X12591
Y1121
X1257
Y11189
Y11168
X12591
Y11147
X1257
Y11126
X12591
Y11105
X1257
Y11084
X12591Y11042
X12738Y11168
X12843Y11189
Y1121
T02
X130713Y090595
X131383Y090595
T03
X12549Y09068
X12349
X12294Y08605
X12494
X14003Y10732
Y10932
X144743Y10851
Y10651
T04
X1253Y09675
X1263
X1273
X13146
X13246
X13346
X138573
X139573
X140573
X14521
X14621
X14721
T05
X15082Y07782
X14982
Y07882
X15082
Y07982
Y08082
Y08182
Y08282
Y08382
Y08482
Y08582
Y08682
Y08782
X14982
Y08682
Y08582
Y08482
X14982Y08382
X14982Y08282
Y08182
Y08082
Y07982
Y08882
Y08982
X15082
Y08882
Y09082
Y09182
Y09282
X14982
X14982Y09182
Y09082
X1325Y09064
Y08964
Y08864
Y09164
X14982Y09382
Y09482
X15082
Y09582
Y09682
X14982
Y09582
X15082Y09382
T06
X128712Y079422
X131766Y080101
X130782Y08207
X131766Y084038
X128712Y083358
X135782Y084038
Y080101
X124696Y079422
X123712Y08139
X124696Y083358
T08
X13046Y10613
Y111506
T09
X14395Y1109
X14695
T10
X12286Y07457
X1506
Y11151
X12286
T11
X126821Y07631
X133431
M30
