G04*
G04 #@! TF.GenerationSoftware,Altium Limited,Altium Designer,21.9.2 (33)*
G04*
G04 Layer_Physical_Order=2*
G04 Layer_Color=16711680*
%FSTAX24Y24*%
%MOIN*%
G70*
G04*
G04 #@! TF.SameCoordinates,0CAA2080-A4D5-46B4-80B0-B41EDDDAA001*
G04*
G04*
G04 #@! TF.FilePolarity,Positive*
G04*
G01*
G75*
%ADD12C,0.0100*%
%ADD13C,0.0080*%
%ADD17C,0.0200*%
%ADD29R,0.0394X0.0374*%
%ADD31R,0.0374X0.0394*%
%ADD36R,0.0472X0.0551*%
%ADD41R,0.0551X0.0472*%
%ADD53R,0.0669X0.0984*%
%ADD83C,0.0800*%
G04:AMPARAMS|DCode=114|XSize=120mil|YSize=78.7mil|CornerRadius=0mil|HoleSize=0mil|Usage=FLASHONLY|Rotation=333.000|XOffset=0mil|YOffset=0mil|HoleType=Round|Shape=Round|*
%AMOVALD114*
21,1,0.0413,0.0787,0.0000,0.0000,333.0*
1,1,0.0787,-0.0184,0.0094*
1,1,0.0787,0.0184,-0.0094*
%
%ADD114OVALD114*%

G04:AMPARAMS|DCode=115|XSize=120mil|YSize=78.7mil|CornerRadius=0mil|HoleSize=0mil|Usage=FLASHONLY|Rotation=45.000|XOffset=0mil|YOffset=0mil|HoleType=Round|Shape=Round|*
%AMOVALD115*
21,1,0.0413,0.0787,0.0000,0.0000,45.0*
1,1,0.0787,-0.0146,-0.0146*
1,1,0.0787,0.0146,0.0146*
%
%ADD115OVALD115*%

G04:AMPARAMS|DCode=116|XSize=120mil|YSize=78.7mil|CornerRadius=0mil|HoleSize=0mil|Usage=FLASHONLY|Rotation=117.000|XOffset=0mil|YOffset=0mil|HoleType=Round|Shape=Round|*
%AMOVALD116*
21,1,0.0413,0.0787,0.0000,0.0000,117.0*
1,1,0.0787,0.0094,-0.0184*
1,1,0.0787,-0.0094,0.0184*
%
%ADD116OVALD116*%

G04:AMPARAMS|DCode=117|XSize=120mil|YSize=78.7mil|CornerRadius=0mil|HoleSize=0mil|Usage=FLASHONLY|Rotation=261.000|XOffset=0mil|YOffset=0mil|HoleType=Round|Shape=Round|*
%AMOVALD117*
21,1,0.0413,0.0787,0.0000,0.0000,261.0*
1,1,0.0787,0.0032,0.0204*
1,1,0.0787,-0.0032,-0.0204*
%
%ADD117OVALD117*%

G04:AMPARAMS|DCode=118|XSize=120mil|YSize=78.7mil|CornerRadius=0mil|HoleSize=0mil|Usage=FLASHONLY|Rotation=189.000|XOffset=0mil|YOffset=0mil|HoleType=Round|Shape=Round|*
%AMOVALD118*
21,1,0.0413,0.0787,0.0000,0.0000,189.0*
1,1,0.0787,0.0204,0.0032*
1,1,0.0787,-0.0204,-0.0032*
%
%ADD118OVALD118*%

%ADD119C,0.2559*%
%ADD120O,0.2756X0.1575*%
%ADD121C,0.1969*%
%ADD122C,0.0394*%
%ADD123O,0.0800X0.0700*%
%ADD124R,0.0800X0.0700*%
%ADD125C,0.1000*%
%ADD127R,0.1181X0.1181*%
%ADD128C,0.1181*%
%ADD129C,0.1378*%
%ADD130R,0.1378X0.1378*%
%ADD131R,0.1181X0.1181*%
%ADD132R,0.1500X0.2400*%
%ADD133O,0.1500X0.2400*%
%ADD134R,0.1378X0.1378*%
%ADD135O,0.0800X0.1181*%
%ADD136R,0.0800X0.1181*%
%ADD137O,0.0800X0.1000*%
%ADD138R,0.0800X0.1000*%
%ADD139C,0.0236*%
%ADD140R,0.1000X0.1000*%
G36*
X13618Y112515D02*
Y11191D01*
X13341Y10914D01*
X12798D01*
X12704Y1082D01*
Y10808D01*
X12678D01*
X12541Y10945D01*
Y11249D01*
X12542Y1125D01*
X136145Y11255D01*
X13618Y112515D01*
D02*
G37*
G36*
X14538Y11252D02*
Y10808D01*
X144994Y107694D01*
X143596D01*
X14289Y1084D01*
X142788D01*
X142774Y108414D01*
X142708Y108458D01*
X14263Y108474D01*
X13881D01*
X138732Y108458D01*
X138666Y108414D01*
X138006Y107754D01*
X137962Y107688D01*
X13795Y10763D01*
X13785Y10753D01*
Y10294D01*
X13897Y10182D01*
X14089D01*
X14343Y09928D01*
Y09651D01*
X14342D01*
X14282Y09591D01*
X13551D01*
X130567Y090967D01*
X13056Y090965D01*
X13047Y090913D01*
X130396Y090839D01*
X130343Y090748D01*
X130342Y090742D01*
X12921Y08961D01*
Y087D01*
X127323Y085758D01*
X127288D01*
X127225Y085741D01*
X127162Y085758D01*
X127078D01*
X126997Y085736D01*
X126925Y085695D01*
X126865Y085635D01*
X126824Y085563D01*
X126802Y085482D01*
Y085415D01*
X12605Y08492D01*
X12439D01*
X123874Y085436D01*
X123864Y085452D01*
X12386Y08547D01*
Y08782D01*
X123864Y087838D01*
X123874Y087854D01*
X12451Y08849D01*
X12451Y08849D01*
X12451Y08849D01*
X12457Y08855D01*
Y0911D01*
X124574Y091118D01*
X124584Y091134D01*
X124604Y091154D01*
X124604Y091154D01*
X124604Y091154D01*
X12586Y09241D01*
X12875D01*
X129022Y092682D01*
X129102D01*
X129183Y092704D01*
X129255Y092745D01*
X129315Y092805D01*
X129356Y092877D01*
X129378Y092958D01*
Y093038D01*
X130855Y094515D01*
X132196Y095856D01*
X132384Y096044D01*
X132384Y096044D01*
X132384Y096044D01*
X132384Y096044D01*
X132387Y096046D01*
X132393Y096051D01*
X132395Y096051D01*
X132396Y096052D01*
X132404Y096052D01*
X132404Y096052D01*
X132404D01*
X132407Y096052D01*
X132407D01*
X13246Y096047D01*
X132578Y096059D01*
X132597Y096065D01*
X132597D01*
X132691Y096093D01*
X132795Y096149D01*
X132886Y096224D01*
X132961Y096315D01*
X133017Y096419D01*
X133051Y096532D01*
X133063Y09665D01*
Y09685D01*
X133051Y096968D01*
X133029Y097042D01*
X133028Y097052D01*
X133025Y097062D01*
Y097072D01*
X133023Y097081D01*
Y10018D01*
X133011Y100298D01*
X132977Y100411D01*
X132968Y100428D01*
X132966Y100431D01*
X132966Y100431D01*
X132966Y100434D01*
X132962Y100443D01*
X132962Y100443D01*
X132961Y100453D01*
X13296Y100456D01*
X13296Y100456D01*
Y10814D01*
X13296Y10816D01*
X132961Y108161D01*
X132974Y108193D01*
X132974Y108194D01*
X133104Y108324D01*
X133104Y108324D01*
X133104Y108324D01*
X13731Y11253D01*
X14537D01*
X14538Y11252D01*
D02*
G37*
G36*
X14992Y11248D02*
X149829Y112413D01*
X149697Y112281D01*
X149587Y112131D01*
X149503Y111965D01*
X149445Y111787D01*
X149416Y111603D01*
Y111417D01*
X149445Y111233D01*
X149503Y111055D01*
X149587Y110889D01*
X149697Y110739D01*
X149829Y110607D01*
X149979Y110497D01*
X150145Y110413D01*
X150323Y110355D01*
X150507Y110326D01*
X150693D01*
X150877Y110355D01*
X151055Y110413D01*
X151221Y110497D01*
X151371Y110607D01*
X151503Y110739D01*
X15157Y11083D01*
X15162Y110814D01*
Y09629D01*
X151161D01*
X151147Y0963D01*
X151014Y096356D01*
X15087Y096375D01*
X15077D01*
X150626Y096356D01*
X150526Y096314D01*
X150327Y096513D01*
X15035Y096543D01*
X150406Y096676D01*
X150425Y09682D01*
X150406Y096964D01*
X15035Y097097D01*
X15031Y09715D01*
Y09745D01*
X1499Y09786D01*
X14727D01*
X14679Y09738D01*
Y097372D01*
X146784Y097367D01*
X146709Y097276D01*
X146653Y097171D01*
X146619Y097058D01*
X146607Y096941D01*
Y096559D01*
X146619Y096442D01*
X146653Y096329D01*
X146709Y096224D01*
X146756Y096166D01*
X14662Y09603D01*
X1459D01*
X14581Y09612D01*
Y097541D01*
X145658D01*
Y098032D01*
X14159Y1021D01*
X1392D01*
X13815Y10315D01*
Y10759D01*
X13815Y10759D01*
X138154Y107608D01*
X138164Y107624D01*
X138796Y108256D01*
X138812Y108266D01*
X13883Y10827D01*
X14261D01*
X142628Y108266D01*
X142644Y108256D01*
X14341Y10749D01*
X14516D01*
X14564Y10797D01*
Y11253D01*
X149904D01*
X14992Y11248D01*
D02*
G37*
G36*
X13296Y108468D02*
X13283Y108338D01*
X132819Y108322D01*
X132805Y108307D01*
X132794Y108292D01*
X132794Y108292D01*
X132786Y108273D01*
X132786Y108272D01*
X132786Y108271D01*
X132772Y108239D01*
X132772Y108238D01*
X132771Y108237D01*
X132764Y108218D01*
X13276Y1082D01*
Y10818D01*
X132756Y10816D01*
Y100456D01*
X132758Y100445D01*
X132758Y100443D01*
X132759Y10044D01*
X132758Y100433D01*
X132759Y100423D01*
X132764Y100407D01*
X132765Y100397D01*
X132766Y100394D01*
X132766Y100391D01*
X13277Y100382D01*
X132773Y100365D01*
X132777Y100356D01*
X132781Y10035D01*
X132782Y100347D01*
X132783Y100345D01*
X132787Y100335D01*
X132788Y100332D01*
X13281Y100258D01*
X132819Y10017D01*
Y097081D01*
X132821Y097072D01*
Y097062D01*
X132823Y097052D01*
Y097042D01*
X132825Y097032D01*
X132826Y097022D01*
X132829Y097013D01*
X13283Y097002D01*
X132833Y096993D01*
X132834Y096983D01*
X13285Y096928D01*
X132858Y096855D01*
X132857Y09685D01*
Y09665D01*
X132858Y096645D01*
X13285Y096572D01*
X132828Y096498D01*
X132791Y096429D01*
X132741Y096369D01*
X132681Y096319D01*
X132612Y096282D01*
X132538Y09626D01*
X13246Y096252D01*
X132427Y096255D01*
X132416Y096254D01*
X132414Y096255D01*
X132411Y096254D01*
X132404Y096256D01*
X132394D01*
X132378Y096252D01*
X132367D01*
X132364Y096252D01*
X132358Y096249D01*
X132335Y096247D01*
X132326Y096242D01*
X132316Y09624D01*
X132297Y096227D01*
X132291Y096225D01*
X132288Y096224D01*
X13228Y096217D01*
X132265Y096209D01*
X132257Y096203D01*
X132253Y096198D01*
X13225Y096196D01*
X132249Y096194D01*
X13224Y096188D01*
X13211Y096058D01*
X13206Y096079D01*
X13206Y096086D01*
X13206Y096086D01*
X13206Y096088D01*
Y09745D01*
X13086D01*
Y09605D01*
X132022Y09605D01*
X132024D01*
D01*
X132031Y09605D01*
X132036Y096038D01*
X132052Y096D01*
X130711Y094659D01*
X130711Y094659D01*
X130262Y09421D01*
X126954D01*
X12695Y094211D01*
X126913Y094257D01*
X126914Y09426D01*
Y094271D01*
X126914Y094271D01*
X126914Y094272D01*
Y096437D01*
X126911Y096453D01*
X126912Y096462D01*
X126903Y09655D01*
Y096941D01*
X126901Y09696D01*
Y09947D01*
X126912Y099578D01*
X126911Y099586D01*
X126914Y099602D01*
Y09963D01*
X126914Y099631D01*
X126914Y099631D01*
X126862Y107542D01*
X12822Y1089D01*
X13296D01*
Y108468D01*
D02*
G37*
G36*
X135148Y092694D02*
X134769Y092315D01*
X134535D01*
X134525Y092325D01*
X134453Y092366D01*
X134372Y092388D01*
X134288D01*
X134207Y092366D01*
X134135Y092325D01*
X134075Y092265D01*
X134034Y092193D01*
X134012Y092112D01*
Y092028D01*
X134034Y091947D01*
X134075Y091875D01*
X134135Y091815D01*
X134207Y091774D01*
X134288Y091752D01*
X134372D01*
X134453Y091774D01*
X134525Y091815D01*
X134535Y091825D01*
X13487D01*
X134964Y091844D01*
X135043Y091897D01*
X135658Y092512D01*
X135672D01*
X135693Y092517D01*
X135745Y092465D01*
X135817Y092424D01*
X135898Y092402D01*
X135912D01*
X136372Y091942D01*
X136315Y091885D01*
X136274Y091813D01*
X136252Y091732D01*
Y091717D01*
X135553D01*
X135525Y091745D01*
X135453Y091786D01*
X135372Y091808D01*
X135288D01*
X135207Y091786D01*
X135135Y091745D01*
X135075Y091685D01*
X135034Y091613D01*
X135012Y091532D01*
Y091477D01*
X134234D01*
X134225Y091487D01*
X134152Y091529D01*
X134071Y09155D01*
X133987D01*
X133906Y091529D01*
X133834Y091487D01*
X133775Y091428D01*
X133733Y091355D01*
X133711Y091274D01*
Y09119D01*
X133733Y09111D01*
X133775Y091037D01*
X133792Y09102D01*
X133754Y090953D01*
X133732Y090872D01*
Y090821D01*
X133702Y090808D01*
X13367Y090797D01*
X133649Y090785D01*
X13363Y090768D01*
X133608Y090754D01*
X1336Y090741D01*
X13359Y090732D01*
X133578Y090709D01*
X133564Y090687D01*
X133561Y090673D01*
X133555Y09066D01*
X133554Y090634D01*
X133549Y090609D01*
Y090466D01*
X133553Y090445D01*
X133553Y090424D01*
X133561Y090406D01*
X133564Y090388D01*
X133576Y09037D01*
X133584Y09035D01*
X133598Y090337D01*
X133608Y090322D01*
X133626Y09031D01*
X133633Y090303D01*
X133604Y090253D01*
X133582Y090172D01*
Y090088D01*
X133604Y090007D01*
X133645Y089935D01*
X133646Y089934D01*
X133634Y089913D01*
X133612Y089832D01*
Y089748D01*
X133634Y089667D01*
X133645Y089647D01*
X133631Y089634D01*
X133608Y089619D01*
X133601Y089608D01*
X133591Y089599D01*
X133579Y089575D01*
X133564Y089553D01*
X133562Y08954D01*
X133556Y089528D01*
X133554Y089501D01*
X133549Y089475D01*
Y088873D01*
X133544Y088835D01*
X133534Y088812D01*
X13351Y088781D01*
X133309Y08858D01*
X133278Y088556D01*
X133255Y088546D01*
X133217Y088541D01*
X133011D01*
X132998Y088539D01*
X132984Y08854D01*
X132959Y088531D01*
X132933Y088526D01*
X132922Y088518D01*
X132909Y088514D01*
X132889Y088496D01*
X132867Y088482D01*
X132859Y08847D01*
X132849Y088462D01*
X132797Y088393D01*
X132732Y088343D01*
X132268D01*
X132203Y088393D01*
X132148Y088465D01*
X132113Y08855D01*
X132101Y08864D01*
X132113Y08873D01*
X132148Y088815D01*
X132203Y088887D01*
X132284Y088949D01*
X132302Y08897D01*
X132323Y088988D01*
X132328Y088999D01*
X132337Y089009D01*
X132345Y089035D01*
X132352Y089048D01*
X132353Y089049D01*
X132353Y08905D01*
X132357Y08906D01*
X132362Y089076D01*
X132406Y08909D01*
X132411Y08909D01*
X13245Y089085D01*
X13255D01*
X132694Y089104D01*
X132827Y08916D01*
X132942Y089248D01*
X13303Y089363D01*
X133086Y089496D01*
X133105Y08964D01*
X133086Y089784D01*
X13303Y089917D01*
X132942Y090032D01*
X13284Y090111D01*
X132836Y090127D01*
Y090153D01*
X13284Y090169D01*
X132942Y090248D01*
X13303Y090363D01*
X133086Y090496D01*
X133105Y09064D01*
X133086Y090784D01*
X13303Y090917D01*
X132942Y091032D01*
X132929Y091043D01*
X132945Y09109D01*
X1331D01*
Y09219D01*
X132144D01*
X132125Y092236D01*
X132628Y09274D01*
X133296D01*
X133299Y092738D01*
X133372Y092708D01*
X13345Y092697D01*
X133528Y092708D01*
X133601Y092738D01*
X133604Y09274D01*
X135129D01*
X135148Y092694D01*
D02*
G37*
G36*
X147883Y095653D02*
X147905Y095615D01*
X147965Y095555D01*
X148037Y095514D01*
X148118Y095492D01*
X148202D01*
X148283Y095514D01*
X148289Y095517D01*
X149309D01*
X149378Y095428D01*
X14948Y095349D01*
X149484Y095333D01*
Y095307D01*
X14948Y095291D01*
X149465Y095279D01*
X149427Y095252D01*
Y095252D01*
X149427Y095252D01*
X148113D01*
Y095138D01*
X148078D01*
X147997Y095116D01*
X147925Y095075D01*
X147865Y095015D01*
X147824Y094943D01*
X147802Y094862D01*
Y094778D01*
X147824Y094697D01*
X147865Y094625D01*
X147925Y094565D01*
X147997Y094524D01*
X148078Y094502D01*
X148113D01*
Y094458D01*
X149354D01*
X149378Y094428D01*
X14948Y094349D01*
X149484Y094333D01*
Y094307D01*
X14948Y094291D01*
X149378Y094212D01*
X14929Y094097D01*
X149234Y093964D01*
X149215Y09382D01*
X149234Y093676D01*
X149267Y093596D01*
X14924Y093555D01*
X14874D01*
X148646Y093536D01*
X148567Y093483D01*
X147749Y092665D01*
X14382D01*
X143796Y092715D01*
X14381Y092732D01*
X143833D01*
X143863Y09274D01*
X1449D01*
X147821Y095661D01*
X147883Y095653D01*
D02*
G37*
G36*
X135269Y090705D02*
X135262Y090687D01*
Y090648D01*
X135193D01*
X135105Y090612D01*
X135038Y090545D01*
X135002Y090457D01*
Y090363D01*
X135013Y090335D01*
X134986Y090293D01*
X134074D01*
X134035Y090332D01*
X133947Y090368D01*
X133853D01*
X133797Y090345D01*
X133793Y090344D01*
X133749Y090351D01*
X133734Y090369D01*
X13373Y090378D01*
X133723Y090384D01*
X133718Y090391D01*
X133712Y090397D01*
X133702Y090403D01*
X133694Y090411D01*
X133692Y090413D01*
X133691Y090414D01*
X133689Y090416D01*
X133688Y090418D01*
X133682Y090428D01*
X133678Y090438D01*
X133676Y09044D01*
X133676Y090442D01*
X133675Y090444D01*
X133675Y090446D01*
X133674Y09045D01*
Y090622D01*
X133676Y090628D01*
X133676Y090635D01*
X13368Y090641D01*
X133684Y090649D01*
X133689Y090656D01*
X133692Y090662D01*
X133698Y090666D01*
X133704Y090672D01*
X133711Y090677D01*
X133721Y090686D01*
X133722Y090686D01*
X133742Y090693D01*
X133745Y090695D01*
X133749Y090696D01*
X133779Y090708D01*
X133787Y090713D01*
X133824Y090708D01*
X133848Y090696D01*
X133848Y090695D01*
X133848Y090695D01*
X133915Y090628D01*
X134003Y090592D01*
X134097D01*
X134185Y090628D01*
X134252Y090695D01*
X134273Y090747D01*
X135242D01*
X135269Y090705D01*
D02*
G37*
G36*
X140552Y090898D02*
X140574Y090817D01*
X140607Y090759D01*
X140604Y090753D01*
X140582Y090672D01*
Y090588D01*
X140586Y090574D01*
X14055Y09055D01*
X140439Y09044D01*
X140427Y090436D01*
X140355Y090395D01*
X140338Y090378D01*
X139837Y090879D01*
X139856Y090925D01*
X140552D01*
Y090898D01*
D02*
G37*
G36*
X132003Y090789D02*
X131992Y090763D01*
X131976Y09064D01*
X131992Y090517D01*
X132039Y090403D01*
X132115Y090305D01*
X132213Y090229D01*
X132327Y090182D01*
X13245Y090166D01*
X13255D01*
X132667Y090181D01*
X132674Y09018D01*
X132694Y09014D01*
X132674Y0901D01*
X132667Y090099D01*
X13255Y090114D01*
X13245D01*
X132327Y090098D01*
X132213Y090051D01*
X132115Y089975D01*
X132039Y089877D01*
X131992Y089763D01*
X131976Y08964D01*
X131992Y089517D01*
X132039Y089403D01*
X132115Y089305D01*
X132213Y089229D01*
X132257Y089211D01*
X132262Y089204D01*
X132268Y089181D01*
X132267Y089153D01*
X132264Y08915D01*
X13226Y089141D01*
X132253Y089133D01*
X132249Y08912D01*
X132243Y089107D01*
X132242Y089101D01*
X132241Y089101D01*
X132235Y089088D01*
X132233Y089081D01*
X13223Y089074D01*
X132227Y089066D01*
X132221Y089061D01*
X132216Y089055D01*
X13221Y08905D01*
X132205Y089045D01*
X132115Y088975D01*
X132039Y088877D01*
X131992Y088763D01*
X131976Y08864D01*
X131992Y088517D01*
X132039Y088403D01*
X132115Y088305D01*
X132213Y088229D01*
X132327Y088182D01*
X13245Y088166D01*
X13255D01*
X132673Y088182D01*
X132787Y088229D01*
X132885Y088305D01*
X132951Y088391D01*
X132957Y088395D01*
X132963Y0884D01*
X13297Y088404D01*
X132976Y08841D01*
X132983Y088411D01*
X132991Y088414D01*
X132999Y088415D01*
X133Y088416D01*
X13323D01*
X133316Y088433D01*
X133389Y088481D01*
X133609Y088701D01*
X133657Y088774D01*
X133674Y08886D01*
Y089487D01*
X133676Y089493D01*
X133676Y089501D01*
X133681Y089507D01*
X133684Y089515D01*
X133689Y089521D01*
X133692Y089528D01*
X133699Y089532D01*
X133704Y089538D01*
X133711Y089542D01*
X133726Y089555D01*
X133733Y089565D01*
X133742Y089572D01*
X133788Y089587D01*
X133804Y089584D01*
X133883Y089552D01*
X133977D01*
X134065Y089588D01*
X134104Y089627D01*
X13574D01*
X135802Y089639D01*
X135855Y089675D01*
X136178Y089997D01*
X137009D01*
X137022Y089977D01*
Y089918D01*
X137013D01*
X136925Y089882D01*
X136858Y089815D01*
X136822Y089727D01*
Y089633D01*
X136858Y089545D01*
X136925Y089478D01*
X137013Y089442D01*
X137107D01*
X137195Y089478D01*
X137254Y089537D01*
X138022D01*
X138484Y089075D01*
X138452Y088997D01*
Y088903D01*
X138488Y088815D01*
X138555Y088748D01*
X138643Y088712D01*
X138737D01*
X138825Y088748D01*
X138833Y088756D01*
X139515Y088075D01*
X139568Y088039D01*
X13963Y088027D01*
X140812D01*
X141347Y087492D01*
Y084588D01*
X141298Y084539D01*
X141262Y084452D01*
Y084357D01*
X141298Y084269D01*
X141365Y084202D01*
X141381Y084196D01*
X141371Y084146D01*
X140581D01*
X139844Y084883D01*
Y085433D01*
X139873Y085452D01*
X139967D01*
X140055Y085488D01*
X140122Y085555D01*
X140158Y085643D01*
Y085737D01*
X140122Y085825D01*
X140083Y085864D01*
Y086119D01*
X140133Y08614D01*
X140155Y086118D01*
X140243Y086082D01*
X140337D01*
X140425Y086118D01*
X140492Y086185D01*
X140528Y086273D01*
Y086367D01*
X140514Y086401D01*
Y086706D01*
X140523Y086712D01*
X140617D01*
X140705Y086748D01*
X140772Y086815D01*
X140808Y086903D01*
Y086997D01*
X140772Y087085D01*
X140705Y087152D01*
X140617Y087188D01*
X140523D01*
X140489Y087174D01*
X1404D01*
X140314Y087157D01*
X140241Y087109D01*
X140133Y087D01*
X140121Y087001D01*
X140083Y087013D01*
Y087146D01*
X140122Y087185D01*
X140158Y087273D01*
Y087367D01*
X140122Y087455D01*
X140055Y087522D01*
X139967Y087558D01*
X139873D01*
X139825Y087539D01*
X139779Y087609D01*
X139499Y087889D01*
X139426Y087937D01*
X13934Y087954D01*
X13717D01*
Y088298D01*
X137177D01*
Y088912D01*
X136543D01*
Y088396D01*
X136536D01*
Y087887D01*
X136536D01*
Y087354D01*
X135113D01*
X134629Y087839D01*
X134556Y087887D01*
X13447Y087904D01*
X131123D01*
X130866Y088162D01*
X130852Y088195D01*
X130785Y088262D01*
X130697Y088298D01*
X130603D01*
X130515Y088262D01*
X130493Y08824D01*
X130443Y088261D01*
Y089011D01*
X130449Y089019D01*
X130461Y089082D01*
Y089378D01*
X130449Y089441D01*
X130423Y089479D01*
Y089955D01*
X130747Y090278D01*
X130755D01*
X130836Y0903D01*
X130908Y090342D01*
X130923Y090357D01*
X130938Y090363D01*
X131005Y09043D01*
X131041Y090517D01*
Y090612D01*
X131029Y09064D01*
X131009Y090717D01*
X130974Y090777D01*
X130994Y090827D01*
X131975Y090831D01*
X132003Y090789D01*
D02*
G37*
G36*
X130396Y090558D02*
Y090553D01*
X130418Y090473D01*
X130441Y090434D01*
X130145Y090138D01*
X130109Y090085D01*
X130097Y090022D01*
Y089475D01*
X130047Y089443D01*
X129987Y089468D01*
X129893D01*
X129805Y089432D01*
X129738Y089365D01*
X129702Y089277D01*
Y089183D01*
X129716Y089149D01*
Y087933D01*
X129441Y087659D01*
X129393Y087586D01*
X129382Y087533D01*
X129332Y087538D01*
Y089559D01*
X13035Y090577D01*
X130396Y090558D01*
D02*
G37*
G36*
X137274Y087456D02*
X137242Y087377D01*
Y087283D01*
X137278Y087195D01*
X137327Y087146D01*
Y086788D01*
X137052Y086513D01*
X136481D01*
X136448Y086563D01*
X136468Y086613D01*
Y086707D01*
X136432Y086795D01*
X136371Y086856D01*
X136376Y086885D01*
X136386Y086906D01*
X13675D01*
X136836Y086923D01*
X136909Y086971D01*
X137011Y087074D01*
X13706Y087147D01*
X137077Y087233D01*
Y087273D01*
X13717D01*
Y087506D01*
X137254D01*
X137274Y087456D01*
D02*
G37*
G36*
X130515Y087858D02*
X130548Y087844D01*
X130871Y087521D01*
X130944Y087473D01*
X13103Y087456D01*
X133787D01*
X133815Y087414D01*
X133812Y087407D01*
Y087313D01*
X133848Y087225D01*
X133915Y087158D01*
X133948Y087144D01*
X134533Y086559D01*
X134514Y086513D01*
X133448D01*
X133286Y086675D01*
Y08673D01*
X13325Y086817D01*
X133183Y086884D01*
X133095Y08692D01*
X133D01*
X132913Y086884D01*
X132846Y086817D01*
X13281Y08673D01*
Y086635D01*
X132846Y086547D01*
X132913Y08648D01*
X133Y086444D01*
X133055D01*
X133226Y086273D01*
X133205Y086223D01*
X131938D01*
X130443Y087718D01*
Y087859D01*
X130493Y08788D01*
X130515Y087858D01*
D02*
G37*
G36*
X137864Y087456D02*
X137832Y087377D01*
Y087283D01*
X137868Y087195D01*
X137907Y087156D01*
Y086538D01*
X137592Y086223D01*
X137295D01*
X137274Y086273D01*
X137605Y086605D01*
X137641Y086658D01*
X137653Y08672D01*
Y087166D01*
X137682Y087195D01*
X137718Y087283D01*
Y087377D01*
X137686Y087456D01*
X137706Y087506D01*
X137844D01*
X137864Y087456D01*
D02*
G37*
G36*
X138433Y087459D02*
X138428Y087455D01*
X138392Y087367D01*
Y087273D01*
X138428Y087185D01*
X138467Y087146D01*
Y086508D01*
X137902Y085943D01*
X137845D01*
X137824Y085993D01*
X138185Y086355D01*
X138221Y086408D01*
X138233Y08647D01*
X138233Y08647D01*
Y087156D01*
X138272Y087195D01*
X138308Y087283D01*
Y087377D01*
X138276Y087456D01*
X138296Y087506D01*
X138414D01*
X138433Y087459D01*
D02*
G37*
G36*
X130107Y087619D02*
X130109Y087608D01*
X130145Y087555D01*
X130191Y087508D01*
X13017Y087458D01*
X130113D01*
X130025Y087422D01*
X129958Y087355D01*
X129922Y087267D01*
Y087173D01*
X129958Y087085D01*
X130025Y087018D01*
X130113Y086982D01*
X130167D01*
X131298Y085851D01*
X131279Y085805D01*
X129824D01*
Y087407D01*
X130053Y087636D01*
X130107Y087619D01*
D02*
G37*
G36*
X138954Y087456D02*
X138922Y087377D01*
Y087283D01*
X138958Y087195D01*
X139017Y087136D01*
Y086318D01*
X138342Y085643D01*
X138135D01*
X138114Y085693D01*
X138745Y086325D01*
X138781Y086378D01*
X138793Y08644D01*
Y087146D01*
X138832Y087185D01*
X138868Y087273D01*
Y087367D01*
X138832Y087455D01*
X138827Y087459D01*
X138846Y087506D01*
X138934D01*
X138954Y087456D01*
D02*
G37*
G36*
X148075Y086409D02*
Y08557D01*
X148094Y085476D01*
X148147Y085397D01*
X148897Y084647D01*
X148976Y084594D01*
X148968Y084545D01*
X148571D01*
X147465Y085651D01*
Y085789D01*
X147468Y085792D01*
X147552D01*
X147633Y085814D01*
X147705Y085855D01*
X147765Y085915D01*
X147806Y085987D01*
X147828Y086068D01*
Y086152D01*
X147806Y086233D01*
X147765Y086305D01*
X147755Y086315D01*
Y086664D01*
X147801Y086683D01*
X148075Y086409D01*
D02*
G37*
G36*
X142381Y084192D02*
X142362Y084146D01*
X141629D01*
X141619Y084196D01*
X141635Y084202D01*
X141702Y084269D01*
X141738Y084357D01*
Y084452D01*
X141702Y084539D01*
X141673Y084568D01*
Y084833D01*
X141723Y08485D01*
X142381Y084192D01*
D02*
G37*
G36*
X14654Y087279D02*
Y084113D01*
X146494Y084094D01*
X146026Y084562D01*
Y087596D01*
X146039Y087629D01*
Y087709D01*
X146083Y087733D01*
X146086Y087734D01*
X14654Y087279D01*
D02*
G37*
G36*
X145859Y087961D02*
X145858Y087958D01*
X145834Y087914D01*
X145754D01*
X145666Y087878D01*
X145599Y087811D01*
X145563Y087724D01*
Y087629D01*
X145577Y087596D01*
Y084469D01*
X145594Y084383D01*
X145643Y08431D01*
X146339Y083614D01*
X146121Y083397D01*
X146106Y083407D01*
X14602Y083424D01*
X13966D01*
X13822Y084865D01*
X13246D01*
X131754Y085571D01*
X131773Y085617D01*
X132315D01*
X132348Y085567D01*
X132332Y085527D01*
Y085433D01*
X132368Y085345D01*
X132435Y085278D01*
X132523Y085242D01*
X132617D01*
X132705Y085278D01*
X132744Y085317D01*
X13841D01*
X138472Y085329D01*
X138525Y085365D01*
X139295Y086135D01*
X139331Y086188D01*
X139343Y08625D01*
Y087126D01*
X139346Y087128D01*
X139396Y087101D01*
Y08479D01*
X139413Y084704D01*
X139461Y084631D01*
X14033Y083763D01*
X140403Y083714D01*
X140489Y083697D01*
X142915D01*
X142948Y083683D01*
X143043D01*
X14313Y08372D01*
X143197Y083787D01*
X143233Y083874D01*
Y083969D01*
X143197Y084056D01*
X14313Y084123D01*
X143051Y084156D01*
X142094Y085113D01*
Y085776D01*
X142133Y085802D01*
X142227D01*
X142261Y085816D01*
X142662D01*
X14463Y083848D01*
X144643Y083815D01*
X14471Y083748D01*
X144798Y083712D01*
X144893D01*
X14498Y083748D01*
X145047Y083815D01*
X145083Y083903D01*
Y083997D01*
X145047Y084085D01*
X14498Y084152D01*
X144947Y084166D01*
X142914Y086199D01*
X142841Y086247D01*
X142755Y086264D01*
X142261D01*
X142227Y086278D01*
X142133D01*
X142094Y086304D01*
Y08759D01*
X142108Y087623D01*
Y087718D01*
X142072Y087805D01*
X142005Y087872D01*
X141917Y087909D01*
X141823D01*
X141735Y087872D01*
X141668Y087805D01*
X141638Y087733D01*
X141595Y087718D01*
X141582Y087719D01*
X14118Y088121D01*
X141199Y088167D01*
X145652D01*
X145859Y087961D01*
D02*
G37*
G36*
X151083Y096102D02*
X151096Y096099D01*
X151108Y096093D01*
X151135Y096091D01*
X151161Y096086D01*
X15162D01*
Y075266D01*
X15157Y07525D01*
X151503Y075341D01*
X151371Y075473D01*
X151221Y075583D01*
X151055Y075667D01*
X150877Y075725D01*
X150693Y075754D01*
X150507D01*
X150323Y075725D01*
X150145Y075667D01*
X149979Y075583D01*
X149829Y075473D01*
X149697Y075341D01*
X149587Y075191D01*
X149503Y075025D01*
X149445Y074847D01*
X149416Y074663D01*
Y074477D01*
X149445Y074293D01*
X149503Y074115D01*
X149587Y073949D01*
X149697Y073799D01*
X149829Y073667D01*
X14992Y0736D01*
X149904Y07355D01*
X14901D01*
Y074082D01*
X149064Y074136D01*
X149108Y074202D01*
X149124Y07428D01*
Y07743D01*
X149108Y077508D01*
X149064Y077574D01*
X148304Y078334D01*
X148238Y078378D01*
X148218Y078382D01*
X1482Y0784D01*
X147D01*
X14607Y07933D01*
Y080997D01*
X14698D01*
X147058Y081008D01*
X147131Y081038D01*
X147144Y081047D01*
X147148Y081049D01*
X14722Y08109D01*
X14728Y08115D01*
X147321Y081222D01*
X147343Y081303D01*
Y081378D01*
X147364Y081393D01*
X147391Y081401D01*
X149186Y079606D01*
X149249Y079558D01*
X149291Y07954D01*
X149378Y079428D01*
X14948Y079349D01*
X149484Y079333D01*
Y079307D01*
X14948Y079291D01*
X149378Y079212D01*
X14929Y079097D01*
X149234Y078964D01*
X149215Y07882D01*
X149234Y078676D01*
X14929Y078543D01*
X149378Y078428D01*
X14948Y078349D01*
X149484Y078333D01*
Y078307D01*
X14948Y078291D01*
X149378Y078212D01*
X14929Y078097D01*
X149234Y077964D01*
X149215Y07782D01*
X149234Y077676D01*
X14929Y077543D01*
X149378Y077428D01*
X149493Y07734D01*
X149626Y077284D01*
X14977Y077265D01*
X14987D01*
X150014Y077284D01*
X150147Y07734D01*
X150262Y077428D01*
X150295Y07747D01*
X150345D01*
X150378Y077428D01*
X150493Y07734D01*
X150626Y077284D01*
X15077Y077265D01*
X15087D01*
X151014Y077284D01*
X151147Y07734D01*
X151262Y077428D01*
X15135Y077543D01*
X151406Y077676D01*
X151425Y07782D01*
X151406Y077964D01*
X15135Y078097D01*
X151262Y078212D01*
X15116Y078291D01*
X151156Y078307D01*
Y078333D01*
X15116Y078349D01*
X151262Y078428D01*
X15135Y078543D01*
X151406Y078676D01*
X151425Y07882D01*
X151406Y078964D01*
X15135Y079097D01*
X151262Y079212D01*
X15116Y079291D01*
X151156Y079307D01*
Y079333D01*
X15116Y079349D01*
X151262Y079428D01*
X15135Y079543D01*
X151406Y079676D01*
X151425Y07982D01*
X151406Y079964D01*
X15135Y080097D01*
X151262Y080212D01*
X151147Y0803D01*
X151014Y080356D01*
X15087Y080375D01*
X15077D01*
X150626Y080356D01*
X150493Y0803D01*
X150378Y080212D01*
X150345Y08017D01*
X150295D01*
X150262Y080212D01*
X15016Y080291D01*
X150156Y080307D01*
Y080333D01*
X15016Y080349D01*
X150262Y080428D01*
X15035Y080543D01*
X150406Y080676D01*
X150425Y08082D01*
X150406Y080964D01*
X15035Y081097D01*
X150262Y081212D01*
X15016Y081291D01*
X150156Y081307D01*
Y081333D01*
X15016Y081349D01*
X150262Y081428D01*
X15035Y081543D01*
X150406Y081676D01*
X150425Y08182D01*
X150406Y081964D01*
X15035Y082097D01*
X150262Y082212D01*
X15016Y082291D01*
X150156Y082307D01*
Y082333D01*
X15016Y082349D01*
X150262Y082428D01*
X150295Y08247D01*
X150345D01*
X150378Y082428D01*
X150493Y08234D01*
X150626Y082284D01*
X15077Y082265D01*
X15087D01*
X151014Y082284D01*
X151147Y08234D01*
X151262Y082428D01*
X15135Y082543D01*
X151406Y082676D01*
X151425Y08282D01*
X151406Y082964D01*
X15135Y083097D01*
X151262Y083212D01*
X15116Y083291D01*
X151156Y083307D01*
Y083333D01*
X15116Y083349D01*
X151262Y083428D01*
X15135Y083543D01*
X151406Y083676D01*
X151425Y08382D01*
X151406Y083964D01*
X15135Y084097D01*
X151262Y084212D01*
X15116Y084291D01*
X151156Y084307D01*
Y084333D01*
X15116Y084349D01*
X151262Y084428D01*
X15135Y084543D01*
X151406Y084676D01*
X151425Y08482D01*
X151406Y084964D01*
X15135Y085097D01*
X151262Y085212D01*
X15116Y085291D01*
X151156Y085307D01*
Y085333D01*
X15116Y085349D01*
X151262Y085428D01*
X15135Y085543D01*
X151406Y085676D01*
X151425Y08582D01*
X151406Y085964D01*
X15135Y086097D01*
X151262Y086212D01*
X15116Y086291D01*
X151156Y086307D01*
Y086333D01*
X15116Y086349D01*
X151262Y086428D01*
X15135Y086543D01*
X151406Y086676D01*
X151425Y08682D01*
X151406Y086964D01*
X15135Y087097D01*
X151262Y087212D01*
X15116Y087291D01*
X151156Y087307D01*
Y087333D01*
X15116Y087349D01*
X151262Y087428D01*
X15135Y087543D01*
X151406Y087676D01*
X151425Y08782D01*
X151406Y087964D01*
X15135Y088097D01*
X151262Y088212D01*
X15116Y088291D01*
X151156Y088307D01*
Y088333D01*
X15116Y088349D01*
X151262Y088428D01*
X15135Y088543D01*
X151406Y088676D01*
X151425Y08882D01*
X151406Y088964D01*
X15135Y089097D01*
X151262Y089212D01*
X15116Y089291D01*
X151156Y089307D01*
Y089333D01*
X15116Y089349D01*
X151262Y089428D01*
X15135Y089543D01*
X151406Y089676D01*
X151425Y08982D01*
X151406Y089964D01*
X15135Y090097D01*
X151262Y090212D01*
X15116Y090291D01*
X151156Y090307D01*
Y090333D01*
X15116Y090349D01*
X151262Y090428D01*
X15135Y090543D01*
X151406Y090676D01*
X151425Y09082D01*
X151406Y090964D01*
X15135Y091097D01*
X151262Y091212D01*
X15116Y091291D01*
X151156Y091307D01*
Y091333D01*
X15116Y091349D01*
X151262Y091428D01*
X15135Y091543D01*
X151406Y091676D01*
X151425Y09182D01*
X151406Y091964D01*
X15135Y092097D01*
X151262Y092212D01*
X15116Y092291D01*
X151156Y092307D01*
Y092333D01*
X15116Y092349D01*
X151262Y092428D01*
X15135Y092543D01*
X151406Y092676D01*
X151425Y09282D01*
X151406Y092964D01*
X15135Y093097D01*
X151262Y093212D01*
X151147Y0933D01*
X151014Y093356D01*
X15087Y093375D01*
X15077D01*
X15063Y093356D01*
X150503Y093483D01*
X150424Y093536D01*
X150392Y093542D01*
X150369Y093586D01*
X150406Y093676D01*
X150425Y09382D01*
X150406Y093964D01*
X15035Y094097D01*
X150262Y094212D01*
X15016Y094291D01*
X150156Y094307D01*
Y094333D01*
X15016Y094349D01*
X150262Y094428D01*
X15035Y094543D01*
X150406Y094676D01*
X150425Y09482D01*
X150406Y094964D01*
X15035Y095097D01*
X150262Y095212D01*
X15016Y095291D01*
X150156Y095307D01*
Y095333D01*
X15016Y095349D01*
X150262Y095428D01*
X15035Y095543D01*
X150406Y095676D01*
X150425Y09582D01*
X150406Y095964D01*
X150366Y09606D01*
X150399Y09611D01*
X15107D01*
X151083Y096102D01*
D02*
G37*
G36*
X147081Y081711D02*
X147073Y081684D01*
X147058Y081663D01*
X146983D01*
X146902Y081641D01*
X146835Y081603D01*
X14607D01*
Y082657D01*
X146116Y082676D01*
X147081Y081711D01*
D02*
G37*
G36*
X148057Y083647D02*
X148136Y083594D01*
X14823Y083575D01*
X149276D01*
X14929Y083543D01*
X149378Y083428D01*
X14948Y083349D01*
X149484Y083333D01*
Y083307D01*
X14948Y083291D01*
X149378Y083212D01*
X14929Y083097D01*
X149234Y082964D01*
X149215Y08282D01*
X149234Y082676D01*
X14929Y082543D01*
X149378Y082428D01*
X14948Y082349D01*
X149484Y082333D01*
Y082307D01*
X14948Y082291D01*
X149378Y082212D01*
X14929Y082097D01*
X149234Y081964D01*
X149215Y08182D01*
X149234Y081676D01*
X14929Y081543D01*
X149378Y081428D01*
X14948Y081349D01*
X149484Y081333D01*
Y081307D01*
X14948Y081291D01*
X149439Y081259D01*
X148514Y082184D01*
X148514Y082184D01*
X146673Y084025D01*
X146677Y084071D01*
X146684Y084079D01*
X146728Y084145D01*
X146744Y084223D01*
Y084889D01*
X146794Y08491D01*
X148057Y083647D01*
D02*
G37*
G36*
X148086Y081756D02*
X148086Y081756D01*
X149236Y080606D01*
X149236Y080606D01*
X149276Y080575D01*
X14929Y080543D01*
X149378Y080428D01*
X14948Y080349D01*
X149484Y080333D01*
Y080307D01*
X14948Y080291D01*
X149411Y080237D01*
X14633Y083318D01*
X146427Y083415D01*
X148086Y081756D01*
D02*
G37*
G36*
X13939Y07878D02*
X13827Y07766D01*
X136318D01*
X13627Y077708D01*
X136266Y077711D01*
X136255Y077722D01*
X136243Y07773D01*
X136239Y077734D01*
X136235Y077737D01*
X136232Y077738D01*
X136216Y077752D01*
X136202Y077758D01*
X136189Y077766D01*
X136165Y077771D01*
X136141Y077779D01*
X136135Y07778D01*
X136121Y077779D01*
X136111Y077781D01*
X13611Y077781D01*
X136105Y077782D01*
X133607D01*
X133578Y077787D01*
X133576Y077787D01*
X133571Y077788D01*
X133557D01*
X133547Y07779D01*
X133543D01*
X133531Y077792D01*
X133531D01*
X133527Y077791D01*
X133523Y077792D01*
X133518Y077792D01*
X133516Y077792D01*
X133345D01*
X133343Y077792D01*
X133338Y077792D01*
X133334Y077791D01*
X13333Y077792D01*
X13333D01*
X133318Y07779D01*
X133314D01*
X133304Y077788D01*
X13329D01*
X133285Y077787D01*
X133283Y077787D01*
X133254Y077782D01*
X13074D01*
X13072Y077778D01*
X1307D01*
X130683Y077775D01*
X130683D01*
X130664Y077767D01*
X130662Y077767D01*
X13066Y077766D01*
X13065Y077761D01*
X130642Y07776D01*
X130635Y077755D01*
X130609Y077744D01*
X130609Y077744D01*
X130609Y077744D01*
X13059Y077726D01*
X130589Y077724D01*
X130576Y077716D01*
X130567Y077702D01*
X130553Y077688D01*
X130553Y077688D01*
X13055Y077685D01*
X130543Y077666D01*
X130539Y07766D01*
X129708D01*
X12966Y077708D01*
X129643Y07772D01*
X129629Y077734D01*
X129613Y077744D01*
X129613Y077744D01*
X129595Y077752D01*
X129594Y077753D01*
X129593Y077753D01*
X129592Y077753D01*
X12956Y077766D01*
X12956Y077767D01*
X129558Y077767D01*
X12954Y077775D01*
X12954D01*
X129521Y077778D01*
X129501D01*
X129481Y077782D01*
X129011D01*
X128992Y077786D01*
X128976Y077797D01*
X127917Y078856D01*
X127906Y078872D01*
X127902Y078891D01*
Y080368D01*
X127906Y080384D01*
X127922Y080388D01*
X12805D01*
X12807Y080392D01*
X12809D01*
X128107Y080395D01*
X128107D01*
X128126Y080403D01*
X128128Y080403D01*
X12813Y080404D01*
X12814Y080409D01*
X128148Y08041D01*
X128155Y080415D01*
X128181Y080426D01*
X128181Y080426D01*
X128181Y080426D01*
X1282Y080444D01*
X128201Y080446D01*
X128214Y080454D01*
X128223Y080468D01*
X128237Y080482D01*
X128237Y080482D01*
X12824Y080485D01*
X128247Y080504D01*
X128251Y08051D01*
X13015D01*
Y07967D01*
X13039Y07943D01*
X131558D01*
X131562Y079428D01*
X131697Y079401D01*
X131835D01*
X13197Y079428D01*
X131974Y07943D01*
X135574D01*
X135577Y079428D01*
X135713Y079401D01*
X135851D01*
X135986Y079428D01*
X13599Y07943D01*
X13662D01*
X137721Y080531D01*
X13776Y080547D01*
X137823Y080595D01*
X138228Y081D01*
X13939D01*
X13939Y07878D01*
D02*
G37*
G36*
X126658Y107541D02*
X12671Y09963D01*
Y099602D01*
X126709Y099598D01*
X126697Y09948D01*
Y09696D01*
Y096559D01*
X126709Y096442D01*
X12671Y096437D01*
Y094272D01*
X12671Y094271D01*
X12671Y094271D01*
Y09426D01*
X12446Y09201D01*
Y091298D01*
X124426Y091264D01*
X124382Y091198D01*
X124366Y09112D01*
Y088634D01*
X123716Y087984D01*
X123672Y087918D01*
X123656Y08784D01*
Y08545D01*
X123672Y085372D01*
X123716Y085306D01*
X12373Y085292D01*
Y08327D01*
X12447Y08253D01*
Y08025D01*
X12451Y08021D01*
X124297Y079997D01*
X12425Y079965D01*
X124152Y079868D01*
X124121Y079821D01*
X12209Y07779D01*
X12184D01*
Y100654D01*
Y10756D01*
X126616D01*
X126658Y107541D01*
D02*
G37*
G36*
X133519Y077587D02*
X133531Y077588D01*
X133531D01*
X133543Y077586D01*
X133546D01*
X133575Y077581D01*
X133592Y077582D01*
X133607Y077578D01*
X136105D01*
X136111Y077578D01*
X136122Y077567D01*
X136126Y077564D01*
X13664Y07705D01*
Y07466D01*
X1355Y07352D01*
X13127D01*
X13072Y07407D01*
Y077571D01*
X130722Y077575D01*
X13074Y077578D01*
X133254D01*
X13327Y077582D01*
X133286Y077581D01*
X133315Y077586D01*
X133318D01*
X13333Y077588D01*
X13333D01*
X133342Y077587D01*
X133345Y077588D01*
X133516D01*
X133519Y077587D01*
D02*
G37*
G36*
X148174Y078176D02*
X148906Y077444D01*
X148916Y077428D01*
X14892Y07741D01*
Y0743D01*
X148916Y074282D01*
X148906Y074266D01*
X148866Y074226D01*
X14829Y07365D01*
X13706D01*
Y07666D01*
X13707Y07667D01*
X14203D01*
X14401Y07469D01*
X144907D01*
X144962Y074648D01*
X145068Y074597D01*
X145181Y074568D01*
X145297Y074561D01*
X145413Y074577D01*
X145524Y074615D01*
X145625Y074674D01*
X145642Y07469D01*
X14678D01*
X14725Y07516D01*
Y07615D01*
X14692Y07648D01*
X146568D01*
X146466Y076532D01*
X146357Y076575D01*
X146241Y076595D01*
X146125Y076593D01*
X14601Y076568D01*
X145903Y076521D01*
X145844Y07648D01*
X14578D01*
X14559Y07667D01*
Y076771D01*
X145616Y076808D01*
X145663Y076915D01*
X145688Y07703D01*
X14569Y077147D01*
X14567Y077262D01*
X145627Y077371D01*
X145598Y077428D01*
X14629Y07812D01*
Y07819D01*
X148153D01*
X148174Y078176D01*
D02*
G37*
G36*
X12807Y080599D02*
X128068Y080595D01*
X12805Y080592D01*
X127902D01*
X127824Y080576D01*
X127758Y080532D01*
X127714Y080466D01*
X127698Y080388D01*
Y078871D01*
X127714Y078793D01*
X127758Y078726D01*
X128846Y077638D01*
X128913Y077594D01*
X128991Y077578D01*
X129481D01*
X1295Y077575D01*
X129516Y077564D01*
X13003Y07705D01*
Y07466D01*
X12889Y07352D01*
X12466D01*
X12411Y07407D01*
Y07761D01*
X12577Y07927D01*
Y080598D01*
X126497D01*
Y080907D01*
X12807D01*
Y080599D01*
D02*
G37*
%LPC*%
G36*
X139573Y097453D02*
X139456Y097441D01*
X139343Y097407D01*
X139238Y097351D01*
X139219Y097335D01*
X139173Y097356D01*
Y09745D01*
X137973D01*
Y09605D01*
X139173D01*
Y096144D01*
X139219Y096165D01*
X139238Y096149D01*
X139343Y096093D01*
X139456Y096059D01*
X139573Y096047D01*
X139691Y096059D01*
X139804Y096093D01*
X139908Y096149D01*
X14Y096224D01*
X140075Y096315D01*
X14013Y096419D01*
X140165Y096532D01*
X140176Y09665D01*
Y09685D01*
X140165Y096968D01*
X14013Y097081D01*
X140075Y097185D01*
X14Y097276D01*
X139908Y097351D01*
X139804Y097407D01*
X139691Y097441D01*
X139573Y097453D01*
D02*
G37*
G36*
X1259Y097541D02*
X1247D01*
Y095959D01*
X1259D01*
Y097541D01*
D02*
G37*
%LPD*%
D12*
X14987Y09134D02*
X1503D01*
X15082Y09082D01*
X148852Y091658D02*
X14917Y09134D01*
X14977D01*
X14987D01*
X146414Y091658D02*
X148852D01*
X146226D02*
X146414D01*
X146157Y09159D02*
X146226Y091658D01*
X14073Y09037D02*
X14789D01*
X14055Y09019D02*
X14073Y09037D01*
X14055Y09014D02*
Y09019D01*
X14061Y09159D02*
X146157D01*
X14789Y09037D02*
X14892Y08934D01*
X14088Y09095D02*
X1487D01*
X14087Y09094D02*
X14088Y09095D01*
X1487D02*
X14932Y09033D01*
X15031D01*
X1503Y08934D02*
X15082Y08882D01*
X14892Y08934D02*
X1503D01*
X15031Y09033D02*
X15082Y08982D01*
D13*
X14874Y09331D02*
X15033D01*
X13819Y09242D02*
X14785D01*
X14874Y09331D01*
X146147Y09182D02*
X146155Y091828D01*
X1367Y09182D02*
X146147D01*
X146344Y091828D02*
X148922D01*
X14893Y09182D01*
X146155Y091828D02*
X146344D01*
X14893Y09182D02*
X14982D01*
X13958Y09117D02*
X14887D01*
X14922Y09082D01*
X13919Y09117D02*
X13958D01*
X13915Y09121D02*
X13919Y09117D01*
X13187Y08606D02*
X13766D01*
X1316Y08578D02*
X13797D01*
X13869Y08895D02*
X13887D01*
X13963Y08819D01*
X14088D01*
X13849Y09047D02*
X13883Y09013D01*
X14004Y08897D02*
X14608D01*
X13953Y09084D02*
X1405Y08987D01*
X14757D01*
X13652Y091D02*
X13863D01*
X13908Y09055D02*
X13937D01*
X13925Y09041D02*
X14024Y08942D01*
X13915Y09027D02*
X14014Y08928D01*
X13891Y09112D02*
X13919Y09084D01*
X13892Y09027D02*
X13915D01*
X14832Y08557D02*
Y08651D01*
X13914Y09069D02*
X13947D01*
X13919Y09084D02*
X13953D01*
X14036Y08956D02*
X14683D01*
X13901Y09041D02*
X13925D01*
X13582Y09078D02*
X13864D01*
X135922Y09041D02*
X135982Y09047D01*
X1355Y09064D02*
X13855D01*
X13892Y08985D02*
X13995Y08882D01*
X134029Y091232D02*
X138598D01*
X13947Y09069D02*
X14043Y08973D01*
X13863Y091D02*
X13908Y09055D01*
X14024Y08942D02*
X14663D01*
X13855Y09064D02*
X13892Y09027D01*
X13974Y08833D02*
X14572D01*
X13864Y09078D02*
X13901Y09041D01*
X13606Y09033D02*
X13842D01*
X13937Y09055D02*
X14036Y08956D01*
X14043Y08973D02*
X14721D01*
X14009Y08912D02*
X14633D01*
X14014Y08928D02*
X14645D01*
X138598Y091232D02*
X13914Y09069D01*
X13988Y08866D02*
X14595D01*
X135982Y09047D02*
X13849D01*
X13908Y09013D02*
X14009Y08912D01*
X13611Y09016D02*
X13815D01*
X13883Y09013D02*
X13908D01*
X13574Y08979D02*
X13611Y09016D01*
X14751Y08611D02*
Y0871D01*
X14601Y08882D02*
X14832Y08651D01*
X13902Y08999D02*
X14004Y08897D01*
X13876Y08999D02*
X13902D01*
X13815Y09016D02*
X13846Y08985D01*
X13892D01*
X13842Y09033D02*
X13876Y08999D01*
X13586Y09013D02*
X13606Y09033D01*
X13995Y08882D02*
X14601D01*
X14088Y08819D02*
X14151Y08756D01*
X13896Y08958D02*
X13988Y08866D01*
X14595D02*
X14751Y0871D01*
X139011Y089309D02*
X13983Y08849D01*
X14587D01*
X138691Y089309D02*
X139011D01*
X138901Y089169D02*
X13974Y08833D01*
X13809Y0897D02*
X138621Y089169D01*
X138901D01*
X13807Y08993D02*
X138691Y089309D01*
X13706Y08968D02*
X13708Y0897D01*
X13809D01*
X14847Y0843D02*
X15034D01*
X14722Y08555D02*
Y08714D01*
Y08555D02*
X14847Y0843D01*
X14692Y08513D02*
Y08713D01*
X14823Y08382D02*
X14982D01*
X14692Y08513D02*
X14823Y08382D01*
X13026Y08767D02*
X13187Y08606D01*
X13026Y090022D02*
X130803Y090565D01*
X13026Y089416D02*
Y090022D01*
X13028Y089064D02*
X130298Y089082D01*
X13026Y087679D02*
X13028Y087699D01*
X13026Y08767D02*
Y087679D01*
X13028Y087699D02*
Y089064D01*
X130298Y089082D02*
Y089378D01*
X13026Y089416D02*
X130298Y089378D01*
X13016Y08722D02*
X1316Y08578D01*
X13766Y08606D02*
X13807Y08647D01*
X13797Y08578D02*
X13863Y08644D01*
X13257Y08548D02*
X13841D01*
X13918Y08625D01*
X13863Y08644D02*
Y08732D01*
X13807Y08647D02*
Y08733D01*
X13749Y08672D02*
Y08732D01*
X13748Y08733D02*
X13749Y08732D01*
X13712Y08635D02*
X13749Y08672D01*
X13874Y08958D02*
X13896D01*
X14086Y09014D02*
X14775D01*
X14818Y08971D01*
X140728Y0914D02*
X14669D01*
X14052Y091372D02*
X1407D01*
X140728Y0914D01*
X139268D02*
X140492D01*
X13924Y091428D02*
X139268Y0914D01*
X140492D02*
X14052Y091372D01*
X13811Y0925D02*
X13819Y09242D01*
X137652Y09226D02*
X14285D01*
X13657Y09209D02*
X14897D01*
X14924Y09282D02*
X14982D01*
X14285Y09226D02*
X14868D01*
X14924Y09282D01*
X15032Y09232D02*
X15082Y09182D01*
X14897Y09209D02*
X1492Y09232D01*
X15032D01*
X137246Y092666D02*
X137652Y09226D01*
X13594Y09272D02*
X13657Y09209D01*
Y09169D02*
X1367Y09182D01*
X13594Y09315D02*
X14315D01*
X14346Y09346D01*
X14458D01*
X13588Y09309D02*
X13594Y09315D01*
X14721Y08973D02*
X14912Y08782D01*
X14922D01*
X14908Y08731D02*
X15033D01*
X14683Y08956D02*
X14908Y08731D01*
X14757Y08987D02*
X14787Y08957D01*
X14879Y08582D02*
X14927Y08534D01*
X14879Y08582D02*
Y08626D01*
X14608Y08897D02*
X14879Y08626D01*
X14927Y08534D02*
X1503D01*
X14832Y08557D02*
X14907Y08482D01*
X14982D01*
X14922Y09082D02*
X14982D01*
X1409Y09063D02*
X14847D01*
X14928Y08982D01*
X14663Y08942D02*
X14923Y08682D01*
X14645Y08928D02*
X14935Y08638D01*
X14633Y08912D02*
X14963Y08582D01*
X14914Y0883D02*
X15034D01*
X13992Y08569D02*
Y08732D01*
X13726Y08993D02*
X13807D01*
X138567Y091472D02*
X13891Y091128D01*
Y09112D02*
Y091128D01*
X135348Y091472D02*
X138567D01*
X13924Y091428D02*
X13924D01*
X13924D02*
Y0915D01*
X13569Y09091D02*
X13582Y09078D01*
X14151Y084414D02*
Y08756D01*
X14572Y08833D02*
X14692Y08713D01*
X14587Y08849D02*
X14722Y08714D01*
X15034Y0843D02*
X15082Y08382D01*
X14787Y08957D02*
X14914Y0883D01*
X14935Y08638D02*
X15034D01*
X13466Y08979D02*
X13574D01*
X1339Y09013D02*
X13586D01*
X13524Y09041D02*
X135922D01*
X14928Y08982D02*
X14982D01*
X13686Y09289D02*
X1436D01*
X14376Y09305D01*
X143791D01*
X13918Y08625D02*
Y08731D01*
X13916Y08733D02*
X13918Y08731D01*
X13393Y08979D02*
X13466D01*
X133048Y086682D02*
X133048D01*
X13338Y08635D01*
X13712D01*
X13513Y09384D02*
Y0939D01*
Y09384D02*
X13588Y09309D01*
X13433Y09207D02*
X13487D01*
X13413Y09091D02*
X13569D01*
X13533Y09149D02*
X135348Y091472D01*
X1503Y08534D02*
X15082Y08482D01*
X14963Y08582D02*
X14982D01*
X15082D02*
Y0859D01*
X15034Y08638D02*
X15082Y0859D01*
X14923Y08682D02*
X14982D01*
X15033Y08731D02*
X15082Y08682D01*
X14922Y08782D02*
X14982D01*
X149078Y08882D02*
X14982D01*
X14818Y08971D02*
X148188D01*
X149078Y08882D01*
X15034Y0883D02*
X15082Y08782D01*
X15033Y09331D02*
X15082Y09282D01*
X13487Y09207D02*
X13563Y09283D01*
X1415Y084404D02*
X14151Y084414D01*
X13679Y09282D02*
X13686Y09289D01*
X13405Y09083D02*
X13413Y09091D01*
D17*
X15082Y094134D02*
Y094227D01*
X150664Y094315D02*
X150727D01*
X15082Y09382D02*
Y094134D01*
X14909Y094315D02*
X150664D01*
X15082Y094227D02*
Y09432D01*
X150727Y094315D02*
X150815D01*
X14047Y0813D02*
X14412D01*
X140228D02*
X14047D01*
X13693Y08233D02*
X139198D01*
X140228Y0813D01*
X14898Y0966D02*
Y09861D01*
Y0966D02*
X14926Y09632D01*
X14456Y0794D02*
X145741D01*
X14363Y07847D02*
X14456Y0794D01*
X14363Y077037D02*
Y07847D01*
X12659Y08414D02*
X12667D01*
X1296D02*
X131664D01*
X12659D02*
X1296D01*
X12667D02*
X1296D01*
X125808Y083358D02*
X12659Y08414D01*
X131664D02*
X131766Y084038D01*
X13704Y08121D02*
X13726Y08143D01*
X126197Y08121D02*
X13704D01*
X126021Y081034D02*
X126197Y08121D01*
X143055Y08061D02*
X14334Y080325D01*
X138561Y08061D02*
X143055D01*
X139448Y08799D02*
X14008D01*
X14025Y08782D01*
X136853Y08773D02*
X13934D01*
X1368Y0882D02*
X13689Y08811D01*
X13687Y08758D02*
Y088089D01*
X13815Y08799D02*
X139448D01*
X13934Y08773D02*
X13962Y08745D01*
X13716Y08898D02*
X13815Y08799D01*
X14698Y0813D02*
X147025Y081345D01*
X1494Y07982D02*
X14982D01*
X14602Y0832D02*
X1494Y07982D01*
X13447Y0832D02*
X14602D01*
X14412Y0813D02*
X14698D01*
X145801Y084469D02*
X1483Y08197D01*
Y08197D02*
Y08197D01*
X145801Y084469D02*
Y087676D01*
X1483Y08197D02*
X14945Y08082D01*
X14088Y08239D02*
X14261D01*
X133631Y084038D02*
X13447Y0832D01*
X131766Y084038D02*
X133631D01*
X150815Y094315D02*
X15082Y09431D01*
X150815Y094315D02*
X15082Y09432D01*
Y09482D02*
Y09582D01*
Y09432D02*
Y09482D01*
X14904Y094265D02*
X14909Y094315D01*
X1485Y094265D02*
X14904D01*
X14982Y08282D02*
X15082D01*
X14982Y08182D02*
Y08282D01*
X145741Y0794D02*
X14575Y079391D01*
X14363Y077037D02*
X144455Y076211D01*
X1296Y08422D02*
Y0875D01*
X12994Y08784D01*
Y08923D01*
X13103Y08768D02*
X13447D01*
X13502Y08713D02*
X13675D01*
X13447Y08768D02*
X13502Y08713D01*
X13475Y08666D02*
X13623D01*
X13405Y08736D02*
X13475Y08666D01*
X1364Y08898D02*
X13716D01*
X14025Y0876D02*
Y08782D01*
X14196Y09354D02*
X14304D01*
X14404Y09454D02*
X14511D01*
X14304Y09354D02*
X14404Y09454D01*
X14025Y09459D02*
X14355D01*
X13936Y0937D02*
X14025Y09459D01*
X137758Y08186D02*
X138209Y081409D01*
X134607Y08186D02*
X137758D01*
X133926Y082541D02*
X134607Y08186D01*
X136853Y08773D02*
X136853Y08773D01*
X136853Y08773D02*
Y088089D01*
X13962Y08479D02*
Y08745D01*
Y08479D02*
X140489Y083921D01*
X136269Y08898D02*
X1364D01*
X14682Y09557D02*
X148125Y094265D01*
X14314Y09549D02*
X14322Y09557D01*
X14682D01*
X14311Y09556D02*
X14314Y09553D01*
Y09549D02*
Y09553D01*
X13698Y09556D02*
X14311D01*
X14945Y08082D02*
X14982D01*
X15082D02*
Y08182D01*
X1364Y08898D02*
Y08941D01*
X13437Y08898D02*
X136269D01*
X133431Y088041D02*
X13437Y08898D01*
X136269Y088605D02*
Y088963D01*
X13345Y093D02*
X13549Y09504D01*
X142575D01*
X140489Y083921D02*
X142969D01*
X14187Y08502D02*
X142969Y083921D01*
X142995D01*
X1404Y08695D02*
X14057D01*
X14029Y08684D02*
X1404Y08695D01*
X14187Y08502D02*
Y087671D01*
X131256Y088041D02*
X133431D01*
X13065Y08806D02*
X13103Y08768D01*
X13675Y08713D02*
X136853Y087233D01*
Y08758D01*
X136262Y08758D02*
Y088041D01*
X14029Y08632D02*
Y08684D01*
X13686Y08819D02*
Y088605D01*
X148535Y09482D02*
X14982D01*
X14218Y08604D02*
X142755D01*
X144845Y08395D01*
X14816Y09581D02*
X14817Y09582D01*
X14982D01*
X14818Y094265D02*
X1485D01*
X14812Y09482D02*
X148465D01*
X1485Y094855D01*
X148535Y09482D01*
X1325Y08864D02*
X13323D01*
X13345Y08886D02*
Y09136D01*
X13323Y08864D02*
X13345Y08886D01*
X134135Y092995D02*
X13475D01*
X13344Y0923D02*
X134135Y092995D01*
X13344Y09137D02*
Y0923D01*
Y09137D02*
X13345Y09136D01*
X13621Y088089D02*
Y088605D01*
X136853Y08758D02*
X13687D01*
X125542Y081034D02*
X126021D01*
X12515Y080643D02*
X125542Y081034D01*
X12515Y082217D02*
X125585Y081782D01*
X126021D01*
X132473Y080809D02*
X137609D01*
X138209Y081409D01*
X13688Y08238D02*
X13693Y08233D01*
X14083Y08234D02*
X14088Y08239D01*
X138209Y081409D02*
X138761D01*
X124696Y083358D02*
X125808D01*
X12662Y09369D02*
X12731Y093D01*
X12906D01*
D29*
X136853Y08758D02*
D03*
X136262Y08758D02*
D03*
X13686Y088605D02*
D03*
X136269Y088605D02*
D03*
X136853Y088089D02*
D03*
X136262D02*
D03*
D31*
X1485Y094265D02*
D03*
Y094855D02*
D03*
X14904D02*
D03*
X14904Y094265D02*
D03*
D36*
X133178Y082541D02*
D03*
X133926D02*
D03*
D41*
X126021Y081782D02*
D03*
Y081034D02*
D03*
D53*
X12515Y080643D02*
D03*
Y082217D02*
D03*
X13272Y08198D02*
D03*
Y080405D02*
D03*
D83*
X14621Y09861D02*
X14898D01*
X15042D01*
X139485Y074995D02*
Y0751D01*
Y074995D02*
X13956Y07492D01*
Y07418D02*
Y07492D01*
Y07418D02*
X14716D01*
X14799Y07501D01*
Y07648D01*
X147375Y077095D02*
X14799Y07648D01*
X14619Y077095D02*
X147375D01*
X133937Y095447D02*
Y10098D01*
X13242Y096825D02*
Y10018D01*
X1322Y1004D02*
X13242Y10018D01*
X14396Y10931D02*
Y11138D01*
Y10931D02*
X14476Y10851D01*
X14396Y109293D02*
Y10931D01*
X14395Y10932D02*
X14396Y10931D01*
X144743Y10651D02*
X14595D01*
X14084D02*
X144743D01*
X14595D02*
X14696Y10752D01*
Y1112D01*
X14396Y109293D02*
X144743Y10851D01*
X15082Y09682D02*
Y09821D01*
X15042Y09861D02*
X15082Y09821D01*
X12549Y09068D02*
X12917D01*
X133937Y095447D01*
X14621Y09861D02*
Y09916D01*
Y09675D02*
Y09861D01*
X124696Y079422D02*
X12515Y079876D01*
Y080643D01*
X124696Y083358D02*
X12515Y082904D01*
Y082217D02*
Y082904D01*
X131766Y080101D02*
X132416D01*
X13272Y080405D01*
X131766Y084038D02*
X13272Y083084D01*
Y08198D02*
Y083084D01*
X138071Y079421D02*
X138143D01*
X13724Y07859D02*
X138071Y079421D01*
X129543Y07859D02*
X13724D01*
X128712Y079422D02*
X129543Y07859D01*
X12494Y08605D02*
X12549Y0866D01*
Y09068D01*
X12349D02*
Y09206D01*
X1263Y09487D01*
Y09675D01*
X13051Y1004D02*
Y10613D01*
Y1004D02*
X1322D01*
X12822D02*
X13051D01*
X14003Y10534D02*
X14621Y09916D01*
X14003Y10534D02*
Y10732D01*
X14084Y10651D01*
X1273Y09948D02*
X12822Y1004D01*
X1273Y09675D02*
Y09948D01*
X133937Y10098D02*
Y105657D01*
Y10098D02*
X134037Y10088D01*
X14022D01*
X140573Y100527D01*
Y09675D02*
Y100527D01*
X1376Y10932D02*
X14003D01*
X133937Y105657D02*
X1376Y10932D01*
X12294Y08605D02*
Y08855D01*
X12349Y0891D01*
X12294Y082162D02*
X123712Y08139D01*
X12294Y082162D02*
Y08605D01*
X12349Y0891D02*
Y09068D01*
X14003Y10932D02*
X14395D01*
D114*
X146378Y075907D02*
D03*
D115*
X14619Y077095D02*
D03*
D116*
X145002Y077284D02*
D03*
D117*
X145306Y075361D02*
D03*
D118*
X144455Y076211D02*
D03*
D119*
X133431Y07631D02*
D03*
X126821D02*
D03*
D120*
X13046Y10613D02*
D03*
Y111506D02*
D03*
D121*
X1506Y07457D02*
D03*
X12286D02*
D03*
Y11151D02*
D03*
X1506D02*
D03*
D122*
X131383Y090595D02*
D03*
X130713Y090595D02*
D03*
D123*
X15082Y07782D02*
D03*
Y07882D02*
D03*
Y07982D02*
D03*
Y08082D02*
D03*
Y08182D02*
D03*
Y08282D02*
D03*
Y08382D02*
D03*
Y08482D02*
D03*
Y08582D02*
D03*
Y08682D02*
D03*
Y08782D02*
D03*
Y08882D02*
D03*
Y08982D02*
D03*
Y09082D02*
D03*
Y09182D02*
D03*
Y09282D02*
D03*
Y09382D02*
D03*
Y09482D02*
D03*
Y09582D02*
D03*
X14982Y07782D02*
D03*
Y07882D02*
D03*
Y07982D02*
D03*
Y08082D02*
D03*
Y08182D02*
D03*
Y08282D02*
D03*
X14982Y08382D02*
D03*
X14982Y08482D02*
D03*
Y08582D02*
D03*
Y08682D02*
D03*
Y08782D02*
D03*
Y08882D02*
D03*
Y08982D02*
D03*
Y09082D02*
D03*
Y09182D02*
D03*
X14982Y09282D02*
D03*
X14982Y09382D02*
D03*
Y09482D02*
D03*
Y09582D02*
D03*
Y09682D02*
D03*
X1325Y08864D02*
D03*
Y08964D02*
D03*
Y09064D02*
D03*
D124*
X15082Y09682D02*
D03*
X1325Y09164D02*
D03*
D125*
X124696Y079422D02*
D03*
Y083358D02*
D03*
X128712D02*
D03*
Y079422D02*
D03*
X135782Y080101D02*
D03*
Y084038D02*
D03*
X131766D02*
D03*
Y080101D02*
D03*
D127*
X12294Y08605D02*
D03*
D128*
X12494D02*
D03*
X144743Y10851D02*
D03*
D129*
X12549Y09068D02*
D03*
X14003Y10932D02*
D03*
D130*
X12349Y09068D02*
D03*
D131*
X144743Y10651D02*
D03*
D132*
X14695Y1109D02*
D03*
D133*
X14395D02*
D03*
D134*
X14003Y10732D02*
D03*
D135*
X14721Y09675D02*
D03*
X14621D02*
D03*
X1273D02*
D03*
X1263D02*
D03*
D136*
X14521D02*
D03*
X1253D02*
D03*
D137*
X140573D02*
D03*
X139573D02*
D03*
X13246D02*
D03*
X13346D02*
D03*
D138*
X138573D02*
D03*
X13146D02*
D03*
D139*
X145359Y083735D02*
D03*
X147931Y083271D02*
D03*
X147495Y083885D02*
D03*
X151425Y080865D02*
D03*
Y081965D02*
D03*
X150905Y081305D02*
D03*
X149809Y075941D02*
D03*
X150997Y076667D02*
D03*
X150215Y076585D02*
D03*
X14946Y077156D02*
D03*
X148966Y078221D02*
D03*
X148005Y080334D02*
D03*
X148143Y079779D02*
D03*
X148915Y079205D02*
D03*
X147415Y078715D02*
D03*
X148105Y079125D02*
D03*
X147269Y079459D02*
D03*
X147125Y080225D02*
D03*
X147395Y080745D02*
D03*
X148665Y082395D02*
D03*
X148282Y082966D02*
D03*
X147765Y083595D02*
D03*
X148805Y083185D02*
D03*
X151335Y093525D02*
D03*
X150815Y094265D02*
D03*
X151295Y094474D02*
D03*
Y095425D02*
D03*
X147962Y093195D02*
D03*
X147495Y092975D02*
D03*
X147545Y093665D02*
D03*
X146922Y0929D02*
D03*
X147275Y093215D02*
D03*
X137755Y088725D02*
D03*
X138165Y089115D02*
D03*
X141465Y088035D02*
D03*
X142855Y088055D02*
D03*
X143755Y087369D02*
D03*
X145205Y086191D02*
D03*
X144265Y085965D02*
D03*
X144535Y086215D02*
D03*
X143035Y084435D02*
D03*
X142895Y085275D02*
D03*
X143999Y086374D02*
D03*
X142375Y086515D02*
D03*
X143375Y08625D02*
D03*
X143065Y084905D02*
D03*
X141975Y083545D02*
D03*
X141015Y083565D02*
D03*
X139925Y083655D02*
D03*
X139138Y084348D02*
D03*
X139665Y084095D02*
D03*
X140365Y084613D02*
D03*
X140715Y084435D02*
D03*
X141015Y086195D02*
D03*
X140956Y087533D02*
D03*
X141155Y087175D02*
D03*
X140935Y086575D02*
D03*
X13977Y087908D02*
D03*
X140065Y087785D02*
D03*
X138635Y085285D02*
D03*
X139005Y085615D02*
D03*
X138079Y08508D02*
D03*
X136805Y084965D02*
D03*
X132095Y085475D02*
D03*
X132565Y085045D02*
D03*
X132995Y085065D02*
D03*
X132235Y087245D02*
D03*
X131253Y087211D02*
D03*
X131255Y088575D02*
D03*
X131235Y088945D02*
D03*
X131255Y089605D02*
D03*
Y089945D02*
D03*
X132615Y086675D02*
D03*
X131885Y086695D02*
D03*
X132274Y086813D02*
D03*
X132595Y087165D02*
D03*
X131856Y087174D02*
D03*
X14047Y0813D02*
D03*
X12817Y08481D02*
D03*
X12754D02*
D03*
X12775D02*
D03*
X12796D02*
D03*
X12712D02*
D03*
X12733D02*
D03*
Y08502D02*
D03*
X12712D02*
D03*
X12775D02*
D03*
X12796D02*
D03*
X12817D02*
D03*
X12754D02*
D03*
X12733Y08523D02*
D03*
X12712D02*
D03*
X12775D02*
D03*
X12796D02*
D03*
X12817D02*
D03*
X12754D02*
D03*
X12733Y08544D02*
D03*
X12712D02*
D03*
X12775D02*
D03*
X12796D02*
D03*
X12817D02*
D03*
X12754D02*
D03*
X12817D02*
D03*
X1288D02*
D03*
X12859D02*
D03*
X12838D02*
D03*
X12922D02*
D03*
X12901D02*
D03*
Y08523D02*
D03*
X12922D02*
D03*
X12859D02*
D03*
X12838D02*
D03*
X12817D02*
D03*
X1288D02*
D03*
X12901Y08502D02*
D03*
X12922D02*
D03*
X12859D02*
D03*
X12838D02*
D03*
X12817D02*
D03*
X1288D02*
D03*
X12901Y08481D02*
D03*
X12922D02*
D03*
X12859D02*
D03*
X12838D02*
D03*
X12817D02*
D03*
X1288D02*
D03*
X12544Y08838D02*
D03*
Y08775D02*
D03*
Y08796D02*
D03*
Y08733D02*
D03*
Y08754D02*
D03*
X12523D02*
D03*
Y08733D02*
D03*
Y08796D02*
D03*
Y08817D02*
D03*
Y08838D02*
D03*
Y08775D02*
D03*
X12502Y08754D02*
D03*
Y08733D02*
D03*
Y08796D02*
D03*
Y08817D02*
D03*
Y08838D02*
D03*
Y08775D02*
D03*
X12481Y08754D02*
D03*
Y08796D02*
D03*
Y08817D02*
D03*
Y08838D02*
D03*
Y08775D02*
D03*
X12607D02*
D03*
Y08712D02*
D03*
Y08733D02*
D03*
Y08754D02*
D03*
Y0867D02*
D03*
Y08691D02*
D03*
X12586D02*
D03*
Y0867D02*
D03*
Y08733D02*
D03*
Y08754D02*
D03*
Y08775D02*
D03*
Y08712D02*
D03*
X12565Y08691D02*
D03*
Y0867D02*
D03*
Y08733D02*
D03*
Y08754D02*
D03*
Y08775D02*
D03*
Y08712D02*
D03*
X12544Y08691D02*
D03*
Y0867D02*
D03*
Y08733D02*
D03*
Y08712D02*
D03*
X12712Y09048D02*
D03*
Y09027D02*
D03*
Y09006D02*
D03*
Y0909D02*
D03*
Y09069D02*
D03*
X12733D02*
D03*
Y0909D02*
D03*
Y09027D02*
D03*
Y09006D02*
D03*
Y08985D02*
D03*
Y09048D02*
D03*
X12754Y09069D02*
D03*
Y0909D02*
D03*
Y09027D02*
D03*
Y09006D02*
D03*
Y08985D02*
D03*
Y09048D02*
D03*
X12775Y09069D02*
D03*
Y0909D02*
D03*
Y09027D02*
D03*
Y09006D02*
D03*
Y08985D02*
D03*
Y09048D02*
D03*
X12628Y08985D02*
D03*
Y09048D02*
D03*
Y09027D02*
D03*
Y09006D02*
D03*
Y0909D02*
D03*
Y09069D02*
D03*
X12649D02*
D03*
Y0909D02*
D03*
Y09027D02*
D03*
Y09006D02*
D03*
Y08985D02*
D03*
Y09048D02*
D03*
X1267Y09069D02*
D03*
Y0909D02*
D03*
Y09027D02*
D03*
Y09006D02*
D03*
Y08985D02*
D03*
Y09048D02*
D03*
X12691Y09069D02*
D03*
Y0909D02*
D03*
Y09027D02*
D03*
Y09006D02*
D03*
Y09048D02*
D03*
X12523Y08712D02*
D03*
Y08733D02*
D03*
Y08754D02*
D03*
Y0867D02*
D03*
Y08691D02*
D03*
X12502D02*
D03*
Y0867D02*
D03*
Y08733D02*
D03*
Y08754D02*
D03*
Y08775D02*
D03*
Y08712D02*
D03*
X12481Y08691D02*
D03*
Y0867D02*
D03*
Y08733D02*
D03*
Y08754D02*
D03*
Y08775D02*
D03*
Y08712D02*
D03*
X1246Y08691D02*
D03*
Y0867D02*
D03*
Y08733D02*
D03*
Y08754D02*
D03*
Y08775D02*
D03*
Y08712D02*
D03*
X12775Y0888D02*
D03*
Y08817D02*
D03*
Y08838D02*
D03*
Y08859D02*
D03*
Y08775D02*
D03*
Y08796D02*
D03*
X12754D02*
D03*
Y08775D02*
D03*
Y08838D02*
D03*
Y08859D02*
D03*
Y0888D02*
D03*
Y08817D02*
D03*
X12733Y08796D02*
D03*
Y08775D02*
D03*
Y08838D02*
D03*
Y08859D02*
D03*
Y0888D02*
D03*
Y08817D02*
D03*
X12712Y08796D02*
D03*
Y08838D02*
D03*
Y08817D02*
D03*
X12754Y0888D02*
D03*
Y08817D02*
D03*
Y08838D02*
D03*
Y08859D02*
D03*
Y08775D02*
D03*
Y08796D02*
D03*
X12733D02*
D03*
Y08775D02*
D03*
Y08838D02*
D03*
Y08859D02*
D03*
Y0888D02*
D03*
Y08817D02*
D03*
X12712Y08775D02*
D03*
Y08859D02*
D03*
X12691Y08796D02*
D03*
Y08775D02*
D03*
Y08838D02*
D03*
Y08859D02*
D03*
Y0888D02*
D03*
Y08817D02*
D03*
Y08817D02*
D03*
Y08838D02*
D03*
Y08859D02*
D03*
Y08775D02*
D03*
Y08796D02*
D03*
X1267D02*
D03*
Y08775D02*
D03*
Y08838D02*
D03*
Y08859D02*
D03*
Y0888D02*
D03*
Y08817D02*
D03*
X12649Y08796D02*
D03*
Y08775D02*
D03*
Y08838D02*
D03*
Y08859D02*
D03*
Y08817D02*
D03*
X12628Y08796D02*
D03*
Y08775D02*
D03*
Y08838D02*
D03*
Y08859D02*
D03*
Y08817D02*
D03*
X12649Y0888D02*
D03*
Y08817D02*
D03*
Y08838D02*
D03*
Y08859D02*
D03*
Y08775D02*
D03*
Y08796D02*
D03*
X12628D02*
D03*
Y08775D02*
D03*
Y08838D02*
D03*
Y08859D02*
D03*
Y0888D02*
D03*
Y08817D02*
D03*
X12607Y08796D02*
D03*
Y08838D02*
D03*
Y08859D02*
D03*
Y0888D02*
D03*
Y08817D02*
D03*
X12586Y08796D02*
D03*
Y08775D02*
D03*
Y08838D02*
D03*
Y08859D02*
D03*
Y08817D02*
D03*
Y08817D02*
D03*
Y08838D02*
D03*
Y08859D02*
D03*
Y08775D02*
D03*
Y08796D02*
D03*
X12565D02*
D03*
Y08775D02*
D03*
Y08838D02*
D03*
Y08859D02*
D03*
Y0888D02*
D03*
Y08817D02*
D03*
X12544Y08796D02*
D03*
Y08775D02*
D03*
Y08859D02*
D03*
Y0888D02*
D03*
Y08817D02*
D03*
X12523Y08796D02*
D03*
Y08775D02*
D03*
Y08838D02*
D03*
Y08859D02*
D03*
Y0888D02*
D03*
Y08817D02*
D03*
X12712Y0888D02*
D03*
Y08943D02*
D03*
Y08922D02*
D03*
Y08901D02*
D03*
Y08985D02*
D03*
Y08964D02*
D03*
X12733D02*
D03*
Y08985D02*
D03*
Y08922D02*
D03*
Y08901D02*
D03*
Y0888D02*
D03*
Y08943D02*
D03*
X12754Y08964D02*
D03*
Y08985D02*
D03*
Y08922D02*
D03*
Y08901D02*
D03*
Y08943D02*
D03*
X12775Y08964D02*
D03*
Y08985D02*
D03*
Y08922D02*
D03*
Y08901D02*
D03*
Y08943D02*
D03*
X12649Y08922D02*
D03*
Y08901D02*
D03*
Y08985D02*
D03*
Y08964D02*
D03*
X1267D02*
D03*
Y08985D02*
D03*
Y08922D02*
D03*
Y08901D02*
D03*
Y0888D02*
D03*
Y08943D02*
D03*
X12691Y08964D02*
D03*
Y08985D02*
D03*
Y08922D02*
D03*
Y08901D02*
D03*
Y08943D02*
D03*
X12712Y08964D02*
D03*
Y08985D02*
D03*
Y08922D02*
D03*
Y08901D02*
D03*
X12586Y0888D02*
D03*
Y08922D02*
D03*
Y08901D02*
D03*
Y08985D02*
D03*
Y08964D02*
D03*
X12607D02*
D03*
Y08985D02*
D03*
Y08922D02*
D03*
Y08901D02*
D03*
Y0888D02*
D03*
Y08943D02*
D03*
X12628Y08964D02*
D03*
Y08922D02*
D03*
Y08901D02*
D03*
Y0888D02*
D03*
Y08943D02*
D03*
X12649Y08964D02*
D03*
Y08985D02*
D03*
Y08922D02*
D03*
Y08901D02*
D03*
Y08943D02*
D03*
X12523Y08943D02*
D03*
Y08922D02*
D03*
Y08901D02*
D03*
Y08985D02*
D03*
Y08964D02*
D03*
X12544D02*
D03*
Y08985D02*
D03*
Y08922D02*
D03*
Y08901D02*
D03*
Y0888D02*
D03*
Y08943D02*
D03*
X12565Y08964D02*
D03*
Y08985D02*
D03*
Y08922D02*
D03*
Y08901D02*
D03*
Y0888D02*
D03*
Y08943D02*
D03*
X12586Y08964D02*
D03*
Y08985D02*
D03*
Y08922D02*
D03*
Y08901D02*
D03*
Y08943D02*
D03*
X13809Y07975D02*
D03*
Y08038D02*
D03*
Y08017D02*
D03*
Y07996D02*
D03*
Y0808D02*
D03*
Y08059D02*
D03*
X1383D02*
D03*
Y0808D02*
D03*
Y08017D02*
D03*
Y07996D02*
D03*
Y07975D02*
D03*
Y08038D02*
D03*
X13851Y08059D02*
D03*
Y0808D02*
D03*
Y08017D02*
D03*
Y07996D02*
D03*
Y07975D02*
D03*
Y08038D02*
D03*
X13872Y08059D02*
D03*
Y0808D02*
D03*
Y08017D02*
D03*
Y07996D02*
D03*
Y07975D02*
D03*
Y08038D02*
D03*
X13851Y07975D02*
D03*
Y08038D02*
D03*
Y08017D02*
D03*
Y07996D02*
D03*
Y0808D02*
D03*
Y08059D02*
D03*
X13872D02*
D03*
Y0808D02*
D03*
Y08017D02*
D03*
Y07996D02*
D03*
Y07975D02*
D03*
Y08038D02*
D03*
X13893Y08059D02*
D03*
Y0808D02*
D03*
Y08017D02*
D03*
Y07996D02*
D03*
Y07975D02*
D03*
Y08038D02*
D03*
X13914Y08059D02*
D03*
Y0808D02*
D03*
Y08017D02*
D03*
Y07996D02*
D03*
Y07975D02*
D03*
Y08038D02*
D03*
X13851Y07891D02*
D03*
Y07954D02*
D03*
Y07933D02*
D03*
Y07912D02*
D03*
Y07996D02*
D03*
Y07975D02*
D03*
X13872D02*
D03*
Y07996D02*
D03*
Y07933D02*
D03*
Y07912D02*
D03*
Y07891D02*
D03*
Y07954D02*
D03*
X13893Y07975D02*
D03*
Y07996D02*
D03*
Y07933D02*
D03*
Y07912D02*
D03*
Y07891D02*
D03*
Y07954D02*
D03*
X13914Y07975D02*
D03*
Y07996D02*
D03*
Y07933D02*
D03*
Y07912D02*
D03*
Y07891D02*
D03*
Y07954D02*
D03*
X13788Y07891D02*
D03*
Y07954D02*
D03*
Y07933D02*
D03*
Y07912D02*
D03*
Y07996D02*
D03*
Y07975D02*
D03*
X13809D02*
D03*
Y07996D02*
D03*
Y07933D02*
D03*
Y07912D02*
D03*
Y07891D02*
D03*
Y07954D02*
D03*
X1383Y07975D02*
D03*
Y07996D02*
D03*
Y07933D02*
D03*
Y07912D02*
D03*
Y07891D02*
D03*
Y07954D02*
D03*
X13851Y07975D02*
D03*
Y07996D02*
D03*
Y07933D02*
D03*
Y07912D02*
D03*
Y07891D02*
D03*
Y07954D02*
D03*
X13186Y0754D02*
D03*
Y07666D02*
D03*
Y07498D02*
D03*
Y07603D02*
D03*
Y07624D02*
D03*
Y07645D02*
D03*
Y07561D02*
D03*
Y07582D02*
D03*
Y07708D02*
D03*
Y07687D02*
D03*
Y07519D02*
D03*
X13165Y0754D02*
D03*
Y07666D02*
D03*
Y07498D02*
D03*
Y07603D02*
D03*
Y07624D02*
D03*
Y07645D02*
D03*
Y07561D02*
D03*
Y07582D02*
D03*
Y07708D02*
D03*
Y07687D02*
D03*
Y07519D02*
D03*
X13144Y0754D02*
D03*
Y07666D02*
D03*
Y07498D02*
D03*
Y07603D02*
D03*
Y07624D02*
D03*
Y07645D02*
D03*
Y07561D02*
D03*
Y07582D02*
D03*
Y07708D02*
D03*
Y07687D02*
D03*
Y07519D02*
D03*
X13123Y07519D02*
D03*
Y07582D02*
D03*
Y07561D02*
D03*
Y07687D02*
D03*
Y07708D02*
D03*
Y07624D02*
D03*
Y0754D02*
D03*
Y07645D02*
D03*
Y07666D02*
D03*
Y07498D02*
D03*
Y07603D02*
D03*
X13301Y07404D02*
D03*
X13427D02*
D03*
X13259D02*
D03*
X13364D02*
D03*
X13385D02*
D03*
X13406D02*
D03*
X13322D02*
D03*
X13343D02*
D03*
X13469D02*
D03*
X13448D02*
D03*
X1328D02*
D03*
X13301Y07425D02*
D03*
X13427D02*
D03*
X13259D02*
D03*
X13364D02*
D03*
X13385D02*
D03*
X13406D02*
D03*
X13322D02*
D03*
X13343D02*
D03*
X13469D02*
D03*
X13448D02*
D03*
X1328D02*
D03*
X13301Y07446D02*
D03*
X13427D02*
D03*
X13259D02*
D03*
X13364D02*
D03*
X13385D02*
D03*
X13406D02*
D03*
X13322D02*
D03*
X13343D02*
D03*
X13469D02*
D03*
X13448D02*
D03*
X1328D02*
D03*
X1328Y07467D02*
D03*
X13343D02*
D03*
X13322D02*
D03*
X13448D02*
D03*
X13469D02*
D03*
X13385D02*
D03*
X13301D02*
D03*
X13406D02*
D03*
X13427D02*
D03*
X13259D02*
D03*
X13364D02*
D03*
X13527Y07655D02*
D03*
Y07529D02*
D03*
Y07697D02*
D03*
Y07592D02*
D03*
Y07571D02*
D03*
Y0755D02*
D03*
Y07634D02*
D03*
Y07613D02*
D03*
Y07487D02*
D03*
Y07508D02*
D03*
Y07676D02*
D03*
X13548Y07655D02*
D03*
Y07529D02*
D03*
Y07697D02*
D03*
Y07592D02*
D03*
Y07571D02*
D03*
Y0755D02*
D03*
Y07634D02*
D03*
Y07613D02*
D03*
Y07487D02*
D03*
Y07508D02*
D03*
Y07676D02*
D03*
X13569Y07655D02*
D03*
Y07529D02*
D03*
Y07697D02*
D03*
Y07592D02*
D03*
Y07571D02*
D03*
Y0755D02*
D03*
Y07634D02*
D03*
Y07613D02*
D03*
Y07487D02*
D03*
Y07508D02*
D03*
Y07676D02*
D03*
X1359Y07676D02*
D03*
Y07613D02*
D03*
Y07634D02*
D03*
Y07508D02*
D03*
Y07487D02*
D03*
Y07571D02*
D03*
Y07655D02*
D03*
Y0755D02*
D03*
Y07529D02*
D03*
Y07697D02*
D03*
Y07592D02*
D03*
X12732Y07845D02*
D03*
X12606D02*
D03*
X12774D02*
D03*
X12669D02*
D03*
X12648D02*
D03*
X12627D02*
D03*
X12711D02*
D03*
X1269D02*
D03*
X12564D02*
D03*
X12585D02*
D03*
X12753D02*
D03*
X12732Y07824D02*
D03*
X12606D02*
D03*
X12774D02*
D03*
X12669D02*
D03*
X12648D02*
D03*
X12627D02*
D03*
X12711D02*
D03*
X1269D02*
D03*
X12564D02*
D03*
X12585D02*
D03*
X12753D02*
D03*
X12732Y07803D02*
D03*
X12606D02*
D03*
X12774D02*
D03*
X12669D02*
D03*
X12648D02*
D03*
X12627D02*
D03*
X12711D02*
D03*
X1269D02*
D03*
X12564D02*
D03*
X12585D02*
D03*
X12753D02*
D03*
X12753Y07782D02*
D03*
X1269D02*
D03*
X12711D02*
D03*
X12585D02*
D03*
X12564D02*
D03*
X12648D02*
D03*
X12732D02*
D03*
X12627D02*
D03*
X12606D02*
D03*
X12774D02*
D03*
X12669D02*
D03*
X12736Y07477D02*
D03*
X1261D02*
D03*
X12778D02*
D03*
X12673D02*
D03*
X12652D02*
D03*
X12631D02*
D03*
X12715D02*
D03*
X12694D02*
D03*
X12568D02*
D03*
X12589D02*
D03*
X12757D02*
D03*
X12736Y07456D02*
D03*
X1261D02*
D03*
X12778D02*
D03*
X12673D02*
D03*
X12652D02*
D03*
X12631D02*
D03*
X12715D02*
D03*
X12694D02*
D03*
X12568D02*
D03*
X12589D02*
D03*
X12757D02*
D03*
X12736Y07435D02*
D03*
X1261D02*
D03*
X12778D02*
D03*
X12673D02*
D03*
X12652D02*
D03*
X12631D02*
D03*
X12715D02*
D03*
X12694D02*
D03*
X12568D02*
D03*
X12589D02*
D03*
X12757D02*
D03*
X12757Y07414D02*
D03*
X12694D02*
D03*
X12715D02*
D03*
X12589D02*
D03*
X12568D02*
D03*
X12652D02*
D03*
X12736D02*
D03*
X12631D02*
D03*
X1261D02*
D03*
X12778D02*
D03*
X12673D02*
D03*
X12918Y07552D02*
D03*
Y07678D02*
D03*
Y0751D02*
D03*
Y07615D02*
D03*
Y07636D02*
D03*
Y07657D02*
D03*
Y07573D02*
D03*
Y07594D02*
D03*
Y0772D02*
D03*
Y07699D02*
D03*
Y07531D02*
D03*
X12897Y07552D02*
D03*
Y07678D02*
D03*
Y0751D02*
D03*
Y07615D02*
D03*
Y07636D02*
D03*
Y07657D02*
D03*
Y07573D02*
D03*
Y07594D02*
D03*
Y0772D02*
D03*
Y07699D02*
D03*
Y07531D02*
D03*
X12876Y07552D02*
D03*
Y07678D02*
D03*
Y0751D02*
D03*
Y07615D02*
D03*
Y07636D02*
D03*
Y07657D02*
D03*
Y07573D02*
D03*
Y07594D02*
D03*
Y0772D02*
D03*
Y07699D02*
D03*
Y07531D02*
D03*
X12855D02*
D03*
Y07594D02*
D03*
Y07573D02*
D03*
Y07699D02*
D03*
Y0772D02*
D03*
Y07636D02*
D03*
Y07552D02*
D03*
Y07657D02*
D03*
Y07678D02*
D03*
Y0751D02*
D03*
Y07615D02*
D03*
X12507Y07592D02*
D03*
Y07718D02*
D03*
Y0755D02*
D03*
Y07655D02*
D03*
Y07676D02*
D03*
Y07697D02*
D03*
Y07613D02*
D03*
Y07634D02*
D03*
Y0776D02*
D03*
Y07739D02*
D03*
Y07571D02*
D03*
X12486Y07592D02*
D03*
Y07718D02*
D03*
Y0755D02*
D03*
Y07655D02*
D03*
Y07676D02*
D03*
Y07697D02*
D03*
Y07613D02*
D03*
Y07634D02*
D03*
Y0776D02*
D03*
Y07739D02*
D03*
Y07571D02*
D03*
X12465Y07592D02*
D03*
Y07718D02*
D03*
Y0755D02*
D03*
Y07655D02*
D03*
Y07676D02*
D03*
Y07697D02*
D03*
Y07613D02*
D03*
Y07634D02*
D03*
Y0776D02*
D03*
Y07739D02*
D03*
Y07571D02*
D03*
X12444D02*
D03*
Y07634D02*
D03*
Y07613D02*
D03*
Y07739D02*
D03*
Y0776D02*
D03*
Y07676D02*
D03*
Y07592D02*
D03*
Y07697D02*
D03*
Y07718D02*
D03*
Y0755D02*
D03*
Y07655D02*
D03*
X13869Y08895D02*
D03*
X13706Y08968D02*
D03*
X14002Y07419D02*
D03*
Y07545D02*
D03*
Y0765D02*
D03*
Y07482D02*
D03*
Y07503D02*
D03*
Y07608D02*
D03*
Y07524D02*
D03*
Y0744D02*
D03*
Y07461D02*
D03*
Y07587D02*
D03*
Y07566D02*
D03*
Y07629D02*
D03*
X13981Y07419D02*
D03*
Y07545D02*
D03*
Y0765D02*
D03*
Y07482D02*
D03*
Y07503D02*
D03*
Y07608D02*
D03*
Y07524D02*
D03*
Y0744D02*
D03*
Y07461D02*
D03*
Y07587D02*
D03*
Y07566D02*
D03*
Y07629D02*
D03*
X1396Y07419D02*
D03*
Y07545D02*
D03*
Y0765D02*
D03*
Y07482D02*
D03*
Y07503D02*
D03*
Y07608D02*
D03*
Y07524D02*
D03*
Y0744D02*
D03*
Y07461D02*
D03*
Y07587D02*
D03*
Y07566D02*
D03*
Y07629D02*
D03*
X13939Y07419D02*
D03*
Y07545D02*
D03*
Y0765D02*
D03*
Y07482D02*
D03*
Y07503D02*
D03*
Y07608D02*
D03*
Y07524D02*
D03*
Y0744D02*
D03*
Y07461D02*
D03*
Y07587D02*
D03*
Y07566D02*
D03*
Y07629D02*
D03*
X13918Y07419D02*
D03*
Y07545D02*
D03*
Y0765D02*
D03*
Y07482D02*
D03*
Y07503D02*
D03*
Y07608D02*
D03*
Y07524D02*
D03*
Y0744D02*
D03*
Y07461D02*
D03*
Y07587D02*
D03*
Y07566D02*
D03*
Y07629D02*
D03*
X13897Y07419D02*
D03*
Y07545D02*
D03*
Y0765D02*
D03*
Y07482D02*
D03*
Y07503D02*
D03*
Y07608D02*
D03*
Y07524D02*
D03*
Y0744D02*
D03*
Y07461D02*
D03*
Y07587D02*
D03*
Y07566D02*
D03*
Y07629D02*
D03*
X13876Y07419D02*
D03*
Y07545D02*
D03*
Y0765D02*
D03*
Y07482D02*
D03*
Y07503D02*
D03*
Y07608D02*
D03*
Y07524D02*
D03*
Y0744D02*
D03*
Y07461D02*
D03*
Y07587D02*
D03*
Y07566D02*
D03*
Y07629D02*
D03*
X13855Y07419D02*
D03*
Y07545D02*
D03*
Y0765D02*
D03*
Y07482D02*
D03*
Y07503D02*
D03*
Y07608D02*
D03*
Y07524D02*
D03*
Y0744D02*
D03*
Y07461D02*
D03*
Y07587D02*
D03*
Y07566D02*
D03*
Y07629D02*
D03*
X13834Y07419D02*
D03*
Y07545D02*
D03*
Y0765D02*
D03*
Y07482D02*
D03*
Y07503D02*
D03*
Y07608D02*
D03*
Y07524D02*
D03*
Y0744D02*
D03*
Y07461D02*
D03*
Y07587D02*
D03*
Y07566D02*
D03*
Y07629D02*
D03*
X13813Y07419D02*
D03*
Y07545D02*
D03*
Y0765D02*
D03*
Y07482D02*
D03*
Y07503D02*
D03*
Y07608D02*
D03*
Y07524D02*
D03*
Y0744D02*
D03*
Y07461D02*
D03*
Y07587D02*
D03*
Y07566D02*
D03*
Y07629D02*
D03*
X13792Y07419D02*
D03*
Y07545D02*
D03*
Y0765D02*
D03*
Y07482D02*
D03*
Y07503D02*
D03*
Y07608D02*
D03*
Y07524D02*
D03*
Y0744D02*
D03*
Y07461D02*
D03*
Y07587D02*
D03*
Y07566D02*
D03*
Y07629D02*
D03*
X13771Y07419D02*
D03*
Y07545D02*
D03*
Y0765D02*
D03*
Y07482D02*
D03*
Y07503D02*
D03*
Y07608D02*
D03*
Y07524D02*
D03*
Y0744D02*
D03*
Y07461D02*
D03*
Y07587D02*
D03*
Y07566D02*
D03*
Y07629D02*
D03*
X1375Y07419D02*
D03*
Y07545D02*
D03*
Y0765D02*
D03*
Y07482D02*
D03*
Y07503D02*
D03*
Y07608D02*
D03*
Y07524D02*
D03*
Y0744D02*
D03*
Y07461D02*
D03*
Y07587D02*
D03*
Y07566D02*
D03*
Y07629D02*
D03*
X1396Y0765D02*
D03*
X13834D02*
D03*
X13729D02*
D03*
X14002D02*
D03*
X13897D02*
D03*
X13876D02*
D03*
X13771D02*
D03*
X13855D02*
D03*
X13939D02*
D03*
X13918D02*
D03*
X13792D02*
D03*
X13813D02*
D03*
X1375D02*
D03*
X13981D02*
D03*
X13729Y07629D02*
D03*
Y07461D02*
D03*
Y0744D02*
D03*
Y07566D02*
D03*
Y07587D02*
D03*
Y07503D02*
D03*
Y07419D02*
D03*
Y07524D02*
D03*
Y07545D02*
D03*
Y0765D02*
D03*
Y07482D02*
D03*
Y07608D02*
D03*
X14288Y10999D02*
D03*
Y11125D02*
D03*
Y1123D02*
D03*
Y10957D02*
D03*
Y11062D02*
D03*
Y11083D02*
D03*
Y11188D02*
D03*
Y11104D02*
D03*
Y1102D02*
D03*
Y11041D02*
D03*
Y11167D02*
D03*
Y11146D02*
D03*
Y11209D02*
D03*
Y10978D02*
D03*
X14267Y10999D02*
D03*
Y11125D02*
D03*
Y10957D02*
D03*
Y11062D02*
D03*
Y11083D02*
D03*
Y11188D02*
D03*
Y11104D02*
D03*
Y1102D02*
D03*
Y11041D02*
D03*
Y11167D02*
D03*
Y11146D02*
D03*
Y11209D02*
D03*
Y10978D02*
D03*
X14246Y10999D02*
D03*
Y11125D02*
D03*
Y1123D02*
D03*
Y10957D02*
D03*
Y11062D02*
D03*
Y11083D02*
D03*
Y11188D02*
D03*
Y11104D02*
D03*
Y1102D02*
D03*
Y11041D02*
D03*
Y11167D02*
D03*
Y11146D02*
D03*
Y11209D02*
D03*
Y10978D02*
D03*
X14225Y10999D02*
D03*
Y11125D02*
D03*
Y1123D02*
D03*
Y10957D02*
D03*
Y11062D02*
D03*
Y11083D02*
D03*
Y11188D02*
D03*
Y11104D02*
D03*
Y1102D02*
D03*
Y11041D02*
D03*
Y11167D02*
D03*
Y11146D02*
D03*
Y11209D02*
D03*
Y10978D02*
D03*
X14204Y10999D02*
D03*
Y11125D02*
D03*
Y1123D02*
D03*
Y10957D02*
D03*
Y11062D02*
D03*
Y11083D02*
D03*
Y11188D02*
D03*
Y11104D02*
D03*
Y1102D02*
D03*
Y11041D02*
D03*
Y11167D02*
D03*
Y11146D02*
D03*
Y11209D02*
D03*
Y10978D02*
D03*
X14183Y10999D02*
D03*
Y11125D02*
D03*
Y1123D02*
D03*
Y10957D02*
D03*
Y11062D02*
D03*
Y11083D02*
D03*
Y11188D02*
D03*
Y11104D02*
D03*
Y1102D02*
D03*
Y11041D02*
D03*
Y11167D02*
D03*
Y11146D02*
D03*
Y11209D02*
D03*
Y10978D02*
D03*
X14162Y10999D02*
D03*
Y11125D02*
D03*
Y1123D02*
D03*
Y10957D02*
D03*
Y11062D02*
D03*
Y11083D02*
D03*
Y11188D02*
D03*
Y11104D02*
D03*
Y1102D02*
D03*
Y11041D02*
D03*
Y11167D02*
D03*
Y11146D02*
D03*
Y11209D02*
D03*
Y10978D02*
D03*
X14141Y10999D02*
D03*
Y11125D02*
D03*
Y10957D02*
D03*
Y11062D02*
D03*
Y11083D02*
D03*
Y11188D02*
D03*
Y11104D02*
D03*
Y1102D02*
D03*
Y11041D02*
D03*
Y11167D02*
D03*
Y11146D02*
D03*
Y11209D02*
D03*
Y10978D02*
D03*
X1412Y10999D02*
D03*
Y11125D02*
D03*
Y10957D02*
D03*
Y11062D02*
D03*
Y11083D02*
D03*
Y11188D02*
D03*
Y11104D02*
D03*
Y1102D02*
D03*
Y11041D02*
D03*
Y11167D02*
D03*
Y11146D02*
D03*
Y11209D02*
D03*
Y10978D02*
D03*
X14099Y10999D02*
D03*
Y11125D02*
D03*
Y1123D02*
D03*
Y10957D02*
D03*
Y11062D02*
D03*
Y11083D02*
D03*
Y11188D02*
D03*
Y11104D02*
D03*
Y1102D02*
D03*
Y11041D02*
D03*
Y11167D02*
D03*
Y11146D02*
D03*
Y11209D02*
D03*
Y10978D02*
D03*
X14078Y10999D02*
D03*
Y11125D02*
D03*
Y1123D02*
D03*
Y10957D02*
D03*
Y11062D02*
D03*
Y11083D02*
D03*
Y11188D02*
D03*
Y11104D02*
D03*
Y1102D02*
D03*
Y11041D02*
D03*
Y11167D02*
D03*
Y11146D02*
D03*
Y11209D02*
D03*
Y10978D02*
D03*
X14057Y10999D02*
D03*
Y11125D02*
D03*
Y1123D02*
D03*
Y10957D02*
D03*
Y11062D02*
D03*
Y11083D02*
D03*
Y11188D02*
D03*
Y11104D02*
D03*
Y1102D02*
D03*
Y11041D02*
D03*
Y11167D02*
D03*
Y11146D02*
D03*
Y11209D02*
D03*
Y10978D02*
D03*
X14036Y10999D02*
D03*
Y11125D02*
D03*
Y1123D02*
D03*
Y10957D02*
D03*
Y11062D02*
D03*
Y11083D02*
D03*
Y11188D02*
D03*
Y11104D02*
D03*
Y1102D02*
D03*
Y11041D02*
D03*
Y11167D02*
D03*
Y11146D02*
D03*
Y11209D02*
D03*
Y10978D02*
D03*
X1412Y1123D02*
D03*
X14141D02*
D03*
X14267D02*
D03*
X14015Y11209D02*
D03*
Y10978D02*
D03*
Y11041D02*
D03*
Y11146D02*
D03*
Y11083D02*
D03*
Y10999D02*
D03*
Y11104D02*
D03*
Y10957D02*
D03*
Y11062D02*
D03*
X14057Y10999D02*
D03*
Y11125D02*
D03*
Y1123D02*
D03*
Y10957D02*
D03*
Y11062D02*
D03*
Y11083D02*
D03*
Y11188D02*
D03*
Y11104D02*
D03*
Y1102D02*
D03*
Y11041D02*
D03*
Y11167D02*
D03*
Y11146D02*
D03*
Y11209D02*
D03*
Y10978D02*
D03*
X14036Y10999D02*
D03*
Y11125D02*
D03*
Y1123D02*
D03*
Y10957D02*
D03*
Y11062D02*
D03*
Y11083D02*
D03*
Y11188D02*
D03*
Y11104D02*
D03*
Y1102D02*
D03*
Y11041D02*
D03*
Y11167D02*
D03*
Y11146D02*
D03*
Y11209D02*
D03*
Y10978D02*
D03*
X14015Y11125D02*
D03*
Y11188D02*
D03*
Y1102D02*
D03*
Y11167D02*
D03*
X13994Y10999D02*
D03*
Y11125D02*
D03*
Y1123D02*
D03*
Y10957D02*
D03*
Y11062D02*
D03*
Y11083D02*
D03*
Y11188D02*
D03*
Y11104D02*
D03*
Y1102D02*
D03*
Y11041D02*
D03*
Y11167D02*
D03*
Y11146D02*
D03*
Y11209D02*
D03*
Y10978D02*
D03*
X13973Y10999D02*
D03*
Y11125D02*
D03*
Y10957D02*
D03*
Y11062D02*
D03*
Y11083D02*
D03*
Y11188D02*
D03*
Y11104D02*
D03*
Y1102D02*
D03*
Y11041D02*
D03*
Y11167D02*
D03*
Y11146D02*
D03*
Y11209D02*
D03*
Y10978D02*
D03*
X13952Y10999D02*
D03*
Y11125D02*
D03*
Y1123D02*
D03*
Y10957D02*
D03*
Y11062D02*
D03*
Y11083D02*
D03*
Y11188D02*
D03*
Y11104D02*
D03*
Y1102D02*
D03*
Y11041D02*
D03*
Y11167D02*
D03*
Y11146D02*
D03*
Y11209D02*
D03*
Y10978D02*
D03*
X13931Y10999D02*
D03*
Y11125D02*
D03*
Y10957D02*
D03*
Y11062D02*
D03*
Y11083D02*
D03*
Y11188D02*
D03*
Y11104D02*
D03*
Y1102D02*
D03*
Y11041D02*
D03*
Y11167D02*
D03*
Y11146D02*
D03*
Y11209D02*
D03*
Y10978D02*
D03*
X1391Y10999D02*
D03*
Y11125D02*
D03*
Y10957D02*
D03*
Y11062D02*
D03*
Y11083D02*
D03*
Y11188D02*
D03*
Y11104D02*
D03*
Y1102D02*
D03*
Y11041D02*
D03*
Y11167D02*
D03*
Y11146D02*
D03*
Y11209D02*
D03*
Y10978D02*
D03*
X13889Y10999D02*
D03*
Y11125D02*
D03*
Y10957D02*
D03*
Y11062D02*
D03*
Y11083D02*
D03*
Y11188D02*
D03*
Y11104D02*
D03*
Y1102D02*
D03*
Y11041D02*
D03*
Y11167D02*
D03*
Y11146D02*
D03*
Y11209D02*
D03*
Y10978D02*
D03*
X13868Y10999D02*
D03*
Y11125D02*
D03*
Y1123D02*
D03*
Y10957D02*
D03*
Y11062D02*
D03*
Y11083D02*
D03*
Y11188D02*
D03*
Y11104D02*
D03*
Y1102D02*
D03*
Y11041D02*
D03*
Y11167D02*
D03*
Y11146D02*
D03*
Y11209D02*
D03*
Y10978D02*
D03*
X13847Y10999D02*
D03*
Y11125D02*
D03*
Y1123D02*
D03*
Y10957D02*
D03*
Y11062D02*
D03*
Y11083D02*
D03*
Y11188D02*
D03*
Y11104D02*
D03*
Y1102D02*
D03*
Y11041D02*
D03*
Y11167D02*
D03*
Y11146D02*
D03*
Y11209D02*
D03*
Y10978D02*
D03*
X13826Y10999D02*
D03*
Y11125D02*
D03*
Y1123D02*
D03*
Y10957D02*
D03*
Y11062D02*
D03*
Y11083D02*
D03*
Y11188D02*
D03*
Y11104D02*
D03*
Y1102D02*
D03*
Y11041D02*
D03*
Y11167D02*
D03*
Y11146D02*
D03*
Y11209D02*
D03*
Y10978D02*
D03*
X13805Y10999D02*
D03*
Y11125D02*
D03*
Y10957D02*
D03*
Y11062D02*
D03*
Y11083D02*
D03*
Y11188D02*
D03*
Y11104D02*
D03*
Y1102D02*
D03*
Y11041D02*
D03*
Y11167D02*
D03*
Y11146D02*
D03*
Y11209D02*
D03*
Y10978D02*
D03*
X14015Y1123D02*
D03*
X13889D02*
D03*
X13784D02*
D03*
X13931D02*
D03*
X1391D02*
D03*
X13973D02*
D03*
X13805D02*
D03*
X13784Y11209D02*
D03*
Y10978D02*
D03*
Y11041D02*
D03*
Y1102D02*
D03*
Y11146D02*
D03*
Y11167D02*
D03*
Y11083D02*
D03*
Y10999D02*
D03*
Y11104D02*
D03*
Y11125D02*
D03*
Y10957D02*
D03*
Y11062D02*
D03*
Y11188D02*
D03*
X151064Y109137D02*
D03*
X150173Y110028D02*
D03*
X14943Y11077D02*
D03*
X151361Y10884D02*
D03*
X150618Y109582D02*
D03*
X15047Y109731D02*
D03*
X149727Y110473D02*
D03*
X150321Y109879D02*
D03*
X150915Y109285D02*
D03*
X150767Y109434D02*
D03*
X149876Y110325D02*
D03*
X150024Y110176D02*
D03*
X149579Y110622D02*
D03*
X151212Y108988D02*
D03*
X150915Y108988D02*
D03*
X150024Y109879D02*
D03*
X149282Y110622D02*
D03*
X151212Y108692D02*
D03*
X15047Y109434D02*
D03*
X150321Y109582D02*
D03*
X149579Y110325D02*
D03*
X150173Y109731D02*
D03*
X150767Y109137D02*
D03*
X150618Y109285D02*
D03*
X149727Y110176D02*
D03*
X149876Y110028D02*
D03*
X14943Y110473D02*
D03*
X151064Y10884D02*
D03*
X150767D02*
D03*
X149876Y109731D02*
D03*
X149133Y110473D02*
D03*
X151064Y108543D02*
D03*
X150321Y109285D02*
D03*
X150173Y109434D02*
D03*
X14943Y110176D02*
D03*
X150024Y109582D02*
D03*
X150618Y108988D02*
D03*
X15047Y109137D02*
D03*
X149579Y110028D02*
D03*
X149727Y109879D02*
D03*
X149282Y110325D02*
D03*
X150915Y108692D02*
D03*
X150618D02*
D03*
X149727Y109582D02*
D03*
X148985Y110325D02*
D03*
X150915Y108395D02*
D03*
X150173Y109137D02*
D03*
X150024Y109285D02*
D03*
X149282Y110028D02*
D03*
X149876Y109434D02*
D03*
X15047Y10884D02*
D03*
X150321Y108988D02*
D03*
X14943Y109879D02*
D03*
X149579Y109731D02*
D03*
X149133Y110176D02*
D03*
X150767Y108543D02*
D03*
X15047D02*
D03*
X149579Y109434D02*
D03*
X148836Y110176D02*
D03*
X150767Y108246D02*
D03*
X150024Y108988D02*
D03*
X149876Y109137D02*
D03*
X149133Y109879D02*
D03*
X149727Y109285D02*
D03*
X150321Y108692D02*
D03*
X150173Y10884D02*
D03*
X149282Y109731D02*
D03*
X14943Y109582D02*
D03*
X148985Y110028D02*
D03*
X150618Y108395D02*
D03*
X150321Y108395D02*
D03*
X14943Y109285D02*
D03*
X148688Y110028D02*
D03*
X150618Y108098D02*
D03*
X149876Y10884D02*
D03*
X149727Y108988D02*
D03*
X148985Y109731D02*
D03*
X149579Y109137D02*
D03*
X150173Y108543D02*
D03*
X150024Y108692D02*
D03*
X149133Y109582D02*
D03*
X149282Y109434D02*
D03*
X148836Y109879D02*
D03*
X15047Y108246D02*
D03*
X150173D02*
D03*
X149282Y109137D02*
D03*
X148539Y109879D02*
D03*
X15047Y107949D02*
D03*
X149727Y108692D02*
D03*
X149579Y10884D02*
D03*
X148836Y109582D02*
D03*
X14943Y108988D02*
D03*
X150024Y108395D02*
D03*
X149876Y108543D02*
D03*
X148985Y109434D02*
D03*
X149133Y109285D02*
D03*
X148688Y109731D02*
D03*
X150321Y108098D02*
D03*
X150024Y108098D02*
D03*
X149133Y108988D02*
D03*
X148391Y109731D02*
D03*
X150321Y107801D02*
D03*
X149579Y108543D02*
D03*
X14943Y108692D02*
D03*
X148688Y109434D02*
D03*
X149282Y10884D02*
D03*
X149876Y108246D02*
D03*
X149727Y108395D02*
D03*
X148836Y109285D02*
D03*
X148985Y109137D02*
D03*
X148539Y109582D02*
D03*
X150173Y107949D02*
D03*
X149876Y107949D02*
D03*
X148985Y10884D02*
D03*
X148242Y109582D02*
D03*
X150173Y107652D02*
D03*
X14943Y108395D02*
D03*
X149282Y108543D02*
D03*
X148539Y109285D02*
D03*
X149133Y108692D02*
D03*
X149727Y108098D02*
D03*
X149579Y108246D02*
D03*
X148688Y109137D02*
D03*
X148836Y108988D02*
D03*
X148391Y109434D02*
D03*
X150024Y107801D02*
D03*
X149727D02*
D03*
X148836Y108692D02*
D03*
X148094Y109434D02*
D03*
X150024Y107504D02*
D03*
X149282Y108246D02*
D03*
X149133Y108395D02*
D03*
X148391Y109137D02*
D03*
X148985Y108543D02*
D03*
X149579Y107949D02*
D03*
X14943Y108098D02*
D03*
X148539Y108988D02*
D03*
X148688Y10884D02*
D03*
X148242Y109285D02*
D03*
X149876Y107652D02*
D03*
X149579D02*
D03*
X148688Y108543D02*
D03*
X147945Y109285D02*
D03*
X149876Y107355D02*
D03*
X149133Y108098D02*
D03*
X148985Y108246D02*
D03*
X148242Y108988D02*
D03*
X148836Y108395D02*
D03*
X14943Y107801D02*
D03*
X149282Y107949D02*
D03*
X148391Y10884D02*
D03*
X148539Y108692D02*
D03*
X148094Y109137D02*
D03*
X149727Y107504D02*
D03*
X14943D02*
D03*
X148539Y108395D02*
D03*
X147797Y109137D02*
D03*
X149727Y107207D02*
D03*
X148985Y107949D02*
D03*
X148836Y108098D02*
D03*
X148094Y10884D02*
D03*
X148688Y108246D02*
D03*
X149282Y107652D02*
D03*
X149133Y107801D02*
D03*
X148242Y108692D02*
D03*
X148391Y108543D02*
D03*
X147945Y108988D02*
D03*
X149579Y107355D02*
D03*
X149282Y107355D02*
D03*
X148391Y108246D02*
D03*
X147648Y108988D02*
D03*
X149579Y107058D02*
D03*
X148836Y107801D02*
D03*
X148688Y107949D02*
D03*
X147945Y108692D02*
D03*
X148539Y108098D02*
D03*
X149133Y107504D02*
D03*
X148985Y107652D02*
D03*
X148094Y108543D02*
D03*
X148242Y108395D02*
D03*
X147797Y10884D02*
D03*
X14943Y107207D02*
D03*
X149133Y110473D02*
D03*
X148242Y109582D02*
D03*
X1475Y10884D02*
D03*
X14943Y11077D02*
D03*
X148688Y110028D02*
D03*
X148539Y109879D02*
D03*
X147797Y109137D02*
D03*
X148391Y109731D02*
D03*
X148985Y110325D02*
D03*
X148836Y110176D02*
D03*
X147945Y109285D02*
D03*
X148094Y109434D02*
D03*
X147648Y108988D02*
D03*
X149282Y110622D02*
D03*
X147648Y108692D02*
D03*
X149282Y107058D02*
D03*
X148836Y107504D02*
D03*
X148985Y107355D02*
D03*
X148094Y108246D02*
D03*
X147945Y108395D02*
D03*
X148539Y107801D02*
D03*
X149133Y107207D02*
D03*
X148391Y107949D02*
D03*
X148242Y108098D02*
D03*
X1475Y10884D02*
D03*
X14943Y10691D02*
D03*
X148688Y107652D02*
D03*
X147797Y108543D02*
D03*
X148004Y105027D02*
D03*
X147113Y105918D02*
D03*
X14637Y10666D02*
D03*
X148301Y10473D02*
D03*
X147558Y105472D02*
D03*
X14741Y105621D02*
D03*
X146667Y106363D02*
D03*
X147261Y105769D02*
D03*
X147855Y105175D02*
D03*
X147707Y105324D02*
D03*
X146816Y106215D02*
D03*
X146964Y106066D02*
D03*
X146519Y106512D02*
D03*
X148152Y104878D02*
D03*
X147855Y104878D02*
D03*
X146964Y105769D02*
D03*
X146222Y106512D02*
D03*
X148152Y104582D02*
D03*
X14741Y105324D02*
D03*
X147261Y105472D02*
D03*
X146519Y106215D02*
D03*
X147113Y105621D02*
D03*
X147707Y105027D02*
D03*
X147558Y105175D02*
D03*
X146667Y106066D02*
D03*
X146816Y105918D02*
D03*
X14637Y106363D02*
D03*
X148004Y10473D02*
D03*
X147707D02*
D03*
X146816Y105621D02*
D03*
X146073Y106363D02*
D03*
X148004Y104433D02*
D03*
X147261Y105175D02*
D03*
X147113Y105324D02*
D03*
X14637Y106066D02*
D03*
X146964Y105472D02*
D03*
X147558Y104878D02*
D03*
X14741Y105027D02*
D03*
X146519Y105918D02*
D03*
X146667Y105769D02*
D03*
X146222Y106215D02*
D03*
X147855Y104582D02*
D03*
X147558D02*
D03*
X146667Y105472D02*
D03*
X145925Y106215D02*
D03*
X147855Y104285D02*
D03*
X147113Y105027D02*
D03*
X146964Y105175D02*
D03*
X146222Y105918D02*
D03*
X146816Y105324D02*
D03*
X14741Y10473D02*
D03*
X147261Y104878D02*
D03*
X14637Y105769D02*
D03*
X146519Y105621D02*
D03*
X146073Y106066D02*
D03*
X147707Y104433D02*
D03*
X14741D02*
D03*
X146519Y105324D02*
D03*
X145776Y106066D02*
D03*
X147707Y104136D02*
D03*
X146964Y104878D02*
D03*
X146816Y105027D02*
D03*
X146073Y105769D02*
D03*
X146667Y105175D02*
D03*
X147261Y104582D02*
D03*
X147113Y10473D02*
D03*
X146222Y105621D02*
D03*
X14637Y105472D02*
D03*
X145925Y105918D02*
D03*
X147558Y104285D02*
D03*
X147261Y104285D02*
D03*
X14637Y105175D02*
D03*
X145628Y105918D02*
D03*
X147558Y103988D02*
D03*
X146816Y10473D02*
D03*
X146667Y104878D02*
D03*
X145925Y105621D02*
D03*
X146519Y105027D02*
D03*
X147113Y104433D02*
D03*
X146964Y104582D02*
D03*
X146073Y105472D02*
D03*
X146222Y105324D02*
D03*
X145776Y105769D02*
D03*
X14741Y104136D02*
D03*
X147113D02*
D03*
X146222Y105027D02*
D03*
X145479Y105769D02*
D03*
X14741Y103839D02*
D03*
X146667Y104582D02*
D03*
X146519Y10473D02*
D03*
X145776Y105472D02*
D03*
X14637Y104878D02*
D03*
X146964Y104285D02*
D03*
X146816Y104433D02*
D03*
X145925Y105324D02*
D03*
X146073Y105175D02*
D03*
X145628Y105621D02*
D03*
X147261Y103988D02*
D03*
X146964Y103988D02*
D03*
X146073Y104878D02*
D03*
X145331Y105621D02*
D03*
X147261Y103691D02*
D03*
X146519Y104433D02*
D03*
X14637Y104582D02*
D03*
X145628Y105324D02*
D03*
X146222Y10473D02*
D03*
X146816Y104136D02*
D03*
X146667Y104285D02*
D03*
X145776Y105175D02*
D03*
X145925Y105027D02*
D03*
X145479Y105472D02*
D03*
X147113Y103839D02*
D03*
X146816Y103839D02*
D03*
X145925Y10473D02*
D03*
X145182Y105472D02*
D03*
X147113Y103542D02*
D03*
X14637Y104285D02*
D03*
X146222Y104433D02*
D03*
X145479Y105175D02*
D03*
X146073Y104582D02*
D03*
X146667Y103988D02*
D03*
X146519Y104136D02*
D03*
X145628Y105027D02*
D03*
X145776Y104878D02*
D03*
X145331Y105324D02*
D03*
X146964Y103691D02*
D03*
X146667D02*
D03*
X145776Y104582D02*
D03*
X145034Y105324D02*
D03*
X146964Y103394D02*
D03*
X146222Y104136D02*
D03*
X146073Y104285D02*
D03*
X145331Y105027D02*
D03*
X145925Y104433D02*
D03*
X146519Y103839D02*
D03*
X14637Y103988D02*
D03*
X145479Y104878D02*
D03*
X145628Y10473D02*
D03*
X145182Y105175D02*
D03*
X146816Y103542D02*
D03*
X146519D02*
D03*
X145628Y104433D02*
D03*
X144885Y105175D02*
D03*
X146816Y103245D02*
D03*
X146073Y103988D02*
D03*
X145925Y104136D02*
D03*
X145182Y104878D02*
D03*
X145776Y104285D02*
D03*
X14637Y103691D02*
D03*
X146222Y103839D02*
D03*
X145331Y10473D02*
D03*
X145479Y104582D02*
D03*
X145034Y105027D02*
D03*
X146667Y103394D02*
D03*
X14637D02*
D03*
X145479Y104285D02*
D03*
X144737Y105027D02*
D03*
X146667Y103097D02*
D03*
X145925Y103839D02*
D03*
X145776Y103988D02*
D03*
X145034Y10473D02*
D03*
X145628Y104136D02*
D03*
X146222Y103542D02*
D03*
X146073Y103691D02*
D03*
X145182Y104582D02*
D03*
X145331Y104433D02*
D03*
X144885Y104878D02*
D03*
X146519Y103245D02*
D03*
X146222Y103245D02*
D03*
X145331Y104136D02*
D03*
X144588Y104878D02*
D03*
X146519Y102948D02*
D03*
X145776Y103691D02*
D03*
X145628Y103839D02*
D03*
X144885Y104582D02*
D03*
X145479Y103988D02*
D03*
X146073Y103394D02*
D03*
X145925Y103542D02*
D03*
X145034Y104433D02*
D03*
X145182Y104285D02*
D03*
X144737Y10473D02*
D03*
X14637Y103097D02*
D03*
X146073Y106363D02*
D03*
X145182Y105472D02*
D03*
X14444Y10473D02*
D03*
X14637Y10666D02*
D03*
X145628Y105918D02*
D03*
X145479Y105769D02*
D03*
X144737Y105027D02*
D03*
X145331Y105621D02*
D03*
X145925Y106215D02*
D03*
X145776Y106066D02*
D03*
X144885Y105175D02*
D03*
X145034Y105324D02*
D03*
X144588Y104878D02*
D03*
X146222Y106512D02*
D03*
X144588Y104582D02*
D03*
X146222Y102948D02*
D03*
X145776Y103394D02*
D03*
X145925Y103245D02*
D03*
X145034Y104136D02*
D03*
X144885Y104285D02*
D03*
X145479Y103691D02*
D03*
X146073Y103097D02*
D03*
X145331Y103839D02*
D03*
X145182Y103988D02*
D03*
X14444Y10473D02*
D03*
X14637Y1028D02*
D03*
X145628Y103542D02*
D03*
X144737Y104433D02*
D03*
X1306Y09975D02*
D03*
Y10101D02*
D03*
Y10206D02*
D03*
Y09933D02*
D03*
Y10038D02*
D03*
Y10059D02*
D03*
Y10164D02*
D03*
Y1008D02*
D03*
Y09996D02*
D03*
Y10017D02*
D03*
Y10143D02*
D03*
Y10122D02*
D03*
Y10185D02*
D03*
Y09954D02*
D03*
X13039Y09975D02*
D03*
Y10101D02*
D03*
Y10206D02*
D03*
Y09933D02*
D03*
Y10038D02*
D03*
Y10059D02*
D03*
Y10164D02*
D03*
Y1008D02*
D03*
Y09996D02*
D03*
Y10017D02*
D03*
Y10143D02*
D03*
Y10122D02*
D03*
Y10185D02*
D03*
Y09954D02*
D03*
X13018Y09975D02*
D03*
Y10101D02*
D03*
Y10206D02*
D03*
Y09933D02*
D03*
Y10038D02*
D03*
Y10059D02*
D03*
Y10164D02*
D03*
Y1008D02*
D03*
Y09996D02*
D03*
Y10017D02*
D03*
Y10143D02*
D03*
Y10122D02*
D03*
Y10185D02*
D03*
Y09954D02*
D03*
X12997Y09975D02*
D03*
Y10101D02*
D03*
Y10206D02*
D03*
Y09933D02*
D03*
Y10038D02*
D03*
Y10059D02*
D03*
Y10164D02*
D03*
Y1008D02*
D03*
Y09996D02*
D03*
Y10017D02*
D03*
Y10143D02*
D03*
Y10122D02*
D03*
Y10185D02*
D03*
Y09954D02*
D03*
X12976Y09975D02*
D03*
Y10101D02*
D03*
Y10206D02*
D03*
Y09933D02*
D03*
Y10038D02*
D03*
Y10059D02*
D03*
Y10164D02*
D03*
Y1008D02*
D03*
Y09996D02*
D03*
Y10017D02*
D03*
Y10143D02*
D03*
Y10122D02*
D03*
Y10185D02*
D03*
Y09954D02*
D03*
X12955Y09975D02*
D03*
Y10101D02*
D03*
Y10206D02*
D03*
Y09933D02*
D03*
Y10038D02*
D03*
Y10059D02*
D03*
Y10164D02*
D03*
Y1008D02*
D03*
Y09996D02*
D03*
Y10017D02*
D03*
Y10143D02*
D03*
Y10122D02*
D03*
Y10185D02*
D03*
Y09954D02*
D03*
X12934Y09975D02*
D03*
Y10101D02*
D03*
Y10206D02*
D03*
Y09933D02*
D03*
Y10038D02*
D03*
Y10059D02*
D03*
Y10164D02*
D03*
Y1008D02*
D03*
Y09996D02*
D03*
Y10017D02*
D03*
Y10143D02*
D03*
Y10122D02*
D03*
Y10185D02*
D03*
Y09954D02*
D03*
X12913Y09975D02*
D03*
Y10101D02*
D03*
Y10206D02*
D03*
Y09933D02*
D03*
Y10038D02*
D03*
Y10059D02*
D03*
Y10164D02*
D03*
Y1008D02*
D03*
Y09996D02*
D03*
Y10017D02*
D03*
Y10143D02*
D03*
Y10122D02*
D03*
Y10185D02*
D03*
Y09954D02*
D03*
X12892Y09975D02*
D03*
Y10101D02*
D03*
Y10206D02*
D03*
Y09933D02*
D03*
Y10038D02*
D03*
Y10059D02*
D03*
Y10164D02*
D03*
Y1008D02*
D03*
Y09996D02*
D03*
Y10017D02*
D03*
Y10143D02*
D03*
Y10122D02*
D03*
Y10185D02*
D03*
Y09954D02*
D03*
X12871Y09975D02*
D03*
Y10101D02*
D03*
Y10206D02*
D03*
Y09933D02*
D03*
Y10038D02*
D03*
Y10059D02*
D03*
Y10164D02*
D03*
Y1008D02*
D03*
Y09996D02*
D03*
Y10017D02*
D03*
Y10143D02*
D03*
Y10122D02*
D03*
Y10185D02*
D03*
Y09954D02*
D03*
X1285Y09975D02*
D03*
Y10101D02*
D03*
Y10206D02*
D03*
Y09933D02*
D03*
Y10038D02*
D03*
Y10059D02*
D03*
Y10164D02*
D03*
Y1008D02*
D03*
Y09996D02*
D03*
Y10017D02*
D03*
Y10143D02*
D03*
Y10122D02*
D03*
Y10185D02*
D03*
Y09954D02*
D03*
X12829Y09975D02*
D03*
Y10101D02*
D03*
Y10206D02*
D03*
Y09933D02*
D03*
Y10038D02*
D03*
Y10059D02*
D03*
Y10164D02*
D03*
Y1008D02*
D03*
Y09996D02*
D03*
Y10017D02*
D03*
Y10143D02*
D03*
Y10122D02*
D03*
Y10185D02*
D03*
Y09954D02*
D03*
X12808Y09975D02*
D03*
Y10101D02*
D03*
Y10206D02*
D03*
Y09933D02*
D03*
Y10038D02*
D03*
Y10059D02*
D03*
Y10164D02*
D03*
Y1008D02*
D03*
Y09996D02*
D03*
Y10017D02*
D03*
Y10143D02*
D03*
Y10122D02*
D03*
Y10185D02*
D03*
Y09954D02*
D03*
X13018Y10206D02*
D03*
X12892D02*
D03*
X12787D02*
D03*
X1306D02*
D03*
X12955D02*
D03*
X12934D02*
D03*
X12829D02*
D03*
X12913D02*
D03*
X12997D02*
D03*
X12976D02*
D03*
X1285D02*
D03*
X12871D02*
D03*
X12808D02*
D03*
X13039D02*
D03*
X12787Y10185D02*
D03*
Y09954D02*
D03*
Y10017D02*
D03*
Y09996D02*
D03*
Y10122D02*
D03*
Y10143D02*
D03*
Y10059D02*
D03*
Y09975D02*
D03*
Y1008D02*
D03*
Y10101D02*
D03*
Y10206D02*
D03*
Y09933D02*
D03*
Y10038D02*
D03*
Y10164D02*
D03*
X1306Y10248D02*
D03*
Y10374D02*
D03*
Y10479D02*
D03*
Y10206D02*
D03*
Y10311D02*
D03*
Y10332D02*
D03*
Y10437D02*
D03*
Y10353D02*
D03*
Y10269D02*
D03*
Y1029D02*
D03*
Y10416D02*
D03*
Y10395D02*
D03*
Y10458D02*
D03*
Y10227D02*
D03*
X13039Y10248D02*
D03*
Y10374D02*
D03*
Y10479D02*
D03*
Y10206D02*
D03*
Y10311D02*
D03*
Y10332D02*
D03*
Y10437D02*
D03*
Y10353D02*
D03*
Y10269D02*
D03*
Y1029D02*
D03*
Y10416D02*
D03*
Y10395D02*
D03*
Y10458D02*
D03*
Y10227D02*
D03*
X13018Y10248D02*
D03*
Y10374D02*
D03*
Y10479D02*
D03*
Y10206D02*
D03*
Y10311D02*
D03*
Y10332D02*
D03*
Y10437D02*
D03*
Y10353D02*
D03*
Y10269D02*
D03*
Y1029D02*
D03*
Y10416D02*
D03*
Y10395D02*
D03*
Y10458D02*
D03*
Y10227D02*
D03*
X12997Y10248D02*
D03*
Y10374D02*
D03*
Y10479D02*
D03*
Y10206D02*
D03*
Y10311D02*
D03*
Y10332D02*
D03*
Y10437D02*
D03*
Y10353D02*
D03*
Y10269D02*
D03*
Y1029D02*
D03*
Y10416D02*
D03*
Y10395D02*
D03*
Y10458D02*
D03*
Y10227D02*
D03*
X12976Y10248D02*
D03*
Y10374D02*
D03*
Y10479D02*
D03*
Y10206D02*
D03*
Y10311D02*
D03*
Y10332D02*
D03*
Y10437D02*
D03*
Y10353D02*
D03*
Y10269D02*
D03*
Y1029D02*
D03*
Y10416D02*
D03*
Y10395D02*
D03*
Y10458D02*
D03*
Y10227D02*
D03*
X12955Y10248D02*
D03*
Y10374D02*
D03*
Y10479D02*
D03*
Y10206D02*
D03*
Y10311D02*
D03*
Y10332D02*
D03*
Y10437D02*
D03*
Y10353D02*
D03*
Y10269D02*
D03*
Y1029D02*
D03*
Y10416D02*
D03*
Y10395D02*
D03*
Y10458D02*
D03*
Y10227D02*
D03*
X12934Y10248D02*
D03*
Y10374D02*
D03*
Y10479D02*
D03*
Y10206D02*
D03*
Y10311D02*
D03*
Y10332D02*
D03*
Y10437D02*
D03*
Y10353D02*
D03*
Y10269D02*
D03*
Y1029D02*
D03*
Y10416D02*
D03*
Y10395D02*
D03*
Y10458D02*
D03*
Y10227D02*
D03*
X12913Y10248D02*
D03*
Y10374D02*
D03*
Y10479D02*
D03*
Y10206D02*
D03*
Y10311D02*
D03*
Y10332D02*
D03*
Y10437D02*
D03*
Y10353D02*
D03*
Y10269D02*
D03*
Y1029D02*
D03*
Y10416D02*
D03*
Y10395D02*
D03*
Y10458D02*
D03*
Y10227D02*
D03*
X12892Y10248D02*
D03*
Y10374D02*
D03*
Y10479D02*
D03*
Y10206D02*
D03*
Y10311D02*
D03*
Y10332D02*
D03*
Y10437D02*
D03*
Y10353D02*
D03*
Y10269D02*
D03*
Y1029D02*
D03*
Y10416D02*
D03*
Y10395D02*
D03*
Y10458D02*
D03*
Y10227D02*
D03*
X12871Y10248D02*
D03*
Y10374D02*
D03*
Y10479D02*
D03*
Y10206D02*
D03*
Y10311D02*
D03*
Y10332D02*
D03*
Y10437D02*
D03*
Y10353D02*
D03*
Y10269D02*
D03*
Y1029D02*
D03*
Y10416D02*
D03*
Y10395D02*
D03*
Y10458D02*
D03*
Y10227D02*
D03*
X1285Y10248D02*
D03*
Y10374D02*
D03*
Y10479D02*
D03*
Y10206D02*
D03*
Y10311D02*
D03*
Y10332D02*
D03*
Y10437D02*
D03*
Y10353D02*
D03*
Y10269D02*
D03*
Y1029D02*
D03*
Y10416D02*
D03*
Y10395D02*
D03*
Y10458D02*
D03*
Y10227D02*
D03*
X12829Y10248D02*
D03*
Y10374D02*
D03*
Y10479D02*
D03*
Y10206D02*
D03*
Y10311D02*
D03*
Y10332D02*
D03*
Y10437D02*
D03*
Y10353D02*
D03*
Y10269D02*
D03*
Y1029D02*
D03*
Y10416D02*
D03*
Y10395D02*
D03*
Y10458D02*
D03*
Y10227D02*
D03*
X12808Y10248D02*
D03*
Y10374D02*
D03*
Y10479D02*
D03*
Y10206D02*
D03*
Y10311D02*
D03*
Y10332D02*
D03*
Y10437D02*
D03*
Y10353D02*
D03*
Y10269D02*
D03*
Y1029D02*
D03*
Y10416D02*
D03*
Y10395D02*
D03*
Y10458D02*
D03*
Y10227D02*
D03*
X13018Y10479D02*
D03*
X12892D02*
D03*
X12787D02*
D03*
X1306D02*
D03*
X12955D02*
D03*
X12934D02*
D03*
X12829D02*
D03*
X12913D02*
D03*
X12997D02*
D03*
X12976D02*
D03*
X1285D02*
D03*
X12871D02*
D03*
X12808D02*
D03*
X13039D02*
D03*
X12787Y10458D02*
D03*
Y10227D02*
D03*
Y1029D02*
D03*
Y10269D02*
D03*
Y10395D02*
D03*
Y10416D02*
D03*
Y10332D02*
D03*
Y10248D02*
D03*
Y10353D02*
D03*
Y10374D02*
D03*
Y10479D02*
D03*
Y10206D02*
D03*
Y10311D02*
D03*
Y10437D02*
D03*
X12206Y08375D02*
D03*
Y08249D02*
D03*
Y08144D02*
D03*
Y08417D02*
D03*
Y08312D02*
D03*
Y08291D02*
D03*
Y08186D02*
D03*
Y0827D02*
D03*
Y08354D02*
D03*
Y08333D02*
D03*
Y08207D02*
D03*
Y08228D02*
D03*
Y08165D02*
D03*
Y08396D02*
D03*
X12227Y08417D02*
D03*
X12269D02*
D03*
X12248D02*
D03*
X12206D02*
D03*
X12227Y08165D02*
D03*
Y08396D02*
D03*
Y08333D02*
D03*
Y08354D02*
D03*
Y08228D02*
D03*
Y08207D02*
D03*
Y08291D02*
D03*
Y08375D02*
D03*
Y0827D02*
D03*
Y08249D02*
D03*
Y08144D02*
D03*
Y08417D02*
D03*
Y08312D02*
D03*
Y08186D02*
D03*
X12248Y08165D02*
D03*
Y08396D02*
D03*
Y08333D02*
D03*
Y08354D02*
D03*
Y08228D02*
D03*
Y08207D02*
D03*
Y08291D02*
D03*
Y08375D02*
D03*
Y0827D02*
D03*
Y08249D02*
D03*
Y08144D02*
D03*
Y08417D02*
D03*
Y08312D02*
D03*
Y08186D02*
D03*
X12269Y08165D02*
D03*
Y08396D02*
D03*
Y08333D02*
D03*
Y08354D02*
D03*
Y08228D02*
D03*
Y08207D02*
D03*
Y08291D02*
D03*
Y08375D02*
D03*
Y0827D02*
D03*
Y08249D02*
D03*
Y08144D02*
D03*
Y08417D02*
D03*
Y08312D02*
D03*
Y08186D02*
D03*
X12206Y08102D02*
D03*
Y07976D02*
D03*
Y07871D02*
D03*
Y08144D02*
D03*
Y08039D02*
D03*
Y08018D02*
D03*
Y07913D02*
D03*
Y07997D02*
D03*
Y08081D02*
D03*
Y0806D02*
D03*
Y07934D02*
D03*
Y07955D02*
D03*
Y07892D02*
D03*
Y08123D02*
D03*
X12227Y08144D02*
D03*
X12269D02*
D03*
X12248D02*
D03*
X12206D02*
D03*
X12227Y07892D02*
D03*
Y08123D02*
D03*
Y0806D02*
D03*
Y08081D02*
D03*
Y07955D02*
D03*
Y07934D02*
D03*
Y08018D02*
D03*
Y08102D02*
D03*
Y07997D02*
D03*
Y07976D02*
D03*
Y07871D02*
D03*
Y08144D02*
D03*
Y08039D02*
D03*
Y07913D02*
D03*
X12248Y07892D02*
D03*
Y08123D02*
D03*
Y0806D02*
D03*
Y08081D02*
D03*
Y07955D02*
D03*
Y07934D02*
D03*
Y08018D02*
D03*
Y08102D02*
D03*
Y07997D02*
D03*
Y07976D02*
D03*
Y07871D02*
D03*
Y08144D02*
D03*
Y08039D02*
D03*
Y07913D02*
D03*
X12269Y07892D02*
D03*
Y08123D02*
D03*
Y0806D02*
D03*
Y08081D02*
D03*
Y07955D02*
D03*
Y07934D02*
D03*
Y08018D02*
D03*
Y08102D02*
D03*
Y07997D02*
D03*
Y07976D02*
D03*
Y07871D02*
D03*
Y08144D02*
D03*
Y08039D02*
D03*
Y07913D02*
D03*
X12206Y08774D02*
D03*
Y08648D02*
D03*
Y08543D02*
D03*
Y08816D02*
D03*
Y08711D02*
D03*
Y0869D02*
D03*
Y08585D02*
D03*
Y08669D02*
D03*
Y08753D02*
D03*
Y08732D02*
D03*
Y08606D02*
D03*
Y08627D02*
D03*
Y08564D02*
D03*
Y08795D02*
D03*
X12227Y08816D02*
D03*
X12269D02*
D03*
X12248D02*
D03*
X12206D02*
D03*
X12227Y08564D02*
D03*
Y08795D02*
D03*
Y08732D02*
D03*
Y08753D02*
D03*
Y08627D02*
D03*
Y08606D02*
D03*
Y0869D02*
D03*
Y08774D02*
D03*
Y08669D02*
D03*
Y08648D02*
D03*
Y08543D02*
D03*
Y08816D02*
D03*
Y08711D02*
D03*
Y08585D02*
D03*
X12248Y08564D02*
D03*
Y08795D02*
D03*
Y08732D02*
D03*
Y08753D02*
D03*
Y08627D02*
D03*
Y08606D02*
D03*
Y0869D02*
D03*
Y08774D02*
D03*
Y08669D02*
D03*
Y08648D02*
D03*
Y08543D02*
D03*
Y08816D02*
D03*
Y08711D02*
D03*
Y08585D02*
D03*
X12269Y08564D02*
D03*
Y08795D02*
D03*
Y08732D02*
D03*
Y08753D02*
D03*
Y08627D02*
D03*
Y08606D02*
D03*
Y0869D02*
D03*
Y08774D02*
D03*
Y08669D02*
D03*
Y08648D02*
D03*
Y08543D02*
D03*
Y08816D02*
D03*
Y08711D02*
D03*
Y08585D02*
D03*
X12206Y08501D02*
D03*
Y08375D02*
D03*
Y0827D02*
D03*
Y08543D02*
D03*
Y08438D02*
D03*
Y08417D02*
D03*
Y08312D02*
D03*
Y08396D02*
D03*
Y0848D02*
D03*
Y08459D02*
D03*
Y08333D02*
D03*
Y08354D02*
D03*
Y08291D02*
D03*
Y08522D02*
D03*
X12227Y08543D02*
D03*
X12269D02*
D03*
X12248D02*
D03*
X12206D02*
D03*
X12227Y08291D02*
D03*
Y08522D02*
D03*
Y08459D02*
D03*
Y0848D02*
D03*
Y08354D02*
D03*
Y08333D02*
D03*
Y08417D02*
D03*
Y08501D02*
D03*
Y08396D02*
D03*
Y08375D02*
D03*
Y0827D02*
D03*
Y08543D02*
D03*
Y08438D02*
D03*
Y08312D02*
D03*
X12248Y08291D02*
D03*
Y08522D02*
D03*
Y08459D02*
D03*
Y0848D02*
D03*
Y08354D02*
D03*
Y08333D02*
D03*
Y08417D02*
D03*
Y08501D02*
D03*
Y08396D02*
D03*
Y08375D02*
D03*
Y0827D02*
D03*
Y08543D02*
D03*
Y08438D02*
D03*
Y08312D02*
D03*
X12269Y08291D02*
D03*
Y08522D02*
D03*
Y08459D02*
D03*
Y0848D02*
D03*
Y08354D02*
D03*
Y08333D02*
D03*
Y08417D02*
D03*
Y08501D02*
D03*
Y08396D02*
D03*
Y08375D02*
D03*
Y0827D02*
D03*
Y08543D02*
D03*
Y08438D02*
D03*
Y08312D02*
D03*
X124Y09234D02*
D03*
Y0936D02*
D03*
Y09465D02*
D03*
Y09192D02*
D03*
Y09297D02*
D03*
Y09318D02*
D03*
Y09423D02*
D03*
Y09339D02*
D03*
Y09255D02*
D03*
Y09276D02*
D03*
Y09402D02*
D03*
Y09381D02*
D03*
Y09444D02*
D03*
Y09213D02*
D03*
X12379Y09234D02*
D03*
Y0936D02*
D03*
Y09465D02*
D03*
Y09192D02*
D03*
Y09297D02*
D03*
Y09318D02*
D03*
Y09423D02*
D03*
Y09339D02*
D03*
Y09255D02*
D03*
Y09276D02*
D03*
Y09402D02*
D03*
Y09381D02*
D03*
Y09444D02*
D03*
Y09213D02*
D03*
X12358Y09234D02*
D03*
Y0936D02*
D03*
Y09465D02*
D03*
Y09192D02*
D03*
Y09297D02*
D03*
Y09318D02*
D03*
Y09423D02*
D03*
Y09339D02*
D03*
Y09255D02*
D03*
Y09276D02*
D03*
Y09402D02*
D03*
Y09381D02*
D03*
Y09444D02*
D03*
Y09213D02*
D03*
X12337Y09234D02*
D03*
Y0936D02*
D03*
Y09465D02*
D03*
Y09192D02*
D03*
Y09297D02*
D03*
Y09318D02*
D03*
Y09423D02*
D03*
Y09339D02*
D03*
Y09255D02*
D03*
Y09276D02*
D03*
Y09402D02*
D03*
Y09381D02*
D03*
Y09444D02*
D03*
Y09213D02*
D03*
X12316Y09234D02*
D03*
Y0936D02*
D03*
Y09465D02*
D03*
Y09192D02*
D03*
Y09297D02*
D03*
Y09318D02*
D03*
Y09423D02*
D03*
Y09339D02*
D03*
Y09255D02*
D03*
Y09276D02*
D03*
Y09402D02*
D03*
Y09381D02*
D03*
Y09444D02*
D03*
Y09213D02*
D03*
X12295Y09234D02*
D03*
Y0936D02*
D03*
Y09465D02*
D03*
Y09192D02*
D03*
Y09297D02*
D03*
Y09318D02*
D03*
Y09423D02*
D03*
Y09339D02*
D03*
Y09255D02*
D03*
Y09276D02*
D03*
Y09402D02*
D03*
Y09381D02*
D03*
Y09444D02*
D03*
Y09213D02*
D03*
X12274Y09234D02*
D03*
Y0936D02*
D03*
Y09465D02*
D03*
Y09192D02*
D03*
Y09297D02*
D03*
Y09318D02*
D03*
Y09423D02*
D03*
Y09339D02*
D03*
Y09255D02*
D03*
Y09276D02*
D03*
Y09402D02*
D03*
Y09381D02*
D03*
Y09444D02*
D03*
Y09213D02*
D03*
X12253Y09234D02*
D03*
Y0936D02*
D03*
Y09465D02*
D03*
Y09192D02*
D03*
Y09297D02*
D03*
Y09318D02*
D03*
Y09423D02*
D03*
Y09339D02*
D03*
Y09255D02*
D03*
Y09276D02*
D03*
Y09402D02*
D03*
Y09381D02*
D03*
Y09444D02*
D03*
Y09213D02*
D03*
X12337Y09465D02*
D03*
X12232D02*
D03*
X124D02*
D03*
X12379D02*
D03*
X12274D02*
D03*
X12358D02*
D03*
X12295D02*
D03*
X12316D02*
D03*
X12253D02*
D03*
X12232Y09444D02*
D03*
Y09213D02*
D03*
Y09276D02*
D03*
Y09255D02*
D03*
Y09381D02*
D03*
Y09402D02*
D03*
Y09318D02*
D03*
Y09234D02*
D03*
Y09339D02*
D03*
Y0936D02*
D03*
Y09465D02*
D03*
Y09192D02*
D03*
Y09297D02*
D03*
Y09423D02*
D03*
X124Y09507D02*
D03*
Y09633D02*
D03*
Y09738D02*
D03*
Y09465D02*
D03*
Y0957D02*
D03*
Y09591D02*
D03*
Y09696D02*
D03*
Y09612D02*
D03*
Y09528D02*
D03*
Y09549D02*
D03*
Y09675D02*
D03*
Y09654D02*
D03*
Y09717D02*
D03*
Y09486D02*
D03*
X12379Y09507D02*
D03*
Y09633D02*
D03*
Y09738D02*
D03*
Y09465D02*
D03*
Y0957D02*
D03*
Y09591D02*
D03*
Y09696D02*
D03*
Y09612D02*
D03*
Y09528D02*
D03*
Y09549D02*
D03*
Y09675D02*
D03*
Y09654D02*
D03*
Y09717D02*
D03*
Y09486D02*
D03*
X12358Y09507D02*
D03*
Y09633D02*
D03*
Y09738D02*
D03*
Y09465D02*
D03*
Y0957D02*
D03*
Y09591D02*
D03*
Y09696D02*
D03*
Y09612D02*
D03*
Y09528D02*
D03*
Y09549D02*
D03*
Y09675D02*
D03*
Y09654D02*
D03*
Y09717D02*
D03*
Y09486D02*
D03*
X12337Y09507D02*
D03*
Y09633D02*
D03*
Y09738D02*
D03*
Y09465D02*
D03*
Y0957D02*
D03*
Y09591D02*
D03*
Y09696D02*
D03*
Y09612D02*
D03*
Y09528D02*
D03*
Y09549D02*
D03*
Y09675D02*
D03*
Y09654D02*
D03*
Y09717D02*
D03*
Y09486D02*
D03*
X12316Y09507D02*
D03*
Y09633D02*
D03*
Y09738D02*
D03*
Y09465D02*
D03*
Y0957D02*
D03*
Y09591D02*
D03*
Y09696D02*
D03*
Y09612D02*
D03*
Y09528D02*
D03*
Y09549D02*
D03*
Y09675D02*
D03*
Y09654D02*
D03*
Y09717D02*
D03*
Y09486D02*
D03*
X12295Y09507D02*
D03*
Y09633D02*
D03*
Y09738D02*
D03*
Y09465D02*
D03*
Y0957D02*
D03*
Y09591D02*
D03*
Y09696D02*
D03*
Y09612D02*
D03*
Y09528D02*
D03*
Y09549D02*
D03*
Y09675D02*
D03*
Y09654D02*
D03*
Y09717D02*
D03*
Y09486D02*
D03*
X12274Y09507D02*
D03*
Y09633D02*
D03*
Y09738D02*
D03*
Y09465D02*
D03*
Y0957D02*
D03*
Y09591D02*
D03*
Y09696D02*
D03*
Y09612D02*
D03*
Y09528D02*
D03*
Y09549D02*
D03*
Y09675D02*
D03*
Y09654D02*
D03*
Y09717D02*
D03*
Y09486D02*
D03*
X12253Y09507D02*
D03*
Y09633D02*
D03*
Y09738D02*
D03*
Y09465D02*
D03*
Y0957D02*
D03*
Y09591D02*
D03*
Y09696D02*
D03*
Y09612D02*
D03*
Y09528D02*
D03*
Y09549D02*
D03*
Y09675D02*
D03*
Y09654D02*
D03*
Y09717D02*
D03*
Y09486D02*
D03*
X12337Y09738D02*
D03*
X12232D02*
D03*
X124D02*
D03*
X12379D02*
D03*
X12274D02*
D03*
X12358D02*
D03*
X12295D02*
D03*
X12316D02*
D03*
X12253D02*
D03*
X12232Y09717D02*
D03*
Y09486D02*
D03*
Y09549D02*
D03*
Y09528D02*
D03*
Y09654D02*
D03*
Y09675D02*
D03*
Y09591D02*
D03*
Y09507D02*
D03*
Y09612D02*
D03*
Y09633D02*
D03*
Y09738D02*
D03*
Y09465D02*
D03*
Y0957D02*
D03*
Y09696D02*
D03*
X12529Y10037D02*
D03*
Y10163D02*
D03*
Y10268D02*
D03*
Y09995D02*
D03*
Y101D02*
D03*
Y10121D02*
D03*
Y10226D02*
D03*
Y10142D02*
D03*
Y10058D02*
D03*
Y10079D02*
D03*
Y10205D02*
D03*
Y10184D02*
D03*
Y10247D02*
D03*
Y10016D02*
D03*
X12508Y10037D02*
D03*
Y10163D02*
D03*
Y10268D02*
D03*
Y09995D02*
D03*
Y101D02*
D03*
Y10121D02*
D03*
Y10226D02*
D03*
Y10142D02*
D03*
Y10058D02*
D03*
Y10079D02*
D03*
Y10205D02*
D03*
Y10184D02*
D03*
Y10247D02*
D03*
Y10016D02*
D03*
X12487Y10037D02*
D03*
Y10163D02*
D03*
Y10268D02*
D03*
Y09995D02*
D03*
Y101D02*
D03*
Y10121D02*
D03*
Y10226D02*
D03*
Y10142D02*
D03*
Y10058D02*
D03*
Y10079D02*
D03*
Y10205D02*
D03*
Y10184D02*
D03*
Y10247D02*
D03*
Y10016D02*
D03*
X12466Y10037D02*
D03*
Y10163D02*
D03*
Y10268D02*
D03*
Y09995D02*
D03*
Y101D02*
D03*
Y10121D02*
D03*
Y10226D02*
D03*
Y10142D02*
D03*
Y10058D02*
D03*
Y10079D02*
D03*
Y10205D02*
D03*
Y10184D02*
D03*
Y10247D02*
D03*
Y10016D02*
D03*
X12445Y10037D02*
D03*
Y10163D02*
D03*
Y10268D02*
D03*
Y09995D02*
D03*
Y101D02*
D03*
Y10121D02*
D03*
Y10226D02*
D03*
Y10142D02*
D03*
Y10058D02*
D03*
Y10079D02*
D03*
Y10205D02*
D03*
Y10184D02*
D03*
Y10247D02*
D03*
Y10016D02*
D03*
X12424Y10037D02*
D03*
Y10163D02*
D03*
Y10268D02*
D03*
Y09995D02*
D03*
Y101D02*
D03*
Y10121D02*
D03*
Y10226D02*
D03*
Y10142D02*
D03*
Y10058D02*
D03*
Y10079D02*
D03*
Y10205D02*
D03*
Y10184D02*
D03*
Y10247D02*
D03*
Y10016D02*
D03*
X12403Y10037D02*
D03*
Y10163D02*
D03*
Y10268D02*
D03*
Y09995D02*
D03*
Y101D02*
D03*
Y10121D02*
D03*
Y10226D02*
D03*
Y10142D02*
D03*
Y10058D02*
D03*
Y10079D02*
D03*
Y10205D02*
D03*
Y10184D02*
D03*
Y10247D02*
D03*
Y10016D02*
D03*
X12382Y10037D02*
D03*
Y10163D02*
D03*
Y10268D02*
D03*
Y09995D02*
D03*
Y101D02*
D03*
Y10121D02*
D03*
Y10226D02*
D03*
Y10142D02*
D03*
Y10058D02*
D03*
Y10079D02*
D03*
Y10205D02*
D03*
Y10184D02*
D03*
Y10247D02*
D03*
Y10016D02*
D03*
X12466Y10268D02*
D03*
X12361D02*
D03*
X12529D02*
D03*
X12508D02*
D03*
X12403D02*
D03*
X12487D02*
D03*
X12424D02*
D03*
X12445D02*
D03*
X12382D02*
D03*
X12361Y10247D02*
D03*
Y10016D02*
D03*
Y10079D02*
D03*
Y10058D02*
D03*
Y10184D02*
D03*
Y10205D02*
D03*
Y10121D02*
D03*
Y10037D02*
D03*
Y10142D02*
D03*
Y10163D02*
D03*
Y10268D02*
D03*
Y09995D02*
D03*
Y101D02*
D03*
Y10226D02*
D03*
X12415Y10478D02*
D03*
Y10604D02*
D03*
Y10709D02*
D03*
Y10436D02*
D03*
Y10541D02*
D03*
Y10562D02*
D03*
Y10667D02*
D03*
Y10583D02*
D03*
Y10499D02*
D03*
Y1052D02*
D03*
Y10646D02*
D03*
Y10625D02*
D03*
Y10688D02*
D03*
Y10457D02*
D03*
X12394Y10478D02*
D03*
Y10604D02*
D03*
Y10709D02*
D03*
Y10436D02*
D03*
Y10541D02*
D03*
Y10562D02*
D03*
Y10667D02*
D03*
Y10583D02*
D03*
Y10499D02*
D03*
Y1052D02*
D03*
Y10646D02*
D03*
Y10625D02*
D03*
Y10688D02*
D03*
Y10457D02*
D03*
X12373Y10478D02*
D03*
Y10604D02*
D03*
Y10709D02*
D03*
Y10436D02*
D03*
Y10541D02*
D03*
Y10562D02*
D03*
Y10667D02*
D03*
Y10583D02*
D03*
Y10499D02*
D03*
Y1052D02*
D03*
Y10646D02*
D03*
Y10625D02*
D03*
Y10688D02*
D03*
Y10457D02*
D03*
X12352Y10478D02*
D03*
Y10604D02*
D03*
Y10709D02*
D03*
Y10436D02*
D03*
Y10541D02*
D03*
Y10562D02*
D03*
Y10667D02*
D03*
Y10583D02*
D03*
Y10499D02*
D03*
Y1052D02*
D03*
Y10646D02*
D03*
Y10625D02*
D03*
Y10688D02*
D03*
Y10457D02*
D03*
X12331Y10478D02*
D03*
Y10604D02*
D03*
Y10709D02*
D03*
Y10436D02*
D03*
Y10541D02*
D03*
Y10562D02*
D03*
Y10667D02*
D03*
Y10583D02*
D03*
Y10499D02*
D03*
Y1052D02*
D03*
Y10646D02*
D03*
Y10625D02*
D03*
Y10688D02*
D03*
Y10457D02*
D03*
X1231Y10478D02*
D03*
Y10604D02*
D03*
Y10709D02*
D03*
Y10436D02*
D03*
Y10541D02*
D03*
Y10562D02*
D03*
Y10667D02*
D03*
Y10583D02*
D03*
Y10499D02*
D03*
Y1052D02*
D03*
Y10646D02*
D03*
Y10625D02*
D03*
Y10688D02*
D03*
Y10457D02*
D03*
X12289Y10478D02*
D03*
Y10604D02*
D03*
Y10709D02*
D03*
Y10436D02*
D03*
Y10541D02*
D03*
Y10562D02*
D03*
Y10667D02*
D03*
Y10583D02*
D03*
Y10499D02*
D03*
Y1052D02*
D03*
Y10646D02*
D03*
Y10625D02*
D03*
Y10688D02*
D03*
Y10457D02*
D03*
X12268Y10478D02*
D03*
Y10604D02*
D03*
Y10709D02*
D03*
Y10436D02*
D03*
Y10541D02*
D03*
Y10562D02*
D03*
Y10667D02*
D03*
Y10583D02*
D03*
Y10499D02*
D03*
Y1052D02*
D03*
Y10646D02*
D03*
Y10625D02*
D03*
Y10688D02*
D03*
Y10457D02*
D03*
X12352Y10709D02*
D03*
X12247D02*
D03*
X12415D02*
D03*
X12394D02*
D03*
X12289D02*
D03*
X12373D02*
D03*
X1231D02*
D03*
X12331D02*
D03*
X12268D02*
D03*
X12247Y10688D02*
D03*
Y10457D02*
D03*
Y1052D02*
D03*
Y10499D02*
D03*
Y10625D02*
D03*
Y10646D02*
D03*
Y10562D02*
D03*
Y10478D02*
D03*
Y10583D02*
D03*
Y10604D02*
D03*
Y10709D02*
D03*
Y10436D02*
D03*
Y10541D02*
D03*
Y10667D02*
D03*
X13345Y10979D02*
D03*
Y11105D02*
D03*
Y1121D02*
D03*
Y10937D02*
D03*
Y11042D02*
D03*
Y11063D02*
D03*
Y11168D02*
D03*
Y11084D02*
D03*
Y11D02*
D03*
Y11021D02*
D03*
Y11147D02*
D03*
Y11126D02*
D03*
Y11189D02*
D03*
Y10958D02*
D03*
X13324Y10979D02*
D03*
Y11105D02*
D03*
Y1121D02*
D03*
Y10937D02*
D03*
Y11042D02*
D03*
Y11063D02*
D03*
Y11168D02*
D03*
Y11084D02*
D03*
Y11D02*
D03*
Y11021D02*
D03*
Y11147D02*
D03*
Y11126D02*
D03*
Y11189D02*
D03*
Y10958D02*
D03*
X13303Y10979D02*
D03*
Y11105D02*
D03*
Y1121D02*
D03*
Y10937D02*
D03*
Y11042D02*
D03*
Y11063D02*
D03*
Y11168D02*
D03*
Y11084D02*
D03*
Y11D02*
D03*
Y11021D02*
D03*
Y11147D02*
D03*
Y11126D02*
D03*
Y11189D02*
D03*
Y10958D02*
D03*
X13282Y10979D02*
D03*
Y11105D02*
D03*
Y1121D02*
D03*
Y10937D02*
D03*
Y11042D02*
D03*
Y11063D02*
D03*
Y11168D02*
D03*
Y11084D02*
D03*
Y11D02*
D03*
Y11021D02*
D03*
Y11147D02*
D03*
Y11126D02*
D03*
Y11189D02*
D03*
Y10958D02*
D03*
X13261Y10979D02*
D03*
Y11105D02*
D03*
Y1121D02*
D03*
Y10937D02*
D03*
Y11042D02*
D03*
Y11063D02*
D03*
Y11168D02*
D03*
Y11084D02*
D03*
Y11D02*
D03*
Y11021D02*
D03*
Y11147D02*
D03*
Y11126D02*
D03*
Y11189D02*
D03*
Y10958D02*
D03*
X1324Y10979D02*
D03*
Y11105D02*
D03*
Y1121D02*
D03*
Y10937D02*
D03*
Y11042D02*
D03*
Y11063D02*
D03*
Y11168D02*
D03*
Y11084D02*
D03*
Y11D02*
D03*
Y11021D02*
D03*
Y11147D02*
D03*
Y11126D02*
D03*
Y11189D02*
D03*
Y10958D02*
D03*
X13219Y10979D02*
D03*
Y11105D02*
D03*
Y1121D02*
D03*
Y10937D02*
D03*
Y11042D02*
D03*
Y11063D02*
D03*
Y11168D02*
D03*
Y11084D02*
D03*
Y11D02*
D03*
Y11021D02*
D03*
Y11147D02*
D03*
Y11126D02*
D03*
Y11189D02*
D03*
Y10958D02*
D03*
X13198Y10979D02*
D03*
Y11105D02*
D03*
Y1121D02*
D03*
Y10937D02*
D03*
Y11042D02*
D03*
Y11063D02*
D03*
Y11168D02*
D03*
Y11084D02*
D03*
Y11D02*
D03*
Y11021D02*
D03*
Y11147D02*
D03*
Y11126D02*
D03*
Y11189D02*
D03*
Y10958D02*
D03*
X13282Y1121D02*
D03*
X13177D02*
D03*
X13345D02*
D03*
X13324D02*
D03*
X13219D02*
D03*
X13303D02*
D03*
X1324D02*
D03*
X13261D02*
D03*
X13198D02*
D03*
X13177Y11189D02*
D03*
Y10958D02*
D03*
Y11021D02*
D03*
Y11D02*
D03*
Y11126D02*
D03*
Y11147D02*
D03*
Y11063D02*
D03*
Y10979D02*
D03*
Y11084D02*
D03*
Y11105D02*
D03*
Y1121D02*
D03*
Y10937D02*
D03*
Y11042D02*
D03*
Y11168D02*
D03*
X1257D02*
D03*
Y11042D02*
D03*
Y10937D02*
D03*
Y1121D02*
D03*
Y11105D02*
D03*
Y11084D02*
D03*
Y10979D02*
D03*
Y11063D02*
D03*
Y11147D02*
D03*
Y11126D02*
D03*
Y11D02*
D03*
Y11021D02*
D03*
Y10958D02*
D03*
Y11189D02*
D03*
X12822Y1121D02*
D03*
X12591D02*
D03*
X12654D02*
D03*
X12633D02*
D03*
X12759D02*
D03*
X1278D02*
D03*
X12696D02*
D03*
X12612D02*
D03*
X12717D02*
D03*
X12738D02*
D03*
X12843D02*
D03*
X1257D02*
D03*
X12675D02*
D03*
X12801D02*
D03*
X12591Y10958D02*
D03*
Y11189D02*
D03*
Y11126D02*
D03*
Y11147D02*
D03*
Y11021D02*
D03*
Y11D02*
D03*
Y11084D02*
D03*
Y11168D02*
D03*
Y11063D02*
D03*
Y11042D02*
D03*
Y10937D02*
D03*
Y1121D02*
D03*
Y11105D02*
D03*
Y10979D02*
D03*
X12612Y10958D02*
D03*
Y11189D02*
D03*
Y11126D02*
D03*
Y11147D02*
D03*
Y11021D02*
D03*
Y11D02*
D03*
Y11084D02*
D03*
Y11168D02*
D03*
Y11063D02*
D03*
Y11042D02*
D03*
Y10937D02*
D03*
Y1121D02*
D03*
Y11105D02*
D03*
Y10979D02*
D03*
X12633Y10958D02*
D03*
Y11189D02*
D03*
Y11126D02*
D03*
Y11147D02*
D03*
Y11021D02*
D03*
Y11D02*
D03*
Y11084D02*
D03*
Y11168D02*
D03*
Y11063D02*
D03*
Y11042D02*
D03*
Y10937D02*
D03*
Y1121D02*
D03*
Y11105D02*
D03*
Y10979D02*
D03*
X12654Y10958D02*
D03*
Y11189D02*
D03*
Y11126D02*
D03*
Y11147D02*
D03*
Y11021D02*
D03*
Y11D02*
D03*
Y11084D02*
D03*
Y11168D02*
D03*
Y11063D02*
D03*
Y11042D02*
D03*
Y10937D02*
D03*
Y1121D02*
D03*
Y11105D02*
D03*
Y10979D02*
D03*
X12675Y10958D02*
D03*
Y11189D02*
D03*
Y11126D02*
D03*
Y11147D02*
D03*
Y11021D02*
D03*
Y11D02*
D03*
Y11084D02*
D03*
Y11168D02*
D03*
Y11063D02*
D03*
Y11042D02*
D03*
Y10937D02*
D03*
Y1121D02*
D03*
Y11105D02*
D03*
Y10979D02*
D03*
X12696Y10958D02*
D03*
Y11189D02*
D03*
Y11126D02*
D03*
Y11147D02*
D03*
Y11021D02*
D03*
Y11D02*
D03*
Y11084D02*
D03*
Y11168D02*
D03*
Y11063D02*
D03*
Y11042D02*
D03*
Y10937D02*
D03*
Y1121D02*
D03*
Y11105D02*
D03*
Y10979D02*
D03*
X12717Y10958D02*
D03*
Y11189D02*
D03*
Y11126D02*
D03*
Y11147D02*
D03*
Y11021D02*
D03*
Y11D02*
D03*
Y11084D02*
D03*
Y11168D02*
D03*
Y11063D02*
D03*
Y11042D02*
D03*
Y10937D02*
D03*
Y1121D02*
D03*
Y11105D02*
D03*
Y10979D02*
D03*
X12738Y10958D02*
D03*
Y11189D02*
D03*
Y11126D02*
D03*
Y11147D02*
D03*
Y11021D02*
D03*
Y11D02*
D03*
Y11084D02*
D03*
Y11168D02*
D03*
Y11063D02*
D03*
Y11042D02*
D03*
Y10937D02*
D03*
Y1121D02*
D03*
Y11105D02*
D03*
Y10979D02*
D03*
X12759Y10958D02*
D03*
Y11189D02*
D03*
Y11126D02*
D03*
Y11147D02*
D03*
Y11021D02*
D03*
Y11D02*
D03*
Y11084D02*
D03*
Y11168D02*
D03*
Y11063D02*
D03*
Y11042D02*
D03*
Y10937D02*
D03*
Y1121D02*
D03*
Y11105D02*
D03*
Y10979D02*
D03*
X1278Y10958D02*
D03*
Y11189D02*
D03*
Y11126D02*
D03*
Y11147D02*
D03*
Y11021D02*
D03*
Y11D02*
D03*
Y11084D02*
D03*
Y11168D02*
D03*
Y11063D02*
D03*
Y11042D02*
D03*
Y10937D02*
D03*
Y1121D02*
D03*
Y11105D02*
D03*
Y10979D02*
D03*
X12801Y10958D02*
D03*
Y11189D02*
D03*
Y11126D02*
D03*
Y11147D02*
D03*
Y11021D02*
D03*
Y11D02*
D03*
Y11084D02*
D03*
Y11168D02*
D03*
Y11063D02*
D03*
Y11042D02*
D03*
Y10937D02*
D03*
Y1121D02*
D03*
Y11105D02*
D03*
Y10979D02*
D03*
X12822Y10958D02*
D03*
Y11189D02*
D03*
Y11126D02*
D03*
Y11147D02*
D03*
Y11021D02*
D03*
Y11D02*
D03*
Y11084D02*
D03*
Y11168D02*
D03*
Y11063D02*
D03*
Y11042D02*
D03*
Y10937D02*
D03*
Y1121D02*
D03*
Y11105D02*
D03*
Y10979D02*
D03*
X12843Y10958D02*
D03*
Y11189D02*
D03*
Y11126D02*
D03*
Y11147D02*
D03*
Y11021D02*
D03*
Y11D02*
D03*
Y11084D02*
D03*
Y11168D02*
D03*
Y11063D02*
D03*
Y11042D02*
D03*
Y10937D02*
D03*
Y1121D02*
D03*
Y11105D02*
D03*
Y10979D02*
D03*
X147025Y081345D02*
D03*
X14575Y079391D02*
D03*
X139485Y0751D02*
D03*
X13016Y08722D02*
D03*
X13623Y08666D02*
D03*
X13257Y08548D02*
D03*
X13863Y08732D02*
D03*
X13807Y08733D02*
D03*
X13748D02*
D03*
X14025Y0876D02*
D03*
X14055Y09014D02*
D03*
X14086D02*
D03*
X14669Y0914D02*
D03*
X13811Y0925D02*
D03*
X14355Y09459D02*
D03*
X12994Y08923D02*
D03*
X1409Y09063D02*
D03*
X14087Y09094D02*
D03*
X13992Y08732D02*
D03*
Y08569D02*
D03*
X13874Y08958D02*
D03*
X13915Y09121D02*
D03*
X13924Y0915D02*
D03*
X14314Y09549D02*
D03*
X1364Y08941D02*
D03*
X13726Y08993D02*
D03*
X143791Y09305D02*
D03*
X14458Y09346D02*
D03*
X14511Y09454D02*
D03*
X14196Y09354D02*
D03*
X13698Y09556D02*
D03*
X142575Y09504D02*
D03*
X14061Y09159D02*
D03*
X14057Y08695D02*
D03*
X142995Y083921D02*
D03*
X13916Y08733D02*
D03*
X13393Y08979D02*
D03*
X1339Y09013D02*
D03*
X13065Y08806D02*
D03*
X13405Y08736D02*
D03*
X14029Y08632D02*
D03*
X133048Y086682D02*
D03*
X14218Y08604D02*
D03*
X144845Y08395D02*
D03*
X14926Y09632D02*
D03*
X14751Y08611D02*
D03*
X14816Y09581D02*
D03*
X14818Y09428D02*
D03*
X14812Y09482D02*
D03*
X130803Y090565D02*
D03*
X13936Y0937D02*
D03*
X13513Y0939D02*
D03*
X13346Y09305D02*
D03*
X13433Y09207D02*
D03*
X145801Y087676D02*
D03*
X13652Y091D02*
D03*
X13657Y09169D02*
D03*
X13475Y092995D02*
D03*
X13563Y09283D02*
D03*
X13594Y09272D02*
D03*
X131256Y088041D02*
D03*
X1415Y084404D02*
D03*
X14187Y087671D02*
D03*
X1368Y0882D02*
D03*
X137246Y092666D02*
D03*
X13679Y09282D02*
D03*
X13588Y09309D02*
D03*
X13533Y09149D02*
D03*
X134029Y091232D02*
D03*
X13405Y09083D02*
D03*
X1355Y09064D02*
D03*
X13524Y09041D02*
D03*
X14334Y080325D02*
D03*
X13837Y08232D02*
D03*
X13688Y08238D02*
D03*
X14412Y0813D02*
D03*
X14083Y08234D02*
D03*
X14261Y08239D02*
D03*
X138761Y081409D02*
D03*
X13726Y08143D02*
D03*
X12662Y09369D02*
D03*
X12906Y093D02*
D03*
D140*
X123712Y08139D02*
D03*
X130782Y08207D02*
D03*
M02*
