G04*
G04 #@! TF.GenerationSoftware,Altium Limited,Altium Designer,21.9.2 (33)*
G04*
G04 Layer_Color=16711935*
%FSTAX24Y24*%
%MOIN*%
G70*
G04*
G04 #@! TF.SameCoordinates,0CAA2080-A4D5-46B4-80B0-B41EDDDAA001*
G04*
G04*
G04 #@! TF.FilePolarity,Negative*
G04*
G01*
G75*
%ADD57R,0.0454X0.0434*%
%ADD59R,0.0434X0.0454*%
%ADD64R,0.0552X0.0631*%
%ADD70R,0.0631X0.0552*%
%ADD82R,0.0749X0.1064*%
%ADD83C,0.0800*%
G04:AMPARAMS|DCode=84|XSize=128mil|YSize=86.7mil|CornerRadius=0mil|HoleSize=0mil|Usage=FLASHONLY|Rotation=333.000|XOffset=0mil|YOffset=0mil|HoleType=Round|Shape=Round|*
%AMOVALD84*
21,1,0.0413,0.0867,0.0000,0.0000,333.0*
1,1,0.0867,-0.0184,0.0094*
1,1,0.0867,0.0184,-0.0094*
%
%ADD84OVALD84*%

G04:AMPARAMS|DCode=85|XSize=128mil|YSize=86.7mil|CornerRadius=0mil|HoleSize=0mil|Usage=FLASHONLY|Rotation=45.000|XOffset=0mil|YOffset=0mil|HoleType=Round|Shape=Round|*
%AMOVALD85*
21,1,0.0413,0.0867,0.0000,0.0000,45.0*
1,1,0.0867,-0.0146,-0.0146*
1,1,0.0867,0.0146,0.0146*
%
%ADD85OVALD85*%

G04:AMPARAMS|DCode=86|XSize=128mil|YSize=86.7mil|CornerRadius=0mil|HoleSize=0mil|Usage=FLASHONLY|Rotation=117.000|XOffset=0mil|YOffset=0mil|HoleType=Round|Shape=Round|*
%AMOVALD86*
21,1,0.0413,0.0867,0.0000,0.0000,117.0*
1,1,0.0867,0.0094,-0.0184*
1,1,0.0867,-0.0094,0.0184*
%
%ADD86OVALD86*%

G04:AMPARAMS|DCode=87|XSize=128mil|YSize=86.7mil|CornerRadius=0mil|HoleSize=0mil|Usage=FLASHONLY|Rotation=261.000|XOffset=0mil|YOffset=0mil|HoleType=Round|Shape=Round|*
%AMOVALD87*
21,1,0.0413,0.0867,0.0000,0.0000,261.0*
1,1,0.0867,0.0032,0.0204*
1,1,0.0867,-0.0032,-0.0204*
%
%ADD87OVALD87*%

G04:AMPARAMS|DCode=88|XSize=128mil|YSize=86.7mil|CornerRadius=0mil|HoleSize=0mil|Usage=FLASHONLY|Rotation=189.000|XOffset=0mil|YOffset=0mil|HoleType=Round|Shape=Round|*
%AMOVALD88*
21,1,0.0413,0.0867,0.0000,0.0000,189.0*
1,1,0.0867,0.0204,0.0032*
1,1,0.0867,-0.0204,-0.0032*
%
%ADD88OVALD88*%

%ADD89C,0.2639*%
%ADD90O,0.2836X0.1655*%
%ADD91C,0.2049*%
%ADD92C,0.0474*%
%ADD93O,0.0880X0.0780*%
%ADD94R,0.0880X0.0780*%
%ADD95C,0.1080*%
%ADD97R,0.1261X0.1261*%
%ADD98C,0.1261*%
%ADD99C,0.1458*%
%ADD100R,0.1458X0.1458*%
%ADD101R,0.1261X0.1261*%
%ADD102R,0.1580X0.2480*%
%ADD103O,0.1580X0.2480*%
%ADD104R,0.1458X0.1458*%
%ADD105O,0.0880X0.1261*%
%ADD106R,0.0880X0.1261*%
%ADD107O,0.0880X0.1080*%
%ADD108R,0.0880X0.1080*%
%ADD109C,0.0316*%
%ADD141R,0.1080X0.1080*%
D57*
X136853Y08758D02*
D03*
X136262Y08758D02*
D03*
X13686Y088605D02*
D03*
X136269Y088605D02*
D03*
X136853Y088089D02*
D03*
X136262D02*
D03*
D59*
X1485Y094265D02*
D03*
Y094855D02*
D03*
X14904D02*
D03*
X14904Y094265D02*
D03*
D64*
X133178Y082541D02*
D03*
X133926D02*
D03*
D70*
X126021Y081782D02*
D03*
Y081034D02*
D03*
D82*
X12515Y080643D02*
D03*
Y082217D02*
D03*
X13272Y08198D02*
D03*
Y080405D02*
D03*
D83*
X14621Y09861D02*
X14898D01*
X15042D01*
X133937Y095447D02*
Y10098D01*
X13242Y096825D02*
Y10018D01*
X1322Y1004D02*
X13242Y10018D01*
X14396Y10931D02*
Y11138D01*
Y10931D02*
X14476Y10851D01*
X144743Y10651D02*
X14595D01*
X14084D02*
X144743D01*
X14595D02*
X14696Y10752D01*
Y1112D01*
X15082Y09682D02*
Y09821D01*
X15042Y09861D02*
X15082Y09821D01*
X12549Y09068D02*
X12917D01*
X133937Y095447D01*
X14621Y09861D02*
Y09916D01*
Y09675D02*
Y09861D01*
X12549Y0866D02*
Y09068D01*
X12349D02*
Y09206D01*
X1263Y09487D01*
Y09675D01*
X13051Y1004D02*
Y10613D01*
Y1004D02*
X1322D01*
X12822D02*
X13051D01*
X14003Y10534D02*
X14621Y09916D01*
X14003Y10534D02*
Y10732D01*
X14084Y10651D01*
X1273Y09948D02*
X12822Y1004D01*
X1273Y09675D02*
Y09948D01*
X133937Y10098D02*
Y105657D01*
X134037Y10088D02*
X14022D01*
X140573Y100527D01*
Y09675D02*
Y100527D01*
X1376Y10932D02*
X14003D01*
X133937Y105657D02*
X1376Y10932D01*
X12294Y08605D02*
Y08855D01*
X12349Y0891D01*
X12294Y082162D02*
X123712Y08139D01*
X12294Y082162D02*
Y08605D01*
X12349Y0891D02*
Y09068D01*
X14003Y10932D02*
X14395D01*
D84*
X146378Y075907D02*
D03*
D85*
X14619Y077095D02*
D03*
D86*
X145002Y077284D02*
D03*
D87*
X145306Y075361D02*
D03*
D88*
X144455Y076211D02*
D03*
D89*
X133431Y07631D02*
D03*
X126821D02*
D03*
D90*
X13046Y10613D02*
D03*
Y111506D02*
D03*
D91*
X1506Y07457D02*
D03*
X12286D02*
D03*
Y11151D02*
D03*
X1506D02*
D03*
D92*
X131383Y090595D02*
D03*
X130713Y090595D02*
D03*
D93*
X15082Y07782D02*
D03*
Y07882D02*
D03*
Y07982D02*
D03*
Y08082D02*
D03*
Y08182D02*
D03*
Y08282D02*
D03*
Y08382D02*
D03*
Y08482D02*
D03*
Y08582D02*
D03*
Y08682D02*
D03*
Y08782D02*
D03*
Y08882D02*
D03*
Y08982D02*
D03*
Y09082D02*
D03*
Y09182D02*
D03*
Y09282D02*
D03*
Y09382D02*
D03*
Y09482D02*
D03*
Y09582D02*
D03*
X14982Y07782D02*
D03*
Y07882D02*
D03*
Y07982D02*
D03*
Y08082D02*
D03*
Y08182D02*
D03*
Y08282D02*
D03*
X14982Y08382D02*
D03*
X14982Y08482D02*
D03*
Y08582D02*
D03*
Y08682D02*
D03*
Y08782D02*
D03*
Y08882D02*
D03*
Y08982D02*
D03*
Y09082D02*
D03*
Y09182D02*
D03*
X14982Y09282D02*
D03*
X14982Y09382D02*
D03*
Y09482D02*
D03*
Y09582D02*
D03*
Y09682D02*
D03*
X1325Y08864D02*
D03*
Y08964D02*
D03*
Y09064D02*
D03*
D94*
X15082Y09682D02*
D03*
X1325Y09164D02*
D03*
D95*
X124696Y079422D02*
D03*
Y083358D02*
D03*
X128712D02*
D03*
Y079422D02*
D03*
X135782Y080101D02*
D03*
Y084038D02*
D03*
X131766D02*
D03*
Y080101D02*
D03*
D97*
X12294Y08605D02*
D03*
D98*
X12494D02*
D03*
X144743Y10851D02*
D03*
D99*
X12549Y09068D02*
D03*
X14003Y10932D02*
D03*
D100*
X12349Y09068D02*
D03*
D101*
X144743Y10651D02*
D03*
D102*
X14695Y1109D02*
D03*
D103*
X14395D02*
D03*
D104*
X14003Y10732D02*
D03*
D105*
X14721Y09675D02*
D03*
X14621D02*
D03*
X1273D02*
D03*
X1263D02*
D03*
D106*
X14521D02*
D03*
X1253D02*
D03*
D107*
X140573D02*
D03*
X139573D02*
D03*
X13246D02*
D03*
X13346D02*
D03*
D108*
X138573D02*
D03*
X13146D02*
D03*
D109*
X14047Y0813D02*
D03*
X12817Y08481D02*
D03*
X12754D02*
D03*
X12775D02*
D03*
X12796D02*
D03*
X12712D02*
D03*
X12733D02*
D03*
Y08502D02*
D03*
X12712D02*
D03*
X12775D02*
D03*
X12796D02*
D03*
X12817D02*
D03*
X12754D02*
D03*
X12733Y08523D02*
D03*
X12712D02*
D03*
X12775D02*
D03*
X12796D02*
D03*
X12817D02*
D03*
X12754D02*
D03*
X12733Y08544D02*
D03*
X12712D02*
D03*
X12775D02*
D03*
X12796D02*
D03*
X12817D02*
D03*
X12754D02*
D03*
X12817D02*
D03*
X1288D02*
D03*
X12859D02*
D03*
X12838D02*
D03*
X12922D02*
D03*
X12901D02*
D03*
Y08523D02*
D03*
X12922D02*
D03*
X12859D02*
D03*
X12838D02*
D03*
X12817D02*
D03*
X1288D02*
D03*
X12901Y08502D02*
D03*
X12922D02*
D03*
X12859D02*
D03*
X12838D02*
D03*
X12817D02*
D03*
X1288D02*
D03*
X12901Y08481D02*
D03*
X12922D02*
D03*
X12859D02*
D03*
X12838D02*
D03*
X12817D02*
D03*
X1288D02*
D03*
X12544Y08838D02*
D03*
Y08775D02*
D03*
Y08796D02*
D03*
Y08733D02*
D03*
Y08754D02*
D03*
X12523D02*
D03*
Y08733D02*
D03*
Y08796D02*
D03*
Y08817D02*
D03*
Y08838D02*
D03*
Y08775D02*
D03*
X12502Y08754D02*
D03*
Y08733D02*
D03*
Y08796D02*
D03*
Y08817D02*
D03*
Y08838D02*
D03*
Y08775D02*
D03*
X12481Y08754D02*
D03*
Y08796D02*
D03*
Y08817D02*
D03*
Y08838D02*
D03*
Y08775D02*
D03*
X12607D02*
D03*
Y08712D02*
D03*
Y08733D02*
D03*
Y08754D02*
D03*
Y0867D02*
D03*
Y08691D02*
D03*
X12586D02*
D03*
Y0867D02*
D03*
Y08733D02*
D03*
Y08754D02*
D03*
Y08775D02*
D03*
Y08712D02*
D03*
X12565Y08691D02*
D03*
Y0867D02*
D03*
Y08733D02*
D03*
Y08754D02*
D03*
Y08775D02*
D03*
Y08712D02*
D03*
X12544Y08691D02*
D03*
Y0867D02*
D03*
Y08733D02*
D03*
Y08712D02*
D03*
X12712Y09048D02*
D03*
Y09027D02*
D03*
Y09006D02*
D03*
Y0909D02*
D03*
Y09069D02*
D03*
X12733D02*
D03*
Y0909D02*
D03*
Y09027D02*
D03*
Y09006D02*
D03*
Y08985D02*
D03*
Y09048D02*
D03*
X12754Y09069D02*
D03*
Y0909D02*
D03*
Y09027D02*
D03*
Y09006D02*
D03*
Y08985D02*
D03*
Y09048D02*
D03*
X12775Y09069D02*
D03*
Y0909D02*
D03*
Y09027D02*
D03*
Y09006D02*
D03*
Y08985D02*
D03*
Y09048D02*
D03*
X12628Y08985D02*
D03*
Y09048D02*
D03*
Y09027D02*
D03*
Y09006D02*
D03*
Y0909D02*
D03*
Y09069D02*
D03*
X12649D02*
D03*
Y0909D02*
D03*
Y09027D02*
D03*
Y09006D02*
D03*
Y08985D02*
D03*
Y09048D02*
D03*
X1267Y09069D02*
D03*
Y0909D02*
D03*
Y09027D02*
D03*
Y09006D02*
D03*
Y08985D02*
D03*
Y09048D02*
D03*
X12691Y09069D02*
D03*
Y0909D02*
D03*
Y09027D02*
D03*
Y09006D02*
D03*
Y09048D02*
D03*
X12523Y08712D02*
D03*
Y08733D02*
D03*
Y08754D02*
D03*
Y0867D02*
D03*
Y08691D02*
D03*
X12502D02*
D03*
Y0867D02*
D03*
Y08733D02*
D03*
Y08754D02*
D03*
Y08775D02*
D03*
Y08712D02*
D03*
X12481Y08691D02*
D03*
Y0867D02*
D03*
Y08733D02*
D03*
Y08754D02*
D03*
Y08775D02*
D03*
Y08712D02*
D03*
X1246Y08691D02*
D03*
Y0867D02*
D03*
Y08733D02*
D03*
Y08754D02*
D03*
Y08775D02*
D03*
Y08712D02*
D03*
X12775Y0888D02*
D03*
Y08817D02*
D03*
Y08838D02*
D03*
Y08859D02*
D03*
Y08775D02*
D03*
Y08796D02*
D03*
X12754D02*
D03*
Y08775D02*
D03*
Y08838D02*
D03*
Y08859D02*
D03*
Y0888D02*
D03*
Y08817D02*
D03*
X12733Y08796D02*
D03*
Y08775D02*
D03*
Y08838D02*
D03*
Y08859D02*
D03*
Y0888D02*
D03*
Y08817D02*
D03*
X12712Y08796D02*
D03*
Y08838D02*
D03*
Y08817D02*
D03*
X12754Y0888D02*
D03*
Y08817D02*
D03*
Y08838D02*
D03*
Y08859D02*
D03*
Y08775D02*
D03*
Y08796D02*
D03*
X12733D02*
D03*
Y08775D02*
D03*
Y08838D02*
D03*
Y08859D02*
D03*
Y0888D02*
D03*
Y08817D02*
D03*
X12712Y08775D02*
D03*
Y08859D02*
D03*
X12691Y08796D02*
D03*
Y08775D02*
D03*
Y08838D02*
D03*
Y08859D02*
D03*
Y0888D02*
D03*
Y08817D02*
D03*
Y08817D02*
D03*
Y08838D02*
D03*
Y08859D02*
D03*
Y08775D02*
D03*
Y08796D02*
D03*
X1267D02*
D03*
Y08775D02*
D03*
Y08838D02*
D03*
Y08859D02*
D03*
Y0888D02*
D03*
Y08817D02*
D03*
X12649Y08796D02*
D03*
Y08775D02*
D03*
Y08838D02*
D03*
Y08859D02*
D03*
Y08817D02*
D03*
X12628Y08796D02*
D03*
Y08775D02*
D03*
Y08838D02*
D03*
Y08859D02*
D03*
Y08817D02*
D03*
X12649Y0888D02*
D03*
Y08817D02*
D03*
Y08838D02*
D03*
Y08859D02*
D03*
Y08775D02*
D03*
Y08796D02*
D03*
X12628D02*
D03*
Y08775D02*
D03*
Y08838D02*
D03*
Y08859D02*
D03*
Y0888D02*
D03*
Y08817D02*
D03*
X12607Y08796D02*
D03*
Y08838D02*
D03*
Y08859D02*
D03*
Y0888D02*
D03*
Y08817D02*
D03*
X12586Y08796D02*
D03*
Y08775D02*
D03*
Y08838D02*
D03*
Y08859D02*
D03*
Y08817D02*
D03*
Y08817D02*
D03*
Y08838D02*
D03*
Y08859D02*
D03*
Y08775D02*
D03*
Y08796D02*
D03*
X12565D02*
D03*
Y08775D02*
D03*
Y08838D02*
D03*
Y08859D02*
D03*
Y0888D02*
D03*
Y08817D02*
D03*
X12544Y08796D02*
D03*
Y08775D02*
D03*
Y08859D02*
D03*
Y0888D02*
D03*
Y08817D02*
D03*
X12523Y08796D02*
D03*
Y08775D02*
D03*
Y08838D02*
D03*
Y08859D02*
D03*
Y0888D02*
D03*
Y08817D02*
D03*
X12712Y0888D02*
D03*
Y08943D02*
D03*
Y08922D02*
D03*
Y08901D02*
D03*
Y08985D02*
D03*
Y08964D02*
D03*
X12733D02*
D03*
Y08985D02*
D03*
Y08922D02*
D03*
Y08901D02*
D03*
Y0888D02*
D03*
Y08943D02*
D03*
X12754Y08964D02*
D03*
Y08985D02*
D03*
Y08922D02*
D03*
Y08901D02*
D03*
Y08943D02*
D03*
X12775Y08964D02*
D03*
Y08985D02*
D03*
Y08922D02*
D03*
Y08901D02*
D03*
Y08943D02*
D03*
X12649Y08922D02*
D03*
Y08901D02*
D03*
Y08985D02*
D03*
Y08964D02*
D03*
X1267D02*
D03*
Y08985D02*
D03*
Y08922D02*
D03*
Y08901D02*
D03*
Y0888D02*
D03*
Y08943D02*
D03*
X12691Y08964D02*
D03*
Y08985D02*
D03*
Y08922D02*
D03*
Y08901D02*
D03*
Y08943D02*
D03*
X12712Y08964D02*
D03*
Y08985D02*
D03*
Y08922D02*
D03*
Y08901D02*
D03*
X12586Y0888D02*
D03*
Y08922D02*
D03*
Y08901D02*
D03*
Y08985D02*
D03*
Y08964D02*
D03*
X12607D02*
D03*
Y08985D02*
D03*
Y08922D02*
D03*
Y08901D02*
D03*
Y0888D02*
D03*
Y08943D02*
D03*
X12628Y08964D02*
D03*
Y08922D02*
D03*
Y08901D02*
D03*
Y0888D02*
D03*
Y08943D02*
D03*
X12649Y08964D02*
D03*
Y08985D02*
D03*
Y08922D02*
D03*
Y08901D02*
D03*
Y08943D02*
D03*
X12523Y08943D02*
D03*
Y08922D02*
D03*
Y08901D02*
D03*
Y08985D02*
D03*
Y08964D02*
D03*
X12544D02*
D03*
Y08985D02*
D03*
Y08922D02*
D03*
Y08901D02*
D03*
Y0888D02*
D03*
Y08943D02*
D03*
X12565Y08964D02*
D03*
Y08985D02*
D03*
Y08922D02*
D03*
Y08901D02*
D03*
Y0888D02*
D03*
Y08943D02*
D03*
X12586Y08964D02*
D03*
Y08985D02*
D03*
Y08922D02*
D03*
Y08901D02*
D03*
Y08943D02*
D03*
X13809Y07975D02*
D03*
Y08038D02*
D03*
Y08017D02*
D03*
Y07996D02*
D03*
Y0808D02*
D03*
Y08059D02*
D03*
X1383D02*
D03*
Y0808D02*
D03*
Y08017D02*
D03*
Y07996D02*
D03*
Y07975D02*
D03*
Y08038D02*
D03*
X13851Y08059D02*
D03*
Y0808D02*
D03*
Y08017D02*
D03*
Y07996D02*
D03*
Y07975D02*
D03*
Y08038D02*
D03*
X13872Y08059D02*
D03*
Y0808D02*
D03*
Y08017D02*
D03*
Y07996D02*
D03*
Y07975D02*
D03*
Y08038D02*
D03*
X13851Y07975D02*
D03*
Y08038D02*
D03*
Y08017D02*
D03*
Y07996D02*
D03*
Y0808D02*
D03*
Y08059D02*
D03*
X13872D02*
D03*
Y0808D02*
D03*
Y08017D02*
D03*
Y07996D02*
D03*
Y07975D02*
D03*
Y08038D02*
D03*
X13893Y08059D02*
D03*
Y0808D02*
D03*
Y08017D02*
D03*
Y07996D02*
D03*
Y07975D02*
D03*
Y08038D02*
D03*
X13914Y08059D02*
D03*
Y0808D02*
D03*
Y08017D02*
D03*
Y07996D02*
D03*
Y07975D02*
D03*
Y08038D02*
D03*
X13851Y07891D02*
D03*
Y07954D02*
D03*
Y07933D02*
D03*
Y07912D02*
D03*
Y07996D02*
D03*
Y07975D02*
D03*
X13872D02*
D03*
Y07996D02*
D03*
Y07933D02*
D03*
Y07912D02*
D03*
Y07891D02*
D03*
Y07954D02*
D03*
X13893Y07975D02*
D03*
Y07996D02*
D03*
Y07933D02*
D03*
Y07912D02*
D03*
Y07891D02*
D03*
Y07954D02*
D03*
X13914Y07975D02*
D03*
Y07996D02*
D03*
Y07933D02*
D03*
Y07912D02*
D03*
Y07891D02*
D03*
Y07954D02*
D03*
X13788Y07891D02*
D03*
Y07954D02*
D03*
Y07933D02*
D03*
Y07912D02*
D03*
Y07996D02*
D03*
Y07975D02*
D03*
X13809D02*
D03*
Y07996D02*
D03*
Y07933D02*
D03*
Y07912D02*
D03*
Y07891D02*
D03*
Y07954D02*
D03*
X1383Y07975D02*
D03*
Y07996D02*
D03*
Y07933D02*
D03*
Y07912D02*
D03*
Y07891D02*
D03*
Y07954D02*
D03*
X13851Y07975D02*
D03*
Y07996D02*
D03*
Y07933D02*
D03*
Y07912D02*
D03*
Y07891D02*
D03*
Y07954D02*
D03*
D141*
X123712Y08139D02*
D03*
X130782Y08207D02*
D03*
M02*
