G04*
G04 #@! TF.GenerationSoftware,Altium Limited,Altium Designer,21.9.2 (33)*
G04*
G04 Layer_Color=65535*
%FSTAX24Y24*%
%MOIN*%
G70*
G04*
G04 #@! TF.SameCoordinates,0CAA2080-A4D5-46B4-80B0-B41EDDDAA001*
G04*
G04*
G04 #@! TF.FilePolarity,Positive*
G04*
G01*
G75*
%ADD10C,0.0098*%
%ADD11C,0.0118*%
%ADD12C,0.0100*%
%ADD13C,0.0080*%
%ADD14C,0.0079*%
%ADD15C,0.0236*%
%ADD16C,0.0039*%
%ADD17C,0.0200*%
%ADD18C,0.0040*%
%ADD19C,0.0059*%
%ADD20C,0.0050*%
%ADD21C,0.0070*%
%ADD22C,0.0060*%
%ADD23R,2.5197X0.7087*%
%ADD24R,0.3990X0.0360*%
%ADD25R,0.1000X0.0500*%
D10*
X134992Y089133D02*
G03*
X134992Y089133I-000049J0D01*
G01*
X144951Y088151D02*
G03*
X144951Y088151I-000049J0D01*
G01*
X139118Y08195D02*
G03*
X139118Y08195I-000049J0D01*
G01*
X137638D02*
G03*
X137638Y08195I-000049J0D01*
G01*
X144838Y08085D02*
G03*
X144838Y08085I-000049J0D01*
G01*
X142588Y08195D02*
G03*
X142588Y08195I-000049J0D01*
G01*
X144481Y084166D02*
G03*
X144481Y084166I-000049J0D01*
G01*
D11*
X144504Y09305D02*
G03*
X144504Y09305I-000059J0D01*
G01*
X131663Y09251D02*
G03*
X131663Y09251I-000059J0D01*
G01*
D12*
X125354Y087375D02*
G03*
X125367Y087361I-001417J-001333D01*
G01*
X127049Y09068D02*
G03*
X127049Y09068I-002559J0D01*
G01*
X143418Y108924D02*
G03*
X143432Y108937I001333J-001417D01*
G01*
X142589Y10832D02*
G03*
X142589Y10832I-002559J0D01*
G01*
X144619Y09627D02*
G03*
X144619Y09627I-00013J0D01*
G01*
X137983D02*
G03*
X137983Y09627I-00013J0D01*
G01*
X130869D02*
G03*
X130869Y09627I-00013J0D01*
G01*
X124709D02*
G03*
X124709Y09627I-00013J0D01*
G01*
X140593Y07974D02*
G03*
X140593Y07974I-00005J0D01*
G01*
X12367Y09341D02*
X148867D01*
X12367Y105221D02*
X148867D01*
Y09341D02*
Y105221D01*
X12367Y09341D02*
Y105221D01*
X130556Y090103D02*
X13154Y090103D01*
X130556Y091087D02*
X13154Y091087D01*
X13154Y090882D02*
X13154Y091087D01*
X13154Y090309D02*
X13154Y090103D01*
X130556Y090103D02*
Y090308D01*
X130556Y090882D02*
X130556Y091087D01*
X12394Y0841D02*
Y08795D01*
Y0872D02*
Y08745D01*
X12439Y0879D01*
X12394Y0868D02*
Y087D01*
X12474Y0878D01*
X12394Y0866D02*
X12499Y08765D01*
X12394Y08615D02*
Y0862D01*
X12519Y08745D01*
X12394Y0856D02*
Y0858D01*
X12539Y08725D01*
X12394Y0853D02*
Y08535D01*
X12559Y087D01*
X12394Y08475D02*
Y0849D01*
X12574Y0867D01*
X12394Y08445D02*
X12584Y08635D01*
X12394Y0841D02*
X12404D01*
X12584Y0859D01*
X12459Y0842D02*
X12574Y08535D01*
X12674Y09173D02*
X12674Y09178D01*
X12689Y09144D02*
X12689Y09148D01*
X12699Y091D02*
Y09108D01*
X12704Y09053D02*
Y09058D01*
X12534Y08828D02*
X12684Y08978D01*
X12469Y08818D02*
X12704Y09053D01*
X12449Y08818D02*
X12469D01*
X12452Y08853D02*
X12699Y091D01*
X12449Y08853D02*
X12452D01*
X12449Y08904D02*
X12689Y09144D01*
X12449Y08898D02*
Y08904D01*
Y08948D02*
X12674Y09173D01*
X12449Y08933D02*
Y08948D01*
Y08998D02*
X12659Y09208D01*
X12449Y08988D02*
Y08998D01*
Y09043D02*
X12639Y09233D01*
X12449Y09018D02*
Y09043D01*
Y09088D02*
X12614Y09253D01*
X12449Y09083D02*
Y09088D01*
Y09133D02*
X12594Y09278D01*
X12449Y09128D02*
Y09133D01*
Y09178D02*
X12564Y09293D01*
X12449Y09173D02*
Y09178D01*
Y09223D02*
X12534Y09308D01*
X12449Y09208D02*
Y09223D01*
Y09263D02*
X12504Y09318D01*
X12449Y09253D02*
Y09263D01*
Y09253D02*
Y09263D01*
Y088121D02*
Y093239D01*
X142843Y10751D02*
X146693D01*
X143343D02*
X143593D01*
X142893Y10796D02*
X143343Y10751D01*
X143793D02*
X143993D01*
X142993Y10831D02*
X143793Y10751D01*
X143143Y10856D02*
X144193Y10751D01*
X144593D02*
X144643D01*
X143343Y10876D02*
X144593Y10751D01*
X144993D02*
X145193D01*
X143543Y10896D02*
X144993Y10751D01*
X145443D02*
X145493D01*
X143793Y10916D02*
X145443Y10751D01*
X145893D02*
X146043D01*
X144093Y10931D02*
X145893Y10751D01*
X144443Y10941D02*
X146343Y10751D01*
X146693D02*
Y10761D01*
X144893Y10941D02*
X146693Y10761D01*
X145443Y10931D02*
X146593Y10816D01*
X13893Y11057D02*
X13898Y11057D01*
X13923Y11072D02*
X13927Y11072D01*
X13963Y11082D02*
X13971D01*
X14013Y11087D02*
X14018Y11087D01*
X14093Y11067D02*
X14243Y10917D01*
X14018Y11087D02*
X14253Y10852D01*
Y10832D02*
Y10852D01*
X13971Y11082D02*
X14218Y10835D01*
Y10832D02*
Y10835D01*
X13927Y11072D02*
X14167Y10832D01*
X14173D01*
X13898Y11057D02*
X14123Y10832D01*
X14138D01*
X13863Y11042D02*
X14073Y10832D01*
X14083D01*
X13838Y11022D02*
X14028Y10832D01*
X14053D01*
X13818Y10997D02*
X13983Y10832D01*
X13988D01*
X13793Y10977D02*
X13938Y10832D01*
X13943D01*
X13778Y10947D02*
X13893Y10832D01*
X13898D01*
X13763Y10917D02*
X13848Y10832D01*
X13863D01*
X13753Y10887D02*
X13808Y10832D01*
X13818D01*
X13808D02*
X13818D01*
X137471D02*
X142589D01*
X12758Y08456D02*
Y08843D01*
X1261Y08456D02*
X12758D01*
X1261D02*
Y08843D01*
X12758D01*
X12634Y086875D02*
X12734D01*
X12634Y086125D02*
X12734D01*
X12795Y086145D02*
X12895Y086145D01*
X12795Y086895D02*
X12895D01*
X12771Y08845D02*
X12919D01*
X12771Y08458D02*
X12771Y08845D01*
X12771Y08458D02*
X12919D01*
X12919Y08845D01*
X139862Y08445D02*
Y0849D01*
Y08546D02*
Y08591D01*
X138252Y08493D02*
Y08543D01*
Y08493D02*
X139252D01*
Y08543D01*
X138252D02*
X139252D01*
X137642Y08591D02*
X139862D01*
X137642Y08445D02*
X139862D01*
X137642D02*
Y0849D01*
Y08546D02*
Y08591D01*
D13*
X144331Y1129D02*
G03*
X144331Y1129I-000381J0D01*
G01*
X147331D02*
G03*
X147331Y1129I-000381J0D01*
G01*
X13812Y0814D02*
Y0824D01*
Y0814D02*
X13852D01*
X13942D02*
X13942Y0824D01*
X13902Y0814D02*
X13942D01*
X13754D02*
X13794Y0814D01*
X13794Y0824D02*
X13794Y0814D01*
X13664Y0814D02*
X13704D01*
X13664Y0824D02*
X13664Y0814D01*
X14474Y0803D02*
X14514D01*
X14514Y0813D01*
X14384Y0803D02*
X14424D01*
X14384Y0813D02*
X14384Y0803D01*
X14249Y0814D02*
X14289D01*
X14289Y0824D02*
X14289Y0814D01*
X14159D02*
X14199Y0814D01*
X14159Y0814D02*
Y0824D01*
D14*
X14479Y087D02*
G03*
X14479Y087I-000039J0D01*
G01*
X131485Y087367D02*
G03*
X131485Y087367I-000039J0D01*
G01*
X13512Y09179D02*
X13512Y08931D01*
X13512Y09179D02*
X1376D01*
Y08931D02*
Y09179D01*
X13512Y08931D02*
X1376Y08931D01*
X143264Y092835D02*
Y094765D01*
X142476Y092835D02*
X143264D01*
X142476D02*
Y094765D01*
X143264D01*
X138713Y094277D02*
X138796Y094194D01*
X138991Y093999D02*
X139047Y093943D01*
X138657Y094054D02*
X138908Y094305D01*
X138657Y094054D02*
X138991Y093999D01*
X138908Y094305D02*
X138991Y093999D01*
X138852Y093859D02*
X139131Y094138D01*
X144311Y088151D02*
X144311Y090789D01*
X143209Y088151D02*
Y090789D01*
Y088151D02*
X144311Y088151D01*
X143209Y090789D02*
X144311D01*
X129635Y094225D02*
X130422Y094225D01*
X129635Y092295D02*
Y094225D01*
Y092295D02*
X130422D01*
Y094225D01*
X14245Y10964D02*
X148495Y10964D01*
X14245Y1146D02*
X148495Y1146D01*
X14545Y10964D02*
Y114581D01*
X148495Y10964D02*
Y114293D01*
Y1146D01*
X14245Y10964D02*
X14245Y1146D01*
X149648Y100597D02*
Y101297D01*
X151028Y100597D02*
Y101297D01*
X149648D02*
X150177Y101297D01*
X150483Y101297D02*
X151028D01*
X150483Y100597D02*
X151028D01*
X149648D02*
X150177D01*
X143298Y09216D02*
X143377D01*
X142983D02*
X143023D01*
X143298Y092357D02*
X143298Y092003D01*
X143023Y09216D02*
X143298Y092357D01*
X143023Y09216D02*
X143298Y092003D01*
X143023Y091963D02*
Y092357D01*
X141704Y09226D02*
X141704Y09281D01*
X14463D01*
X141704Y09226D02*
X14178D01*
Y09281D01*
Y09151D02*
Y09206D01*
X141704D02*
X14178D01*
X14463Y09281D02*
X14463Y092623D01*
X141704Y09206D02*
X141704Y09151D01*
X14463D02*
X14463Y091697D01*
X141704Y09151D02*
X14463D01*
X128624Y091D02*
X13155D01*
X13155Y091187D02*
X13155Y091D01*
X128624Y09155D02*
X128624Y091D01*
X13155Y092113D02*
X13155Y0923D01*
X128624Y09155D02*
X1287D01*
Y091D02*
Y09155D01*
Y09175D02*
Y0923D01*
X128624Y09175D02*
X1287D01*
X128624Y0923D02*
X13155D01*
X128624Y09175D02*
X128624Y0923D01*
X129943Y091453D02*
Y091847D01*
Y09165D02*
X130218Y091493D01*
X129943Y09165D02*
X130218Y091847D01*
X130218Y091493D01*
X129903Y09165D02*
X129943D01*
X130218D02*
X130297D01*
X126003Y094287D02*
X126086Y094204D01*
X126281Y094009D02*
X126337Y093953D01*
X125947Y094064D02*
X126198Y094315D01*
X125947Y094064D02*
X126281Y094009D01*
X126198Y094315D02*
X126281Y094009D01*
X126142Y093869D02*
X126421Y094148D01*
X12784Y093231D02*
Y09376D01*
X12784Y09238D02*
Y092926D01*
X12854Y09238D02*
Y092926D01*
Y093231D02*
Y09376D01*
X12784Y09238D02*
X12854D01*
X12784Y09376D02*
X12854D01*
X132694Y094534D02*
X132777Y094617D01*
X132443Y094283D02*
X132499Y094339D01*
X132554Y094673D02*
X132805Y094422D01*
X132499Y094339D02*
X132554Y094673D01*
X132499Y094339D02*
X132805Y094422D01*
X132359Y094478D02*
X132638Y094199D01*
X14062Y093691D02*
Y09422D01*
Y09284D02*
Y093386D01*
X14132Y09284D02*
Y093386D01*
Y093691D02*
Y09422D01*
X14062Y09284D02*
X14132D01*
X14062Y09422D02*
X14132D01*
X145619Y094358D02*
X145898Y094079D01*
X145759Y094219D02*
X146065Y094302D01*
X145759Y094219D02*
X145814Y094553D01*
X146065Y094302D01*
X145703Y094163D02*
X145759Y094219D01*
X145954Y094414D02*
X146037Y094497D01*
X149648Y102689D02*
X150177D01*
X150483Y102689D02*
X151028Y102689D01*
X150483Y103389D02*
X151028D01*
X149648D02*
X150177D01*
X151028Y102689D02*
Y103389D01*
X149648Y102689D02*
Y103389D01*
Y103735D02*
X150177D01*
X150483Y103735D02*
X151028Y103735D01*
X150483Y104435D02*
X151028D01*
X149648D02*
X150177D01*
X151028D02*
X151028Y103735D01*
X149648D02*
Y104435D01*
Y099551D02*
X150177Y099551D01*
X150483Y099551D02*
X151028Y099551D01*
X150483Y100251D02*
X151028Y100251D01*
X149648Y100251D02*
X150177Y100251D01*
X151028Y099551D02*
Y100251D01*
X149648Y099551D02*
Y100251D01*
Y101643D02*
X150177D01*
X150483Y101643D02*
X151028Y101643D01*
X150483Y102343D02*
X151028D01*
X149648Y102343D02*
X150177D01*
X151028Y101643D02*
Y102343D01*
X149648Y101643D02*
Y102343D01*
X141448Y080433D02*
Y080827D01*
X141172Y080787D02*
X141448Y08063D01*
X141172Y080433D02*
X141448Y08063D01*
X141172Y080787D02*
X141172Y080433D01*
X141448Y08063D02*
X141526D01*
X141054D02*
X141172D01*
X139958Y081359D02*
X139958Y081998D01*
X140982Y081359D02*
X140982Y081998D01*
X140805Y081359D02*
X140982Y081359D01*
X139958D02*
X140135Y081359D01*
X142661Y086294D02*
X143979D01*
X142661Y084286D02*
X143979D01*
X142661D02*
X142661Y086294D01*
X143979Y084286D02*
Y086294D01*
X14264Y075484D02*
Y07841D01*
X142453D02*
X14264D01*
X14209Y075484D02*
X14264Y075484D01*
X14134Y07841D02*
X141527D01*
X14209Y075484D02*
Y07556D01*
X14264D01*
X14134D02*
X14189D01*
Y075484D02*
Y07556D01*
X14134Y075484D02*
Y07841D01*
Y075484D02*
X14189Y075484D01*
X141793Y076803D02*
X142187D01*
X14199D02*
X142147Y077078D01*
X141793Y077078D02*
X14199Y076803D01*
X141793Y077078D02*
X142147Y077078D01*
X14199Y076763D02*
Y076803D01*
Y077078D02*
Y077157D01*
X132Y09114D02*
X133D01*
X132Y09214D02*
X133D01*
Y08814D02*
Y09214D01*
X132Y08814D02*
Y09214D01*
Y08814D02*
X133D01*
D15*
X143704Y08468D02*
G03*
X143704Y08468I-000118J0D01*
G01*
D16*
X134298Y08649D02*
G03*
X134298Y08649I-00002J0D01*
G01*
D17*
X12381Y10593D02*
Y111644D01*
Y10593D02*
X130453Y10593D01*
X12381Y111644D02*
X13046D01*
Y10593D02*
X137153Y10593D01*
X13716D02*
Y111644D01*
X13046D02*
X13716D01*
D18*
X14283Y0952D02*
X14291D01*
X14283Y09488D02*
X14291D01*
X14233Y09481D02*
X1434D01*
X14233D02*
Y09527D01*
X1434D01*
Y09481D02*
Y09527D01*
X1445Y08323D02*
X14458Y08323D01*
X1445Y08355D02*
X14458D01*
X14401Y08362D02*
X14508D01*
Y08316D02*
Y08362D01*
X14401Y08316D02*
X14508Y08316D01*
X14401Y08316D02*
Y08362D01*
X139985Y08819D02*
Y08865D01*
X138915D02*
X139985D01*
X138915Y08819D02*
Y08865D01*
Y08819D02*
X139985D01*
X139415Y08826D02*
X139495D01*
X139415Y08858D02*
X139495Y08858D01*
X14793Y086395D02*
Y086475D01*
X14825Y086475D02*
X14825Y086395D01*
X14832Y086965D02*
X14832Y085895D01*
X14786Y085895D02*
X14832Y085895D01*
X14786Y085895D02*
X14786Y086965D01*
X14832D01*
X14617Y090052D02*
Y090132D01*
X14649Y090052D02*
X14649Y090132D01*
X14656Y089552D02*
Y090622D01*
X1461Y089552D02*
X14656Y089552D01*
X1461Y089552D02*
X1461Y090622D01*
X14656D01*
X14668Y08957D02*
X14714Y08957D01*
Y09064D01*
X14668Y09064D02*
X14714Y09064D01*
X14668Y09064D02*
X14668Y08957D01*
X14675Y09006D02*
Y09014D01*
X14707Y09006D02*
Y09014D01*
X14649Y091206D02*
Y091286D01*
X14617D02*
X14617Y091206D01*
X1461Y091786D02*
X1461Y090716D01*
X1461Y091786D02*
X14656D01*
Y090716D02*
Y091786D01*
X1461Y090716D02*
X14656D01*
X13933Y08323D02*
X13933Y08277D01*
X13826Y08323D02*
X13933D01*
X13826D02*
X13826Y08277D01*
X13933D01*
X13876Y08284D02*
X13884Y08284D01*
X13876Y08316D02*
X13884Y08316D01*
X138775Y08708D02*
Y08716D01*
X138455Y08708D02*
Y08716D01*
X138385Y08766D02*
X138385Y08659D01*
X138385Y08766D02*
X138845D01*
X138845Y08659D02*
X138845Y08766D01*
X138385Y08659D02*
X138845D01*
X13821Y08716D02*
X13821Y08708D01*
X13789D02*
X13789Y08716D01*
X13782Y08659D02*
Y08766D01*
X13828D01*
Y08659D02*
Y08766D01*
X13782Y08659D02*
X13828D01*
X13726Y08767D02*
X13772D01*
X13726Y0866D02*
Y08767D01*
Y0866D02*
X13772D01*
Y08767D01*
X13765Y0871D02*
Y08718D01*
X13733Y0871D02*
Y08718D01*
X139602Y094083D02*
X139927Y094408D01*
X139171Y095164D02*
X139927Y094408D01*
X138846Y094839D02*
X139171Y095164D01*
X138846Y094839D02*
X139602Y094083D01*
X139249Y094535D02*
X139305Y094479D01*
X139475Y094761D02*
X139531Y094705D01*
X12691Y09534D02*
Y0958D01*
X12584Y0958D02*
X12691Y0958D01*
X12584Y09534D02*
Y0958D01*
Y09534D02*
X12691Y09534D01*
X12634Y09541D02*
X12642D01*
X12634Y09573D02*
X12642D01*
X12991Y08653D02*
X12999Y08653D01*
X12991Y08685D02*
X12999Y08685D01*
X12942Y08692D02*
X13049Y08692D01*
Y08646D02*
Y08692D01*
X12942Y08646D02*
X13049Y08646D01*
X12942Y08646D02*
Y08692D01*
X12942Y08593D02*
X12942Y08639D01*
X12942Y08593D02*
X13049D01*
Y08639D01*
X12942Y08639D02*
X13049Y08639D01*
X12991Y08632D02*
X12999Y08632D01*
X12991Y086D02*
X12999Y086D01*
X13054Y09432D02*
Y09478D01*
X12947D02*
X13054D01*
X12947Y09432D02*
Y09478D01*
Y09432D02*
X13054D01*
X12997Y09439D02*
X13005D01*
X12997Y09471D02*
X13005D01*
X13145Y093705D02*
X13191D01*
X13145Y092635D02*
Y093705D01*
Y092635D02*
X13191D01*
Y093705D01*
X13184Y093135D02*
Y093215D01*
X13152Y093135D02*
Y093215D01*
X126941Y094044D02*
X127266Y094369D01*
X12651Y095126D02*
X127266Y094369D01*
X126184Y0948D02*
X12651Y095126D01*
X126184Y0948D02*
X126941Y094044D01*
X126587Y094496D02*
X126644Y09444D01*
X126814Y094723D02*
X12687Y094666D01*
X132145Y094659D02*
X132201Y094715D01*
X131919Y094885D02*
X131975Y094941D01*
X131523Y094588D02*
X132279Y095344D01*
X132604Y095019D01*
X131848Y094263D02*
X132604Y095019D01*
X131523Y094588D02*
X131848Y094263D01*
X132397Y09548D02*
X132477D01*
X132397Y0958D02*
X132477D01*
X131907Y09587D02*
X132977Y09587D01*
Y09541D02*
Y09587D01*
X131907Y09541D02*
X132977Y09541D01*
X131907Y09541D02*
Y09587D01*
X1272Y093615D02*
X12766D01*
X1272Y092545D02*
Y093615D01*
Y092545D02*
X12766D01*
Y093615D01*
X12759Y093045D02*
Y093125D01*
X12727Y093045D02*
Y093125D01*
X13335Y089895D02*
X13335Y089975D01*
X13367D02*
X13367Y089895D01*
X13374Y089395D02*
Y090465D01*
X13328Y089395D02*
X13374D01*
X13328D02*
Y090465D01*
X13374D01*
X13934Y08708D02*
Y08716D01*
X13902Y08708D02*
Y08716D01*
X13895Y08766D02*
X13895Y08659D01*
X13895Y08766D02*
X13941D01*
X13941Y08659D02*
X13941Y08766D01*
X13895Y08659D02*
X13941D01*
X14171Y087335D02*
X14171Y087415D01*
X14203Y087415D02*
X14203Y087335D01*
X1421Y086835D02*
X1421Y087905D01*
X14164Y086835D02*
X1421Y086835D01*
X14164Y087905D02*
X14164Y086835D01*
X14164Y087905D02*
X1421Y087905D01*
X14226Y087335D02*
Y087415D01*
X14258Y087335D02*
X14258Y087415D01*
X14265Y087905D02*
X14265Y086835D01*
X14219D02*
X14265D01*
X14219D02*
X14219Y087905D01*
X14265Y087905D01*
X14561Y087335D02*
X14561Y087415D01*
X14593Y087415D02*
X14593Y087335D01*
X146Y086835D02*
Y087905D01*
X14554Y086835D02*
X146Y086835D01*
X14554Y086835D02*
X14554Y087905D01*
X146Y087905D01*
X14505Y087335D02*
X14505Y087415D01*
X14537Y087335D02*
X14537Y087415D01*
X14544Y087905D02*
X14544Y086835D01*
X14498Y086835D02*
X14544Y086835D01*
X14498Y086835D02*
Y087905D01*
X14544D01*
X13328Y08825D02*
X13374Y08825D01*
X13374Y08932D02*
X13374Y08825D01*
X13328Y08932D02*
X13374D01*
X13328Y08825D02*
Y08932D01*
X13335Y08874D02*
Y08882D01*
X13367D02*
X13367Y08874D01*
X13992Y09188D02*
X14D01*
X13992Y0922D02*
X14Y0922D01*
X13943Y09227D02*
X1405Y09227D01*
Y09181D02*
Y09227D01*
X13943Y09181D02*
X1405Y09181D01*
X13943Y09181D02*
Y09227D01*
X145631Y088973D02*
X145631Y088893D01*
X145951D02*
Y088973D01*
X146021Y088393D02*
Y089463D01*
X145561Y088393D02*
X146021D01*
X145561D02*
X145561Y089463D01*
X146021Y089463D01*
X1461Y089458D02*
X14656D01*
X1461Y088388D02*
Y089458D01*
Y088388D02*
X14656D01*
Y089458D01*
X14649Y088968D02*
X14649Y088888D01*
X14617D02*
X14617Y088968D01*
X14616Y09543D02*
X14624D01*
X14616Y09575D02*
X14624D01*
X14567Y09582D02*
X14674D01*
Y09536D02*
Y09582D01*
X14567Y09536D02*
X14674D01*
X14567D02*
Y09582D01*
X13382Y08658D02*
X13428Y08658D01*
X13428Y08765D02*
X13428Y08658D01*
X13382Y08765D02*
X13428D01*
X13382D02*
X13382Y08658D01*
X13389Y08715D02*
X13389Y08707D01*
X13421Y08707D02*
X13421Y08715D01*
X13659Y08767D02*
X13705Y08767D01*
X13659Y08767D02*
X13659Y0866D01*
X13705D01*
X13705Y08767D01*
X13698Y0871D02*
Y08718D01*
X13666Y0871D02*
X13666Y08718D01*
X14444Y0937D02*
Y09378D01*
X14476Y0937D02*
Y09378D01*
X14483Y0932D02*
Y09427D01*
X14437Y0932D02*
X14483D01*
X14437D02*
Y09427D01*
X14483D01*
X145405Y094619D02*
X145461Y094675D01*
X145179Y094845D02*
X145235Y094901D01*
X144783Y094548D02*
X145539Y095304D01*
X145864Y094979D01*
X145108Y094223D02*
X145864Y094979D01*
X144783Y094548D02*
X145108Y094223D01*
X14003Y09406D02*
X14049D01*
X14003Y09299D02*
Y09406D01*
Y09299D02*
X14049D01*
Y09406D01*
X14042Y09349D02*
Y09357D01*
X1401Y09349D02*
Y09357D01*
X14311Y08115D02*
X14357D01*
X14311Y08008D02*
X14311Y08115D01*
X14311Y08008D02*
X14357D01*
X14357Y08115D02*
X14357Y08008D01*
X1435Y08058D02*
Y08066D01*
X14318Y08058D02*
Y08066D01*
X14184Y07972D02*
Y08018D01*
X14077D02*
X14184D01*
X14077Y07972D02*
Y08018D01*
Y07972D02*
X14184D01*
X14127Y07979D02*
X14135D01*
X14127Y08011D02*
X14135D01*
X14351Y08172D02*
Y0818D01*
X14319Y08172D02*
X14319Y0818D01*
X14312Y0823D02*
X14312Y08123D01*
X14312Y0823D02*
X14358D01*
X14358Y08123D02*
X14358Y0823D01*
X14312Y08123D02*
X14358D01*
X14396Y0816D02*
X14396Y08206D01*
X14396Y0816D02*
X14503Y0816D01*
Y08206D01*
X14396D02*
X14503D01*
X14445Y08199D02*
X14453Y08199D01*
X14445Y08167D02*
X14453Y08167D01*
X14498Y08537D02*
X14544Y08537D01*
X14544Y08644D02*
X14544Y08537D01*
X14498Y08644D02*
X14544D01*
X14498Y08537D02*
Y08644D01*
X14505Y08594D02*
X14505Y08586D01*
X14537Y08586D02*
Y08594D01*
X14554Y08537D02*
X146Y08537D01*
Y08644D01*
X14554D02*
X146D01*
X14554Y08537D02*
Y08644D01*
X14561Y08586D02*
Y08594D01*
X14593Y08586D02*
Y08594D01*
X14554Y08528D02*
X146Y08528D01*
X14554Y08421D02*
Y08528D01*
Y08421D02*
X146D01*
Y08528D01*
X14593Y08479D02*
X14593Y08471D01*
X14561Y08471D02*
X14561Y08479D01*
X14498Y08528D02*
X14544Y08528D01*
X14498Y08528D02*
X14498Y08421D01*
X14544Y08421D01*
X14544Y08528D01*
X14537Y08471D02*
Y08479D01*
X14505Y08471D02*
Y08479D01*
X14451Y08411D02*
X14459D01*
X14451Y08379D02*
X14459Y08379D01*
X14401Y08372D02*
X14508D01*
X14401D02*
Y08418D01*
X14508Y08418D01*
X14508Y08372D01*
X14328Y08379D02*
X14336Y08379D01*
X14328Y08411D02*
X14336Y08411D01*
X14279Y08418D02*
X14386D01*
Y08372D02*
Y08418D01*
X14279Y08372D02*
X14386D01*
X14279Y08418D02*
X14279Y08372D01*
X14279Y08317D02*
X14279Y08363D01*
X14279Y08317D02*
X14386Y08317D01*
Y08363D01*
X14279D02*
X14386D01*
X14328Y08356D02*
X14336Y08356D01*
X14328Y08324D02*
X14336Y08324D01*
X14166Y0858D02*
Y08588D01*
X14134Y0858D02*
Y08588D01*
X14127Y08638D02*
X14127Y08531D01*
X14127Y08638D02*
X14173D01*
X14173Y08531D01*
X14127Y08531D02*
X14173Y08531D01*
X14127Y085225D02*
X14173D01*
X14127Y084155D02*
Y085225D01*
Y084155D02*
X14173D01*
Y085225D01*
X14166Y084655D02*
Y084735D01*
X14134Y084655D02*
Y084735D01*
X14108Y08525D02*
Y08533D01*
X14076Y08525D02*
Y08533D01*
X14069Y08476D02*
Y08583D01*
X14115D01*
X14115Y08476D02*
X14115Y08583D01*
X14069Y08476D02*
X14115D01*
X13042Y08855D02*
X13088D01*
Y08962D01*
X13042D02*
X13088D01*
X13042Y08855D02*
Y08962D01*
X13049Y08904D02*
Y08912D01*
X13081Y08904D02*
Y08912D01*
X13491Y09266D02*
Y09274D01*
X13459Y09266D02*
Y09274D01*
X13452Y09217D02*
Y09324D01*
X13498D01*
Y09217D02*
Y09324D01*
X13452Y09217D02*
X13498D01*
X139985Y08874D02*
Y0892D01*
X138915Y0892D02*
X139985Y0892D01*
X138915Y08874D02*
Y0892D01*
Y08874D02*
X139985Y08874D01*
X139415Y08881D02*
X139495D01*
X139415Y08913D02*
X139495D01*
X14728Y085895D02*
X14774D01*
Y086965D01*
X14728Y086965D02*
X14774Y086965D01*
X14728Y085895D02*
Y086965D01*
X14735Y086465D02*
X14735Y086385D01*
X14767D02*
X14767Y086465D01*
X128645Y0893D02*
X128725Y0893D01*
X128645Y08898D02*
X128725D01*
X128145Y08891D02*
X129215Y08891D01*
X128145Y08891D02*
Y08937D01*
X129215Y08937D01*
Y08891D02*
Y08937D01*
X12814Y08948D02*
X12814Y08994D01*
X12814Y08948D02*
X12921Y08948D01*
Y08994D01*
X12814Y08994D02*
X12921Y08994D01*
X12863Y08987D02*
X12871Y08987D01*
X12863Y08955D02*
X12871D01*
X1373Y08317D02*
X13738Y08317D01*
X1373Y08285D02*
X13738Y08285D01*
X1368Y08278D02*
X13787Y08278D01*
X1368Y08278D02*
Y08324D01*
X13787Y08324D01*
X13787Y08278D01*
X13167Y08593D02*
Y08639D01*
Y08593D02*
X13274D01*
Y08639D01*
X13167Y08639D02*
X13274Y08639D01*
X13216Y08632D02*
X13224D01*
X13216Y086D02*
X13224D01*
X13092Y08735D02*
X131Y08735D01*
X13092Y08767D02*
X131Y08767D01*
X13043Y08774D02*
X1315Y08774D01*
X1315Y08728D02*
X1315Y08774D01*
X13043Y08728D02*
X1315Y08728D01*
X13043Y08774D02*
X13043Y08728D01*
X13093Y08789D02*
X13101Y08789D01*
X13093Y08821D02*
X13101D01*
X13044Y08828D02*
X13151Y08828D01*
Y08782D02*
Y08828D01*
X13044Y08782D02*
X13151D01*
X13044D02*
X13044Y08828D01*
X13902Y09536D02*
Y09582D01*
Y09536D02*
X14009Y09536D01*
Y09582D01*
X13902Y09582D02*
X14009Y09582D01*
X13951Y09575D02*
X13959D01*
X13951Y09543D02*
X13959D01*
X13992Y09136D02*
X14D01*
X13992Y09104D02*
X14D01*
X13942Y09097D02*
X14049Y09097D01*
X13942Y09097D02*
Y09143D01*
X14049Y09143D01*
Y09097D02*
Y09143D01*
X13382Y08825D02*
X13428D01*
X13428Y08932D01*
X13382D02*
X13428D01*
X13382D02*
X13382Y08825D01*
X13389Y08874D02*
Y08882D01*
X13421D02*
X13421Y08874D01*
D19*
X138428Y094938D02*
X138495Y095005D01*
X139771Y093729D01*
X139807Y093693D01*
X139622Y093509D02*
X139807Y093693D01*
X139587Y093544D02*
X139622Y093509D01*
X139587Y093544D02*
X139771Y093729D01*
X139261Y093219D02*
X139446Y093403D01*
X139481Y093368D01*
X139297Y093183D02*
X139481Y093368D01*
X139261Y093219D02*
X139297Y093183D01*
X137985Y094495D02*
X139261Y093219D01*
X137985Y094495D02*
X138052Y094562D01*
X125718Y094948D02*
X125785Y095015D01*
X127061Y093739D01*
X127097Y093703D01*
X126912Y093519D02*
X127097Y093703D01*
X126877Y093554D02*
X126912Y093519D01*
X126877Y093554D02*
X127061Y093739D01*
X126551Y093229D02*
X126736Y093413D01*
X126771Y093378D01*
X126587Y093193D02*
X126771Y093378D01*
X126551Y093229D02*
X126587Y093193D01*
X125275Y094505D02*
X126551Y093229D01*
X125275Y094505D02*
X125342Y094572D01*
X133438Y094902D02*
X133505Y094835D01*
X132229Y093559D02*
X133505Y094835D01*
X132193Y093523D02*
X132229Y093559D01*
X132009Y093708D02*
X132193Y093523D01*
X132009Y093708D02*
X132044Y093743D01*
X132229Y093559D01*
X131719Y094069D02*
X131903Y093884D01*
X131868Y093849D02*
X131903Y093884D01*
X131683Y094033D02*
X131868Y093849D01*
X131683Y094033D02*
X131719Y094069D01*
X132995Y095345D01*
X133062Y095278D01*
X146255Y095225D02*
X146322Y095158D01*
X144979Y093949D02*
X146255Y095225D01*
X144943Y093913D02*
X144979Y093949D01*
X144943Y093913D02*
X145128Y093729D01*
X145163Y093764D01*
X144979Y093949D02*
X145163Y093764D01*
X145304Y093623D02*
X145489Y093439D01*
X145269Y093588D02*
X145304Y093623D01*
X145269Y093588D02*
X145453Y093403D01*
X145489Y093439D01*
X146765Y094715D01*
X146698Y094782D02*
X146765Y094715D01*
X140385Y080269D02*
Y080364D01*
Y080269D02*
X14219D01*
X14224Y080269D01*
X14224Y08053D02*
X14224Y080269D01*
X14219Y08053D02*
X14224D01*
X14219Y080269D02*
Y08053D01*
X14219Y08073D02*
X14219Y080991D01*
X14219Y08073D02*
X14224D01*
Y080991D01*
X14219Y080991D02*
X14224Y080991D01*
X140385Y080991D02*
X14219D01*
X140385Y080896D02*
Y080991D01*
D20*
X125206Y083831D02*
X128202Y083831D01*
X12316Y083831D02*
X124186D01*
X129221D02*
X12946Y083831D01*
X125206Y078949D02*
X128202Y078949D01*
X12316D02*
X124186D01*
X129221D02*
X12946D01*
X12316D02*
Y083831D01*
X12946Y078949D02*
Y083831D01*
X13653Y079629D02*
Y084511D01*
X13023Y079629D02*
Y084511D01*
X136291Y079629D02*
X13653Y079629D01*
X13023D02*
X131256D01*
X132276D02*
X135272Y079629D01*
X136291Y084511D02*
X13653Y084511D01*
X13023D02*
X131256D01*
X132276D02*
X135272D01*
X143451Y08676D02*
X144081Y08676D01*
X143451Y087988D02*
X144081D01*
X131591Y086294D02*
Y086786D01*
X130669D02*
X130669Y086294D01*
D21*
X14445Y09599D02*
X14821D01*
X1482Y096D02*
X14821Y09599D01*
X1482Y096D02*
Y09805D01*
X14421D02*
X1482D01*
X14421Y096D02*
Y09805D01*
Y096D02*
X14422Y09599D01*
X14445D01*
X14819Y09782D02*
X1482Y09768D01*
X141553Y09782D02*
X141563Y09768D01*
X137583Y09599D02*
X137813D01*
X137573Y096D02*
X137583Y09599D01*
X137573Y096D02*
Y09805D01*
X141563D01*
Y096D02*
Y09805D01*
Y096D02*
X141573Y09599D01*
X137813D02*
X141573D01*
X1307D02*
X13446D01*
X13445Y096D02*
X13446Y09599D01*
X13445Y096D02*
Y09805D01*
X13046D02*
X13445D01*
X13046Y096D02*
Y09805D01*
Y096D02*
X13047Y09599D01*
X1307D01*
X13444Y09782D02*
X13445Y09768D01*
X12454Y09599D02*
X1283D01*
X12829Y096D02*
X1283Y09599D01*
X12829Y096D02*
Y09805D01*
X1243D02*
X12829D01*
X1243Y096D02*
Y09805D01*
Y096D02*
X12431Y09599D01*
X12454D01*
X12828Y09782D02*
X12829Y09768D01*
X150246Y101219D02*
X150426D01*
X150246Y100679D02*
X150426Y100679D01*
X127921Y092982D02*
Y093162D01*
X128461Y092982D02*
Y093162D01*
X140701Y093442D02*
Y093622D01*
X141241Y093442D02*
Y093622D01*
X150246Y102771D02*
X150426Y102771D01*
X150246Y103311D02*
X150426D01*
X150246Y103817D02*
X150426D01*
X150246Y104357D02*
X150426D01*
X150246Y099633D02*
X150426Y099633D01*
X150246Y100173D02*
X150426Y100173D01*
X150246Y101725D02*
X150426Y101725D01*
X150246Y102265D02*
X150426Y102265D01*
D22*
X141173Y076732D02*
Y077923D01*
X137113Y076732D02*
Y077923D01*
X141173D01*
D23*
X136268Y101678D02*
D03*
D24*
X146215Y09787D02*
D03*
X139578D02*
D03*
X132465Y09787D02*
D03*
X126305Y09787D02*
D03*
D25*
X138752Y08518D02*
D03*
M02*
