G04*
G04 #@! TF.GenerationSoftware,Altium Limited,Altium Designer,21.9.2 (33)*
G04*
G04 Layer_Physical_Order=1*
G04 Layer_Color=255*
%FSTAX24Y24*%
%MOIN*%
G70*
G04*
G04 #@! TF.SameCoordinates,0CAA2080-A4D5-46B4-80B0-B41EDDDAA001*
G04*
G04*
G04 #@! TF.FilePolarity,Positive*
G04*
G01*
G75*
%ADD12C,0.0100*%
%ADD13C,0.0080*%
%ADD17C,0.0200*%
%ADD26R,0.0118X0.0669*%
%ADD27R,0.0669X0.0118*%
%ADD28R,0.0701X0.0283*%
%ADD29R,0.0394X0.0374*%
G04:AMPARAMS|DCode=30|XSize=37.4mil|YSize=35.4mil|CornerRadius=0mil|HoleSize=0mil|Usage=FLASHONLY|Rotation=45.000|XOffset=0mil|YOffset=0mil|HoleType=Round|Shape=Rectangle|*
%AMROTATEDRECTD30*
4,1,4,-0.0007,-0.0258,-0.0258,-0.0007,0.0007,0.0258,0.0258,0.0007,-0.0007,-0.0258,0.0*
%
%ADD30ROTATEDRECTD30*%

%ADD31R,0.0374X0.0394*%
%ADD32R,0.0945X0.0394*%
%ADD33R,0.0945X0.1299*%
%ADD34R,0.0335X0.0472*%
G04:AMPARAMS|DCode=35|XSize=37.4mil|YSize=39.4mil|CornerRadius=0mil|HoleSize=0mil|Usage=FLASHONLY|Rotation=225.000|XOffset=0mil|YOffset=0mil|HoleType=Round|Shape=Rectangle|*
%AMROTATEDRECTD35*
4,1,4,-0.0007,0.0271,0.0271,-0.0007,0.0007,-0.0271,-0.0271,0.0007,-0.0007,0.0271,0.0*
%
%ADD35ROTATEDRECTD35*%

%ADD36R,0.0472X0.0551*%
%ADD37R,0.0446X0.1322*%
%ADD38R,0.4160X0.2827*%
%ADD39R,0.1299X0.1181*%
%ADD40R,0.0984X0.0669*%
%ADD41R,0.0551X0.0472*%
G04:AMPARAMS|DCode=42|XSize=37.4mil|YSize=39.4mil|CornerRadius=0mil|HoleSize=0mil|Usage=FLASHONLY|Rotation=135.000|XOffset=0mil|YOffset=0mil|HoleType=Round|Shape=Rectangle|*
%AMROTATEDRECTD42*
4,1,4,0.0271,0.0007,-0.0007,-0.0271,-0.0271,-0.0007,0.0007,0.0271,0.0271,0.0007,0.0*
%
%ADD42ROTATEDRECTD42*%

G04:AMPARAMS|DCode=43|XSize=37.4mil|YSize=35.4mil|CornerRadius=0mil|HoleSize=0mil|Usage=FLASHONLY|Rotation=315.000|XOffset=0mil|YOffset=0mil|HoleType=Round|Shape=Rectangle|*
%AMROTATEDRECTD43*
4,1,4,-0.0258,0.0007,-0.0007,0.0258,0.0258,-0.0007,0.0007,-0.0258,-0.0258,0.0007,0.0*
%
%ADD43ROTATEDRECTD43*%

G04:AMPARAMS|DCode=44|XSize=47.6mil|YSize=22.8mil|CornerRadius=2.9mil|HoleSize=0mil|Usage=FLASHONLY|Rotation=180.000|XOffset=0mil|YOffset=0mil|HoleType=Round|Shape=RoundedRectangle|*
%AMROUNDEDRECTD44*
21,1,0.0476,0.0171,0,0,180.0*
21,1,0.0419,0.0228,0,0,180.0*
1,1,0.0057,-0.0210,0.0086*
1,1,0.0057,0.0210,0.0086*
1,1,0.0057,0.0210,-0.0086*
1,1,0.0057,-0.0210,-0.0086*
%
%ADD44ROUNDEDRECTD44*%
%ADD45R,0.0531X0.0709*%
%ADD46R,0.0354X0.0374*%
%ADD47R,0.0354X0.0374*%
%ADD48C,0.0600*%
%ADD49O,0.0709X0.0236*%
%ADD50R,0.0551X0.0394*%
G04:AMPARAMS|DCode=51|XSize=46.9mil|YSize=15.7mil|CornerRadius=2mil|HoleSize=0mil|Usage=FLASHONLY|Rotation=270.000|XOffset=0mil|YOffset=0mil|HoleType=Round|Shape=RoundedRectangle|*
%AMROUNDEDRECTD51*
21,1,0.0469,0.0118,0,0,270.0*
21,1,0.0429,0.0157,0,0,270.0*
1,1,0.0039,-0.0059,-0.0215*
1,1,0.0039,-0.0059,0.0215*
1,1,0.0039,0.0059,0.0215*
1,1,0.0039,0.0059,-0.0215*
%
%ADD51ROUNDEDRECTD51*%
%ADD52R,0.0472X0.0315*%
%ADD53R,0.0669X0.0984*%
%ADD83C,0.0800*%
%ADD110O,0.0315X0.0787*%
%ADD111C,0.0098*%
%ADD112C,0.0110*%
%ADD113C,0.0400*%
G04:AMPARAMS|DCode=114|XSize=120mil|YSize=78.7mil|CornerRadius=0mil|HoleSize=0mil|Usage=FLASHONLY|Rotation=333.000|XOffset=0mil|YOffset=0mil|HoleType=Round|Shape=Round|*
%AMOVALD114*
21,1,0.0413,0.0787,0.0000,0.0000,333.0*
1,1,0.0787,-0.0184,0.0094*
1,1,0.0787,0.0184,-0.0094*
%
%ADD114OVALD114*%

G04:AMPARAMS|DCode=115|XSize=120mil|YSize=78.7mil|CornerRadius=0mil|HoleSize=0mil|Usage=FLASHONLY|Rotation=45.000|XOffset=0mil|YOffset=0mil|HoleType=Round|Shape=Round|*
%AMOVALD115*
21,1,0.0413,0.0787,0.0000,0.0000,45.0*
1,1,0.0787,-0.0146,-0.0146*
1,1,0.0787,0.0146,0.0146*
%
%ADD115OVALD115*%

G04:AMPARAMS|DCode=116|XSize=120mil|YSize=78.7mil|CornerRadius=0mil|HoleSize=0mil|Usage=FLASHONLY|Rotation=117.000|XOffset=0mil|YOffset=0mil|HoleType=Round|Shape=Round|*
%AMOVALD116*
21,1,0.0413,0.0787,0.0000,0.0000,117.0*
1,1,0.0787,0.0094,-0.0184*
1,1,0.0787,-0.0094,0.0184*
%
%ADD116OVALD116*%

G04:AMPARAMS|DCode=117|XSize=120mil|YSize=78.7mil|CornerRadius=0mil|HoleSize=0mil|Usage=FLASHONLY|Rotation=261.000|XOffset=0mil|YOffset=0mil|HoleType=Round|Shape=Round|*
%AMOVALD117*
21,1,0.0413,0.0787,0.0000,0.0000,261.0*
1,1,0.0787,0.0032,0.0204*
1,1,0.0787,-0.0032,-0.0204*
%
%ADD117OVALD117*%

G04:AMPARAMS|DCode=118|XSize=120mil|YSize=78.7mil|CornerRadius=0mil|HoleSize=0mil|Usage=FLASHONLY|Rotation=189.000|XOffset=0mil|YOffset=0mil|HoleType=Round|Shape=Round|*
%AMOVALD118*
21,1,0.0413,0.0787,0.0000,0.0000,189.0*
1,1,0.0787,0.0204,0.0032*
1,1,0.0787,-0.0204,-0.0032*
%
%ADD118OVALD118*%

%ADD119C,0.2559*%
%ADD120O,0.2756X0.1575*%
%ADD121C,0.1969*%
%ADD122C,0.0394*%
%ADD123O,0.0800X0.0700*%
%ADD124R,0.0800X0.0700*%
%ADD125C,0.1000*%
%ADD126R,0.0768X0.0768*%
%ADD127R,0.1181X0.1181*%
%ADD128C,0.1181*%
%ADD129C,0.1378*%
%ADD130R,0.1378X0.1378*%
%ADD131R,0.1181X0.1181*%
%ADD132R,0.1500X0.2400*%
%ADD133O,0.1500X0.2400*%
%ADD134R,0.1378X0.1378*%
%ADD135O,0.0800X0.1181*%
%ADD136R,0.0800X0.1181*%
%ADD137O,0.0800X0.1000*%
%ADD138R,0.0800X0.1000*%
%ADD139C,0.0236*%
G36*
X145575Y11253D02*
X14561Y11248D01*
Y109113D01*
Y10803D01*
X145627Y108013D01*
X145616Y107996D01*
X145334Y107714D01*
X145318Y107704D01*
X1453Y1077D01*
X1436D01*
X143569Y107669D01*
X143511D01*
X14289Y10829D01*
X14283Y10835D01*
X13835D01*
X1376Y1091D01*
Y11251D01*
X145575Y11253D01*
X145575Y11253D01*
D02*
G37*
G36*
X126962Y10763D02*
X126978Y107619D01*
X126993Y107605D01*
X127008Y107594D01*
X127008Y107594D01*
X127027Y107586D01*
X127028Y107586D01*
X127029Y107586D01*
X127061Y107572D01*
X127062Y107572D01*
X127063Y107571D01*
X127082Y107564D01*
X1271Y10756D01*
X12712D01*
X12714Y107556D01*
X131456D01*
X132208Y106804D01*
X13296Y106052D01*
Y097187D01*
X132959Y097185D01*
X132903Y097081D01*
X132869Y096968D01*
X132857Y09685D01*
Y09665D01*
X132869Y096532D01*
X132902Y096422D01*
X132507Y096027D01*
X1321D01*
X13206Y09605D01*
Y09745D01*
X13086D01*
Y09605D01*
X131197D01*
Y09591D01*
X12678D01*
Y096178D01*
X126782Y096188D01*
Y096198D01*
X126788Y096205D01*
X126793Y096214D01*
X126801Y096224D01*
X126857Y096329D01*
X126891Y096442D01*
X126903Y096559D01*
Y096941D01*
X126891Y097058D01*
X126885Y097077D01*
Y097077D01*
X126857Y097171D01*
X126801Y097276D01*
X126793Y097286D01*
X126788Y097295D01*
X126782Y097302D01*
Y097312D01*
X12678Y097322D01*
Y10744D01*
X126802Y107482D01*
X126802D01*
Y107482D01*
X126956Y107636D01*
X126962Y10763D01*
D02*
G37*
G36*
X143366Y107525D02*
X143392Y107508D01*
X14341Y10749D01*
X143419D01*
X143432Y107481D01*
X143511Y107466D01*
X143569D01*
X143648Y107481D01*
X143661Y10749D01*
X14516D01*
X145166Y107496D01*
X1453D01*
X14532Y1075D01*
X14534Y1075D01*
X145358Y107504D01*
D01*
D01*
X145358Y107504D01*
X145377Y107511D01*
X145378Y107512D01*
X145379Y107512D01*
X145404Y107523D01*
X145411Y107526D01*
X145412Y107526D01*
X145413Y107526D01*
X145432Y107534D01*
X145432Y107534D01*
X145432Y107534D01*
X145432Y107534D01*
X145447Y107545D01*
X145462Y107559D01*
X145478Y10757D01*
X14576Y107852D01*
X145771Y107868D01*
X145785Y107883D01*
X145797Y1079D01*
X1458Y107907D01*
X14643D01*
X149217Y10512D01*
Y104087D01*
Y103041D01*
Y098088D01*
X148989Y09786D01*
X148554D01*
Y09969D01*
X14855Y09971D01*
Y09973D01*
X148546Y099748D01*
X148539Y099767D01*
X148538Y099768D01*
X148538Y099769D01*
X148524Y099801D01*
X148524Y099802D01*
X148524Y099803D01*
X148516Y099822D01*
X148516Y099822D01*
X148505Y099837D01*
X148491Y099852D01*
X14848Y099868D01*
X143308Y10504D01*
X143292Y105051D01*
X143277Y105065D01*
X143262Y105076D01*
X143262Y105076D01*
X143243Y105084D01*
X143242Y105084D01*
X143241Y105084D01*
X143209Y105098D01*
X143208Y105098D01*
X143207Y105099D01*
X143188Y105106D01*
X143188D01*
X143188Y105106D01*
X143188D01*
X14317Y10511D01*
X14315D01*
X14313Y105114D01*
X140194D01*
X13815Y107158D01*
Y10761D01*
X138686Y108146D01*
X142746D01*
X143366Y107525D01*
D02*
G37*
G36*
X146288Y097331D02*
X146362Y097308D01*
X146431Y097271D01*
X146491Y097222D01*
X146541Y097162D01*
X146578Y097093D01*
X1466Y097018D01*
X146607Y09695D01*
Y096559D01*
X146608Y096555D01*
X1466Y096482D01*
X146578Y096407D01*
X146541Y096338D01*
X146491Y096277D01*
X146487Y09627D01*
X146486Y096269D01*
X146483Y096263D01*
X146475Y096255D01*
X14647Y096247D01*
X146461Y096222D01*
X146448Y096199D01*
X146447Y096185D01*
X146442Y096173D01*
X146443Y096146D01*
X14644Y09612D01*
X146441Y09611D01*
X146444Y096102D01*
X146445Y096099D01*
X146445Y096093D01*
X146445Y096092D01*
X146446Y096084D01*
X146447Y09608D01*
X146447Y09608D01*
Y09608D01*
X146442Y096067D01*
X146427Y096043D01*
X146424Y096039D01*
X146414Y096033D01*
X146406Y09603D01*
X1459D01*
X14581Y09612D01*
Y097191D01*
X145813Y097197D01*
X14582Y097206D01*
X14586Y097232D01*
X14588Y09723D01*
X145883Y097231D01*
X145886Y09723D01*
X145921Y097242D01*
X145922Y097242D01*
X14593Y097243D01*
X145937Y097247D01*
X145956Y097253D01*
X145967Y097258D01*
X145971Y097262D01*
X145971Y097262D01*
X146058Y097308D01*
X146132Y097331D01*
X14621Y097339D01*
X146288Y097331D01*
D02*
G37*
G36*
X14992Y11248D02*
X149829Y112413D01*
X149697Y112281D01*
X149587Y112131D01*
X149503Y111965D01*
X149445Y111787D01*
X149416Y111603D01*
Y111417D01*
X149445Y111233D01*
X149503Y111055D01*
X149587Y110889D01*
X149697Y110739D01*
X149829Y110607D01*
X149979Y110497D01*
X150145Y110413D01*
X150323Y110355D01*
X150507Y110326D01*
X150693D01*
X150877Y110355D01*
X151055Y110413D01*
X151221Y110497D01*
X151371Y110607D01*
X151503Y110739D01*
X15157Y11083D01*
X15162Y110814D01*
Y09629D01*
X151161D01*
X151147Y0963D01*
X151014Y096356D01*
X15087Y096375D01*
X15077D01*
X150626Y096356D01*
X150526Y096314D01*
X150333Y096507D01*
X150377Y096589D01*
X150397Y096655D01*
X150406Y096676D01*
X150408Y09669D01*
X150411Y096702D01*
X150417Y096764D01*
X150425Y09682D01*
X150423Y096834D01*
Y09797D01*
Y103041D01*
Y104087D01*
Y10537D01*
X150423Y10537D01*
X150411Y105488D01*
X150377Y105601D01*
X150321Y105705D01*
X150246Y105796D01*
X147106Y108936D01*
X147015Y109011D01*
X146911Y109067D01*
X146798Y109101D01*
X14668Y109113D01*
X145814D01*
Y11248D01*
X14584Y11252D01*
X145857Y11253D01*
X149904D01*
X14992Y11248D01*
D02*
G37*
G36*
X13715Y10787D02*
X14011Y10491D01*
X14313D01*
X143148Y104906D01*
X143164Y104896D01*
X148336Y099724D01*
X148346Y099708D01*
X14835Y09969D01*
Y09786D01*
Y0964D01*
X14807Y09612D01*
X14805Y096123D01*
X147972Y096112D01*
X147918Y09609D01*
X146664D01*
X146649Y096106D01*
X146647Y096112D01*
X146647Y096114D01*
X146645Y09612D01*
X146645Y096126D01*
X146644Y09613D01*
X146643Y09614D01*
X146648Y096148D01*
X146711Y096224D01*
X146767Y096329D01*
X146801Y096442D01*
X146813Y096559D01*
Y096941D01*
X146801Y097058D01*
X146795Y097077D01*
Y097077D01*
X146767Y097171D01*
X146711Y097276D01*
X146636Y097367D01*
X146545Y097442D01*
X146441Y097498D01*
X146328Y097532D01*
X14621Y097543D01*
X146092Y097532D01*
X146073Y097526D01*
X146073D01*
X145979Y097498D01*
X145875Y097442D01*
X145871Y097438D01*
X14586Y097433D01*
X145842Y097437D01*
X14581Y097473D01*
Y097541D01*
X14461D01*
Y09609D01*
X140905D01*
X140892Y09614D01*
X140908Y096149D01*
X141Y096224D01*
X141075Y096315D01*
X14113Y096419D01*
X141165Y096532D01*
X141176Y09665D01*
Y09685D01*
X141165Y096968D01*
X14113Y097081D01*
X141075Y097185D01*
X141Y097276D01*
X140908Y097351D01*
X140804Y097407D01*
X140691Y097441D01*
X140573Y097453D01*
X140456Y097441D01*
X140343Y097407D01*
X140238Y097351D01*
X140147Y097276D01*
X140072Y097185D01*
X140016Y097081D01*
X139982Y096968D01*
X13997Y09685D01*
Y09665D01*
X139982Y096532D01*
X140016Y096419D01*
X140072Y096315D01*
X140147Y096224D01*
X140238Y096149D01*
X140255Y09614D01*
X140242Y09609D01*
X139173D01*
Y09745D01*
X137973D01*
Y09609D01*
X1372D01*
X13405Y09924D01*
Y10525D01*
X132352Y106948D01*
X1316Y1077D01*
X1316Y1077D01*
X13154Y10776D01*
X12714D01*
X127122Y107764D01*
X127106Y107774D01*
X12542Y10946D01*
Y11252D01*
X12543Y11253D01*
X13715D01*
Y10787D01*
D02*
G37*
G36*
X126658Y107626D02*
X126641Y107601D01*
X126621Y107577D01*
X126599Y107534D01*
X126597Y107526D01*
X126592Y107518D01*
X126586Y107488D01*
X126577Y107458D01*
X126578Y107449D01*
X126576Y10744D01*
Y097322D01*
X126578Y097312D01*
Y097302D01*
X12658Y097292D01*
Y097282D01*
X126582Y097272D01*
X126585Y097266D01*
X126587Y097243D01*
X126592Y097234D01*
X126594Y097224D01*
X126606Y097205D01*
X126608Y097199D01*
X126613Y09719D01*
X126619Y097182D01*
X126624Y097173D01*
X126626Y09717D01*
X126668Y097093D01*
X12669Y097018D01*
X126697Y09695D01*
Y096559D01*
X126698Y096555D01*
X12669Y096482D01*
X126668Y096407D01*
X126626Y09633D01*
X126624Y096327D01*
X126619Y096318D01*
X126613Y09631D01*
X126608Y096301D01*
X126606Y096295D01*
X126594Y096276D01*
X126592Y096266D01*
X126587Y096257D01*
X126585Y096234D01*
X126582Y096228D01*
X12658Y096218D01*
Y096208D01*
X126578Y096198D01*
Y096188D01*
X126576Y096178D01*
Y095957D01*
X125949D01*
X1259Y095959D01*
Y097541D01*
X1247D01*
Y095959D01*
X124997D01*
Y09593D01*
X125008Y095852D01*
X125038Y095779D01*
X125086Y095716D01*
X125446Y095356D01*
X12546Y095345D01*
X125439Y095295D01*
X125429Y095217D01*
Y094789D01*
X125191Y094551D01*
X125725Y094018D01*
X126194Y094487D01*
X126275D01*
X126578Y094185D01*
X126068Y093675D01*
X126096Y093646D01*
X12446Y09201D01*
Y09183D01*
Y08865D01*
Y08863D01*
X12373Y0879D01*
Y087794D01*
Y084866D01*
Y08327D01*
X12447Y08253D01*
Y08025D01*
X12451Y08021D01*
X124297Y079997D01*
X12425Y079965D01*
X124152Y079868D01*
X124121Y079821D01*
X12209Y07779D01*
X12184D01*
Y100654D01*
Y107895D01*
X126656D01*
X126658Y107626D01*
D02*
G37*
G36*
X14872Y093556D02*
X148326D01*
Y094344D01*
X14872D01*
Y093556D01*
D02*
G37*
G36*
X139533Y09269D02*
X139486Y092654D01*
X139256Y092424D01*
X139208Y092361D01*
X139178Y092288D01*
X139171Y09224D01*
X138376D01*
X138369Y092239D01*
X138345Y092285D01*
X138365Y092305D01*
X138406Y092377D01*
X138428Y092458D01*
Y092542D01*
X138406Y092623D01*
X138368Y09269D01*
X13838Y092733D01*
X138383Y09274D01*
X139516D01*
X139533Y09269D01*
D02*
G37*
G36*
X141237Y091715D02*
Y090984D01*
X141188Y090982D01*
X141166Y091063D01*
X141125Y091135D01*
X141065Y091195D01*
X140993Y091236D01*
X140912Y091258D01*
X140865D01*
Y091395D01*
X140906Y091467D01*
X140928Y091548D01*
Y091632D01*
X140906Y091713D01*
X140865Y091785D01*
X140805Y091845D01*
X140733Y091886D01*
X140652Y091908D01*
X140568D01*
X140487Y091886D01*
X140415Y091845D01*
X140355Y091785D01*
X140314Y091713D01*
X140292Y091632D01*
Y091548D01*
X140314Y091467D01*
X140355Y091395D01*
Y091125D01*
X140062D01*
Y091587D01*
X13959D01*
X139581Y091603D01*
X13961Y091653D01*
X140062D01*
Y092137D01*
X140815D01*
X141237Y091715D01*
D02*
G37*
G36*
X137494Y091271D02*
Y091104D01*
Y090586D01*
Y09021D01*
X137444Y090191D01*
X137383Y090226D01*
X137302Y090248D01*
X137253D01*
X13717Y090265D01*
X13611D01*
X136016Y090246D01*
X135937Y090193D01*
X135301Y089557D01*
X135276Y08952D01*
X135226Y089535D01*
Y089726D01*
X135226D01*
Y090092D01*
X135282D01*
X135363Y090114D01*
X135435Y090155D01*
X135495Y090215D01*
X135536Y090287D01*
X135546Y090323D01*
X135623Y090344D01*
X135695Y090385D01*
X135755Y090445D01*
X135796Y090517D01*
X135818Y090598D01*
Y090682D01*
X135801Y090747D01*
X135828Y090797D01*
X136273D01*
X136325Y090745D01*
X136397Y090704D01*
X136478Y090682D01*
X136562D01*
X136643Y090704D01*
X136715Y090745D01*
X136775Y090805D01*
X136816Y090877D01*
X136838Y090958D01*
Y091042D01*
X13682Y09111D01*
X136846Y09116D01*
X13721D01*
X13731Y09118D01*
X137394Y091236D01*
X137448Y09129D01*
X137494Y091271D01*
D02*
G37*
G36*
X133612Y089832D02*
Y089748D01*
X133634Y089667D01*
X133675Y089595D01*
X133735Y089535D01*
X133807Y089494D01*
X133888Y089472D01*
X133972D01*
X134053Y089494D01*
X134107Y089525D01*
X134157Y089501D01*
Y089208D01*
X134385D01*
Y088882D01*
X133123D01*
Y088203D01*
X132225D01*
X132123Y088305D01*
Y089141D01*
X132167Y089164D01*
X132173Y08916D01*
X132306Y089104D01*
X13245Y089085D01*
X13255D01*
X132694Y089104D01*
X132827Y08916D01*
X132942Y089248D01*
X13303Y089363D01*
X133047Y089403D01*
X133104Y089414D01*
X133183Y089467D01*
X133323Y089607D01*
X133376Y089686D01*
X133395Y08978D01*
Y089833D01*
X133611D01*
X133612Y089832D01*
D02*
G37*
G36*
X135018Y088435D02*
X135012Y088425D01*
X134996Y088347D01*
Y087841D01*
X134986Y087791D01*
X134979Y087781D01*
X134975Y087761D01*
X134968Y087742D01*
Y087722D01*
X134964Y087703D01*
Y087329D01*
X134915Y08732D01*
X133653D01*
Y087775D01*
X133724Y087846D01*
X133772Y087909D01*
X133802Y087982D01*
X133813Y08806D01*
X13385Y088088D01*
X134437D01*
Y08824D01*
X134525D01*
X134618Y088259D01*
X134698Y088312D01*
X134803Y088417D01*
X134856Y088496D01*
X134875Y08859D01*
Y089208D01*
X135018D01*
Y088435D01*
D02*
G37*
G36*
X14036Y088269D02*
X140346Y088194D01*
Y087031D01*
X140332Y086997D01*
Y086903D01*
X140368Y086815D01*
X140435Y086748D01*
X140523Y086712D01*
X140617D01*
X140705Y086748D01*
X140772Y086815D01*
X140808Y086903D01*
Y086997D01*
X140794Y087031D01*
Y088074D01*
X140799Y088099D01*
X140814Y088121D01*
X140933Y08824D01*
X14632D01*
X14654Y08802D01*
Y087607D01*
X146257Y087324D01*
X146252Y087321D01*
X146248Y087318D01*
X146245Y087317D01*
X146235Y08731D01*
X146224Y087309D01*
X14622Y087307D01*
X146216D01*
X1462Y087304D01*
X14619D01*
X146164Y087306D01*
X146143Y087312D01*
X146139Y087312D01*
X146135Y087313D01*
X146124Y087316D01*
X146115Y087323D01*
X146111Y087324D01*
X146108Y087327D01*
X146099Y087334D01*
X146098Y087335D01*
X146088Y087347D01*
X146079Y08736D01*
X146077Y087361D01*
Y087987D01*
X145517D01*
Y087987D01*
X144903D01*
Y087972D01*
X144529D01*
X144528Y087974D01*
X14447Y087985D01*
X14405D01*
X143992Y087974D01*
X143943Y087941D01*
X14391Y087892D01*
X143899Y087834D01*
Y087662D01*
X14391Y087604D01*
X143943Y087555D01*
X143992Y087522D01*
X14405Y087511D01*
X14447D01*
X144496Y087516D01*
X144546Y087479D01*
X144546Y087479D01*
Y087269D01*
X144546Y087269D01*
X144496Y087232D01*
X14447Y087237D01*
X14405D01*
X143992Y087226D01*
X143943Y087193D01*
X14391Y087144D01*
X143899Y087086D01*
Y086914D01*
X14391Y086856D01*
X143943Y086807D01*
X143992Y086774D01*
X14405Y086763D01*
X144144D01*
X144188Y086713D01*
X144188Y086651D01*
X144197Y086604D01*
X144224Y086564D01*
X144263Y086538D01*
X14431Y086528D01*
X144368D01*
X144421Y086493D01*
X144507Y086476D01*
X14516D01*
X145246Y086493D01*
X145319Y086541D01*
X145369Y086591D01*
X145417Y086664D01*
X14543Y086727D01*
X145463Y086763D01*
X145884D01*
X145998Y086649D01*
X145996Y086638D01*
X146005Y086592D01*
X146017Y086562D01*
X145997Y086521D01*
X145986Y086512D01*
X145463D01*
Y085922D01*
X145463D01*
Y085922D01*
X144903D01*
Y085764D01*
X144761D01*
X144668Y085783D01*
X144196D01*
X144103Y085764D01*
X144024Y085712D01*
X143972Y085633D01*
X143953Y08554D01*
X143972Y085447D01*
X144024Y085368D01*
X144103Y085316D01*
X144104Y085315D01*
Y085265D01*
X144103Y085264D01*
X144024Y085212D01*
X143972Y085133D01*
X143953Y08504D01*
X143972Y084947D01*
X144024Y084868D01*
X144103Y084816D01*
X144104Y084815D01*
Y084765D01*
X144103Y084764D01*
X144024Y084712D01*
X143972Y084633D01*
X143953Y08454D01*
X143972Y084447D01*
X144024Y084368D01*
X144031Y084364D01*
X14403Y084363D01*
Y084257D01*
X143938D01*
Y083643D01*
X144518D01*
Y083083D01*
X145152D01*
Y083643D01*
X145162D01*
Y084138D01*
X145546D01*
Y08295D01*
X14013D01*
X138729Y084351D01*
Y084572D01*
X139623Y085466D01*
X139727D01*
X139774Y085457D01*
Y084903D01*
X140486D01*
Y085238D01*
X140497Y085254D01*
X140514Y08534D01*
Y086239D01*
X140528Y086273D01*
Y086367D01*
X140492Y086455D01*
X140425Y086522D01*
X140337Y086558D01*
X140243D01*
X140155Y086522D01*
X140088Y086455D01*
X140052Y086367D01*
Y086273D01*
X140066Y086239D01*
Y085941D01*
X140016Y085908D01*
X139967Y085928D01*
X139873D01*
X139839Y085914D01*
X13953D01*
X139444Y085897D01*
X139371Y085849D01*
X138346Y084823D01*
X138332Y084802D01*
X138282Y084798D01*
X13822Y08486D01*
X137748D01*
X13773Y084903D01*
X13773D01*
Y085457D01*
X137018D01*
Y085403D01*
X133468D01*
X133211Y08566D01*
Y086077D01*
X133257Y086096D01*
X133411Y085941D01*
X133484Y085893D01*
X13357Y085876D01*
X13729D01*
X137376Y085893D01*
X137449Y085941D01*
X137649Y086141D01*
X137697Y086214D01*
X137714Y0863D01*
Y086528D01*
X137797D01*
Y087098D01*
X138007D01*
X138023Y087092D01*
X138117D01*
X138133Y087098D01*
X138357D01*
Y087098D01*
X138543D01*
X138583Y087082D01*
X138677D01*
X138717Y087098D01*
X138873D01*
Y087098D01*
X139097D01*
X139113Y087092D01*
X139207D01*
X139223Y087098D01*
X139487D01*
Y087443D01*
X139533Y087463D01*
X139682Y087314D01*
Y087273D01*
X139718Y087185D01*
X139785Y087118D01*
X139873Y087082D01*
X139967D01*
X140055Y087118D01*
X140122Y087185D01*
X140158Y087273D01*
Y087367D01*
X140122Y087455D01*
X140055Y087522D01*
X139967Y087558D01*
X139899D01*
X13939Y088067D01*
X13941Y088113D01*
X139476D01*
Y088663D01*
Y089088D01*
X139522Y089107D01*
X14036Y088269D01*
D02*
G37*
G36*
X127402Y09183D02*
X128072Y09116D01*
Y090097D01*
X127978D01*
Y089323D01*
X128583D01*
Y088753D01*
X12919D01*
Y08711D01*
X127913D01*
Y08719D01*
X127898Y087268D01*
X127853Y087334D01*
X127787Y087378D01*
X127709Y087394D01*
X127611D01*
X127533Y087378D01*
X127467Y087334D01*
X127422Y087268D01*
X127407Y08719D01*
Y08711D01*
X12673D01*
X12598Y08636D01*
Y08586D01*
Y08544D01*
X125976Y085422D01*
X125966Y085406D01*
X125936Y085376D01*
X12526Y0847D01*
X1241D01*
X123934Y084866D01*
Y087794D01*
X12466Y08852D01*
Y08861D01*
X124664Y08863D01*
Y08865D01*
Y09183D01*
X127402Y09183D01*
D02*
G37*
G36*
X127709Y086993D02*
X127611D01*
Y08719D01*
X127709D01*
Y086993D01*
D02*
G37*
G36*
X144507Y086651D02*
X14431D01*
X14431Y086749D01*
X144507D01*
Y086651D01*
D02*
G37*
G36*
X127689Y085773D02*
X127591D01*
Y08597D01*
X127689D01*
Y085773D01*
D02*
G37*
G36*
X129258Y085773D02*
X130642D01*
X130642Y085773D01*
Y085773D01*
X13069Y085767D01*
X130729Y085741D01*
X130815Y085723D01*
X130933D01*
X131002Y085737D01*
X131071Y085723D01*
X131189D01*
X131258Y085737D01*
X131327Y085723D01*
X131337D01*
X131348Y085712D01*
X131349Y085705D01*
X13135Y085705D01*
X13135Y085704D01*
X131371Y085671D01*
X131393Y085639D01*
X131394Y085638D01*
X131394Y085638D01*
X132316Y084716D01*
X132382Y084672D01*
X13239Y08467D01*
X132566Y084494D01*
X132566Y084494D01*
X132856Y084204D01*
X132866Y084188D01*
X13287Y08417D01*
Y08218D01*
X132866Y082162D01*
X132856Y082146D01*
X132236Y081526D01*
X13159Y08088D01*
X13009D01*
X12943Y08154D01*
Y08351D01*
X129387Y083553D01*
X129385Y083563D01*
X129332Y08369D01*
X129255Y083805D01*
X129158Y083902D01*
X129043Y083979D01*
X128916Y084032D01*
X128781Y084059D01*
X128643D01*
X128507Y084032D01*
X12838Y083979D01*
X128367Y08397D01*
X12642D01*
X126402Y083974D01*
X126386Y083984D01*
X126094Y084276D01*
X126089Y084283D01*
X12608Y084292D01*
Y085232D01*
X12611Y085262D01*
X126121Y085278D01*
X126135Y085293D01*
X126146Y085308D01*
X126146Y085308D01*
X126154Y085327D01*
X126154Y085328D01*
X126154Y085329D01*
X126168Y085361D01*
X126168Y085362D01*
X126169Y085363D01*
X126176Y085382D01*
X12618Y0854D01*
Y08542D01*
X126184Y08544D01*
Y08586D01*
X127387D01*
Y085773D01*
X127402Y085695D01*
X127447Y085629D01*
X127513Y085585D01*
X127591Y085569D01*
X127689D01*
X127767Y085585D01*
X127833Y085629D01*
X127878Y085695D01*
X127893Y085773D01*
Y08586D01*
X129258D01*
Y085773D01*
D02*
G37*
G36*
X131596Y090789D02*
Y08818D01*
X131613Y088094D01*
X131661Y088021D01*
X131941Y087741D01*
X132014Y087693D01*
X1321Y087676D01*
X133126D01*
Y086941D01*
X133095Y08692D01*
X133D01*
X132913Y086884D01*
X132846Y086817D01*
X13281Y08673D01*
Y086635D01*
X132846Y086547D01*
X132885Y086509D01*
Y085592D01*
X132897Y08553D01*
X132932Y085477D01*
X133285Y085125D01*
X133338Y085089D01*
X1334Y085077D01*
X137018D01*
Y084903D01*
X137018D01*
X137Y08486D01*
X136611D01*
X136577Y084883D01*
X13653Y084892D01*
X132644D01*
X132597Y084883D01*
X132562Y08486D01*
X13246D01*
X131538Y085782D01*
X131539Y085842D01*
X131542Y085844D01*
X131588Y085853D01*
X131588Y085853D01*
X132326D01*
Y0855D01*
X132332Y085469D01*
Y085433D01*
X132368Y085345D01*
X132435Y085278D01*
X132523Y085242D01*
X132617D01*
X132705Y085278D01*
X132772Y085345D01*
X132808Y085433D01*
Y085527D01*
X132774Y085609D01*
Y085853D01*
X132812D01*
Y086467D01*
X131588D01*
Y086467D01*
X131543Y086479D01*
X131499Y086508D01*
X131445Y086519D01*
X131327D01*
X131272Y086508D01*
X131258Y086499D01*
X131244Y086508D01*
X131212Y086515D01*
X131188Y08655D01*
X131106Y086632D01*
X131067Y086658D01*
X131076Y086703D01*
Y087133D01*
X131065Y087187D01*
X131037Y087228D01*
Y087301D01*
X131025Y087363D01*
X130989Y087416D01*
X130982Y087424D01*
Y087743D01*
X130992D01*
Y088357D01*
X130874D01*
Y088468D01*
X130957D01*
Y089058D01*
Y089692D01*
X130874D01*
Y090319D01*
X130882Y090326D01*
X130908Y090342D01*
X130923Y090357D01*
X130938Y090363D01*
X131005Y09043D01*
X131041Y090517D01*
Y090612D01*
X131029Y09064D01*
X131009Y090717D01*
X130977Y090772D01*
X131Y090822D01*
X13156Y090824D01*
X131596Y090789D01*
D02*
G37*
G36*
X151083Y096102D02*
X151096Y096099D01*
X151108Y096093D01*
X151135Y096091D01*
X151161Y096086D01*
X15162D01*
Y075266D01*
X15157Y07525D01*
X151503Y075341D01*
X151371Y075473D01*
X151221Y075583D01*
X151055Y075667D01*
X150877Y075725D01*
X150693Y075754D01*
X150507D01*
X150323Y075725D01*
X150145Y075667D01*
X149979Y075583D01*
X149829Y075473D01*
X149697Y075341D01*
X149587Y075191D01*
X149503Y075025D01*
X149445Y074847D01*
X149416Y074663D01*
Y074477D01*
X149445Y074293D01*
X149503Y074115D01*
X149587Y073949D01*
X149697Y073799D01*
X149829Y073667D01*
X14992Y0736D01*
X149904Y07355D01*
X14901D01*
Y074082D01*
X149064Y074136D01*
X149108Y074202D01*
X149124Y07428D01*
Y07743D01*
X149108Y077508D01*
X149064Y077574D01*
X148304Y078334D01*
X148238Y078378D01*
X148218Y078382D01*
X1482Y0784D01*
X147D01*
X146603Y078797D01*
Y08599D01*
X146592Y086068D01*
X146562Y086141D01*
X146514Y086204D01*
X146304Y086414D01*
X146241Y086462D01*
X146168Y086492D01*
X146157Y086494D01*
Y086592D01*
X146137D01*
X146118Y086638D01*
X14615Y08667D01*
X145592Y087228D01*
X145612Y087274D01*
X145992D01*
X146004Y087254D01*
X146009Y08725D01*
X146013Y087244D01*
X14604Y087226D01*
X146067Y087205D01*
X146073Y087204D01*
X146079Y0872D01*
X146111Y087193D01*
X146144Y087185D01*
X146194Y087181D01*
X1462Y087182D01*
X146207Y087181D01*
X14624Y087187D01*
X146272Y087192D01*
X146278Y087195D01*
X146285Y087197D01*
X146313Y087215D01*
X146341Y087232D01*
X146346Y087237D01*
X146351Y087241D01*
X14655Y08744D01*
X14655Y08744D01*
X14655Y08744D01*
X146684Y087574D01*
X146728Y08764D01*
X146744Y087718D01*
Y08802D01*
X146728Y088098D01*
X146684Y088164D01*
X146468Y08838D01*
X146402Y088424D01*
X146324Y08844D01*
X145964D01*
X145943Y088444D01*
X145574D01*
X145496Y088428D01*
X14543Y088384D01*
X145422Y088372D01*
X144382D01*
X144373Y088384D01*
X144307Y088428D01*
X144229Y088444D01*
X141043D01*
X140965Y088428D01*
X140899Y088384D01*
X140728Y088213D01*
X140684Y088147D01*
X140669Y088069D01*
Y08732D01*
X140553D01*
Y0875D01*
X140568Y087558D01*
Y087642D01*
X140546Y087723D01*
X140505Y087795D01*
X140471Y087829D01*
Y088181D01*
X140476Y08822D01*
X140489Y088251D01*
X140489Y088251D01*
X140505Y088329D01*
X140489Y088407D01*
X140445Y088473D01*
X140147Y088771D01*
Y089357D01*
X139309D01*
X139125Y089541D01*
X139144Y089587D01*
X140552D01*
X140646Y089606D01*
X140725Y089659D01*
X140888Y089822D01*
X140902D01*
X140983Y089844D01*
X141055Y089885D01*
X141115Y089945D01*
X141156Y090017D01*
X141178Y090098D01*
Y090182D01*
X141156Y090263D01*
X141115Y090335D01*
X141117Y090397D01*
X141155Y090435D01*
X141187Y090492D01*
X141237Y090478D01*
Y08971D01*
X141248Y089632D01*
X141278Y089559D01*
X141326Y089496D01*
X141566Y089256D01*
X141566Y089256D01*
X141629Y089208D01*
X141702Y089178D01*
X14178Y089167D01*
X14178Y089167D01*
X141946D01*
Y08862D01*
X143291D01*
Y089167D01*
X144229D01*
Y089073D01*
X145404D01*
Y088832D01*
X145943D01*
Y088826D01*
X146717D01*
Y0894D01*
Y089998D01*
X147297D01*
Y090792D01*
X146717D01*
Y091082D01*
X146732D01*
X146813Y091104D01*
X146885Y091145D01*
X146945Y091205D01*
X146986Y091277D01*
X147008Y091358D01*
Y091442D01*
X146986Y091523D01*
X146945Y091595D01*
X146885Y091655D01*
X146813Y091696D01*
X146732Y091718D01*
X146717D01*
Y091938D01*
X145943D01*
Y091144D01*
Y090554D01*
Y08999D01*
Y089626D01*
X145822D01*
X145763Y089684D01*
X145701Y089732D01*
X145628Y089762D01*
X145574Y089769D01*
Y089867D01*
X144229D01*
Y089773D01*
X143291D01*
Y09032D01*
X141946D01*
Y089796D01*
X141896Y089782D01*
X141843Y089835D01*
Y091625D01*
X143085D01*
Y092392D01*
X143131Y092411D01*
X143275Y092267D01*
Y091625D01*
X144599D01*
Y090772D01*
X144229D01*
Y089979D01*
X145574D01*
Y090772D01*
X145204D01*
Y091816D01*
X146504Y093116D01*
X146504Y093116D01*
X147905Y094517D01*
X14802D01*
X148078Y094502D01*
X148131D01*
X148158Y094452D01*
X148138Y094422D01*
X148122Y094344D01*
Y093556D01*
X148138Y093478D01*
X148182Y093412D01*
X148248Y093368D01*
X148326Y093352D01*
X148427D01*
Y088577D01*
X147225Y087375D01*
X147161Y087292D01*
X14712Y087194D01*
X147107Y08709D01*
X147107Y08709D01*
Y086969D01*
X147061Y086935D01*
X146826Y0867D01*
X146778Y086637D01*
X146748Y086564D01*
X146737Y086486D01*
Y081483D01*
X146729Y081468D01*
X146707Y081387D01*
Y081303D01*
X146729Y081222D01*
X14677Y08115D01*
X14683Y08109D01*
X146902Y081049D01*
X146983Y081027D01*
X147067D01*
X147148Y081049D01*
X14722Y08109D01*
X14728Y08115D01*
X147321Y081222D01*
X147343Y081303D01*
Y081387D01*
X147343Y081389D01*
Y085733D01*
X147897D01*
Y085743D01*
X148477D01*
Y086334D01*
Y086959D01*
X149188Y08767D01*
X149243Y087655D01*
X14929Y087543D01*
X149378Y087428D01*
X14948Y087349D01*
X149484Y087333D01*
Y087307D01*
X14948Y087291D01*
X149378Y087212D01*
X14929Y087097D01*
X149234Y086964D01*
X149215Y08682D01*
X149234Y086676D01*
X14929Y086543D01*
X149378Y086428D01*
X14948Y086349D01*
X149484Y086333D01*
Y086307D01*
X14948Y086291D01*
X149378Y086212D01*
X14929Y086097D01*
X149234Y085964D01*
X149215Y08582D01*
X149234Y085676D01*
X14929Y085543D01*
X149378Y085428D01*
X14948Y085349D01*
X149484Y085333D01*
Y085307D01*
X14948Y085291D01*
X149378Y085212D01*
X14929Y085097D01*
X149234Y084964D01*
X149215Y08482D01*
X149234Y084676D01*
X14929Y084543D01*
X149378Y084428D01*
X14948Y084349D01*
X149484Y084333D01*
Y084307D01*
X14948Y084291D01*
X149378Y084212D01*
X14929Y084097D01*
X149234Y083964D01*
X149215Y08382D01*
X149234Y083676D01*
X14929Y083543D01*
X149378Y083428D01*
X14948Y083349D01*
X149484Y083333D01*
Y083307D01*
X14948Y083291D01*
X149378Y083212D01*
X14929Y083097D01*
X149234Y082964D01*
X149215Y08282D01*
X149234Y082676D01*
X14929Y082543D01*
X149378Y082428D01*
X14948Y082349D01*
X149484Y082333D01*
Y082307D01*
X14948Y082291D01*
X149378Y082212D01*
X14929Y082097D01*
X149234Y081964D01*
X149215Y08182D01*
X149234Y081676D01*
X14929Y081543D01*
X149378Y081428D01*
X14948Y081349D01*
X149484Y081333D01*
Y081307D01*
X14948Y081291D01*
X149378Y081212D01*
X14929Y081097D01*
X149234Y080964D01*
X149215Y08082D01*
X149234Y080676D01*
X14929Y080543D01*
X149378Y080428D01*
X14948Y080349D01*
X149484Y080333D01*
Y080307D01*
X14948Y080291D01*
X149378Y080212D01*
X14929Y080097D01*
X149234Y079964D01*
X149215Y07982D01*
X149234Y079676D01*
X14929Y079543D01*
X149378Y079428D01*
X14948Y079349D01*
X149484Y079333D01*
Y079307D01*
X14948Y079291D01*
X149378Y079212D01*
X14929Y079097D01*
X149234Y078964D01*
X149215Y07882D01*
X149234Y078676D01*
X14929Y078543D01*
X149378Y078428D01*
X14948Y078349D01*
X149484Y078333D01*
Y078307D01*
X14948Y078291D01*
X149378Y078212D01*
X14929Y078097D01*
X149234Y077964D01*
X149215Y07782D01*
X149234Y077676D01*
X14929Y077543D01*
X149378Y077428D01*
X149493Y07734D01*
X149626Y077284D01*
X14977Y077265D01*
X14987D01*
X150014Y077284D01*
X150147Y07734D01*
X150262Y077428D01*
X150295Y07747D01*
X150345D01*
X150378Y077428D01*
X150493Y07734D01*
X150626Y077284D01*
X15077Y077265D01*
X15087D01*
X151014Y077284D01*
X151147Y07734D01*
X151262Y077428D01*
X15135Y077543D01*
X151406Y077676D01*
X151425Y07782D01*
X151406Y077964D01*
X15135Y078097D01*
X151262Y078212D01*
X15116Y078291D01*
X151156Y078307D01*
Y078333D01*
X15116Y078349D01*
X151262Y078428D01*
X15135Y078543D01*
X151406Y078676D01*
X151425Y07882D01*
X151406Y078964D01*
X15135Y079097D01*
X151262Y079212D01*
X15116Y079291D01*
X151156Y079307D01*
Y079333D01*
X15116Y079349D01*
X151262Y079428D01*
X15135Y079543D01*
X151406Y079676D01*
X151425Y07982D01*
X151406Y079964D01*
X15135Y080097D01*
X151262Y080212D01*
X151147Y0803D01*
X151014Y080356D01*
X15087Y080375D01*
X15077D01*
X150626Y080356D01*
X150493Y0803D01*
X150378Y080212D01*
X150345Y08017D01*
X150295D01*
X150262Y080212D01*
X15016Y080291D01*
X150156Y080307D01*
Y080333D01*
X15016Y080349D01*
X150262Y080428D01*
X15035Y080543D01*
X150406Y080676D01*
X150425Y08082D01*
X150406Y080964D01*
X150401Y080975D01*
X150493Y081067D01*
X150546Y081146D01*
X150565Y08124D01*
Y082265D01*
X150606Y082292D01*
X150626Y082284D01*
X15077Y082265D01*
X15087D01*
X151014Y082284D01*
X151147Y08234D01*
X151262Y082428D01*
X15135Y082543D01*
X151406Y082676D01*
X151425Y08282D01*
X151406Y082964D01*
X15135Y083097D01*
X151262Y083212D01*
X15116Y083291D01*
X151156Y083307D01*
Y083333D01*
X15116Y083349D01*
X151262Y083428D01*
X15135Y083543D01*
X151406Y083676D01*
X151425Y08382D01*
X151406Y083964D01*
X15135Y084097D01*
X151262Y084212D01*
X15116Y084291D01*
X151156Y084307D01*
Y084333D01*
X15116Y084349D01*
X151262Y084428D01*
X15135Y084543D01*
X151406Y084676D01*
X151425Y08482D01*
X151406Y084964D01*
X15135Y085097D01*
X151262Y085212D01*
X15116Y085291D01*
X151156Y085307D01*
Y085333D01*
X15116Y085349D01*
X151262Y085428D01*
X15135Y085543D01*
X151406Y085676D01*
X151425Y08582D01*
X151406Y085964D01*
X15135Y086097D01*
X151262Y086212D01*
X15116Y086291D01*
X151156Y086307D01*
Y086333D01*
X15116Y086349D01*
X151262Y086428D01*
X15135Y086543D01*
X151406Y086676D01*
X151425Y08682D01*
X151406Y086964D01*
X15135Y087097D01*
X151262Y087212D01*
X15116Y087291D01*
X151156Y087307D01*
Y087333D01*
X15116Y087349D01*
X151262Y087428D01*
X15135Y087543D01*
X151406Y087676D01*
X151425Y08782D01*
X151406Y087964D01*
X15135Y088097D01*
X151262Y088212D01*
X15116Y088291D01*
X151156Y088307D01*
Y088333D01*
X15116Y088349D01*
X151262Y088428D01*
X15135Y088543D01*
X151406Y088676D01*
X151425Y08882D01*
X151406Y088964D01*
X15135Y089097D01*
X151262Y089212D01*
X15116Y089291D01*
X151156Y089307D01*
Y089333D01*
X15116Y089349D01*
X151262Y089428D01*
X15135Y089543D01*
X151406Y089676D01*
X151425Y08982D01*
X151406Y089964D01*
X15135Y090097D01*
X151262Y090212D01*
X15116Y090291D01*
X151156Y090307D01*
Y090333D01*
X15116Y090349D01*
X151262Y090428D01*
X15135Y090543D01*
X151406Y090676D01*
X151425Y09082D01*
X151406Y090964D01*
X15135Y091097D01*
X151262Y091212D01*
X15116Y091291D01*
X151156Y091307D01*
Y091333D01*
X15116Y091349D01*
X151262Y091428D01*
X15135Y091543D01*
X151406Y091676D01*
X151425Y09182D01*
X151406Y091964D01*
X15135Y092097D01*
X151262Y092212D01*
X15116Y092291D01*
X151156Y092307D01*
Y092333D01*
X15116Y092349D01*
X151262Y092428D01*
X15135Y092543D01*
X151406Y092676D01*
X151425Y09282D01*
X151406Y092964D01*
X15135Y093097D01*
X151262Y093212D01*
X151147Y0933D01*
X151014Y093356D01*
X15087Y093375D01*
X15077D01*
X150626Y093356D01*
X150606Y093348D01*
X150565Y093375D01*
Y09432D01*
X150546Y094414D01*
X150493Y094493D01*
X150378Y094608D01*
X150406Y094676D01*
X150425Y09482D01*
X150406Y094964D01*
X15035Y095097D01*
X150262Y095212D01*
X15016Y095291D01*
X150156Y095307D01*
Y095333D01*
X15016Y095349D01*
X150262Y095428D01*
X15035Y095543D01*
X150406Y095676D01*
X150425Y09582D01*
X150406Y095964D01*
X150366Y09606D01*
X150399Y09611D01*
X15107D01*
X151083Y096102D01*
D02*
G37*
G36*
X13941Y07909D02*
X13894Y07862D01*
X138D01*
X13776Y07886D01*
Y08101D01*
X13941D01*
Y07909D01*
D02*
G37*
G36*
X14892Y07743D02*
Y07428D01*
X14829Y07365D01*
X13706D01*
Y07666D01*
X13707Y07667D01*
X14203D01*
X14401Y07469D01*
X144907D01*
X144962Y074648D01*
X145068Y074597D01*
X145181Y074568D01*
X145297Y074561D01*
X145413Y074577D01*
X145524Y074615D01*
X145625Y074674D01*
X145642Y07469D01*
X14678D01*
X14725Y07516D01*
Y07615D01*
X14692Y07648D01*
X146568D01*
X146466Y076532D01*
X146357Y076575D01*
X146241Y076595D01*
X146125Y076593D01*
X14601Y076568D01*
X145903Y076521D01*
X145844Y07648D01*
X14578D01*
X145626Y076634D01*
Y076635D01*
X14563Y076648D01*
X145632Y076674D01*
X145632Y076674D01*
X145632Y076675D01*
X145632Y076675D01*
X145626Y076714D01*
X145624Y076727D01*
X145624Y07673D01*
X145614Y076806D01*
X145616Y076808D01*
X145663Y076915D01*
X145688Y07703D01*
X145689Y077084D01*
X145704Y077113D01*
X145725Y077182D01*
X145726Y077183D01*
X145727Y077187D01*
X145732Y077203D01*
X145735Y07721D01*
X145735Y077215D01*
X145739Y077226D01*
X14575Y077344D01*
X145742Y077431D01*
Y077551D01*
X145745Y07757D01*
X145756Y077586D01*
X145804Y077634D01*
X145804Y077634D01*
X145804Y077634D01*
X14629Y07812D01*
Y07819D01*
X14816D01*
X14892Y07743D01*
D02*
G37*
G36*
X13673Y08159D02*
Y07974D01*
X137556Y078914D01*
Y07886D01*
X137572Y078782D01*
X137616Y078716D01*
X13772Y078611D01*
Y07856D01*
X137772D01*
X137856Y078476D01*
X137922Y078432D01*
X138Y078416D01*
X13894D01*
X139018Y078432D01*
X139031Y07844D01*
X14109D01*
X14224Y07959D01*
X14437D01*
X14566Y0783D01*
Y077778D01*
X145597Y077716D01*
X145553Y07765D01*
X145538Y077572D01*
Y077261D01*
X145523Y077242D01*
X145515Y077224D01*
X145503Y077208D01*
X145459Y077118D01*
X145454Y077098D01*
X145445Y07708D01*
X145419Y076982D01*
X145418Y076962D01*
X145413Y076943D01*
X145407Y076842D01*
X14541Y076822D01*
X145409Y076802D01*
X145422Y076702D01*
X145428Y076686D01*
X145428Y076686D01*
X145426Y07666D01*
X145421Y076635D01*
X145422Y07663D01*
X145404Y076595D01*
X14538Y07658D01*
X145149D01*
X145097Y076649D01*
X14501Y076726D01*
X144909Y076786D01*
X144828Y076814D01*
X144571Y07707D01*
X13695D01*
X13508Y07894D01*
Y08062D01*
X1364Y08192D01*
X13673Y08159D01*
D02*
G37*
G36*
X136517Y084683D02*
X13653Y084674D01*
Y08282D01*
X13468Y08097D01*
Y07901D01*
X13664Y07705D01*
Y07466D01*
X1355Y07352D01*
X13127D01*
X13072Y07407D01*
Y07761D01*
X13238Y07927D01*
Y079761D01*
X132386Y07977D01*
X132439Y079897D01*
X132466Y080033D01*
Y08017D01*
X132439Y080306D01*
X132386Y080433D01*
X13238Y080442D01*
Y081382D01*
X133014Y082016D01*
X133058Y082082D01*
X133074Y08216D01*
Y08419D01*
X133058Y084268D01*
X133014Y084334D01*
X13271Y084638D01*
X132731Y084688D01*
X136503D01*
X136517Y084683D01*
D02*
G37*
G36*
X125925Y084163D02*
X12593Y084157D01*
X125936Y084148D01*
X125945Y084139D01*
D01*
X12595Y084132D01*
X126242Y08384D01*
X126258Y083829D01*
X126273Y083815D01*
X126288Y083804D01*
X126288Y083804D01*
X126307Y083796D01*
X126308Y083796D01*
X126309Y083796D01*
X126341Y083782D01*
X126342Y083782D01*
X126343Y083781D01*
X126362Y083774D01*
X126362D01*
X126362Y083774D01*
X126362D01*
X12638Y08377D01*
X1264D01*
X12642Y083766D01*
X128367D01*
X128386Y08377D01*
X128407D01*
X128425Y083778D01*
X128445Y083782D01*
X128458Y08379D01*
X128567Y083836D01*
X128663Y083855D01*
X12876D01*
X128856Y083836D01*
X128947Y083798D01*
X129028Y083744D01*
X129097Y083675D01*
X129151Y083593D01*
X129196Y083485D01*
X129198Y083475D01*
X129209Y083459D01*
X129217Y08344D01*
X129226Y083431D01*
Y082126D01*
X12807Y08097D01*
Y079702D01*
X128038Y079626D01*
X128012Y07949D01*
Y079353D01*
X128038Y079217D01*
X12807Y079141D01*
Y07901D01*
X13003Y07705D01*
Y07466D01*
X12889Y07352D01*
X12466D01*
X12411Y07407D01*
Y07761D01*
X12577Y07927D01*
Y08417D01*
X12592D01*
X125925Y084163D01*
D02*
G37*
%LPC*%
G36*
X142177Y087987D02*
X141563D01*
Y087354D01*
X142113D01*
Y087354D01*
X142689D01*
X142918Y087124D01*
X142911Y087086D01*
Y086914D01*
X142922Y086856D01*
X142955Y086807D01*
X143004Y086774D01*
X143062Y086763D01*
X143481D01*
X143539Y086774D01*
X143589Y086807D01*
X143621Y086856D01*
X143633Y086914D01*
Y087086D01*
X143621Y087144D01*
X143589Y087193D01*
X143539Y087226D01*
X143481Y087237D01*
X143437D01*
X14343Y087247D01*
X143212Y087465D01*
X143232Y087511D01*
X143481D01*
X143539Y087522D01*
X143589Y087555D01*
X143621Y087604D01*
X143633Y087662D01*
Y087834D01*
X143621Y087892D01*
X143589Y087941D01*
X143539Y087974D01*
X143481Y087985D01*
X143062D01*
X143004Y087974D01*
X142955Y087941D01*
X142922Y087892D01*
X142911Y087837D01*
X142892Y087824D01*
X142865Y087813D01*
X142848Y087829D01*
X142775Y087878D01*
X142727Y087887D01*
Y087987D01*
X142177D01*
Y087987D01*
D02*
G37*
G36*
X142444Y086283D02*
X141972D01*
X141879Y086264D01*
X1418Y086212D01*
X141747Y086133D01*
X141729Y08604D01*
X141747Y085947D01*
X141771Y085912D01*
X141744Y085862D01*
X141227D01*
Y085902D01*
X140613D01*
Y085268D01*
Y084678D01*
X141193D01*
Y084083D01*
X141807D01*
Y084311D01*
X141851Y084334D01*
X141879Y084316D01*
X141972Y084297D01*
X142133D01*
X142639Y083791D01*
X142708Y083745D01*
Y083093D01*
X143342D01*
Y083643D01*
Y084257D01*
X142808D01*
X142648Y084417D01*
X142668Y084447D01*
X142687Y08454D01*
X142668Y084633D01*
X142616Y084712D01*
X142537Y084764D01*
X142536Y084765D01*
Y084815D01*
X142537Y084816D01*
X142616Y084868D01*
X142668Y084947D01*
X142687Y08504D01*
X142668Y085133D01*
X142616Y085212D01*
X142537Y085264D01*
X142536Y085265D01*
Y085315D01*
X142537Y085316D01*
X142616Y085368D01*
X142668Y085447D01*
X142687Y08554D01*
X142668Y085633D01*
X142616Y085712D01*
X142537Y085764D01*
X142536Y085765D01*
Y085815D01*
X142537Y085816D01*
X142616Y085868D01*
X142668Y085947D01*
X142687Y08604D01*
X142668Y086133D01*
X142616Y086212D01*
X142537Y086264D01*
X142444Y086283D01*
D02*
G37*
G36*
X131835Y084739D02*
X131697D01*
X131562Y084712D01*
X131434Y084659D01*
X13132Y084582D01*
X131222Y084485D01*
X131145Y08437D01*
X131093Y084243D01*
X131066Y084107D01*
Y08397D01*
X131093Y083834D01*
X131145Y083707D01*
X131222Y083592D01*
X13132Y083495D01*
X131434Y083418D01*
X131562Y083365D01*
X131697Y083338D01*
X131835D01*
X13197Y083365D01*
X132097Y083418D01*
X132212Y083495D01*
X13231Y083592D01*
X132386Y083707D01*
X132439Y083834D01*
X132466Y08397D01*
Y084107D01*
X132439Y084243D01*
X132386Y08437D01*
X13231Y084485D01*
X132212Y084582D01*
X132097Y084659D01*
X13197Y084712D01*
X131835Y084739D01*
D02*
G37*
%LPD*%
D12*
X138036Y09005D02*
X14046D01*
X14055Y09014D01*
X13963Y09071D02*
X140647D01*
X14087Y090933D01*
Y09094D01*
X1394Y090868D02*
X139562D01*
X13918Y090648D02*
X1394Y090868D01*
X14051Y09087D02*
X14061Y09097D01*
X139372Y090452D02*
X13963Y09071D01*
X139562Y090868D02*
X139564Y09087D01*
X14051D01*
X14061Y09097D02*
Y09159D01*
X138028Y090648D02*
X13918D01*
X138028Y090058D02*
X138036Y09005D01*
X138029Y090452D02*
X139372D01*
D13*
X13869Y08874D02*
Y08895D01*
Y08874D02*
X13901Y08842D01*
X138173Y089467D02*
X13869Y08895D01*
X13606Y089716D02*
X136154Y08981D01*
X13617D01*
X135708Y089364D02*
X13606Y089716D01*
X13617Y08981D02*
X13619Y08983D01*
X135671Y089311D02*
X135708Y089348D01*
X13622Y08965D02*
X13663D01*
X13693Y08935D02*
X13756D01*
X13663Y08965D02*
X13693Y08935D01*
X135708Y089348D02*
Y089364D01*
X13695Y08983D02*
X13706Y08972D01*
Y08968D02*
Y08972D01*
X13863Y087612D02*
Y08777D01*
X13815Y08825D02*
X13863Y08777D01*
Y08732D02*
Y0874D01*
X138615Y087415D02*
Y087597D01*
X13863Y087612D01*
X138615Y087415D02*
X13863Y0874D01*
X13805Y087415D02*
X13807Y087395D01*
X13777Y08808D02*
X13807Y08778D01*
Y08733D02*
Y087395D01*
X13805Y087592D02*
X13807Y087612D01*
X13805Y087415D02*
Y087592D01*
X13807Y087612D02*
Y08778D01*
X13749Y08734D02*
Y087435D01*
X13748Y08733D02*
X13749Y08734D01*
X140552Y089832D02*
X14086Y09014D01*
X13882Y089832D02*
X140552D01*
X137829Y092219D02*
X13811Y0925D01*
X137443Y092219D02*
X137829D01*
X13995Y09054D02*
X14081D01*
X1409Y09063D01*
X13887Y08804D02*
X139187D01*
X139907Y08732D01*
X13756Y08935D02*
X13887Y08804D01*
X139907Y08732D02*
X13992D01*
X13901Y08842D02*
X139159D01*
X138029Y089467D02*
X138173D01*
X138656Y089664D02*
X13874Y08958D01*
X138029Y089664D02*
X138656D01*
X139159Y08897D02*
Y089161D01*
X13874Y08958D02*
X139159Y089161D01*
X13892Y09121D02*
X13915D01*
X138752Y091042D02*
X13892Y09121D01*
X13893Y0915D02*
X13924D01*
X138669Y091239D02*
X13893Y0915D01*
X139165Y090845D02*
X139519Y0912D01*
X138028Y090845D02*
X139165D01*
X1391Y08762D02*
X13918Y08754D01*
X13754Y08847D02*
X138242D01*
X13918Y08735D02*
Y08754D01*
X138242Y08847D02*
X139092Y08762D01*
X1391D01*
X13737Y08825D02*
X13815D01*
X13719Y08808D02*
X13777D01*
X135868Y089298D02*
X13622Y08965D01*
X13619Y08983D02*
X13695D01*
X13611Y09002D02*
X13717D01*
X135868Y088882D02*
Y089298D01*
X13655Y08941D02*
X136655Y089305D01*
X1364Y08941D02*
X13655D01*
X13717Y09002D02*
X13726Y08993D01*
X135474Y089384D02*
X13611Y09002D01*
X135474Y088882D02*
Y089384D01*
X135671Y088882D02*
Y089311D01*
X139665Y090255D02*
X13995Y09054D01*
X13916Y08733D02*
X13918Y08735D01*
X13393Y08979D02*
X134001Y089861D01*
X133911Y090118D02*
X13428D01*
X1339Y090129D02*
X133911Y090118D01*
X13419Y090258D02*
X134338D01*
X13351Y09023D02*
X13365Y09037D01*
X134078D02*
X13419Y090258D01*
X13365Y09037D02*
X134078D01*
X13428Y090118D02*
X134341Y090058D01*
X134342Y090255D02*
X134691D01*
X134338Y090258D02*
X134342Y090255D01*
X13405Y089075D02*
X13408Y089105D01*
X134341Y090058D02*
X134691D01*
X134001Y089861D02*
X134691D01*
X134692Y086707D02*
X134957D01*
X13566Y08741D01*
Y08783D01*
X136065Y088235D02*
Y088882D01*
X13566Y08783D02*
X136065Y088235D01*
X133048Y085592D02*
X1334Y08524D01*
X137314D02*
X137374Y08518D01*
X1334Y08524D02*
X137314D01*
X133048Y085592D02*
Y086682D01*
X14982Y09482D02*
X15032Y09432D01*
Y08124D02*
Y09432D01*
X1499Y08082D02*
X15032Y08124D01*
X14982Y08082D02*
X1499D01*
X13683Y088859D02*
X13685Y088839D01*
X137443Y088567D02*
X13754Y08847D01*
X137443Y088567D02*
Y088882D01*
X137246Y088374D02*
X13737Y08825D01*
X137246Y088374D02*
Y088882D01*
X137049Y088221D02*
X13719Y08808D01*
X137049Y088221D02*
Y088882D01*
X13345Y09392D02*
X13511D01*
X13513Y0939D01*
X13257Y09304D02*
X13345Y09392D01*
X1325Y09064D02*
X13271D01*
X13409Y09202D01*
X13428D01*
X133953Y091633D02*
X134691D01*
X13315Y09083D02*
X133953Y091633D01*
X13315Y08978D02*
Y09083D01*
X13428Y09202D02*
X13433Y09207D01*
X136478Y091042D02*
X13652Y091D01*
X134691Y091042D02*
X136478D01*
X13621Y09167D02*
X13655D01*
X13657Y09169D01*
X136065Y091815D02*
X13621Y09167D01*
X138028Y091042D02*
X138752D01*
X138602Y091239D02*
X138669D01*
X138028Y091239D02*
X138602D01*
X138602Y091239D01*
X138791Y089861D02*
X13882Y089832D01*
X138028Y089861D02*
X138791D01*
X138028Y090255D02*
X139665D01*
X130874Y086918D02*
Y087301D01*
X130665Y08751D02*
X130874Y087301D01*
X13113Y086918D02*
X131258D01*
X13463Y08859D02*
Y089406D01*
X134525Y088485D02*
X13463Y08859D01*
X13405Y088485D02*
X134525D01*
X135671Y092219D02*
Y092779D01*
X13586Y092586D02*
Y09264D01*
X13594Y09272D01*
X135868Y092219D02*
Y092578D01*
X13586Y092586D02*
X135868Y092578D01*
X13588Y09309D02*
X136262Y092708D01*
X13301Y08964D02*
X13315Y08978D01*
X1325Y08964D02*
X13301D01*
X136065Y091815D02*
Y092219D01*
X136932Y086707D02*
X13704Y086815D01*
X13682Y086707D02*
X136932D01*
X13463Y089406D02*
X134691Y089467D01*
X1368Y0882D02*
X13685Y08825D01*
Y088839D01*
X13683Y088859D02*
X136852Y088882D01*
X136655Y088882D02*
Y089305D01*
X13666Y08789D02*
X13732D01*
X13745Y08776D01*
X136458Y088092D02*
Y088882D01*
Y088092D02*
X13666Y08789D01*
X136262Y087647D02*
Y088882D01*
X13745Y087475D02*
Y08776D01*
Y087475D02*
X13749Y087435D01*
X136925Y08752D02*
X13704Y087405D01*
X13392Y086849D02*
X13405D01*
X13724Y09266D02*
Y09266D01*
X137246Y092666D01*
X13724Y09266D02*
X137246Y092654D01*
Y092219D02*
Y092654D01*
X13676Y09282D02*
X13679D01*
X136655Y092715D02*
X13676Y09282D01*
X136655Y092219D02*
Y092715D01*
X136262Y092219D02*
Y092708D01*
X135296Y091436D02*
X13533Y09147D01*
Y09149D01*
X134691Y091436D02*
X135296D01*
X134029Y091232D02*
X134032Y09123D01*
X13406D01*
X134069Y091239D01*
X134691D01*
X13405Y09083D02*
X134065Y090845D01*
X134691D01*
X135432Y090648D02*
X1355Y09058D01*
Y09064D01*
X134691Y090648D02*
X135432D01*
X134691Y090452D02*
X135198D01*
X13524Y09041D01*
X13234Y09251D02*
X13344Y09361D01*
X135738D02*
X136458Y09289D01*
X13344Y09361D02*
X135738D01*
X136188Y087573D02*
X136262Y087647D01*
X131903Y086162D02*
X131905Y08616D01*
X131386Y086162D02*
X131903D01*
X130756Y086515D02*
X130757Y086516D01*
X131073Y086219D02*
Y086434D01*
X13042Y086515D02*
X130756D01*
X130991Y086516D02*
X131073Y086434D01*
X130757Y086516D02*
X130991D01*
X131073Y086219D02*
X13113Y086162D01*
X130701Y086335D02*
X130874Y086162D01*
X13042Y086335D02*
X130701D01*
X130245Y08669D02*
X13042Y086515D01*
X130245Y08616D02*
X13042Y086335D01*
X12783Y08616D02*
X129655D01*
X12764Y08597D02*
X12783Y08616D01*
X127963Y08669D02*
X129655D01*
X12766Y086993D02*
X127963Y08669D01*
X12766Y0877D02*
X12772Y08776D01*
X1276Y08524D02*
Y085733D01*
X12764Y085773D01*
X136458Y092219D02*
Y09289D01*
X131735Y09304D02*
X13257D01*
X13095Y09251D02*
X13234D01*
X13168Y092985D02*
X131735Y09304D01*
X12766Y08719D02*
Y0877D01*
D17*
X1475Y0803D02*
X1503D01*
X14662Y08118D02*
X1475Y0803D01*
X140126Y081984D02*
Y082313D01*
X141852Y08179D02*
Y081872D01*
Y080688D02*
Y08179D01*
X140096Y082343D02*
X140126Y082313D01*
X14032Y08179D02*
X14177D01*
X140126Y081984D02*
X14032Y08179D01*
X14177D02*
X141852Y081872D01*
X14154Y08971D02*
X14178Y08947D01*
X14154Y08971D02*
Y09184D01*
X14094Y09244D02*
X14154Y09184D01*
X14118Y08913D02*
Y09148D01*
X14079Y09187D02*
X14118Y09148D01*
X147025Y081345D02*
X14704Y08136D01*
X144902Y090376D02*
Y091942D01*
X14629Y09333D01*
X14575Y079391D02*
Y079671D01*
X14577Y07969D01*
Y084455D01*
X14619Y077095D02*
X1463Y077205D01*
X12928Y08914D02*
X13016Y08826D01*
Y08722D02*
Y08826D01*
X132142Y095135D02*
X132269Y095009D01*
X132142Y095135D02*
Y09564D01*
X13346Y09612D02*
Y09675D01*
X132733Y09564D02*
X13298D01*
X13346Y09612D01*
X13146Y09675D02*
X1315Y09671D01*
Y09581D02*
Y09671D01*
Y09581D02*
X13167Y09564D01*
X132142D01*
X1463Y077205D02*
Y08599D01*
X145055Y08604D02*
X14521Y086195D01*
X144432Y08604D02*
X145055D01*
X14376Y0867D02*
Y087374D01*
X14426D01*
X1436Y0867D02*
X14431D01*
X136188Y086707D02*
X13623Y086665D01*
Y08666D02*
Y086665D01*
X13255Y0855D02*
X13257Y08548D01*
X13255Y0855D02*
Y08616D01*
X13975Y0881D02*
X14025Y0876D01*
X13975Y0881D02*
Y08842D01*
X14025Y08662D02*
Y0876D01*
X14633Y09144D02*
X14637Y0914D01*
X14633Y09144D02*
Y091541D01*
X14637Y0914D02*
X14669D01*
X14632Y09143D02*
X14633Y09144D01*
X13346Y09272D02*
Y09305D01*
X13295Y09221D02*
X13346Y09272D01*
X13184Y09221D02*
X13295D01*
X13128Y09165D02*
X13184Y09221D01*
X129715Y092663D02*
X130867Y09151D01*
X12994Y090703D02*
X130887Y09165D01*
X12994Y08923D02*
Y090703D01*
X132948Y095009D02*
X133089Y094869D01*
X14118Y08913D02*
X141343Y088967D01*
X140105Y09187D02*
X14079D01*
X12843Y08776D02*
Y089099D01*
X14662Y08737D02*
X14691Y08766D01*
X14633Y08708D02*
X14662Y08737D01*
X1503Y0803D02*
X15082Y08082D01*
X14662Y08118D02*
Y08737D01*
X14704Y08136D02*
Y086486D01*
X14609Y0862D02*
X1463Y08599D01*
X147275Y086721D02*
X14751D01*
X14704Y086486D02*
X147275Y086721D01*
X138505Y084665D02*
X13953Y08569D01*
X13992D01*
X138505Y083395D02*
Y084665D01*
X13947Y092085D02*
Y09221D01*
X140101Y09174D02*
Y09187D01*
Y091209D02*
Y09174D01*
X144902Y088564D02*
X146262D01*
X138045Y08683D02*
X13805Y086835D01*
X139165Y08683D02*
X13917Y086835D01*
X13795Y08683D02*
X138045D01*
X139195Y08684D02*
X140115D01*
X13918Y086825D02*
X139195Y08684D01*
X13862Y08683D02*
X139165D01*
X131599Y09339D02*
X13168Y093471D01*
X13095Y09351D02*
X13107Y09339D01*
X131599D01*
X13168Y093471D02*
X131761Y09339D01*
X13247D02*
X13464Y09556D01*
X131761Y09339D02*
X13247D01*
X14632Y091531D02*
X14633Y091541D01*
X14632Y09143D02*
Y091531D01*
X1397Y09244D02*
X14094D01*
X13962Y09198D02*
Y09221D01*
X13947D02*
X1397Y09244D01*
X13962Y092085D02*
X139665Y09204D01*
X142575Y093395D02*
Y09504D01*
X14381Y09216D02*
X143967D01*
X142575Y093395D02*
X14381Y09216D01*
X141949Y09305D02*
X142103Y092896D01*
Y09212D02*
Y092896D01*
X14314Y09549D02*
X143165Y095465D01*
Y09504D02*
Y095465D01*
X141949Y09355D02*
X14195D01*
X141932D02*
X141949D01*
X14195D02*
X14196Y09354D01*
X14193Y093552D02*
X141932Y09355D01*
X13936Y0937D02*
X139599Y093939D01*
X139332Y093672D02*
X13936Y0937D01*
X13464Y09556D02*
X13698D01*
X141949Y09455D02*
X142085D01*
X142575Y09504D01*
X143667Y09215D02*
X14438D01*
X141079Y09305D02*
X141949D01*
X14026Y093235D02*
X140971D01*
Y093158D02*
X141079Y09305D01*
X141196Y09405D02*
X141949D01*
X140971Y093825D02*
X141196Y09405D01*
X140971Y093906D02*
Y095001D01*
Y093825D02*
Y093906D01*
X14026Y093825D02*
X140971D01*
X143791Y09355D02*
X144495D01*
X143165Y094145D02*
Y09504D01*
Y094145D02*
X14326Y09405D01*
X143791D01*
X144585D01*
X1446Y094035D01*
X142798Y08395D02*
X142995D01*
X143025Y0834D02*
Y083921D01*
X140115Y086755D02*
Y08684D01*
Y086755D02*
X14025Y08662D01*
X14145D01*
X14057Y088194D02*
X141343Y088967D01*
X14057Y08695D02*
Y088194D01*
X12898Y08914D02*
X12928D01*
X130665Y08804D02*
X130675Y08805D01*
X13065Y088055D02*
X130665Y08804D01*
X13065Y08806D02*
Y088785D01*
Y088055D02*
Y08806D01*
X136306Y086825D02*
X13682D01*
X13357Y0861D02*
X13729D01*
X141343Y088967D02*
X141746Y088564D01*
X1415Y08657D02*
Y08671D01*
Y086135D02*
Y08657D01*
X14145Y08662D02*
X1415Y08657D01*
X14029Y08534D02*
Y08632D01*
X14013Y08518D02*
X14029Y08534D01*
X14577Y0862D02*
X14609D01*
X143615Y0834D02*
X143625Y08339D01*
X144245D01*
X144835D02*
X144845Y0834D01*
Y08395D01*
X144255Y084363D02*
X144432Y08454D01*
X144255Y08395D02*
Y084363D01*
X14925Y08816D02*
Y09631D01*
X14926Y09632D01*
X14967Y09797D02*
X14982D01*
X14752Y08614D02*
X14809D01*
X15082Y09673D02*
Y09682D01*
X14809Y087D02*
X14925Y08816D01*
X14809Y086731D02*
Y087D01*
X14787Y08999D02*
Y09397D01*
X14818Y09428D01*
X14778Y09482D02*
X14812D01*
X130665Y08751D02*
Y08804D01*
X13065Y089375D02*
Y090412D01*
X130803Y090565D01*
X134095Y08736D02*
X134479D01*
X134692Y087573D01*
X13335Y08632D02*
Y0879D01*
Y08632D02*
X13357Y0861D01*
X13729D02*
X13749Y0863D01*
Y086845D01*
X131265Y08752D02*
Y088041D01*
X132495Y08616D02*
X13255D01*
X13805Y086825D02*
X138232D01*
X138237Y08682D01*
X138605D01*
X138615Y086825D02*
X13862Y08683D01*
X131265Y08805D02*
Y090358D01*
X131472Y090565D01*
X131256Y088041D02*
X131265Y08805D01*
X139347Y0937D02*
X13936D01*
X139318Y093672D02*
X139347Y0937D01*
X139599Y093939D02*
Y094411D01*
X139318Y093672D02*
X139332D01*
X130887Y09165D02*
X13128D01*
X13335Y09164D02*
X134115Y092405D01*
X1325Y09164D02*
X13335D01*
X14473Y087748D02*
X145693D01*
X145796Y087671D02*
X145801Y087676D01*
X14577Y087671D02*
X145796D01*
X140101Y091209D02*
X14011Y0912D01*
X13875Y09559D02*
X139255D01*
X132399Y095009D02*
X132948D01*
X132087Y094197D02*
X132312Y093972D01*
X131981Y094302D02*
X132087Y094197D01*
X131981Y094302D02*
Y094591D01*
X1314Y09401D02*
X131981Y094591D01*
X13095Y09401D02*
X1314D01*
X147685Y089805D02*
X14787Y08999D01*
X14691Y089805D02*
X147685D01*
X131258Y087513D02*
X131265Y08752D01*
X131255Y08751D02*
X131258Y087513D01*
Y086918D02*
Y087513D01*
X13182Y08818D02*
X1321Y0879D01*
X13182Y08818D02*
Y0912D01*
X13226Y09164D01*
X13351Y08806D02*
Y088485D01*
X13335Y0879D02*
X13351Y08806D01*
X1321Y0879D02*
X13335D01*
X13226Y09164D02*
X1325D01*
X133085Y089075D02*
X13351D01*
X13265Y08864D02*
X133085Y089075D01*
X1325Y08864D02*
X13265D01*
X141746Y088564D02*
X144902D01*
X142618Y08947D02*
X142618Y08947D01*
X144902D01*
X14178Y08947D02*
X142618D01*
X134115Y092405D02*
X13475D01*
X14629Y09333D02*
X14778Y09482D01*
X146763Y088633D02*
X14691Y08878D01*
Y08766D02*
Y08878D01*
X14577Y08708D02*
X14633D01*
X1415Y08671D02*
X14187Y08708D01*
X143615Y08395D02*
Y085665D01*
Y086685D01*
X1436Y0867D02*
X143615Y086685D01*
X14633Y090387D02*
Y090951D01*
Y090387D02*
X146338Y090395D01*
X14691D01*
Y08878D02*
Y089805D01*
X14633Y088633D02*
X146763D01*
X146262Y088564D02*
X14633Y088633D01*
X145549Y08947D02*
X145791Y089229D01*
X144902Y08947D02*
X145549D01*
X14633Y089223D02*
Y089797D01*
X146324Y089229D02*
X14633Y089223D01*
X145791Y089229D02*
X146324D01*
X14438Y09215D02*
X14805Y09582D01*
X15082Y09482D02*
Y09582D01*
X138605Y08682D02*
X13861Y086825D01*
X12898Y08914D02*
Y089735D01*
X13975Y08842D02*
Y08897D01*
X14426Y087748D02*
X14473D01*
X14477Y087708D01*
Y08703D02*
Y087708D01*
X14474Y087D02*
X14477Y08703D01*
X14426Y087D02*
X14474D01*
X145693Y087748D02*
X14577Y087671D01*
X14521Y08708D02*
X14577D01*
X144507Y0867D02*
X14516D01*
X14521Y08675D01*
Y08708D01*
X14262Y0867D02*
X1436D01*
X14242Y0869D02*
X14262Y0867D01*
X14242Y0869D02*
Y08708D01*
X143272Y087D02*
Y087088D01*
X142689Y087671D02*
X143272Y087088D01*
X14242Y087671D02*
X142689D01*
X14187Y08708D02*
X14242D01*
X14187Y08708D02*
X14187Y08708D01*
X14187Y087671D02*
X14242D01*
X14187Y087671D02*
X14187Y087671D01*
X13351Y089075D02*
Y089639D01*
X13351Y089075D02*
X13351Y089075D01*
X13351Y089075D02*
X13405D01*
X13351Y088485D02*
X13405D01*
X136188Y087573D02*
X136662D01*
X136188Y086707D02*
X136306Y086825D01*
X136662Y087573D02*
X13682Y087415D01*
X134584Y086815D02*
X134692Y086707D01*
X13405Y086815D02*
X134584D01*
X145529Y094969D02*
X146108D01*
X146308Y094768D01*
X145905Y095345D02*
Y09559D01*
X145529Y094969D02*
X145905Y095345D01*
X14334Y080915D02*
X143625D01*
X144232Y080308D02*
X144488D01*
X143625Y080915D02*
X144232Y080308D01*
X14334Y081455D02*
X14335Y081465D01*
X14334Y080915D02*
Y081455D01*
X142835Y080325D02*
X14334D01*
X14264Y08052D02*
X142835Y080325D01*
X14264Y08052D02*
Y081006D01*
X142238Y081408D02*
X14264Y081006D01*
X14261Y08239D02*
X142945Y082055D01*
X14335D01*
X13837Y08232D02*
X138382Y082332D01*
Y082392D01*
X13699Y08339D02*
X13712Y08352D01*
X13838D01*
X138505Y083395D01*
X14092Y084965D02*
X1415D01*
X141575Y08504D02*
X142208D01*
X1415Y084965D02*
X141575Y08504D01*
X140931Y085545D02*
X1415D01*
X14092Y085555D02*
X140931Y085545D01*
X143615Y0834D02*
Y08395D01*
X14399Y08604D02*
X144432D01*
X143615Y085665D02*
X14399Y08604D01*
X142208Y08454D02*
X142798Y08395D01*
X142203Y085545D02*
X142208Y08554D01*
X1415Y085545D02*
X142203D01*
X144432Y08554D02*
X145705D01*
X14577Y085605D01*
X144432Y08504D02*
X145765D01*
X14577Y085045D01*
X145125Y08454D02*
X14521Y084455D01*
X144432Y08454D02*
X145125D01*
X138505Y083D02*
Y083395D01*
X13699Y083065D02*
Y08339D01*
Y083065D02*
X137045Y08301D01*
X144785Y08183D02*
X14487Y081745D01*
Y08124D02*
Y081745D01*
X141852Y081872D02*
Y082392D01*
Y080688D02*
X14191Y08063D01*
X139095Y082435D02*
X13914Y08239D01*
X139095Y082435D02*
Y083D01*
X13766Y08239D02*
Y082985D01*
X137635Y08301D02*
X13766Y082985D01*
X138143Y080192D02*
X138561Y08061D01*
X138143Y079421D02*
Y080192D01*
X13988Y08061D02*
X140143Y080347D01*
Y079421D02*
Y080347D01*
X140486Y079421D02*
X141015Y07995D01*
X140143Y079421D02*
X140486D01*
X141015Y07995D02*
Y080285D01*
X14067Y08063D02*
X141015Y080285D01*
X14191Y080255D02*
Y08063D01*
X141605Y07995D02*
X14191Y080255D01*
X1242Y0922D02*
X12746D01*
X12338Y09138D02*
X1242Y0922D01*
X12338Y09079D02*
Y09138D01*
X12746Y0922D02*
X128375Y091285D01*
Y08971D02*
Y091285D01*
X12338Y09079D02*
X12349Y09068D01*
X128965Y08975D02*
X12898Y089735D01*
X128389Y08914D02*
X12843Y089099D01*
X1415Y09979D02*
X14177Y09952D01*
Y0958D02*
Y09952D01*
X140971Y095001D02*
X14177Y0958D01*
X14721Y09586D02*
Y09675D01*
X146495Y09559D02*
X14694D01*
X14721Y09586D01*
X14558Y09559D02*
X145905D01*
X14521Y09596D02*
Y09675D01*
Y09596D02*
X14558Y09559D01*
X145088Y094235D02*
X145432Y093892D01*
X145088Y094235D02*
Y09449D01*
X140573Y095733D02*
Y09675D01*
X14043Y09559D02*
X140573Y095733D01*
X139845Y09559D02*
X14043D01*
X138573Y095767D02*
Y09675D01*
Y095767D02*
X13875Y09559D01*
X139181Y095516D02*
X139255Y09559D01*
X139181Y094829D02*
Y095516D01*
X138722Y094829D02*
X139181D01*
X138442Y094548D02*
X138722Y094829D01*
X126938Y094008D02*
Y094372D01*
X12662Y09369D02*
X126938Y094008D01*
X12906Y093D02*
X129097D01*
X129107Y09301D01*
X128914Y09351D02*
X129107D01*
X128191Y093446D02*
X128256Y09351D01*
X128914D01*
X127709Y09251D02*
X129107D01*
X129293Y092325D01*
Y09151D02*
Y092325D01*
X131655Y09301D02*
X13168Y092985D01*
X13095Y09301D02*
X131655D01*
X13052Y09351D02*
X13095D01*
X130305Y093725D02*
X13052Y09351D01*
X130305Y093725D02*
Y09455D01*
X129715Y092663D02*
Y09455D01*
X129647D02*
X129715D01*
X129107Y09401D02*
X129647Y09455D01*
X12743Y09338D02*
X128191D01*
X12726Y09557D02*
X128191Y094639D01*
Y093446D02*
Y094639D01*
X12716Y09557D02*
X12726D01*
X126675D02*
X12716D01*
X1273Y09571D02*
Y09675D01*
X12716Y09557D02*
X1273Y09571D01*
X1253Y09593D02*
X12566Y09557D01*
X126085D01*
X1253Y09593D02*
Y09675D01*
X125732Y095217D02*
X126085Y09557D01*
X125732Y094558D02*
Y095217D01*
X125963Y09479D02*
X12652D01*
X125732Y094558D02*
X125963Y09479D01*
X12743Y092789D02*
X127709Y09251D01*
D26*
X135277Y088882D02*
D03*
X135474D02*
D03*
X135671D02*
D03*
X135868D02*
D03*
X136065D02*
D03*
X136262D02*
D03*
X136458D02*
D03*
X136655Y088882D02*
D03*
X136852Y088882D02*
D03*
X137049D02*
D03*
X137246D02*
D03*
X137443D02*
D03*
Y092219D02*
D03*
X137246D02*
D03*
X137049D02*
D03*
X136852D02*
D03*
X136655Y092219D02*
D03*
X136458Y092219D02*
D03*
X136262D02*
D03*
X136065D02*
D03*
X135868D02*
D03*
X135671D02*
D03*
X135474D02*
D03*
X135277D02*
D03*
D27*
X138029Y089467D02*
D03*
Y089664D02*
D03*
X138028Y089861D02*
D03*
Y090058D02*
D03*
Y090255D02*
D03*
X138029Y090452D02*
D03*
X138028Y090648D02*
D03*
Y090845D02*
D03*
Y091042D02*
D03*
Y091239D02*
D03*
Y091436D02*
D03*
Y091633D02*
D03*
X134691D02*
D03*
Y091436D02*
D03*
Y091239D02*
D03*
Y091042D02*
D03*
Y090845D02*
D03*
Y090648D02*
D03*
X134691Y090452D02*
D03*
X134691Y090255D02*
D03*
Y090058D02*
D03*
Y089861D02*
D03*
X134691Y089664D02*
D03*
Y089467D02*
D03*
D28*
X141949Y09305D02*
D03*
Y09355D02*
D03*
Y09405D02*
D03*
Y09455D02*
D03*
X143791D02*
D03*
Y09405D02*
D03*
Y09355D02*
D03*
Y09305D02*
D03*
X13095Y09251D02*
D03*
Y09301D02*
D03*
Y09351D02*
D03*
Y09401D02*
D03*
X129107Y09401D02*
D03*
Y09351D02*
D03*
Y09301D02*
D03*
Y09251D02*
D03*
D29*
X142575Y09504D02*
D03*
X143165D02*
D03*
X144835Y08339D02*
D03*
X144245D02*
D03*
X13975Y08842D02*
D03*
X139159D02*
D03*
X139095Y083D02*
D03*
X138505Y083D02*
D03*
X126675Y09557D02*
D03*
X126085D02*
D03*
X130245Y08669D02*
D03*
X129655Y08669D02*
D03*
X129655Y08616D02*
D03*
X130245D02*
D03*
X130305Y09455D02*
D03*
X129715D02*
D03*
X132733Y09564D02*
D03*
X132142D02*
D03*
X140255Y09204D02*
D03*
X139665D02*
D03*
X146495Y09559D02*
D03*
X145905D02*
D03*
X141605Y07995D02*
D03*
X141015D02*
D03*
X144195Y08183D02*
D03*
X144785D02*
D03*
X144255Y08395D02*
D03*
X144845D02*
D03*
X143615Y08395D02*
D03*
X143025Y08395D02*
D03*
Y0834D02*
D03*
X143615D02*
D03*
X13975Y08897D02*
D03*
X139159D02*
D03*
X128389Y08914D02*
D03*
X12898D02*
D03*
X128375Y08971D02*
D03*
X128965D02*
D03*
X137045Y08301D02*
D03*
X137635D02*
D03*
X131905Y08616D02*
D03*
X132495D02*
D03*
X131255Y08751D02*
D03*
X130665D02*
D03*
X131265Y08805D02*
D03*
X130675D02*
D03*
X139255Y09559D02*
D03*
X139845D02*
D03*
X139665Y0912D02*
D03*
X140255D02*
D03*
D30*
X139318Y093672D02*
D03*
X138442Y094548D02*
D03*
X126608Y093682D02*
D03*
X125732Y094558D02*
D03*
D31*
X14809Y08614D02*
D03*
Y086731D02*
D03*
X14633Y089797D02*
D03*
Y090387D02*
D03*
X14691Y089805D02*
D03*
Y090395D02*
D03*
X14633Y091541D02*
D03*
Y090951D02*
D03*
X138615Y087415D02*
D03*
Y086825D02*
D03*
X13805Y087415D02*
D03*
Y086825D02*
D03*
X13749Y087435D02*
D03*
Y086845D02*
D03*
X13168Y093471D02*
D03*
Y09288D02*
D03*
X12743Y09338D02*
D03*
Y092789D02*
D03*
X13351Y089639D02*
D03*
Y09023D02*
D03*
X13918Y087415D02*
D03*
Y086825D02*
D03*
X14187Y08708D02*
D03*
X14187Y087671D02*
D03*
X14242Y08708D02*
D03*
X14242Y087671D02*
D03*
X14577Y08708D02*
D03*
Y087671D02*
D03*
X14521Y08708D02*
D03*
Y087671D02*
D03*
X13351Y088485D02*
D03*
Y089075D02*
D03*
X145791Y088638D02*
D03*
X145791Y089229D02*
D03*
X14633Y089223D02*
D03*
Y088633D02*
D03*
X13405Y086815D02*
D03*
Y087405D02*
D03*
X13682Y087435D02*
D03*
X13682Y086845D02*
D03*
X1446Y093445D02*
D03*
Y094035D02*
D03*
X14026Y093825D02*
D03*
Y093235D02*
D03*
X14334Y080915D02*
D03*
Y080325D02*
D03*
X14335Y082055D02*
D03*
X14335Y081465D02*
D03*
X14521Y085605D02*
D03*
Y086195D02*
D03*
X14577Y085605D02*
D03*
X14577Y086195D02*
D03*
Y085045D02*
D03*
Y084455D02*
D03*
X14521Y085045D02*
D03*
X14521Y084455D02*
D03*
X1415Y086135D02*
D03*
Y085545D02*
D03*
Y08499D02*
D03*
Y084399D02*
D03*
X14092Y085585D02*
D03*
Y084995D02*
D03*
X13065Y088785D02*
D03*
Y089375D02*
D03*
X13475Y092995D02*
D03*
Y092405D02*
D03*
X14751Y08613D02*
D03*
X14751Y086721D02*
D03*
X13405Y088485D02*
D03*
Y089075D02*
D03*
D32*
X144902Y088564D02*
D03*
X144902Y08947D02*
D03*
X144902Y090376D02*
D03*
D33*
X142618Y08947D02*
D03*
D34*
X138382Y082392D02*
D03*
X13914Y08239D02*
D03*
X138768Y081408D02*
D03*
X137288D02*
D03*
X13766Y08239D02*
D03*
X136902Y082392D02*
D03*
X144488Y080308D02*
D03*
X14486Y08129D02*
D03*
X144102Y081292D02*
D03*
X142238Y081408D02*
D03*
X14261Y08239D02*
D03*
X141852Y082392D02*
D03*
D35*
X139599Y094411D02*
D03*
X139181Y094829D02*
D03*
X126938Y094372D02*
D03*
X12652Y09479D02*
D03*
D36*
X15071Y100949D02*
D03*
X149962Y100949D02*
D03*
X149962Y103041D02*
D03*
X15071Y103041D02*
D03*
X149962Y104087D02*
D03*
X15071D02*
D03*
X149962Y099903D02*
D03*
X15071Y099903D02*
D03*
X149962Y101995D02*
D03*
X15071Y101995D02*
D03*
D37*
X140143Y079421D02*
D03*
X138143D02*
D03*
D38*
X139143Y075259D02*
D03*
D39*
X12684Y08776D02*
D03*
Y08524D02*
D03*
X12845Y08526D02*
D03*
Y08778D02*
D03*
D40*
X142393Y09216D02*
D03*
X143967D02*
D03*
X130887Y09165D02*
D03*
X129313D02*
D03*
D41*
X128191Y093446D02*
D03*
Y092698D02*
D03*
X140971Y093906D02*
D03*
Y093158D02*
D03*
D42*
X132269Y095009D02*
D03*
X131851Y094591D02*
D03*
X145529Y094969D02*
D03*
X145111Y094551D02*
D03*
D43*
X132172Y094012D02*
D03*
X133048Y094888D02*
D03*
X146308Y094768D02*
D03*
X145432Y093892D02*
D03*
D44*
X14426Y087D02*
D03*
X14426Y087374D02*
D03*
X14426Y087748D02*
D03*
X143272Y087D02*
D03*
Y087748D02*
D03*
D45*
X138561Y08061D02*
D03*
X13988D02*
D03*
D46*
X14067Y08063D02*
D03*
X14191D02*
D03*
D47*
X140844Y082343D02*
D03*
X140096D02*
D03*
X14047Y081359D02*
D03*
D48*
X14575Y079391D02*
D03*
X14311Y07482D02*
D03*
X1441Y07896D02*
D03*
D49*
X142208Y08604D02*
D03*
Y08554D02*
D03*
X142208Y08504D02*
D03*
X142208Y08454D02*
D03*
X144432Y08604D02*
D03*
X144432Y08554D02*
D03*
X144432Y08504D02*
D03*
X144432Y08454D02*
D03*
D50*
X134692Y087573D02*
D03*
X136188D02*
D03*
X134692Y086707D02*
D03*
X136188D02*
D03*
D51*
X131386Y086918D02*
D03*
X13113Y086918D02*
D03*
X130874D02*
D03*
Y086162D02*
D03*
X13113D02*
D03*
X131386Y086162D02*
D03*
D52*
X14013Y08518D02*
D03*
X137374D02*
D03*
D53*
X14199Y077747D02*
D03*
Y076173D02*
D03*
D83*
X13051Y111506D02*
X139573Y102443D01*
Y098903D02*
Y102443D01*
Y098903D02*
X14046Y09979D01*
X139573Y09675D02*
Y098903D01*
X1415Y09979D02*
X14625D01*
X14046D02*
X1415D01*
X14625D02*
X14721Y09883D01*
Y09675D02*
Y09883D01*
X14619Y077095D02*
X147415D01*
X14798Y07653D01*
Y075D02*
Y07653D01*
X14716Y07418D02*
X14798Y075D01*
X14367Y07418D02*
X14716D01*
X14199Y07586D02*
X14367Y07418D01*
X14199Y07586D02*
Y076173D01*
X139143Y075259D02*
X140057Y076173D01*
X14199D01*
X13237Y096798D02*
Y09926D01*
X135782Y079668D02*
X137703Y077747D01*
X14199D01*
X135782Y079668D02*
Y080101D01*
X14982Y103041D02*
Y10537D01*
X14668Y10851D02*
X14982Y10537D01*
Y09797D02*
Y103041D01*
X144743Y10851D02*
X14668D01*
X14982Y103041D02*
Y104087D01*
X14406Y1111D02*
Y11125D01*
X14405Y11111D02*
Y11124D01*
Y110979D02*
Y11111D01*
X143985Y111175D02*
X14405Y11124D01*
Y11111D02*
X14406Y1111D01*
X143985Y111175D02*
X14405Y11111D01*
X14396Y1112D02*
X143985Y111175D01*
X14405Y110979D02*
X14406Y110989D01*
X143737Y110666D02*
X14405Y110979D01*
X15082Y09682D02*
Y10734D01*
X14696Y1112D02*
X15082Y10734D01*
X14415Y077747D02*
X144743D01*
X14199D02*
X14415D01*
X1441Y077797D02*
X14415Y077747D01*
X1441Y077797D02*
Y07896D01*
X14982Y09682D02*
Y09797D01*
X14406Y110989D02*
Y1111D01*
X130782Y08207D02*
Y083668D01*
X12686Y07631D02*
Y081507D01*
Y07631D02*
X127088Y076082D01*
X12919Y08526D02*
X130782Y083668D01*
X13347Y07631D02*
Y081727D01*
Y075932D02*
X133486Y075947D01*
X13347Y081727D02*
X135782Y084038D01*
X144743Y077747D02*
X145147Y077344D01*
X12549Y08781D02*
Y09068D01*
Y0866D02*
Y08781D01*
X12494Y08605D02*
X12549Y0866D01*
X12772Y08776D02*
X12843D01*
X12684D02*
X12772D01*
X1276Y08524D02*
X12843D01*
X12684D02*
X1276D01*
X12686Y081507D02*
X128712Y083358D01*
X12845Y08526D02*
X12919D01*
X12843Y08524D02*
X12845Y08526D01*
X12549Y08781D02*
X12679D01*
X12684Y08776D01*
X130529Y09922D02*
X13177D01*
X12752D02*
X130529D01*
X13051Y10613D02*
X130529Y106111D01*
Y09922D02*
Y106111D01*
X14391Y1114D02*
X14393Y11142D01*
X13181Y09926D02*
X13237D01*
X13177Y09922D02*
X13181Y09926D01*
X1273Y099D02*
X12752Y09922D01*
X1273Y09675D02*
Y099D01*
D110*
X148326Y09395D02*
D03*
X14872D02*
D03*
D111*
X12766Y086993D02*
D03*
X12766Y08719D02*
D03*
X12764Y08597D02*
D03*
Y085773D02*
D03*
X14431Y0867D02*
D03*
X144507D02*
D03*
D112*
X13894Y09174D02*
X139268D01*
X13927Y091738D02*
X139759D01*
X139268Y09174D02*
X13927Y091738D01*
X139761Y09174D02*
X140101D01*
X139759Y091738D02*
X139761Y09174D01*
X138636Y091436D02*
X13894Y09174D01*
X13604Y09142D02*
X13721D01*
X137423Y091633D01*
X135752Y091708D02*
X13604Y09142D01*
X135362Y091708D02*
X135752D01*
X13488Y09243D02*
X13527D01*
X13494Y087821D02*
Y08912D01*
X134692Y087573D02*
X13494Y087821D01*
X138376Y09198D02*
X13947D01*
X135277Y091793D02*
Y092219D01*
X13671Y09053D02*
X137616Y091436D01*
X135484Y089664D02*
X13635Y09053D01*
X13494Y08912D02*
X135484Y089664D01*
X13635Y09053D02*
X13671D01*
X134204Y089664D02*
X134691D01*
X13408Y089105D02*
Y08954D01*
X134204Y089664D01*
X134691D02*
X135484D01*
X138028Y091436D02*
X138636D01*
X13488Y09243D02*
X134905Y092405D01*
X135277Y091793D02*
X135362Y091708D01*
X137423Y091633D02*
X138028D01*
X137616Y091436D02*
X138028D01*
X13475Y092995D02*
X135135D01*
X135474Y092656D01*
Y092219D02*
Y092656D01*
X13475Y092405D02*
X134905D01*
X138028Y091633D02*
X138376Y09198D01*
D113*
X14883Y08841D02*
Y09713D01*
X14967Y09797D01*
X14751Y086721D02*
Y08709D01*
X14883Y08841D01*
D114*
X146378Y075907D02*
D03*
D115*
X14619Y077095D02*
D03*
D116*
X145002Y077284D02*
D03*
D117*
X145306Y075361D02*
D03*
D118*
X144455Y076211D02*
D03*
D119*
X133431Y07631D02*
D03*
X126821D02*
D03*
D120*
X13046Y10613D02*
D03*
Y111506D02*
D03*
D121*
X1506Y07457D02*
D03*
X12286D02*
D03*
Y11151D02*
D03*
X1506D02*
D03*
D122*
X131383Y090595D02*
D03*
X130713Y090595D02*
D03*
D123*
X15082Y07782D02*
D03*
Y07882D02*
D03*
Y07982D02*
D03*
Y08082D02*
D03*
Y08182D02*
D03*
Y08282D02*
D03*
Y08382D02*
D03*
Y08482D02*
D03*
Y08582D02*
D03*
Y08682D02*
D03*
Y08782D02*
D03*
Y08882D02*
D03*
Y08982D02*
D03*
Y09082D02*
D03*
Y09182D02*
D03*
Y09282D02*
D03*
Y09382D02*
D03*
Y09482D02*
D03*
Y09582D02*
D03*
X14982Y07782D02*
D03*
Y07882D02*
D03*
Y07982D02*
D03*
Y08082D02*
D03*
Y08182D02*
D03*
Y08282D02*
D03*
X14982Y08382D02*
D03*
X14982Y08482D02*
D03*
Y08582D02*
D03*
Y08682D02*
D03*
Y08782D02*
D03*
Y08882D02*
D03*
Y08982D02*
D03*
Y09082D02*
D03*
Y09182D02*
D03*
X14982Y09282D02*
D03*
X14982Y09382D02*
D03*
Y09482D02*
D03*
Y09582D02*
D03*
Y09682D02*
D03*
X1325Y08864D02*
D03*
Y08964D02*
D03*
Y09064D02*
D03*
D124*
X15082Y09682D02*
D03*
X1325Y09164D02*
D03*
D125*
X124696Y079422D02*
D03*
Y083358D02*
D03*
X128712D02*
D03*
Y079422D02*
D03*
X135782Y080101D02*
D03*
Y084038D02*
D03*
X131766D02*
D03*
Y080101D02*
D03*
D126*
X123712Y08139D02*
D03*
X130782Y08207D02*
D03*
D127*
X12294Y08605D02*
D03*
D128*
X12494D02*
D03*
X144743Y10851D02*
D03*
D129*
X12549Y09068D02*
D03*
X14003Y10932D02*
D03*
D130*
X12349Y09068D02*
D03*
D131*
X144743Y10651D02*
D03*
D132*
X14695Y1109D02*
D03*
D133*
X14395D02*
D03*
D134*
X14003Y10732D02*
D03*
D135*
X14721Y09675D02*
D03*
X14621D02*
D03*
X1273D02*
D03*
X1263D02*
D03*
D136*
X14521D02*
D03*
X1253D02*
D03*
D137*
X140573D02*
D03*
X139573D02*
D03*
X13246D02*
D03*
X13346D02*
D03*
D138*
X138573D02*
D03*
X13146D02*
D03*
D139*
X145359Y083735D02*
D03*
X147931Y083271D02*
D03*
X147495Y083885D02*
D03*
X151425Y080865D02*
D03*
Y081965D02*
D03*
X150905Y081305D02*
D03*
X149809Y075941D02*
D03*
X150997Y076667D02*
D03*
X150215Y076585D02*
D03*
X14946Y077156D02*
D03*
X148966Y078221D02*
D03*
X148005Y080334D02*
D03*
X148143Y079779D02*
D03*
X148915Y079205D02*
D03*
X147415Y078715D02*
D03*
X148105Y079125D02*
D03*
X147269Y079459D02*
D03*
X147125Y080225D02*
D03*
X147395Y080745D02*
D03*
X148665Y082395D02*
D03*
X148282Y082966D02*
D03*
X147765Y083595D02*
D03*
X148805Y083185D02*
D03*
X151335Y093525D02*
D03*
X150815Y094265D02*
D03*
X151295Y094474D02*
D03*
Y095425D02*
D03*
X147962Y093195D02*
D03*
X147495Y092975D02*
D03*
X147545Y093665D02*
D03*
X146922Y0929D02*
D03*
X147275Y093215D02*
D03*
X137755Y088725D02*
D03*
X138165Y089115D02*
D03*
X141465Y088035D02*
D03*
X142855Y088055D02*
D03*
X143755Y087369D02*
D03*
X145205Y086191D02*
D03*
X144265Y085965D02*
D03*
X144535Y086215D02*
D03*
X143035Y084435D02*
D03*
X142895Y085275D02*
D03*
X143999Y086374D02*
D03*
X142375Y086515D02*
D03*
X143375Y08625D02*
D03*
X143065Y084905D02*
D03*
X141975Y083545D02*
D03*
X141015Y083565D02*
D03*
X139925Y083655D02*
D03*
X139138Y084348D02*
D03*
X139665Y084095D02*
D03*
X140365Y084613D02*
D03*
X140715Y084435D02*
D03*
X141015Y086195D02*
D03*
X140956Y087533D02*
D03*
X141155Y087175D02*
D03*
X140935Y086575D02*
D03*
X13977Y087908D02*
D03*
X140065Y087785D02*
D03*
X138635Y085285D02*
D03*
X139005Y085615D02*
D03*
X138079Y08508D02*
D03*
X136805Y084965D02*
D03*
X132095Y085475D02*
D03*
X132565Y085045D02*
D03*
X132995Y085065D02*
D03*
X132235Y087245D02*
D03*
X131253Y087211D02*
D03*
X131255Y088575D02*
D03*
X131235Y088945D02*
D03*
X131255Y089605D02*
D03*
Y089945D02*
D03*
X132615Y086675D02*
D03*
X131885Y086695D02*
D03*
X132274Y086813D02*
D03*
X132595Y087165D02*
D03*
X131856Y087174D02*
D03*
X14047Y0813D02*
D03*
X12817Y08481D02*
D03*
X12754D02*
D03*
X12775D02*
D03*
X12796D02*
D03*
X12712D02*
D03*
X12733D02*
D03*
Y08502D02*
D03*
X12712D02*
D03*
X12775D02*
D03*
X12796D02*
D03*
X12817D02*
D03*
X12754D02*
D03*
X12733Y08523D02*
D03*
X12712D02*
D03*
X12775D02*
D03*
X12796D02*
D03*
X12817D02*
D03*
X12754D02*
D03*
X12733Y08544D02*
D03*
X12712D02*
D03*
X12775D02*
D03*
X12796D02*
D03*
X12817D02*
D03*
X12754D02*
D03*
X12817D02*
D03*
X1288D02*
D03*
X12859D02*
D03*
X12838D02*
D03*
X12922D02*
D03*
X12901D02*
D03*
Y08523D02*
D03*
X12922D02*
D03*
X12859D02*
D03*
X12838D02*
D03*
X12817D02*
D03*
X1288D02*
D03*
X12901Y08502D02*
D03*
X12922D02*
D03*
X12859D02*
D03*
X12838D02*
D03*
X12817D02*
D03*
X1288D02*
D03*
X12901Y08481D02*
D03*
X12922D02*
D03*
X12859D02*
D03*
X12838D02*
D03*
X12817D02*
D03*
X1288D02*
D03*
X12544Y08838D02*
D03*
Y08775D02*
D03*
Y08796D02*
D03*
Y08733D02*
D03*
Y08754D02*
D03*
X12523D02*
D03*
Y08733D02*
D03*
Y08796D02*
D03*
Y08817D02*
D03*
Y08838D02*
D03*
Y08775D02*
D03*
X12502Y08754D02*
D03*
Y08733D02*
D03*
Y08796D02*
D03*
Y08817D02*
D03*
Y08838D02*
D03*
Y08775D02*
D03*
X12481Y08754D02*
D03*
Y08796D02*
D03*
Y08817D02*
D03*
Y08838D02*
D03*
Y08775D02*
D03*
X12607D02*
D03*
Y08712D02*
D03*
Y08733D02*
D03*
Y08754D02*
D03*
Y0867D02*
D03*
Y08691D02*
D03*
X12586D02*
D03*
Y0867D02*
D03*
Y08733D02*
D03*
Y08754D02*
D03*
Y08775D02*
D03*
Y08712D02*
D03*
X12565Y08691D02*
D03*
Y0867D02*
D03*
Y08733D02*
D03*
Y08754D02*
D03*
Y08775D02*
D03*
Y08712D02*
D03*
X12544Y08691D02*
D03*
Y0867D02*
D03*
Y08733D02*
D03*
Y08712D02*
D03*
X12712Y09048D02*
D03*
Y09027D02*
D03*
Y09006D02*
D03*
Y0909D02*
D03*
Y09069D02*
D03*
X12733D02*
D03*
Y0909D02*
D03*
Y09027D02*
D03*
Y09006D02*
D03*
Y08985D02*
D03*
Y09048D02*
D03*
X12754Y09069D02*
D03*
Y0909D02*
D03*
Y09027D02*
D03*
Y09006D02*
D03*
Y08985D02*
D03*
Y09048D02*
D03*
X12775Y09069D02*
D03*
Y0909D02*
D03*
Y09027D02*
D03*
Y09006D02*
D03*
Y08985D02*
D03*
Y09048D02*
D03*
X12628Y08985D02*
D03*
Y09048D02*
D03*
Y09027D02*
D03*
Y09006D02*
D03*
Y0909D02*
D03*
Y09069D02*
D03*
X12649D02*
D03*
Y0909D02*
D03*
Y09027D02*
D03*
Y09006D02*
D03*
Y08985D02*
D03*
Y09048D02*
D03*
X1267Y09069D02*
D03*
Y0909D02*
D03*
Y09027D02*
D03*
Y09006D02*
D03*
Y08985D02*
D03*
Y09048D02*
D03*
X12691Y09069D02*
D03*
Y0909D02*
D03*
Y09027D02*
D03*
Y09006D02*
D03*
Y09048D02*
D03*
X12523Y08712D02*
D03*
Y08733D02*
D03*
Y08754D02*
D03*
Y0867D02*
D03*
Y08691D02*
D03*
X12502D02*
D03*
Y0867D02*
D03*
Y08733D02*
D03*
Y08754D02*
D03*
Y08775D02*
D03*
Y08712D02*
D03*
X12481Y08691D02*
D03*
Y0867D02*
D03*
Y08733D02*
D03*
Y08754D02*
D03*
Y08775D02*
D03*
Y08712D02*
D03*
X1246Y08691D02*
D03*
Y0867D02*
D03*
Y08733D02*
D03*
Y08754D02*
D03*
Y08775D02*
D03*
Y08712D02*
D03*
X12775Y0888D02*
D03*
Y08817D02*
D03*
Y08838D02*
D03*
Y08859D02*
D03*
Y08775D02*
D03*
Y08796D02*
D03*
X12754D02*
D03*
Y08775D02*
D03*
Y08838D02*
D03*
Y08859D02*
D03*
Y0888D02*
D03*
Y08817D02*
D03*
X12733Y08796D02*
D03*
Y08775D02*
D03*
Y08838D02*
D03*
Y08859D02*
D03*
Y0888D02*
D03*
Y08817D02*
D03*
X12712Y08796D02*
D03*
Y08838D02*
D03*
Y08817D02*
D03*
X12754Y0888D02*
D03*
Y08817D02*
D03*
Y08838D02*
D03*
Y08859D02*
D03*
Y08775D02*
D03*
Y08796D02*
D03*
X12733D02*
D03*
Y08775D02*
D03*
Y08838D02*
D03*
Y08859D02*
D03*
Y0888D02*
D03*
Y08817D02*
D03*
X12712Y08775D02*
D03*
Y08859D02*
D03*
X12691Y08796D02*
D03*
Y08775D02*
D03*
Y08838D02*
D03*
Y08859D02*
D03*
Y0888D02*
D03*
Y08817D02*
D03*
Y08817D02*
D03*
Y08838D02*
D03*
Y08859D02*
D03*
Y08775D02*
D03*
Y08796D02*
D03*
X1267D02*
D03*
Y08775D02*
D03*
Y08838D02*
D03*
Y08859D02*
D03*
Y0888D02*
D03*
Y08817D02*
D03*
X12649Y08796D02*
D03*
Y08775D02*
D03*
Y08838D02*
D03*
Y08859D02*
D03*
Y08817D02*
D03*
X12628Y08796D02*
D03*
Y08775D02*
D03*
Y08838D02*
D03*
Y08859D02*
D03*
Y08817D02*
D03*
X12649Y0888D02*
D03*
Y08817D02*
D03*
Y08838D02*
D03*
Y08859D02*
D03*
Y08775D02*
D03*
Y08796D02*
D03*
X12628D02*
D03*
Y08775D02*
D03*
Y08838D02*
D03*
Y08859D02*
D03*
Y0888D02*
D03*
Y08817D02*
D03*
X12607Y08796D02*
D03*
Y08838D02*
D03*
Y08859D02*
D03*
Y0888D02*
D03*
Y08817D02*
D03*
X12586Y08796D02*
D03*
Y08775D02*
D03*
Y08838D02*
D03*
Y08859D02*
D03*
Y08817D02*
D03*
Y08817D02*
D03*
Y08838D02*
D03*
Y08859D02*
D03*
Y08775D02*
D03*
Y08796D02*
D03*
X12565D02*
D03*
Y08775D02*
D03*
Y08838D02*
D03*
Y08859D02*
D03*
Y0888D02*
D03*
Y08817D02*
D03*
X12544Y08796D02*
D03*
Y08775D02*
D03*
Y08859D02*
D03*
Y0888D02*
D03*
Y08817D02*
D03*
X12523Y08796D02*
D03*
Y08775D02*
D03*
Y08838D02*
D03*
Y08859D02*
D03*
Y0888D02*
D03*
Y08817D02*
D03*
X12712Y0888D02*
D03*
Y08943D02*
D03*
Y08922D02*
D03*
Y08901D02*
D03*
Y08985D02*
D03*
Y08964D02*
D03*
X12733D02*
D03*
Y08985D02*
D03*
Y08922D02*
D03*
Y08901D02*
D03*
Y0888D02*
D03*
Y08943D02*
D03*
X12754Y08964D02*
D03*
Y08985D02*
D03*
Y08922D02*
D03*
Y08901D02*
D03*
Y08943D02*
D03*
X12775Y08964D02*
D03*
Y08985D02*
D03*
Y08922D02*
D03*
Y08901D02*
D03*
Y08943D02*
D03*
X12649Y08922D02*
D03*
Y08901D02*
D03*
Y08985D02*
D03*
Y08964D02*
D03*
X1267D02*
D03*
Y08985D02*
D03*
Y08922D02*
D03*
Y08901D02*
D03*
Y0888D02*
D03*
Y08943D02*
D03*
X12691Y08964D02*
D03*
Y08985D02*
D03*
Y08922D02*
D03*
Y08901D02*
D03*
Y08943D02*
D03*
X12712Y08964D02*
D03*
Y08985D02*
D03*
Y08922D02*
D03*
Y08901D02*
D03*
X12586Y0888D02*
D03*
Y08922D02*
D03*
Y08901D02*
D03*
Y08985D02*
D03*
Y08964D02*
D03*
X12607D02*
D03*
Y08985D02*
D03*
Y08922D02*
D03*
Y08901D02*
D03*
Y0888D02*
D03*
Y08943D02*
D03*
X12628Y08964D02*
D03*
Y08922D02*
D03*
Y08901D02*
D03*
Y0888D02*
D03*
Y08943D02*
D03*
X12649Y08964D02*
D03*
Y08985D02*
D03*
Y08922D02*
D03*
Y08901D02*
D03*
Y08943D02*
D03*
X12523Y08943D02*
D03*
Y08922D02*
D03*
Y08901D02*
D03*
Y08985D02*
D03*
Y08964D02*
D03*
X12544D02*
D03*
Y08985D02*
D03*
Y08922D02*
D03*
Y08901D02*
D03*
Y0888D02*
D03*
Y08943D02*
D03*
X12565Y08964D02*
D03*
Y08985D02*
D03*
Y08922D02*
D03*
Y08901D02*
D03*
Y0888D02*
D03*
Y08943D02*
D03*
X12586Y08964D02*
D03*
Y08985D02*
D03*
Y08922D02*
D03*
Y08901D02*
D03*
Y08943D02*
D03*
X13809Y07975D02*
D03*
Y08038D02*
D03*
Y08017D02*
D03*
Y07996D02*
D03*
Y0808D02*
D03*
Y08059D02*
D03*
X1383D02*
D03*
Y0808D02*
D03*
Y08017D02*
D03*
Y07996D02*
D03*
Y07975D02*
D03*
Y08038D02*
D03*
X13851Y08059D02*
D03*
Y0808D02*
D03*
Y08017D02*
D03*
Y07996D02*
D03*
Y07975D02*
D03*
Y08038D02*
D03*
X13872Y08059D02*
D03*
Y0808D02*
D03*
Y08017D02*
D03*
Y07996D02*
D03*
Y07975D02*
D03*
Y08038D02*
D03*
X13851Y07975D02*
D03*
Y08038D02*
D03*
Y08017D02*
D03*
Y07996D02*
D03*
Y0808D02*
D03*
Y08059D02*
D03*
X13872D02*
D03*
Y0808D02*
D03*
Y08017D02*
D03*
Y07996D02*
D03*
Y07975D02*
D03*
Y08038D02*
D03*
X13893Y08059D02*
D03*
Y0808D02*
D03*
Y08017D02*
D03*
Y07996D02*
D03*
Y07975D02*
D03*
Y08038D02*
D03*
X13914Y08059D02*
D03*
Y0808D02*
D03*
Y08017D02*
D03*
Y07996D02*
D03*
Y07975D02*
D03*
Y08038D02*
D03*
X13851Y07891D02*
D03*
Y07954D02*
D03*
Y07933D02*
D03*
Y07912D02*
D03*
Y07996D02*
D03*
Y07975D02*
D03*
X13872D02*
D03*
Y07996D02*
D03*
Y07933D02*
D03*
Y07912D02*
D03*
Y07891D02*
D03*
Y07954D02*
D03*
X13893Y07975D02*
D03*
Y07996D02*
D03*
Y07933D02*
D03*
Y07912D02*
D03*
Y07891D02*
D03*
Y07954D02*
D03*
X13914Y07975D02*
D03*
Y07996D02*
D03*
Y07933D02*
D03*
Y07912D02*
D03*
Y07891D02*
D03*
Y07954D02*
D03*
X13788Y07891D02*
D03*
Y07954D02*
D03*
Y07933D02*
D03*
Y07912D02*
D03*
Y07996D02*
D03*
Y07975D02*
D03*
X13809D02*
D03*
Y07996D02*
D03*
Y07933D02*
D03*
Y07912D02*
D03*
Y07891D02*
D03*
Y07954D02*
D03*
X1383Y07975D02*
D03*
Y07996D02*
D03*
Y07933D02*
D03*
Y07912D02*
D03*
Y07891D02*
D03*
Y07954D02*
D03*
X13851Y07975D02*
D03*
Y07996D02*
D03*
Y07933D02*
D03*
Y07912D02*
D03*
Y07891D02*
D03*
Y07954D02*
D03*
X13186Y0754D02*
D03*
Y07666D02*
D03*
Y07498D02*
D03*
Y07603D02*
D03*
Y07624D02*
D03*
Y07645D02*
D03*
Y07561D02*
D03*
Y07582D02*
D03*
Y07708D02*
D03*
Y07687D02*
D03*
Y07519D02*
D03*
X13165Y0754D02*
D03*
Y07666D02*
D03*
Y07498D02*
D03*
Y07603D02*
D03*
Y07624D02*
D03*
Y07645D02*
D03*
Y07561D02*
D03*
Y07582D02*
D03*
Y07708D02*
D03*
Y07687D02*
D03*
Y07519D02*
D03*
X13144Y0754D02*
D03*
Y07666D02*
D03*
Y07498D02*
D03*
Y07603D02*
D03*
Y07624D02*
D03*
Y07645D02*
D03*
Y07561D02*
D03*
Y07582D02*
D03*
Y07708D02*
D03*
Y07687D02*
D03*
Y07519D02*
D03*
X13123Y07519D02*
D03*
Y07582D02*
D03*
Y07561D02*
D03*
Y07687D02*
D03*
Y07708D02*
D03*
Y07624D02*
D03*
Y0754D02*
D03*
Y07645D02*
D03*
Y07666D02*
D03*
Y07498D02*
D03*
Y07603D02*
D03*
X13301Y07404D02*
D03*
X13427D02*
D03*
X13259D02*
D03*
X13364D02*
D03*
X13385D02*
D03*
X13406D02*
D03*
X13322D02*
D03*
X13343D02*
D03*
X13469D02*
D03*
X13448D02*
D03*
X1328D02*
D03*
X13301Y07425D02*
D03*
X13427D02*
D03*
X13259D02*
D03*
X13364D02*
D03*
X13385D02*
D03*
X13406D02*
D03*
X13322D02*
D03*
X13343D02*
D03*
X13469D02*
D03*
X13448D02*
D03*
X1328D02*
D03*
X13301Y07446D02*
D03*
X13427D02*
D03*
X13259D02*
D03*
X13364D02*
D03*
X13385D02*
D03*
X13406D02*
D03*
X13322D02*
D03*
X13343D02*
D03*
X13469D02*
D03*
X13448D02*
D03*
X1328D02*
D03*
X1328Y07467D02*
D03*
X13343D02*
D03*
X13322D02*
D03*
X13448D02*
D03*
X13469D02*
D03*
X13385D02*
D03*
X13301D02*
D03*
X13406D02*
D03*
X13427D02*
D03*
X13259D02*
D03*
X13364D02*
D03*
X13527Y07655D02*
D03*
Y07529D02*
D03*
Y07697D02*
D03*
Y07592D02*
D03*
Y07571D02*
D03*
Y0755D02*
D03*
Y07634D02*
D03*
Y07613D02*
D03*
Y07487D02*
D03*
Y07508D02*
D03*
Y07676D02*
D03*
X13548Y07655D02*
D03*
Y07529D02*
D03*
Y07697D02*
D03*
Y07592D02*
D03*
Y07571D02*
D03*
Y0755D02*
D03*
Y07634D02*
D03*
Y07613D02*
D03*
Y07487D02*
D03*
Y07508D02*
D03*
Y07676D02*
D03*
X13569Y07655D02*
D03*
Y07529D02*
D03*
Y07697D02*
D03*
Y07592D02*
D03*
Y07571D02*
D03*
Y0755D02*
D03*
Y07634D02*
D03*
Y07613D02*
D03*
Y07487D02*
D03*
Y07508D02*
D03*
Y07676D02*
D03*
X1359Y07676D02*
D03*
Y07613D02*
D03*
Y07634D02*
D03*
Y07508D02*
D03*
Y07487D02*
D03*
Y07571D02*
D03*
Y07655D02*
D03*
Y0755D02*
D03*
Y07529D02*
D03*
Y07697D02*
D03*
Y07592D02*
D03*
X12732Y07845D02*
D03*
X12606D02*
D03*
X12774D02*
D03*
X12669D02*
D03*
X12648D02*
D03*
X12627D02*
D03*
X12711D02*
D03*
X1269D02*
D03*
X12564D02*
D03*
X12585D02*
D03*
X12753D02*
D03*
X12732Y07824D02*
D03*
X12606D02*
D03*
X12774D02*
D03*
X12669D02*
D03*
X12648D02*
D03*
X12627D02*
D03*
X12711D02*
D03*
X1269D02*
D03*
X12564D02*
D03*
X12585D02*
D03*
X12753D02*
D03*
X12732Y07803D02*
D03*
X12606D02*
D03*
X12774D02*
D03*
X12669D02*
D03*
X12648D02*
D03*
X12627D02*
D03*
X12711D02*
D03*
X1269D02*
D03*
X12564D02*
D03*
X12585D02*
D03*
X12753D02*
D03*
X12753Y07782D02*
D03*
X1269D02*
D03*
X12711D02*
D03*
X12585D02*
D03*
X12564D02*
D03*
X12648D02*
D03*
X12732D02*
D03*
X12627D02*
D03*
X12606D02*
D03*
X12774D02*
D03*
X12669D02*
D03*
X12736Y07477D02*
D03*
X1261D02*
D03*
X12778D02*
D03*
X12673D02*
D03*
X12652D02*
D03*
X12631D02*
D03*
X12715D02*
D03*
X12694D02*
D03*
X12568D02*
D03*
X12589D02*
D03*
X12757D02*
D03*
X12736Y07456D02*
D03*
X1261D02*
D03*
X12778D02*
D03*
X12673D02*
D03*
X12652D02*
D03*
X12631D02*
D03*
X12715D02*
D03*
X12694D02*
D03*
X12568D02*
D03*
X12589D02*
D03*
X12757D02*
D03*
X12736Y07435D02*
D03*
X1261D02*
D03*
X12778D02*
D03*
X12673D02*
D03*
X12652D02*
D03*
X12631D02*
D03*
X12715D02*
D03*
X12694D02*
D03*
X12568D02*
D03*
X12589D02*
D03*
X12757D02*
D03*
X12757Y07414D02*
D03*
X12694D02*
D03*
X12715D02*
D03*
X12589D02*
D03*
X12568D02*
D03*
X12652D02*
D03*
X12736D02*
D03*
X12631D02*
D03*
X1261D02*
D03*
X12778D02*
D03*
X12673D02*
D03*
X12918Y07552D02*
D03*
Y07678D02*
D03*
Y0751D02*
D03*
Y07615D02*
D03*
Y07636D02*
D03*
Y07657D02*
D03*
Y07573D02*
D03*
Y07594D02*
D03*
Y0772D02*
D03*
Y07699D02*
D03*
Y07531D02*
D03*
X12897Y07552D02*
D03*
Y07678D02*
D03*
Y0751D02*
D03*
Y07615D02*
D03*
Y07636D02*
D03*
Y07657D02*
D03*
Y07573D02*
D03*
Y07594D02*
D03*
Y0772D02*
D03*
Y07699D02*
D03*
Y07531D02*
D03*
X12876Y07552D02*
D03*
Y07678D02*
D03*
Y0751D02*
D03*
Y07615D02*
D03*
Y07636D02*
D03*
Y07657D02*
D03*
Y07573D02*
D03*
Y07594D02*
D03*
Y0772D02*
D03*
Y07699D02*
D03*
Y07531D02*
D03*
X12855D02*
D03*
Y07594D02*
D03*
Y07573D02*
D03*
Y07699D02*
D03*
Y0772D02*
D03*
Y07636D02*
D03*
Y07552D02*
D03*
Y07657D02*
D03*
Y07678D02*
D03*
Y0751D02*
D03*
Y07615D02*
D03*
X12507Y07592D02*
D03*
Y07718D02*
D03*
Y0755D02*
D03*
Y07655D02*
D03*
Y07676D02*
D03*
Y07697D02*
D03*
Y07613D02*
D03*
Y07634D02*
D03*
Y0776D02*
D03*
Y07739D02*
D03*
Y07571D02*
D03*
X12486Y07592D02*
D03*
Y07718D02*
D03*
Y0755D02*
D03*
Y07655D02*
D03*
Y07676D02*
D03*
Y07697D02*
D03*
Y07613D02*
D03*
Y07634D02*
D03*
Y0776D02*
D03*
Y07739D02*
D03*
Y07571D02*
D03*
X12465Y07592D02*
D03*
Y07718D02*
D03*
Y0755D02*
D03*
Y07655D02*
D03*
Y07676D02*
D03*
Y07697D02*
D03*
Y07613D02*
D03*
Y07634D02*
D03*
Y0776D02*
D03*
Y07739D02*
D03*
Y07571D02*
D03*
X12444D02*
D03*
Y07634D02*
D03*
Y07613D02*
D03*
Y07739D02*
D03*
Y0776D02*
D03*
Y07676D02*
D03*
Y07592D02*
D03*
Y07697D02*
D03*
Y07718D02*
D03*
Y0755D02*
D03*
Y07655D02*
D03*
X13869Y08895D02*
D03*
X13706Y08968D02*
D03*
X14002Y07419D02*
D03*
Y07545D02*
D03*
Y0765D02*
D03*
Y07482D02*
D03*
Y07503D02*
D03*
Y07608D02*
D03*
Y07524D02*
D03*
Y0744D02*
D03*
Y07461D02*
D03*
Y07587D02*
D03*
Y07566D02*
D03*
Y07629D02*
D03*
X13981Y07419D02*
D03*
Y07545D02*
D03*
Y0765D02*
D03*
Y07482D02*
D03*
Y07503D02*
D03*
Y07608D02*
D03*
Y07524D02*
D03*
Y0744D02*
D03*
Y07461D02*
D03*
Y07587D02*
D03*
Y07566D02*
D03*
Y07629D02*
D03*
X1396Y07419D02*
D03*
Y07545D02*
D03*
Y0765D02*
D03*
Y07482D02*
D03*
Y07503D02*
D03*
Y07608D02*
D03*
Y07524D02*
D03*
Y0744D02*
D03*
Y07461D02*
D03*
Y07587D02*
D03*
Y07566D02*
D03*
Y07629D02*
D03*
X13939Y07419D02*
D03*
Y07545D02*
D03*
Y0765D02*
D03*
Y07482D02*
D03*
Y07503D02*
D03*
Y07608D02*
D03*
Y07524D02*
D03*
Y0744D02*
D03*
Y07461D02*
D03*
Y07587D02*
D03*
Y07566D02*
D03*
Y07629D02*
D03*
X13918Y07419D02*
D03*
Y07545D02*
D03*
Y0765D02*
D03*
Y07482D02*
D03*
Y07503D02*
D03*
Y07608D02*
D03*
Y07524D02*
D03*
Y0744D02*
D03*
Y07461D02*
D03*
Y07587D02*
D03*
Y07566D02*
D03*
Y07629D02*
D03*
X13897Y07419D02*
D03*
Y07545D02*
D03*
Y0765D02*
D03*
Y07482D02*
D03*
Y07503D02*
D03*
Y07608D02*
D03*
Y07524D02*
D03*
Y0744D02*
D03*
Y07461D02*
D03*
Y07587D02*
D03*
Y07566D02*
D03*
Y07629D02*
D03*
X13876Y07419D02*
D03*
Y07545D02*
D03*
Y0765D02*
D03*
Y07482D02*
D03*
Y07503D02*
D03*
Y07608D02*
D03*
Y07524D02*
D03*
Y0744D02*
D03*
Y07461D02*
D03*
Y07587D02*
D03*
Y07566D02*
D03*
Y07629D02*
D03*
X13855Y07419D02*
D03*
Y07545D02*
D03*
Y0765D02*
D03*
Y07482D02*
D03*
Y07503D02*
D03*
Y07608D02*
D03*
Y07524D02*
D03*
Y0744D02*
D03*
Y07461D02*
D03*
Y07587D02*
D03*
Y07566D02*
D03*
Y07629D02*
D03*
X13834Y07419D02*
D03*
Y07545D02*
D03*
Y0765D02*
D03*
Y07482D02*
D03*
Y07503D02*
D03*
Y07608D02*
D03*
Y07524D02*
D03*
Y0744D02*
D03*
Y07461D02*
D03*
Y07587D02*
D03*
Y07566D02*
D03*
Y07629D02*
D03*
X13813Y07419D02*
D03*
Y07545D02*
D03*
Y0765D02*
D03*
Y07482D02*
D03*
Y07503D02*
D03*
Y07608D02*
D03*
Y07524D02*
D03*
Y0744D02*
D03*
Y07461D02*
D03*
Y07587D02*
D03*
Y07566D02*
D03*
Y07629D02*
D03*
X13792Y07419D02*
D03*
Y07545D02*
D03*
Y0765D02*
D03*
Y07482D02*
D03*
Y07503D02*
D03*
Y07608D02*
D03*
Y07524D02*
D03*
Y0744D02*
D03*
Y07461D02*
D03*
Y07587D02*
D03*
Y07566D02*
D03*
Y07629D02*
D03*
X13771Y07419D02*
D03*
Y07545D02*
D03*
Y0765D02*
D03*
Y07482D02*
D03*
Y07503D02*
D03*
Y07608D02*
D03*
Y07524D02*
D03*
Y0744D02*
D03*
Y07461D02*
D03*
Y07587D02*
D03*
Y07566D02*
D03*
Y07629D02*
D03*
X1375Y07419D02*
D03*
Y07545D02*
D03*
Y0765D02*
D03*
Y07482D02*
D03*
Y07503D02*
D03*
Y07608D02*
D03*
Y07524D02*
D03*
Y0744D02*
D03*
Y07461D02*
D03*
Y07587D02*
D03*
Y07566D02*
D03*
Y07629D02*
D03*
X1396Y0765D02*
D03*
X13834D02*
D03*
X13729D02*
D03*
X14002D02*
D03*
X13897D02*
D03*
X13876D02*
D03*
X13771D02*
D03*
X13855D02*
D03*
X13939D02*
D03*
X13918D02*
D03*
X13792D02*
D03*
X13813D02*
D03*
X1375D02*
D03*
X13981D02*
D03*
X13729Y07629D02*
D03*
Y07461D02*
D03*
Y0744D02*
D03*
Y07566D02*
D03*
Y07587D02*
D03*
Y07503D02*
D03*
Y07419D02*
D03*
Y07524D02*
D03*
Y07545D02*
D03*
Y0765D02*
D03*
Y07482D02*
D03*
Y07608D02*
D03*
X14288Y10999D02*
D03*
Y11125D02*
D03*
Y1123D02*
D03*
Y10957D02*
D03*
Y11062D02*
D03*
Y11083D02*
D03*
Y11188D02*
D03*
Y11104D02*
D03*
Y1102D02*
D03*
Y11041D02*
D03*
Y11167D02*
D03*
Y11146D02*
D03*
Y11209D02*
D03*
Y10978D02*
D03*
X14267Y10999D02*
D03*
Y11125D02*
D03*
Y10957D02*
D03*
Y11062D02*
D03*
Y11083D02*
D03*
Y11188D02*
D03*
Y11104D02*
D03*
Y1102D02*
D03*
Y11041D02*
D03*
Y11167D02*
D03*
Y11146D02*
D03*
Y11209D02*
D03*
Y10978D02*
D03*
X14246Y10999D02*
D03*
Y11125D02*
D03*
Y1123D02*
D03*
Y10957D02*
D03*
Y11062D02*
D03*
Y11083D02*
D03*
Y11188D02*
D03*
Y11104D02*
D03*
Y1102D02*
D03*
Y11041D02*
D03*
Y11167D02*
D03*
Y11146D02*
D03*
Y11209D02*
D03*
Y10978D02*
D03*
X14225Y10999D02*
D03*
Y11125D02*
D03*
Y1123D02*
D03*
Y10957D02*
D03*
Y11062D02*
D03*
Y11083D02*
D03*
Y11188D02*
D03*
Y11104D02*
D03*
Y1102D02*
D03*
Y11041D02*
D03*
Y11167D02*
D03*
Y11146D02*
D03*
Y11209D02*
D03*
Y10978D02*
D03*
X14204Y10999D02*
D03*
Y11125D02*
D03*
Y1123D02*
D03*
Y10957D02*
D03*
Y11062D02*
D03*
Y11083D02*
D03*
Y11188D02*
D03*
Y11104D02*
D03*
Y1102D02*
D03*
Y11041D02*
D03*
Y11167D02*
D03*
Y11146D02*
D03*
Y11209D02*
D03*
Y10978D02*
D03*
X14183Y10999D02*
D03*
Y11125D02*
D03*
Y1123D02*
D03*
Y10957D02*
D03*
Y11062D02*
D03*
Y11083D02*
D03*
Y11188D02*
D03*
Y11104D02*
D03*
Y1102D02*
D03*
Y11041D02*
D03*
Y11167D02*
D03*
Y11146D02*
D03*
Y11209D02*
D03*
Y10978D02*
D03*
X14162Y10999D02*
D03*
Y11125D02*
D03*
Y1123D02*
D03*
Y10957D02*
D03*
Y11062D02*
D03*
Y11083D02*
D03*
Y11188D02*
D03*
Y11104D02*
D03*
Y1102D02*
D03*
Y11041D02*
D03*
Y11167D02*
D03*
Y11146D02*
D03*
Y11209D02*
D03*
Y10978D02*
D03*
X14141Y10999D02*
D03*
Y11125D02*
D03*
Y10957D02*
D03*
Y11062D02*
D03*
Y11083D02*
D03*
Y11188D02*
D03*
Y11104D02*
D03*
Y1102D02*
D03*
Y11041D02*
D03*
Y11167D02*
D03*
Y11146D02*
D03*
Y11209D02*
D03*
Y10978D02*
D03*
X1412Y10999D02*
D03*
Y11125D02*
D03*
Y10957D02*
D03*
Y11062D02*
D03*
Y11083D02*
D03*
Y11188D02*
D03*
Y11104D02*
D03*
Y1102D02*
D03*
Y11041D02*
D03*
Y11167D02*
D03*
Y11146D02*
D03*
Y11209D02*
D03*
Y10978D02*
D03*
X14099Y10999D02*
D03*
Y11125D02*
D03*
Y1123D02*
D03*
Y10957D02*
D03*
Y11062D02*
D03*
Y11083D02*
D03*
Y11188D02*
D03*
Y11104D02*
D03*
Y1102D02*
D03*
Y11041D02*
D03*
Y11167D02*
D03*
Y11146D02*
D03*
Y11209D02*
D03*
Y10978D02*
D03*
X14078Y10999D02*
D03*
Y11125D02*
D03*
Y1123D02*
D03*
Y10957D02*
D03*
Y11062D02*
D03*
Y11083D02*
D03*
Y11188D02*
D03*
Y11104D02*
D03*
Y1102D02*
D03*
Y11041D02*
D03*
Y11167D02*
D03*
Y11146D02*
D03*
Y11209D02*
D03*
Y10978D02*
D03*
X14057Y10999D02*
D03*
Y11125D02*
D03*
Y1123D02*
D03*
Y10957D02*
D03*
Y11062D02*
D03*
Y11083D02*
D03*
Y11188D02*
D03*
Y11104D02*
D03*
Y1102D02*
D03*
Y11041D02*
D03*
Y11167D02*
D03*
Y11146D02*
D03*
Y11209D02*
D03*
Y10978D02*
D03*
X14036Y10999D02*
D03*
Y11125D02*
D03*
Y1123D02*
D03*
Y10957D02*
D03*
Y11062D02*
D03*
Y11083D02*
D03*
Y11188D02*
D03*
Y11104D02*
D03*
Y1102D02*
D03*
Y11041D02*
D03*
Y11167D02*
D03*
Y11146D02*
D03*
Y11209D02*
D03*
Y10978D02*
D03*
X1412Y1123D02*
D03*
X14141D02*
D03*
X14267D02*
D03*
X14015Y11209D02*
D03*
Y10978D02*
D03*
Y11041D02*
D03*
Y11146D02*
D03*
Y11083D02*
D03*
Y10999D02*
D03*
Y11104D02*
D03*
Y10957D02*
D03*
Y11062D02*
D03*
X14057Y10999D02*
D03*
Y11125D02*
D03*
Y1123D02*
D03*
Y10957D02*
D03*
Y11062D02*
D03*
Y11083D02*
D03*
Y11188D02*
D03*
Y11104D02*
D03*
Y1102D02*
D03*
Y11041D02*
D03*
Y11167D02*
D03*
Y11146D02*
D03*
Y11209D02*
D03*
Y10978D02*
D03*
X14036Y10999D02*
D03*
Y11125D02*
D03*
Y1123D02*
D03*
Y10957D02*
D03*
Y11062D02*
D03*
Y11083D02*
D03*
Y11188D02*
D03*
Y11104D02*
D03*
Y1102D02*
D03*
Y11041D02*
D03*
Y11167D02*
D03*
Y11146D02*
D03*
Y11209D02*
D03*
Y10978D02*
D03*
X14015Y11125D02*
D03*
Y11188D02*
D03*
Y1102D02*
D03*
Y11167D02*
D03*
X13994Y10999D02*
D03*
Y11125D02*
D03*
Y1123D02*
D03*
Y10957D02*
D03*
Y11062D02*
D03*
Y11083D02*
D03*
Y11188D02*
D03*
Y11104D02*
D03*
Y1102D02*
D03*
Y11041D02*
D03*
Y11167D02*
D03*
Y11146D02*
D03*
Y11209D02*
D03*
Y10978D02*
D03*
X13973Y10999D02*
D03*
Y11125D02*
D03*
Y10957D02*
D03*
Y11062D02*
D03*
Y11083D02*
D03*
Y11188D02*
D03*
Y11104D02*
D03*
Y1102D02*
D03*
Y11041D02*
D03*
Y11167D02*
D03*
Y11146D02*
D03*
Y11209D02*
D03*
Y10978D02*
D03*
X13952Y10999D02*
D03*
Y11125D02*
D03*
Y1123D02*
D03*
Y10957D02*
D03*
Y11062D02*
D03*
Y11083D02*
D03*
Y11188D02*
D03*
Y11104D02*
D03*
Y1102D02*
D03*
Y11041D02*
D03*
Y11167D02*
D03*
Y11146D02*
D03*
Y11209D02*
D03*
Y10978D02*
D03*
X13931Y10999D02*
D03*
Y11125D02*
D03*
Y10957D02*
D03*
Y11062D02*
D03*
Y11083D02*
D03*
Y11188D02*
D03*
Y11104D02*
D03*
Y1102D02*
D03*
Y11041D02*
D03*
Y11167D02*
D03*
Y11146D02*
D03*
Y11209D02*
D03*
Y10978D02*
D03*
X1391Y10999D02*
D03*
Y11125D02*
D03*
Y10957D02*
D03*
Y11062D02*
D03*
Y11083D02*
D03*
Y11188D02*
D03*
Y11104D02*
D03*
Y1102D02*
D03*
Y11041D02*
D03*
Y11167D02*
D03*
Y11146D02*
D03*
Y11209D02*
D03*
Y10978D02*
D03*
X13889Y10999D02*
D03*
Y11125D02*
D03*
Y10957D02*
D03*
Y11062D02*
D03*
Y11083D02*
D03*
Y11188D02*
D03*
Y11104D02*
D03*
Y1102D02*
D03*
Y11041D02*
D03*
Y11167D02*
D03*
Y11146D02*
D03*
Y11209D02*
D03*
Y10978D02*
D03*
X13868Y10999D02*
D03*
Y11125D02*
D03*
Y1123D02*
D03*
Y10957D02*
D03*
Y11062D02*
D03*
Y11083D02*
D03*
Y11188D02*
D03*
Y11104D02*
D03*
Y1102D02*
D03*
Y11041D02*
D03*
Y11167D02*
D03*
Y11146D02*
D03*
Y11209D02*
D03*
Y10978D02*
D03*
X13847Y10999D02*
D03*
Y11125D02*
D03*
Y1123D02*
D03*
Y10957D02*
D03*
Y11062D02*
D03*
Y11083D02*
D03*
Y11188D02*
D03*
Y11104D02*
D03*
Y1102D02*
D03*
Y11041D02*
D03*
Y11167D02*
D03*
Y11146D02*
D03*
Y11209D02*
D03*
Y10978D02*
D03*
X13826Y10999D02*
D03*
Y11125D02*
D03*
Y1123D02*
D03*
Y10957D02*
D03*
Y11062D02*
D03*
Y11083D02*
D03*
Y11188D02*
D03*
Y11104D02*
D03*
Y1102D02*
D03*
Y11041D02*
D03*
Y11167D02*
D03*
Y11146D02*
D03*
Y11209D02*
D03*
Y10978D02*
D03*
X13805Y10999D02*
D03*
Y11125D02*
D03*
Y10957D02*
D03*
Y11062D02*
D03*
Y11083D02*
D03*
Y11188D02*
D03*
Y11104D02*
D03*
Y1102D02*
D03*
Y11041D02*
D03*
Y11167D02*
D03*
Y11146D02*
D03*
Y11209D02*
D03*
Y10978D02*
D03*
X14015Y1123D02*
D03*
X13889D02*
D03*
X13784D02*
D03*
X13931D02*
D03*
X1391D02*
D03*
X13973D02*
D03*
X13805D02*
D03*
X13784Y11209D02*
D03*
Y10978D02*
D03*
Y11041D02*
D03*
Y1102D02*
D03*
Y11146D02*
D03*
Y11167D02*
D03*
Y11083D02*
D03*
Y10999D02*
D03*
Y11104D02*
D03*
Y11125D02*
D03*
Y10957D02*
D03*
Y11062D02*
D03*
Y11188D02*
D03*
X151064Y109137D02*
D03*
X150173Y110028D02*
D03*
X14943Y11077D02*
D03*
X151361Y10884D02*
D03*
X150618Y109582D02*
D03*
X15047Y109731D02*
D03*
X149727Y110473D02*
D03*
X150321Y109879D02*
D03*
X150915Y109285D02*
D03*
X150767Y109434D02*
D03*
X149876Y110325D02*
D03*
X150024Y110176D02*
D03*
X149579Y110622D02*
D03*
X151212Y108988D02*
D03*
X150915Y108988D02*
D03*
X150024Y109879D02*
D03*
X149282Y110622D02*
D03*
X151212Y108692D02*
D03*
X15047Y109434D02*
D03*
X150321Y109582D02*
D03*
X149579Y110325D02*
D03*
X150173Y109731D02*
D03*
X150767Y109137D02*
D03*
X150618Y109285D02*
D03*
X149727Y110176D02*
D03*
X149876Y110028D02*
D03*
X14943Y110473D02*
D03*
X151064Y10884D02*
D03*
X150767D02*
D03*
X149876Y109731D02*
D03*
X149133Y110473D02*
D03*
X151064Y108543D02*
D03*
X150321Y109285D02*
D03*
X150173Y109434D02*
D03*
X14943Y110176D02*
D03*
X150024Y109582D02*
D03*
X150618Y108988D02*
D03*
X15047Y109137D02*
D03*
X149579Y110028D02*
D03*
X149727Y109879D02*
D03*
X149282Y110325D02*
D03*
X150915Y108692D02*
D03*
X150618D02*
D03*
X149727Y109582D02*
D03*
X148985Y110325D02*
D03*
X150915Y108395D02*
D03*
X150173Y109137D02*
D03*
X150024Y109285D02*
D03*
X149282Y110028D02*
D03*
X149876Y109434D02*
D03*
X15047Y10884D02*
D03*
X150321Y108988D02*
D03*
X14943Y109879D02*
D03*
X149579Y109731D02*
D03*
X149133Y110176D02*
D03*
X150767Y108543D02*
D03*
X15047D02*
D03*
X149579Y109434D02*
D03*
X148836Y110176D02*
D03*
X150767Y108246D02*
D03*
X150024Y108988D02*
D03*
X149876Y109137D02*
D03*
X149133Y109879D02*
D03*
X149727Y109285D02*
D03*
X150321Y108692D02*
D03*
X150173Y10884D02*
D03*
X149282Y109731D02*
D03*
X14943Y109582D02*
D03*
X148985Y110028D02*
D03*
X150618Y108395D02*
D03*
X150321Y108395D02*
D03*
X14943Y109285D02*
D03*
X148688Y110028D02*
D03*
X150618Y108098D02*
D03*
X149876Y10884D02*
D03*
X149727Y108988D02*
D03*
X148985Y109731D02*
D03*
X149579Y109137D02*
D03*
X150173Y108543D02*
D03*
X150024Y108692D02*
D03*
X149133Y109582D02*
D03*
X149282Y109434D02*
D03*
X148836Y109879D02*
D03*
X15047Y108246D02*
D03*
X150173D02*
D03*
X149282Y109137D02*
D03*
X148539Y109879D02*
D03*
X15047Y107949D02*
D03*
X149727Y108692D02*
D03*
X149579Y10884D02*
D03*
X148836Y109582D02*
D03*
X14943Y108988D02*
D03*
X150024Y108395D02*
D03*
X149876Y108543D02*
D03*
X148985Y109434D02*
D03*
X149133Y109285D02*
D03*
X148688Y109731D02*
D03*
X150321Y108098D02*
D03*
X150024Y108098D02*
D03*
X149133Y108988D02*
D03*
X148391Y109731D02*
D03*
X150321Y107801D02*
D03*
X149579Y108543D02*
D03*
X14943Y108692D02*
D03*
X148688Y109434D02*
D03*
X149282Y10884D02*
D03*
X149876Y108246D02*
D03*
X149727Y108395D02*
D03*
X148836Y109285D02*
D03*
X148985Y109137D02*
D03*
X148539Y109582D02*
D03*
X150173Y107949D02*
D03*
X149876Y107949D02*
D03*
X148985Y10884D02*
D03*
X148242Y109582D02*
D03*
X150173Y107652D02*
D03*
X14943Y108395D02*
D03*
X149282Y108543D02*
D03*
X148539Y109285D02*
D03*
X149133Y108692D02*
D03*
X149727Y108098D02*
D03*
X149579Y108246D02*
D03*
X148688Y109137D02*
D03*
X148836Y108988D02*
D03*
X148391Y109434D02*
D03*
X150024Y107801D02*
D03*
X149727D02*
D03*
X148836Y108692D02*
D03*
X148094Y109434D02*
D03*
X150024Y107504D02*
D03*
X149282Y108246D02*
D03*
X149133Y108395D02*
D03*
X148391Y109137D02*
D03*
X148985Y108543D02*
D03*
X149579Y107949D02*
D03*
X14943Y108098D02*
D03*
X148539Y108988D02*
D03*
X148688Y10884D02*
D03*
X148242Y109285D02*
D03*
X149876Y107652D02*
D03*
X149579D02*
D03*
X148688Y108543D02*
D03*
X147945Y109285D02*
D03*
X149876Y107355D02*
D03*
X149133Y108098D02*
D03*
X148985Y108246D02*
D03*
X148242Y108988D02*
D03*
X148836Y108395D02*
D03*
X14943Y107801D02*
D03*
X149282Y107949D02*
D03*
X148391Y10884D02*
D03*
X148539Y108692D02*
D03*
X148094Y109137D02*
D03*
X149727Y107504D02*
D03*
X14943D02*
D03*
X148539Y108395D02*
D03*
X147797Y109137D02*
D03*
X149727Y107207D02*
D03*
X148985Y107949D02*
D03*
X148836Y108098D02*
D03*
X148094Y10884D02*
D03*
X148688Y108246D02*
D03*
X149282Y107652D02*
D03*
X149133Y107801D02*
D03*
X148242Y108692D02*
D03*
X148391Y108543D02*
D03*
X147945Y108988D02*
D03*
X149579Y107355D02*
D03*
X149282Y107355D02*
D03*
X148391Y108246D02*
D03*
X147648Y108988D02*
D03*
X149579Y107058D02*
D03*
X148836Y107801D02*
D03*
X148688Y107949D02*
D03*
X147945Y108692D02*
D03*
X148539Y108098D02*
D03*
X149133Y107504D02*
D03*
X148985Y107652D02*
D03*
X148094Y108543D02*
D03*
X148242Y108395D02*
D03*
X147797Y10884D02*
D03*
X14943Y107207D02*
D03*
X149133Y110473D02*
D03*
X148242Y109582D02*
D03*
X1475Y10884D02*
D03*
X14943Y11077D02*
D03*
X148688Y110028D02*
D03*
X148539Y109879D02*
D03*
X147797Y109137D02*
D03*
X148391Y109731D02*
D03*
X148985Y110325D02*
D03*
X148836Y110176D02*
D03*
X147945Y109285D02*
D03*
X148094Y109434D02*
D03*
X147648Y108988D02*
D03*
X149282Y110622D02*
D03*
X147648Y108692D02*
D03*
X149282Y107058D02*
D03*
X148836Y107504D02*
D03*
X148985Y107355D02*
D03*
X148094Y108246D02*
D03*
X147945Y108395D02*
D03*
X148539Y107801D02*
D03*
X149133Y107207D02*
D03*
X148391Y107949D02*
D03*
X148242Y108098D02*
D03*
X1475Y10884D02*
D03*
X14943Y10691D02*
D03*
X148688Y107652D02*
D03*
X147797Y108543D02*
D03*
X148004Y105027D02*
D03*
X147113Y105918D02*
D03*
X14637Y10666D02*
D03*
X148301Y10473D02*
D03*
X147558Y105472D02*
D03*
X14741Y105621D02*
D03*
X146667Y106363D02*
D03*
X147261Y105769D02*
D03*
X147855Y105175D02*
D03*
X147707Y105324D02*
D03*
X146816Y106215D02*
D03*
X146964Y106066D02*
D03*
X146519Y106512D02*
D03*
X148152Y104878D02*
D03*
X147855Y104878D02*
D03*
X146964Y105769D02*
D03*
X146222Y106512D02*
D03*
X148152Y104582D02*
D03*
X14741Y105324D02*
D03*
X147261Y105472D02*
D03*
X146519Y106215D02*
D03*
X147113Y105621D02*
D03*
X147707Y105027D02*
D03*
X147558Y105175D02*
D03*
X146667Y106066D02*
D03*
X146816Y105918D02*
D03*
X14637Y106363D02*
D03*
X148004Y10473D02*
D03*
X147707D02*
D03*
X146816Y105621D02*
D03*
X146073Y106363D02*
D03*
X148004Y104433D02*
D03*
X147261Y105175D02*
D03*
X147113Y105324D02*
D03*
X14637Y106066D02*
D03*
X146964Y105472D02*
D03*
X147558Y104878D02*
D03*
X14741Y105027D02*
D03*
X146519Y105918D02*
D03*
X146667Y105769D02*
D03*
X146222Y106215D02*
D03*
X147855Y104582D02*
D03*
X147558D02*
D03*
X146667Y105472D02*
D03*
X145925Y106215D02*
D03*
X147855Y104285D02*
D03*
X147113Y105027D02*
D03*
X146964Y105175D02*
D03*
X146222Y105918D02*
D03*
X146816Y105324D02*
D03*
X14741Y10473D02*
D03*
X147261Y104878D02*
D03*
X14637Y105769D02*
D03*
X146519Y105621D02*
D03*
X146073Y106066D02*
D03*
X147707Y104433D02*
D03*
X14741D02*
D03*
X146519Y105324D02*
D03*
X145776Y106066D02*
D03*
X147707Y104136D02*
D03*
X146964Y104878D02*
D03*
X146816Y105027D02*
D03*
X146073Y105769D02*
D03*
X146667Y105175D02*
D03*
X147261Y104582D02*
D03*
X147113Y10473D02*
D03*
X146222Y105621D02*
D03*
X14637Y105472D02*
D03*
X145925Y105918D02*
D03*
X147558Y104285D02*
D03*
X147261Y104285D02*
D03*
X14637Y105175D02*
D03*
X145628Y105918D02*
D03*
X147558Y103988D02*
D03*
X146816Y10473D02*
D03*
X146667Y104878D02*
D03*
X145925Y105621D02*
D03*
X146519Y105027D02*
D03*
X147113Y104433D02*
D03*
X146964Y104582D02*
D03*
X146073Y105472D02*
D03*
X146222Y105324D02*
D03*
X145776Y105769D02*
D03*
X14741Y104136D02*
D03*
X147113D02*
D03*
X146222Y105027D02*
D03*
X145479Y105769D02*
D03*
X14741Y103839D02*
D03*
X146667Y104582D02*
D03*
X146519Y10473D02*
D03*
X145776Y105472D02*
D03*
X14637Y104878D02*
D03*
X146964Y104285D02*
D03*
X146816Y104433D02*
D03*
X145925Y105324D02*
D03*
X146073Y105175D02*
D03*
X145628Y105621D02*
D03*
X147261Y103988D02*
D03*
X146964Y103988D02*
D03*
X146073Y104878D02*
D03*
X145331Y105621D02*
D03*
X147261Y103691D02*
D03*
X146519Y104433D02*
D03*
X14637Y104582D02*
D03*
X145628Y105324D02*
D03*
X146222Y10473D02*
D03*
X146816Y104136D02*
D03*
X146667Y104285D02*
D03*
X145776Y105175D02*
D03*
X145925Y105027D02*
D03*
X145479Y105472D02*
D03*
X147113Y103839D02*
D03*
X146816Y103839D02*
D03*
X145925Y10473D02*
D03*
X145182Y105472D02*
D03*
X147113Y103542D02*
D03*
X14637Y104285D02*
D03*
X146222Y104433D02*
D03*
X145479Y105175D02*
D03*
X146073Y104582D02*
D03*
X146667Y103988D02*
D03*
X146519Y104136D02*
D03*
X145628Y105027D02*
D03*
X145776Y104878D02*
D03*
X145331Y105324D02*
D03*
X146964Y103691D02*
D03*
X146667D02*
D03*
X145776Y104582D02*
D03*
X145034Y105324D02*
D03*
X146964Y103394D02*
D03*
X146222Y104136D02*
D03*
X146073Y104285D02*
D03*
X145331Y105027D02*
D03*
X145925Y104433D02*
D03*
X146519Y103839D02*
D03*
X14637Y103988D02*
D03*
X145479Y104878D02*
D03*
X145628Y10473D02*
D03*
X145182Y105175D02*
D03*
X146816Y103542D02*
D03*
X146519D02*
D03*
X145628Y104433D02*
D03*
X144885Y105175D02*
D03*
X146816Y103245D02*
D03*
X146073Y103988D02*
D03*
X145925Y104136D02*
D03*
X145182Y104878D02*
D03*
X145776Y104285D02*
D03*
X14637Y103691D02*
D03*
X146222Y103839D02*
D03*
X145331Y10473D02*
D03*
X145479Y104582D02*
D03*
X145034Y105027D02*
D03*
X146667Y103394D02*
D03*
X14637D02*
D03*
X145479Y104285D02*
D03*
X144737Y105027D02*
D03*
X146667Y103097D02*
D03*
X145925Y103839D02*
D03*
X145776Y103988D02*
D03*
X145034Y10473D02*
D03*
X145628Y104136D02*
D03*
X146222Y103542D02*
D03*
X146073Y103691D02*
D03*
X145182Y104582D02*
D03*
X145331Y104433D02*
D03*
X144885Y104878D02*
D03*
X146519Y103245D02*
D03*
X146222Y103245D02*
D03*
X145331Y104136D02*
D03*
X144588Y104878D02*
D03*
X146519Y102948D02*
D03*
X145776Y103691D02*
D03*
X145628Y103839D02*
D03*
X144885Y104582D02*
D03*
X145479Y103988D02*
D03*
X146073Y103394D02*
D03*
X145925Y103542D02*
D03*
X145034Y104433D02*
D03*
X145182Y104285D02*
D03*
X144737Y10473D02*
D03*
X14637Y103097D02*
D03*
X146073Y106363D02*
D03*
X145182Y105472D02*
D03*
X14444Y10473D02*
D03*
X14637Y10666D02*
D03*
X145628Y105918D02*
D03*
X145479Y105769D02*
D03*
X144737Y105027D02*
D03*
X145331Y105621D02*
D03*
X145925Y106215D02*
D03*
X145776Y106066D02*
D03*
X144885Y105175D02*
D03*
X145034Y105324D02*
D03*
X144588Y104878D02*
D03*
X146222Y106512D02*
D03*
X144588Y104582D02*
D03*
X146222Y102948D02*
D03*
X145776Y103394D02*
D03*
X145925Y103245D02*
D03*
X145034Y104136D02*
D03*
X144885Y104285D02*
D03*
X145479Y103691D02*
D03*
X146073Y103097D02*
D03*
X145331Y103839D02*
D03*
X145182Y103988D02*
D03*
X14444Y10473D02*
D03*
X14637Y1028D02*
D03*
X145628Y103542D02*
D03*
X144737Y104433D02*
D03*
X1306Y09975D02*
D03*
Y10101D02*
D03*
Y10206D02*
D03*
Y09933D02*
D03*
Y10038D02*
D03*
Y10059D02*
D03*
Y10164D02*
D03*
Y1008D02*
D03*
Y09996D02*
D03*
Y10017D02*
D03*
Y10143D02*
D03*
Y10122D02*
D03*
Y10185D02*
D03*
Y09954D02*
D03*
X13039Y09975D02*
D03*
Y10101D02*
D03*
Y10206D02*
D03*
Y09933D02*
D03*
Y10038D02*
D03*
Y10059D02*
D03*
Y10164D02*
D03*
Y1008D02*
D03*
Y09996D02*
D03*
Y10017D02*
D03*
Y10143D02*
D03*
Y10122D02*
D03*
Y10185D02*
D03*
Y09954D02*
D03*
X13018Y09975D02*
D03*
Y10101D02*
D03*
Y10206D02*
D03*
Y09933D02*
D03*
Y10038D02*
D03*
Y10059D02*
D03*
Y10164D02*
D03*
Y1008D02*
D03*
Y09996D02*
D03*
Y10017D02*
D03*
Y10143D02*
D03*
Y10122D02*
D03*
Y10185D02*
D03*
Y09954D02*
D03*
X12997Y09975D02*
D03*
Y10101D02*
D03*
Y10206D02*
D03*
Y09933D02*
D03*
Y10038D02*
D03*
Y10059D02*
D03*
Y10164D02*
D03*
Y1008D02*
D03*
Y09996D02*
D03*
Y10017D02*
D03*
Y10143D02*
D03*
Y10122D02*
D03*
Y10185D02*
D03*
Y09954D02*
D03*
X12976Y09975D02*
D03*
Y10101D02*
D03*
Y10206D02*
D03*
Y09933D02*
D03*
Y10038D02*
D03*
Y10059D02*
D03*
Y10164D02*
D03*
Y1008D02*
D03*
Y09996D02*
D03*
Y10017D02*
D03*
Y10143D02*
D03*
Y10122D02*
D03*
Y10185D02*
D03*
Y09954D02*
D03*
X12955Y09975D02*
D03*
Y10101D02*
D03*
Y10206D02*
D03*
Y09933D02*
D03*
Y10038D02*
D03*
Y10059D02*
D03*
Y10164D02*
D03*
Y1008D02*
D03*
Y09996D02*
D03*
Y10017D02*
D03*
Y10143D02*
D03*
Y10122D02*
D03*
Y10185D02*
D03*
Y09954D02*
D03*
X12934Y09975D02*
D03*
Y10101D02*
D03*
Y10206D02*
D03*
Y09933D02*
D03*
Y10038D02*
D03*
Y10059D02*
D03*
Y10164D02*
D03*
Y1008D02*
D03*
Y09996D02*
D03*
Y10017D02*
D03*
Y10143D02*
D03*
Y10122D02*
D03*
Y10185D02*
D03*
Y09954D02*
D03*
X12913Y09975D02*
D03*
Y10101D02*
D03*
Y10206D02*
D03*
Y09933D02*
D03*
Y10038D02*
D03*
Y10059D02*
D03*
Y10164D02*
D03*
Y1008D02*
D03*
Y09996D02*
D03*
Y10017D02*
D03*
Y10143D02*
D03*
Y10122D02*
D03*
Y10185D02*
D03*
Y09954D02*
D03*
X12892Y09975D02*
D03*
Y10101D02*
D03*
Y10206D02*
D03*
Y09933D02*
D03*
Y10038D02*
D03*
Y10059D02*
D03*
Y10164D02*
D03*
Y1008D02*
D03*
Y09996D02*
D03*
Y10017D02*
D03*
Y10143D02*
D03*
Y10122D02*
D03*
Y10185D02*
D03*
Y09954D02*
D03*
X12871Y09975D02*
D03*
Y10101D02*
D03*
Y10206D02*
D03*
Y09933D02*
D03*
Y10038D02*
D03*
Y10059D02*
D03*
Y10164D02*
D03*
Y1008D02*
D03*
Y09996D02*
D03*
Y10017D02*
D03*
Y10143D02*
D03*
Y10122D02*
D03*
Y10185D02*
D03*
Y09954D02*
D03*
X1285Y09975D02*
D03*
Y10101D02*
D03*
Y10206D02*
D03*
Y09933D02*
D03*
Y10038D02*
D03*
Y10059D02*
D03*
Y10164D02*
D03*
Y1008D02*
D03*
Y09996D02*
D03*
Y10017D02*
D03*
Y10143D02*
D03*
Y10122D02*
D03*
Y10185D02*
D03*
Y09954D02*
D03*
X12829Y09975D02*
D03*
Y10101D02*
D03*
Y10206D02*
D03*
Y09933D02*
D03*
Y10038D02*
D03*
Y10059D02*
D03*
Y10164D02*
D03*
Y1008D02*
D03*
Y09996D02*
D03*
Y10017D02*
D03*
Y10143D02*
D03*
Y10122D02*
D03*
Y10185D02*
D03*
Y09954D02*
D03*
X12808Y09975D02*
D03*
Y10101D02*
D03*
Y10206D02*
D03*
Y09933D02*
D03*
Y10038D02*
D03*
Y10059D02*
D03*
Y10164D02*
D03*
Y1008D02*
D03*
Y09996D02*
D03*
Y10017D02*
D03*
Y10143D02*
D03*
Y10122D02*
D03*
Y10185D02*
D03*
Y09954D02*
D03*
X13018Y10206D02*
D03*
X12892D02*
D03*
X12787D02*
D03*
X1306D02*
D03*
X12955D02*
D03*
X12934D02*
D03*
X12829D02*
D03*
X12913D02*
D03*
X12997D02*
D03*
X12976D02*
D03*
X1285D02*
D03*
X12871D02*
D03*
X12808D02*
D03*
X13039D02*
D03*
X12787Y10185D02*
D03*
Y09954D02*
D03*
Y10017D02*
D03*
Y09996D02*
D03*
Y10122D02*
D03*
Y10143D02*
D03*
Y10059D02*
D03*
Y09975D02*
D03*
Y1008D02*
D03*
Y10101D02*
D03*
Y10206D02*
D03*
Y09933D02*
D03*
Y10038D02*
D03*
Y10164D02*
D03*
X1306Y10248D02*
D03*
Y10374D02*
D03*
Y10479D02*
D03*
Y10206D02*
D03*
Y10311D02*
D03*
Y10332D02*
D03*
Y10437D02*
D03*
Y10353D02*
D03*
Y10269D02*
D03*
Y1029D02*
D03*
Y10416D02*
D03*
Y10395D02*
D03*
Y10458D02*
D03*
Y10227D02*
D03*
X13039Y10248D02*
D03*
Y10374D02*
D03*
Y10479D02*
D03*
Y10206D02*
D03*
Y10311D02*
D03*
Y10332D02*
D03*
Y10437D02*
D03*
Y10353D02*
D03*
Y10269D02*
D03*
Y1029D02*
D03*
Y10416D02*
D03*
Y10395D02*
D03*
Y10458D02*
D03*
Y10227D02*
D03*
X13018Y10248D02*
D03*
Y10374D02*
D03*
Y10479D02*
D03*
Y10206D02*
D03*
Y10311D02*
D03*
Y10332D02*
D03*
Y10437D02*
D03*
Y10353D02*
D03*
Y10269D02*
D03*
Y1029D02*
D03*
Y10416D02*
D03*
Y10395D02*
D03*
Y10458D02*
D03*
Y10227D02*
D03*
X12997Y10248D02*
D03*
Y10374D02*
D03*
Y10479D02*
D03*
Y10206D02*
D03*
Y10311D02*
D03*
Y10332D02*
D03*
Y10437D02*
D03*
Y10353D02*
D03*
Y10269D02*
D03*
Y1029D02*
D03*
Y10416D02*
D03*
Y10395D02*
D03*
Y10458D02*
D03*
Y10227D02*
D03*
X12976Y10248D02*
D03*
Y10374D02*
D03*
Y10479D02*
D03*
Y10206D02*
D03*
Y10311D02*
D03*
Y10332D02*
D03*
Y10437D02*
D03*
Y10353D02*
D03*
Y10269D02*
D03*
Y1029D02*
D03*
Y10416D02*
D03*
Y10395D02*
D03*
Y10458D02*
D03*
Y10227D02*
D03*
X12955Y10248D02*
D03*
Y10374D02*
D03*
Y10479D02*
D03*
Y10206D02*
D03*
Y10311D02*
D03*
Y10332D02*
D03*
Y10437D02*
D03*
Y10353D02*
D03*
Y10269D02*
D03*
Y1029D02*
D03*
Y10416D02*
D03*
Y10395D02*
D03*
Y10458D02*
D03*
Y10227D02*
D03*
X12934Y10248D02*
D03*
Y10374D02*
D03*
Y10479D02*
D03*
Y10206D02*
D03*
Y10311D02*
D03*
Y10332D02*
D03*
Y10437D02*
D03*
Y10353D02*
D03*
Y10269D02*
D03*
Y1029D02*
D03*
Y10416D02*
D03*
Y10395D02*
D03*
Y10458D02*
D03*
Y10227D02*
D03*
X12913Y10248D02*
D03*
Y10374D02*
D03*
Y10479D02*
D03*
Y10206D02*
D03*
Y10311D02*
D03*
Y10332D02*
D03*
Y10437D02*
D03*
Y10353D02*
D03*
Y10269D02*
D03*
Y1029D02*
D03*
Y10416D02*
D03*
Y10395D02*
D03*
Y10458D02*
D03*
Y10227D02*
D03*
X12892Y10248D02*
D03*
Y10374D02*
D03*
Y10479D02*
D03*
Y10206D02*
D03*
Y10311D02*
D03*
Y10332D02*
D03*
Y10437D02*
D03*
Y10353D02*
D03*
Y10269D02*
D03*
Y1029D02*
D03*
Y10416D02*
D03*
Y10395D02*
D03*
Y10458D02*
D03*
Y10227D02*
D03*
X12871Y10248D02*
D03*
Y10374D02*
D03*
Y10479D02*
D03*
Y10206D02*
D03*
Y10311D02*
D03*
Y10332D02*
D03*
Y10437D02*
D03*
Y10353D02*
D03*
Y10269D02*
D03*
Y1029D02*
D03*
Y10416D02*
D03*
Y10395D02*
D03*
Y10458D02*
D03*
Y10227D02*
D03*
X1285Y10248D02*
D03*
Y10374D02*
D03*
Y10479D02*
D03*
Y10206D02*
D03*
Y10311D02*
D03*
Y10332D02*
D03*
Y10437D02*
D03*
Y10353D02*
D03*
Y10269D02*
D03*
Y1029D02*
D03*
Y10416D02*
D03*
Y10395D02*
D03*
Y10458D02*
D03*
Y10227D02*
D03*
X12829Y10248D02*
D03*
Y10374D02*
D03*
Y10479D02*
D03*
Y10206D02*
D03*
Y10311D02*
D03*
Y10332D02*
D03*
Y10437D02*
D03*
Y10353D02*
D03*
Y10269D02*
D03*
Y1029D02*
D03*
Y10416D02*
D03*
Y10395D02*
D03*
Y10458D02*
D03*
Y10227D02*
D03*
X12808Y10248D02*
D03*
Y10374D02*
D03*
Y10479D02*
D03*
Y10206D02*
D03*
Y10311D02*
D03*
Y10332D02*
D03*
Y10437D02*
D03*
Y10353D02*
D03*
Y10269D02*
D03*
Y1029D02*
D03*
Y10416D02*
D03*
Y10395D02*
D03*
Y10458D02*
D03*
Y10227D02*
D03*
X13018Y10479D02*
D03*
X12892D02*
D03*
X12787D02*
D03*
X1306D02*
D03*
X12955D02*
D03*
X12934D02*
D03*
X12829D02*
D03*
X12913D02*
D03*
X12997D02*
D03*
X12976D02*
D03*
X1285D02*
D03*
X12871D02*
D03*
X12808D02*
D03*
X13039D02*
D03*
X12787Y10458D02*
D03*
Y10227D02*
D03*
Y1029D02*
D03*
Y10269D02*
D03*
Y10395D02*
D03*
Y10416D02*
D03*
Y10332D02*
D03*
Y10248D02*
D03*
Y10353D02*
D03*
Y10374D02*
D03*
Y10479D02*
D03*
Y10206D02*
D03*
Y10311D02*
D03*
Y10437D02*
D03*
X12206Y08375D02*
D03*
Y08249D02*
D03*
Y08144D02*
D03*
Y08417D02*
D03*
Y08312D02*
D03*
Y08291D02*
D03*
Y08186D02*
D03*
Y0827D02*
D03*
Y08354D02*
D03*
Y08333D02*
D03*
Y08207D02*
D03*
Y08228D02*
D03*
Y08165D02*
D03*
Y08396D02*
D03*
X12227Y08417D02*
D03*
X12269D02*
D03*
X12248D02*
D03*
X12206D02*
D03*
X12227Y08165D02*
D03*
Y08396D02*
D03*
Y08333D02*
D03*
Y08354D02*
D03*
Y08228D02*
D03*
Y08207D02*
D03*
Y08291D02*
D03*
Y08375D02*
D03*
Y0827D02*
D03*
Y08249D02*
D03*
Y08144D02*
D03*
Y08417D02*
D03*
Y08312D02*
D03*
Y08186D02*
D03*
X12248Y08165D02*
D03*
Y08396D02*
D03*
Y08333D02*
D03*
Y08354D02*
D03*
Y08228D02*
D03*
Y08207D02*
D03*
Y08291D02*
D03*
Y08375D02*
D03*
Y0827D02*
D03*
Y08249D02*
D03*
Y08144D02*
D03*
Y08417D02*
D03*
Y08312D02*
D03*
Y08186D02*
D03*
X12269Y08165D02*
D03*
Y08396D02*
D03*
Y08333D02*
D03*
Y08354D02*
D03*
Y08228D02*
D03*
Y08207D02*
D03*
Y08291D02*
D03*
Y08375D02*
D03*
Y0827D02*
D03*
Y08249D02*
D03*
Y08144D02*
D03*
Y08417D02*
D03*
Y08312D02*
D03*
Y08186D02*
D03*
X12206Y08102D02*
D03*
Y07976D02*
D03*
Y07871D02*
D03*
Y08144D02*
D03*
Y08039D02*
D03*
Y08018D02*
D03*
Y07913D02*
D03*
Y07997D02*
D03*
Y08081D02*
D03*
Y0806D02*
D03*
Y07934D02*
D03*
Y07955D02*
D03*
Y07892D02*
D03*
Y08123D02*
D03*
X12227Y08144D02*
D03*
X12269D02*
D03*
X12248D02*
D03*
X12206D02*
D03*
X12227Y07892D02*
D03*
Y08123D02*
D03*
Y0806D02*
D03*
Y08081D02*
D03*
Y07955D02*
D03*
Y07934D02*
D03*
Y08018D02*
D03*
Y08102D02*
D03*
Y07997D02*
D03*
Y07976D02*
D03*
Y07871D02*
D03*
Y08144D02*
D03*
Y08039D02*
D03*
Y07913D02*
D03*
X12248Y07892D02*
D03*
Y08123D02*
D03*
Y0806D02*
D03*
Y08081D02*
D03*
Y07955D02*
D03*
Y07934D02*
D03*
Y08018D02*
D03*
Y08102D02*
D03*
Y07997D02*
D03*
Y07976D02*
D03*
Y07871D02*
D03*
Y08144D02*
D03*
Y08039D02*
D03*
Y07913D02*
D03*
X12269Y07892D02*
D03*
Y08123D02*
D03*
Y0806D02*
D03*
Y08081D02*
D03*
Y07955D02*
D03*
Y07934D02*
D03*
Y08018D02*
D03*
Y08102D02*
D03*
Y07997D02*
D03*
Y07976D02*
D03*
Y07871D02*
D03*
Y08144D02*
D03*
Y08039D02*
D03*
Y07913D02*
D03*
X12206Y08774D02*
D03*
Y08648D02*
D03*
Y08543D02*
D03*
Y08816D02*
D03*
Y08711D02*
D03*
Y0869D02*
D03*
Y08585D02*
D03*
Y08669D02*
D03*
Y08753D02*
D03*
Y08732D02*
D03*
Y08606D02*
D03*
Y08627D02*
D03*
Y08564D02*
D03*
Y08795D02*
D03*
X12227Y08816D02*
D03*
X12269D02*
D03*
X12248D02*
D03*
X12206D02*
D03*
X12227Y08564D02*
D03*
Y08795D02*
D03*
Y08732D02*
D03*
Y08753D02*
D03*
Y08627D02*
D03*
Y08606D02*
D03*
Y0869D02*
D03*
Y08774D02*
D03*
Y08669D02*
D03*
Y08648D02*
D03*
Y08543D02*
D03*
Y08816D02*
D03*
Y08711D02*
D03*
Y08585D02*
D03*
X12248Y08564D02*
D03*
Y08795D02*
D03*
Y08732D02*
D03*
Y08753D02*
D03*
Y08627D02*
D03*
Y08606D02*
D03*
Y0869D02*
D03*
Y08774D02*
D03*
Y08669D02*
D03*
Y08648D02*
D03*
Y08543D02*
D03*
Y08816D02*
D03*
Y08711D02*
D03*
Y08585D02*
D03*
X12269Y08564D02*
D03*
Y08795D02*
D03*
Y08732D02*
D03*
Y08753D02*
D03*
Y08627D02*
D03*
Y08606D02*
D03*
Y0869D02*
D03*
Y08774D02*
D03*
Y08669D02*
D03*
Y08648D02*
D03*
Y08543D02*
D03*
Y08816D02*
D03*
Y08711D02*
D03*
Y08585D02*
D03*
X12206Y08501D02*
D03*
Y08375D02*
D03*
Y0827D02*
D03*
Y08543D02*
D03*
Y08438D02*
D03*
Y08417D02*
D03*
Y08312D02*
D03*
Y08396D02*
D03*
Y0848D02*
D03*
Y08459D02*
D03*
Y08333D02*
D03*
Y08354D02*
D03*
Y08291D02*
D03*
Y08522D02*
D03*
X12227Y08543D02*
D03*
X12269D02*
D03*
X12248D02*
D03*
X12206D02*
D03*
X12227Y08291D02*
D03*
Y08522D02*
D03*
Y08459D02*
D03*
Y0848D02*
D03*
Y08354D02*
D03*
Y08333D02*
D03*
Y08417D02*
D03*
Y08501D02*
D03*
Y08396D02*
D03*
Y08375D02*
D03*
Y0827D02*
D03*
Y08543D02*
D03*
Y08438D02*
D03*
Y08312D02*
D03*
X12248Y08291D02*
D03*
Y08522D02*
D03*
Y08459D02*
D03*
Y0848D02*
D03*
Y08354D02*
D03*
Y08333D02*
D03*
Y08417D02*
D03*
Y08501D02*
D03*
Y08396D02*
D03*
Y08375D02*
D03*
Y0827D02*
D03*
Y08543D02*
D03*
Y08438D02*
D03*
Y08312D02*
D03*
X12269Y08291D02*
D03*
Y08522D02*
D03*
Y08459D02*
D03*
Y0848D02*
D03*
Y08354D02*
D03*
Y08333D02*
D03*
Y08417D02*
D03*
Y08501D02*
D03*
Y08396D02*
D03*
Y08375D02*
D03*
Y0827D02*
D03*
Y08543D02*
D03*
Y08438D02*
D03*
Y08312D02*
D03*
X124Y09234D02*
D03*
Y0936D02*
D03*
Y09465D02*
D03*
Y09192D02*
D03*
Y09297D02*
D03*
Y09318D02*
D03*
Y09423D02*
D03*
Y09339D02*
D03*
Y09255D02*
D03*
Y09276D02*
D03*
Y09402D02*
D03*
Y09381D02*
D03*
Y09444D02*
D03*
Y09213D02*
D03*
X12379Y09234D02*
D03*
Y0936D02*
D03*
Y09465D02*
D03*
Y09192D02*
D03*
Y09297D02*
D03*
Y09318D02*
D03*
Y09423D02*
D03*
Y09339D02*
D03*
Y09255D02*
D03*
Y09276D02*
D03*
Y09402D02*
D03*
Y09381D02*
D03*
Y09444D02*
D03*
Y09213D02*
D03*
X12358Y09234D02*
D03*
Y0936D02*
D03*
Y09465D02*
D03*
Y09192D02*
D03*
Y09297D02*
D03*
Y09318D02*
D03*
Y09423D02*
D03*
Y09339D02*
D03*
Y09255D02*
D03*
Y09276D02*
D03*
Y09402D02*
D03*
Y09381D02*
D03*
Y09444D02*
D03*
Y09213D02*
D03*
X12337Y09234D02*
D03*
Y0936D02*
D03*
Y09465D02*
D03*
Y09192D02*
D03*
Y09297D02*
D03*
Y09318D02*
D03*
Y09423D02*
D03*
Y09339D02*
D03*
Y09255D02*
D03*
Y09276D02*
D03*
Y09402D02*
D03*
Y09381D02*
D03*
Y09444D02*
D03*
Y09213D02*
D03*
X12316Y09234D02*
D03*
Y0936D02*
D03*
Y09465D02*
D03*
Y09192D02*
D03*
Y09297D02*
D03*
Y09318D02*
D03*
Y09423D02*
D03*
Y09339D02*
D03*
Y09255D02*
D03*
Y09276D02*
D03*
Y09402D02*
D03*
Y09381D02*
D03*
Y09444D02*
D03*
Y09213D02*
D03*
X12295Y09234D02*
D03*
Y0936D02*
D03*
Y09465D02*
D03*
Y09192D02*
D03*
Y09297D02*
D03*
Y09318D02*
D03*
Y09423D02*
D03*
Y09339D02*
D03*
Y09255D02*
D03*
Y09276D02*
D03*
Y09402D02*
D03*
Y09381D02*
D03*
Y09444D02*
D03*
Y09213D02*
D03*
X12274Y09234D02*
D03*
Y0936D02*
D03*
Y09465D02*
D03*
Y09192D02*
D03*
Y09297D02*
D03*
Y09318D02*
D03*
Y09423D02*
D03*
Y09339D02*
D03*
Y09255D02*
D03*
Y09276D02*
D03*
Y09402D02*
D03*
Y09381D02*
D03*
Y09444D02*
D03*
Y09213D02*
D03*
X12253Y09234D02*
D03*
Y0936D02*
D03*
Y09465D02*
D03*
Y09192D02*
D03*
Y09297D02*
D03*
Y09318D02*
D03*
Y09423D02*
D03*
Y09339D02*
D03*
Y09255D02*
D03*
Y09276D02*
D03*
Y09402D02*
D03*
Y09381D02*
D03*
Y09444D02*
D03*
Y09213D02*
D03*
X12337Y09465D02*
D03*
X12232D02*
D03*
X124D02*
D03*
X12379D02*
D03*
X12274D02*
D03*
X12358D02*
D03*
X12295D02*
D03*
X12316D02*
D03*
X12253D02*
D03*
X12232Y09444D02*
D03*
Y09213D02*
D03*
Y09276D02*
D03*
Y09255D02*
D03*
Y09381D02*
D03*
Y09402D02*
D03*
Y09318D02*
D03*
Y09234D02*
D03*
Y09339D02*
D03*
Y0936D02*
D03*
Y09465D02*
D03*
Y09192D02*
D03*
Y09297D02*
D03*
Y09423D02*
D03*
X124Y09507D02*
D03*
Y09633D02*
D03*
Y09738D02*
D03*
Y09465D02*
D03*
Y0957D02*
D03*
Y09591D02*
D03*
Y09696D02*
D03*
Y09612D02*
D03*
Y09528D02*
D03*
Y09549D02*
D03*
Y09675D02*
D03*
Y09654D02*
D03*
Y09717D02*
D03*
Y09486D02*
D03*
X12379Y09507D02*
D03*
Y09633D02*
D03*
Y09738D02*
D03*
Y09465D02*
D03*
Y0957D02*
D03*
Y09591D02*
D03*
Y09696D02*
D03*
Y09612D02*
D03*
Y09528D02*
D03*
Y09549D02*
D03*
Y09675D02*
D03*
Y09654D02*
D03*
Y09717D02*
D03*
Y09486D02*
D03*
X12358Y09507D02*
D03*
Y09633D02*
D03*
Y09738D02*
D03*
Y09465D02*
D03*
Y0957D02*
D03*
Y09591D02*
D03*
Y09696D02*
D03*
Y09612D02*
D03*
Y09528D02*
D03*
Y09549D02*
D03*
Y09675D02*
D03*
Y09654D02*
D03*
Y09717D02*
D03*
Y09486D02*
D03*
X12337Y09507D02*
D03*
Y09633D02*
D03*
Y09738D02*
D03*
Y09465D02*
D03*
Y0957D02*
D03*
Y09591D02*
D03*
Y09696D02*
D03*
Y09612D02*
D03*
Y09528D02*
D03*
Y09549D02*
D03*
Y09675D02*
D03*
Y09654D02*
D03*
Y09717D02*
D03*
Y09486D02*
D03*
X12316Y09507D02*
D03*
Y09633D02*
D03*
Y09738D02*
D03*
Y09465D02*
D03*
Y0957D02*
D03*
Y09591D02*
D03*
Y09696D02*
D03*
Y09612D02*
D03*
Y09528D02*
D03*
Y09549D02*
D03*
Y09675D02*
D03*
Y09654D02*
D03*
Y09717D02*
D03*
Y09486D02*
D03*
X12295Y09507D02*
D03*
Y09633D02*
D03*
Y09738D02*
D03*
Y09465D02*
D03*
Y0957D02*
D03*
Y09591D02*
D03*
Y09696D02*
D03*
Y09612D02*
D03*
Y09528D02*
D03*
Y09549D02*
D03*
Y09675D02*
D03*
Y09654D02*
D03*
Y09717D02*
D03*
Y09486D02*
D03*
X12274Y09507D02*
D03*
Y09633D02*
D03*
Y09738D02*
D03*
Y09465D02*
D03*
Y0957D02*
D03*
Y09591D02*
D03*
Y09696D02*
D03*
Y09612D02*
D03*
Y09528D02*
D03*
Y09549D02*
D03*
Y09675D02*
D03*
Y09654D02*
D03*
Y09717D02*
D03*
Y09486D02*
D03*
X12253Y09507D02*
D03*
Y09633D02*
D03*
Y09738D02*
D03*
Y09465D02*
D03*
Y0957D02*
D03*
Y09591D02*
D03*
Y09696D02*
D03*
Y09612D02*
D03*
Y09528D02*
D03*
Y09549D02*
D03*
Y09675D02*
D03*
Y09654D02*
D03*
Y09717D02*
D03*
Y09486D02*
D03*
X12337Y09738D02*
D03*
X12232D02*
D03*
X124D02*
D03*
X12379D02*
D03*
X12274D02*
D03*
X12358D02*
D03*
X12295D02*
D03*
X12316D02*
D03*
X12253D02*
D03*
X12232Y09717D02*
D03*
Y09486D02*
D03*
Y09549D02*
D03*
Y09528D02*
D03*
Y09654D02*
D03*
Y09675D02*
D03*
Y09591D02*
D03*
Y09507D02*
D03*
Y09612D02*
D03*
Y09633D02*
D03*
Y09738D02*
D03*
Y09465D02*
D03*
Y0957D02*
D03*
Y09696D02*
D03*
X12529Y10037D02*
D03*
Y10163D02*
D03*
Y10268D02*
D03*
Y09995D02*
D03*
Y101D02*
D03*
Y10121D02*
D03*
Y10226D02*
D03*
Y10142D02*
D03*
Y10058D02*
D03*
Y10079D02*
D03*
Y10205D02*
D03*
Y10184D02*
D03*
Y10247D02*
D03*
Y10016D02*
D03*
X12508Y10037D02*
D03*
Y10163D02*
D03*
Y10268D02*
D03*
Y09995D02*
D03*
Y101D02*
D03*
Y10121D02*
D03*
Y10226D02*
D03*
Y10142D02*
D03*
Y10058D02*
D03*
Y10079D02*
D03*
Y10205D02*
D03*
Y10184D02*
D03*
Y10247D02*
D03*
Y10016D02*
D03*
X12487Y10037D02*
D03*
Y10163D02*
D03*
Y10268D02*
D03*
Y09995D02*
D03*
Y101D02*
D03*
Y10121D02*
D03*
Y10226D02*
D03*
Y10142D02*
D03*
Y10058D02*
D03*
Y10079D02*
D03*
Y10205D02*
D03*
Y10184D02*
D03*
Y10247D02*
D03*
Y10016D02*
D03*
X12466Y10037D02*
D03*
Y10163D02*
D03*
Y10268D02*
D03*
Y09995D02*
D03*
Y101D02*
D03*
Y10121D02*
D03*
Y10226D02*
D03*
Y10142D02*
D03*
Y10058D02*
D03*
Y10079D02*
D03*
Y10205D02*
D03*
Y10184D02*
D03*
Y10247D02*
D03*
Y10016D02*
D03*
X12445Y10037D02*
D03*
Y10163D02*
D03*
Y10268D02*
D03*
Y09995D02*
D03*
Y101D02*
D03*
Y10121D02*
D03*
Y10226D02*
D03*
Y10142D02*
D03*
Y10058D02*
D03*
Y10079D02*
D03*
Y10205D02*
D03*
Y10184D02*
D03*
Y10247D02*
D03*
Y10016D02*
D03*
X12424Y10037D02*
D03*
Y10163D02*
D03*
Y10268D02*
D03*
Y09995D02*
D03*
Y101D02*
D03*
Y10121D02*
D03*
Y10226D02*
D03*
Y10142D02*
D03*
Y10058D02*
D03*
Y10079D02*
D03*
Y10205D02*
D03*
Y10184D02*
D03*
Y10247D02*
D03*
Y10016D02*
D03*
X12403Y10037D02*
D03*
Y10163D02*
D03*
Y10268D02*
D03*
Y09995D02*
D03*
Y101D02*
D03*
Y10121D02*
D03*
Y10226D02*
D03*
Y10142D02*
D03*
Y10058D02*
D03*
Y10079D02*
D03*
Y10205D02*
D03*
Y10184D02*
D03*
Y10247D02*
D03*
Y10016D02*
D03*
X12382Y10037D02*
D03*
Y10163D02*
D03*
Y10268D02*
D03*
Y09995D02*
D03*
Y101D02*
D03*
Y10121D02*
D03*
Y10226D02*
D03*
Y10142D02*
D03*
Y10058D02*
D03*
Y10079D02*
D03*
Y10205D02*
D03*
Y10184D02*
D03*
Y10247D02*
D03*
Y10016D02*
D03*
X12466Y10268D02*
D03*
X12361D02*
D03*
X12529D02*
D03*
X12508D02*
D03*
X12403D02*
D03*
X12487D02*
D03*
X12424D02*
D03*
X12445D02*
D03*
X12382D02*
D03*
X12361Y10247D02*
D03*
Y10016D02*
D03*
Y10079D02*
D03*
Y10058D02*
D03*
Y10184D02*
D03*
Y10205D02*
D03*
Y10121D02*
D03*
Y10037D02*
D03*
Y10142D02*
D03*
Y10163D02*
D03*
Y10268D02*
D03*
Y09995D02*
D03*
Y101D02*
D03*
Y10226D02*
D03*
X12415Y10478D02*
D03*
Y10604D02*
D03*
Y10709D02*
D03*
Y10436D02*
D03*
Y10541D02*
D03*
Y10562D02*
D03*
Y10667D02*
D03*
Y10583D02*
D03*
Y10499D02*
D03*
Y1052D02*
D03*
Y10646D02*
D03*
Y10625D02*
D03*
Y10688D02*
D03*
Y10457D02*
D03*
X12394Y10478D02*
D03*
Y10604D02*
D03*
Y10709D02*
D03*
Y10436D02*
D03*
Y10541D02*
D03*
Y10562D02*
D03*
Y10667D02*
D03*
Y10583D02*
D03*
Y10499D02*
D03*
Y1052D02*
D03*
Y10646D02*
D03*
Y10625D02*
D03*
Y10688D02*
D03*
Y10457D02*
D03*
X12373Y10478D02*
D03*
Y10604D02*
D03*
Y10709D02*
D03*
Y10436D02*
D03*
Y10541D02*
D03*
Y10562D02*
D03*
Y10667D02*
D03*
Y10583D02*
D03*
Y10499D02*
D03*
Y1052D02*
D03*
Y10646D02*
D03*
Y10625D02*
D03*
Y10688D02*
D03*
Y10457D02*
D03*
X12352Y10478D02*
D03*
Y10604D02*
D03*
Y10709D02*
D03*
Y10436D02*
D03*
Y10541D02*
D03*
Y10562D02*
D03*
Y10667D02*
D03*
Y10583D02*
D03*
Y10499D02*
D03*
Y1052D02*
D03*
Y10646D02*
D03*
Y10625D02*
D03*
Y10688D02*
D03*
Y10457D02*
D03*
X12331Y10478D02*
D03*
Y10604D02*
D03*
Y10709D02*
D03*
Y10436D02*
D03*
Y10541D02*
D03*
Y10562D02*
D03*
Y10667D02*
D03*
Y10583D02*
D03*
Y10499D02*
D03*
Y1052D02*
D03*
Y10646D02*
D03*
Y10625D02*
D03*
Y10688D02*
D03*
Y10457D02*
D03*
X1231Y10478D02*
D03*
Y10604D02*
D03*
Y10709D02*
D03*
Y10436D02*
D03*
Y10541D02*
D03*
Y10562D02*
D03*
Y10667D02*
D03*
Y10583D02*
D03*
Y10499D02*
D03*
Y1052D02*
D03*
Y10646D02*
D03*
Y10625D02*
D03*
Y10688D02*
D03*
Y10457D02*
D03*
X12289Y10478D02*
D03*
Y10604D02*
D03*
Y10709D02*
D03*
Y10436D02*
D03*
Y10541D02*
D03*
Y10562D02*
D03*
Y10667D02*
D03*
Y10583D02*
D03*
Y10499D02*
D03*
Y1052D02*
D03*
Y10646D02*
D03*
Y10625D02*
D03*
Y10688D02*
D03*
Y10457D02*
D03*
X12268Y10478D02*
D03*
Y10604D02*
D03*
Y10709D02*
D03*
Y10436D02*
D03*
Y10541D02*
D03*
Y10562D02*
D03*
Y10667D02*
D03*
Y10583D02*
D03*
Y10499D02*
D03*
Y1052D02*
D03*
Y10646D02*
D03*
Y10625D02*
D03*
Y10688D02*
D03*
Y10457D02*
D03*
X12352Y10709D02*
D03*
X12247D02*
D03*
X12415D02*
D03*
X12394D02*
D03*
X12289D02*
D03*
X12373D02*
D03*
X1231D02*
D03*
X12331D02*
D03*
X12268D02*
D03*
X12247Y10688D02*
D03*
Y10457D02*
D03*
Y1052D02*
D03*
Y10499D02*
D03*
Y10625D02*
D03*
Y10646D02*
D03*
Y10562D02*
D03*
Y10478D02*
D03*
Y10583D02*
D03*
Y10604D02*
D03*
Y10709D02*
D03*
Y10436D02*
D03*
Y10541D02*
D03*
Y10667D02*
D03*
X13345Y10979D02*
D03*
Y11105D02*
D03*
Y1121D02*
D03*
Y10937D02*
D03*
Y11042D02*
D03*
Y11063D02*
D03*
Y11168D02*
D03*
Y11084D02*
D03*
Y11D02*
D03*
Y11021D02*
D03*
Y11147D02*
D03*
Y11126D02*
D03*
Y11189D02*
D03*
Y10958D02*
D03*
X13324Y10979D02*
D03*
Y11105D02*
D03*
Y1121D02*
D03*
Y10937D02*
D03*
Y11042D02*
D03*
Y11063D02*
D03*
Y11168D02*
D03*
Y11084D02*
D03*
Y11D02*
D03*
Y11021D02*
D03*
Y11147D02*
D03*
Y11126D02*
D03*
Y11189D02*
D03*
Y10958D02*
D03*
X13303Y10979D02*
D03*
Y11105D02*
D03*
Y1121D02*
D03*
Y10937D02*
D03*
Y11042D02*
D03*
Y11063D02*
D03*
Y11168D02*
D03*
Y11084D02*
D03*
Y11D02*
D03*
Y11021D02*
D03*
Y11147D02*
D03*
Y11126D02*
D03*
Y11189D02*
D03*
Y10958D02*
D03*
X13282Y10979D02*
D03*
Y11105D02*
D03*
Y1121D02*
D03*
Y10937D02*
D03*
Y11042D02*
D03*
Y11063D02*
D03*
Y11168D02*
D03*
Y11084D02*
D03*
Y11D02*
D03*
Y11021D02*
D03*
Y11147D02*
D03*
Y11126D02*
D03*
Y11189D02*
D03*
Y10958D02*
D03*
X13261Y10979D02*
D03*
Y11105D02*
D03*
Y1121D02*
D03*
Y10937D02*
D03*
Y11042D02*
D03*
Y11063D02*
D03*
Y11168D02*
D03*
Y11084D02*
D03*
Y11D02*
D03*
Y11021D02*
D03*
Y11147D02*
D03*
Y11126D02*
D03*
Y11189D02*
D03*
Y10958D02*
D03*
X1324Y10979D02*
D03*
Y11105D02*
D03*
Y1121D02*
D03*
Y10937D02*
D03*
Y11042D02*
D03*
Y11063D02*
D03*
Y11168D02*
D03*
Y11084D02*
D03*
Y11D02*
D03*
Y11021D02*
D03*
Y11147D02*
D03*
Y11126D02*
D03*
Y11189D02*
D03*
Y10958D02*
D03*
X13219Y10979D02*
D03*
Y11105D02*
D03*
Y1121D02*
D03*
Y10937D02*
D03*
Y11042D02*
D03*
Y11063D02*
D03*
Y11168D02*
D03*
Y11084D02*
D03*
Y11D02*
D03*
Y11021D02*
D03*
Y11147D02*
D03*
Y11126D02*
D03*
Y11189D02*
D03*
Y10958D02*
D03*
X13198Y10979D02*
D03*
Y11105D02*
D03*
Y1121D02*
D03*
Y10937D02*
D03*
Y11042D02*
D03*
Y11063D02*
D03*
Y11168D02*
D03*
Y11084D02*
D03*
Y11D02*
D03*
Y11021D02*
D03*
Y11147D02*
D03*
Y11126D02*
D03*
Y11189D02*
D03*
Y10958D02*
D03*
X13282Y1121D02*
D03*
X13177D02*
D03*
X13345D02*
D03*
X13324D02*
D03*
X13219D02*
D03*
X13303D02*
D03*
X1324D02*
D03*
X13261D02*
D03*
X13198D02*
D03*
X13177Y11189D02*
D03*
Y10958D02*
D03*
Y11021D02*
D03*
Y11D02*
D03*
Y11126D02*
D03*
Y11147D02*
D03*
Y11063D02*
D03*
Y10979D02*
D03*
Y11084D02*
D03*
Y11105D02*
D03*
Y1121D02*
D03*
Y10937D02*
D03*
Y11042D02*
D03*
Y11168D02*
D03*
X1257D02*
D03*
Y11042D02*
D03*
Y10937D02*
D03*
Y1121D02*
D03*
Y11105D02*
D03*
Y11084D02*
D03*
Y10979D02*
D03*
Y11063D02*
D03*
Y11147D02*
D03*
Y11126D02*
D03*
Y11D02*
D03*
Y11021D02*
D03*
Y10958D02*
D03*
Y11189D02*
D03*
X12822Y1121D02*
D03*
X12591D02*
D03*
X12654D02*
D03*
X12633D02*
D03*
X12759D02*
D03*
X1278D02*
D03*
X12696D02*
D03*
X12612D02*
D03*
X12717D02*
D03*
X12738D02*
D03*
X12843D02*
D03*
X1257D02*
D03*
X12675D02*
D03*
X12801D02*
D03*
X12591Y10958D02*
D03*
Y11189D02*
D03*
Y11126D02*
D03*
Y11147D02*
D03*
Y11021D02*
D03*
Y11D02*
D03*
Y11084D02*
D03*
Y11168D02*
D03*
Y11063D02*
D03*
Y11042D02*
D03*
Y10937D02*
D03*
Y1121D02*
D03*
Y11105D02*
D03*
Y10979D02*
D03*
X12612Y10958D02*
D03*
Y11189D02*
D03*
Y11126D02*
D03*
Y11147D02*
D03*
Y11021D02*
D03*
Y11D02*
D03*
Y11084D02*
D03*
Y11168D02*
D03*
Y11063D02*
D03*
Y11042D02*
D03*
Y10937D02*
D03*
Y1121D02*
D03*
Y11105D02*
D03*
Y10979D02*
D03*
X12633Y10958D02*
D03*
Y11189D02*
D03*
Y11126D02*
D03*
Y11147D02*
D03*
Y11021D02*
D03*
Y11D02*
D03*
Y11084D02*
D03*
Y11168D02*
D03*
Y11063D02*
D03*
Y11042D02*
D03*
Y10937D02*
D03*
Y1121D02*
D03*
Y11105D02*
D03*
Y10979D02*
D03*
X12654Y10958D02*
D03*
Y11189D02*
D03*
Y11126D02*
D03*
Y11147D02*
D03*
Y11021D02*
D03*
Y11D02*
D03*
Y11084D02*
D03*
Y11168D02*
D03*
Y11063D02*
D03*
Y11042D02*
D03*
Y10937D02*
D03*
Y1121D02*
D03*
Y11105D02*
D03*
Y10979D02*
D03*
X12675Y10958D02*
D03*
Y11189D02*
D03*
Y11126D02*
D03*
Y11147D02*
D03*
Y11021D02*
D03*
Y11D02*
D03*
Y11084D02*
D03*
Y11168D02*
D03*
Y11063D02*
D03*
Y11042D02*
D03*
Y10937D02*
D03*
Y1121D02*
D03*
Y11105D02*
D03*
Y10979D02*
D03*
X12696Y10958D02*
D03*
Y11189D02*
D03*
Y11126D02*
D03*
Y11147D02*
D03*
Y11021D02*
D03*
Y11D02*
D03*
Y11084D02*
D03*
Y11168D02*
D03*
Y11063D02*
D03*
Y11042D02*
D03*
Y10937D02*
D03*
Y1121D02*
D03*
Y11105D02*
D03*
Y10979D02*
D03*
X12717Y10958D02*
D03*
Y11189D02*
D03*
Y11126D02*
D03*
Y11147D02*
D03*
Y11021D02*
D03*
Y11D02*
D03*
Y11084D02*
D03*
Y11168D02*
D03*
Y11063D02*
D03*
Y11042D02*
D03*
Y10937D02*
D03*
Y1121D02*
D03*
Y11105D02*
D03*
Y10979D02*
D03*
X12738Y10958D02*
D03*
Y11189D02*
D03*
Y11126D02*
D03*
Y11147D02*
D03*
Y11021D02*
D03*
Y11D02*
D03*
Y11084D02*
D03*
Y11168D02*
D03*
Y11063D02*
D03*
Y11042D02*
D03*
Y10937D02*
D03*
Y1121D02*
D03*
Y11105D02*
D03*
Y10979D02*
D03*
X12759Y10958D02*
D03*
Y11189D02*
D03*
Y11126D02*
D03*
Y11147D02*
D03*
Y11021D02*
D03*
Y11D02*
D03*
Y11084D02*
D03*
Y11168D02*
D03*
Y11063D02*
D03*
Y11042D02*
D03*
Y10937D02*
D03*
Y1121D02*
D03*
Y11105D02*
D03*
Y10979D02*
D03*
X1278Y10958D02*
D03*
Y11189D02*
D03*
Y11126D02*
D03*
Y11147D02*
D03*
Y11021D02*
D03*
Y11D02*
D03*
Y11084D02*
D03*
Y11168D02*
D03*
Y11063D02*
D03*
Y11042D02*
D03*
Y10937D02*
D03*
Y1121D02*
D03*
Y11105D02*
D03*
Y10979D02*
D03*
X12801Y10958D02*
D03*
Y11189D02*
D03*
Y11126D02*
D03*
Y11147D02*
D03*
Y11021D02*
D03*
Y11D02*
D03*
Y11084D02*
D03*
Y11168D02*
D03*
Y11063D02*
D03*
Y11042D02*
D03*
Y10937D02*
D03*
Y1121D02*
D03*
Y11105D02*
D03*
Y10979D02*
D03*
X12822Y10958D02*
D03*
Y11189D02*
D03*
Y11126D02*
D03*
Y11147D02*
D03*
Y11021D02*
D03*
Y11D02*
D03*
Y11084D02*
D03*
Y11168D02*
D03*
Y11063D02*
D03*
Y11042D02*
D03*
Y10937D02*
D03*
Y1121D02*
D03*
Y11105D02*
D03*
Y10979D02*
D03*
X12843Y10958D02*
D03*
Y11189D02*
D03*
Y11126D02*
D03*
Y11147D02*
D03*
Y11021D02*
D03*
Y11D02*
D03*
Y11084D02*
D03*
Y11168D02*
D03*
Y11063D02*
D03*
Y11042D02*
D03*
Y10937D02*
D03*
Y1121D02*
D03*
Y11105D02*
D03*
Y10979D02*
D03*
X147025Y081345D02*
D03*
X14575Y079391D02*
D03*
X139485Y0751D02*
D03*
X13016Y08722D02*
D03*
X13623Y08666D02*
D03*
X13257Y08548D02*
D03*
X13863Y08732D02*
D03*
X13807Y08733D02*
D03*
X13748D02*
D03*
X14025Y0876D02*
D03*
X14055Y09014D02*
D03*
X14086D02*
D03*
X14669Y0914D02*
D03*
X13811Y0925D02*
D03*
X14355Y09459D02*
D03*
X12994Y08923D02*
D03*
X1409Y09063D02*
D03*
X14087Y09094D02*
D03*
X13992Y08732D02*
D03*
Y08569D02*
D03*
X13874Y08958D02*
D03*
X13915Y09121D02*
D03*
X13924Y0915D02*
D03*
X14314Y09549D02*
D03*
X1364Y08941D02*
D03*
X13726Y08993D02*
D03*
X143791Y09305D02*
D03*
X14458Y09346D02*
D03*
X14511Y09454D02*
D03*
X14196Y09354D02*
D03*
X13698Y09556D02*
D03*
X142575Y09504D02*
D03*
X14061Y09159D02*
D03*
X14057Y08695D02*
D03*
X142995Y083921D02*
D03*
X13916Y08733D02*
D03*
X13393Y08979D02*
D03*
X1339Y09013D02*
D03*
X13065Y08806D02*
D03*
X13405Y08736D02*
D03*
X14029Y08632D02*
D03*
X133048Y086682D02*
D03*
X14218Y08604D02*
D03*
X144845Y08395D02*
D03*
X14926Y09632D02*
D03*
X14751Y08611D02*
D03*
X14816Y09581D02*
D03*
X14818Y09428D02*
D03*
X14812Y09482D02*
D03*
X130803Y090565D02*
D03*
X13936Y0937D02*
D03*
X13513Y0939D02*
D03*
X13346Y09305D02*
D03*
X13433Y09207D02*
D03*
X145801Y087676D02*
D03*
X13652Y091D02*
D03*
X13657Y09169D02*
D03*
X13475Y092995D02*
D03*
X13563Y09283D02*
D03*
X13594Y09272D02*
D03*
X131256Y088041D02*
D03*
X1415Y084404D02*
D03*
X14187Y087671D02*
D03*
X1368Y0882D02*
D03*
X137246Y092666D02*
D03*
X13679Y09282D02*
D03*
X13588Y09309D02*
D03*
X13533Y09149D02*
D03*
X134029Y091232D02*
D03*
X13405Y09083D02*
D03*
X1355Y09064D02*
D03*
X13524Y09041D02*
D03*
X14334Y080325D02*
D03*
X13837Y08232D02*
D03*
X13688Y08238D02*
D03*
X14412Y0813D02*
D03*
X14083Y08234D02*
D03*
X14261Y08239D02*
D03*
X138761Y081409D02*
D03*
X13726Y08143D02*
D03*
X12662Y09369D02*
D03*
X12906Y093D02*
D03*
M02*
