G04*
G04 #@! TF.GenerationSoftware,Altium Limited,Altium Designer,21.9.2 (33)*
G04*
G04 Layer_Color=8421504*
%FSTAX24Y24*%
%MOIN*%
G70*
G04*
G04 #@! TF.SameCoordinates,0CAA2080-A4D5-46B4-80B0-B41EDDDAA001*
G04*
G04*
G04 #@! TF.FilePolarity,Positive*
G04*
G01*
G75*
%ADD26R,0.0118X0.0669*%
%ADD27R,0.0669X0.0118*%
%ADD28R,0.0701X0.0283*%
%ADD29R,0.0394X0.0374*%
G04:AMPARAMS|DCode=30|XSize=37.4mil|YSize=35.4mil|CornerRadius=0mil|HoleSize=0mil|Usage=FLASHONLY|Rotation=45.000|XOffset=0mil|YOffset=0mil|HoleType=Round|Shape=Rectangle|*
%AMROTATEDRECTD30*
4,1,4,-0.0007,-0.0258,-0.0258,-0.0007,0.0007,0.0258,0.0258,0.0007,-0.0007,-0.0258,0.0*
%
%ADD30ROTATEDRECTD30*%

%ADD31R,0.0374X0.0394*%
%ADD32R,0.0945X0.0394*%
%ADD33R,0.0945X0.1299*%
%ADD34R,0.0335X0.0472*%
G04:AMPARAMS|DCode=35|XSize=37.4mil|YSize=39.4mil|CornerRadius=0mil|HoleSize=0mil|Usage=FLASHONLY|Rotation=225.000|XOffset=0mil|YOffset=0mil|HoleType=Round|Shape=Rectangle|*
%AMROTATEDRECTD35*
4,1,4,-0.0007,0.0271,0.0271,-0.0007,0.0007,-0.0271,-0.0271,0.0007,-0.0007,0.0271,0.0*
%
%ADD35ROTATEDRECTD35*%

%ADD36R,0.0472X0.0551*%
%ADD37R,0.0446X0.1322*%
%ADD38R,0.4160X0.2827*%
%ADD39R,0.1299X0.1181*%
%ADD40R,0.0984X0.0669*%
%ADD41R,0.0551X0.0472*%
G04:AMPARAMS|DCode=42|XSize=37.4mil|YSize=39.4mil|CornerRadius=0mil|HoleSize=0mil|Usage=FLASHONLY|Rotation=135.000|XOffset=0mil|YOffset=0mil|HoleType=Round|Shape=Rectangle|*
%AMROTATEDRECTD42*
4,1,4,0.0271,0.0007,-0.0007,-0.0271,-0.0271,-0.0007,0.0007,0.0271,0.0271,0.0007,0.0*
%
%ADD42ROTATEDRECTD42*%

G04:AMPARAMS|DCode=43|XSize=37.4mil|YSize=35.4mil|CornerRadius=0mil|HoleSize=0mil|Usage=FLASHONLY|Rotation=315.000|XOffset=0mil|YOffset=0mil|HoleType=Round|Shape=Rectangle|*
%AMROTATEDRECTD43*
4,1,4,-0.0258,0.0007,-0.0007,0.0258,0.0258,-0.0007,0.0007,-0.0258,-0.0258,0.0007,0.0*
%
%ADD43ROTATEDRECTD43*%

G04:AMPARAMS|DCode=44|XSize=47.6mil|YSize=22.8mil|CornerRadius=2.9mil|HoleSize=0mil|Usage=FLASHONLY|Rotation=180.000|XOffset=0mil|YOffset=0mil|HoleType=Round|Shape=RoundedRectangle|*
%AMROUNDEDRECTD44*
21,1,0.0476,0.0171,0,0,180.0*
21,1,0.0419,0.0228,0,0,180.0*
1,1,0.0057,-0.0210,0.0086*
1,1,0.0057,0.0210,0.0086*
1,1,0.0057,0.0210,-0.0086*
1,1,0.0057,-0.0210,-0.0086*
%
%ADD44ROUNDEDRECTD44*%
%ADD45R,0.0531X0.0709*%
%ADD46R,0.0354X0.0374*%
%ADD47R,0.0354X0.0374*%
%ADD48C,0.0600*%
%ADD49O,0.0709X0.0236*%
%ADD50R,0.0551X0.0394*%
G04:AMPARAMS|DCode=51|XSize=46.9mil|YSize=15.7mil|CornerRadius=2mil|HoleSize=0mil|Usage=FLASHONLY|Rotation=270.000|XOffset=0mil|YOffset=0mil|HoleType=Round|Shape=RoundedRectangle|*
%AMROUNDEDRECTD51*
21,1,0.0469,0.0118,0,0,270.0*
21,1,0.0429,0.0157,0,0,270.0*
1,1,0.0039,-0.0059,-0.0215*
1,1,0.0039,-0.0059,0.0215*
1,1,0.0039,0.0059,0.0215*
1,1,0.0039,0.0059,-0.0215*
%
%ADD51ROUNDEDRECTD51*%
%ADD52R,0.0472X0.0315*%
%ADD53R,0.0669X0.0984*%
D26*
X135277Y088882D02*
D03*
X135474D02*
D03*
X135671D02*
D03*
X135868D02*
D03*
X136065D02*
D03*
X136262D02*
D03*
X136458D02*
D03*
X136655Y088882D02*
D03*
X136852Y088882D02*
D03*
X137049D02*
D03*
X137246D02*
D03*
X137443D02*
D03*
Y092219D02*
D03*
X137246D02*
D03*
X137049D02*
D03*
X136852D02*
D03*
X136655Y092219D02*
D03*
X136458Y092219D02*
D03*
X136262D02*
D03*
X136065D02*
D03*
X135868D02*
D03*
X135671D02*
D03*
X135474D02*
D03*
X135277D02*
D03*
D27*
X138029Y089467D02*
D03*
Y089664D02*
D03*
X138028Y089861D02*
D03*
Y090058D02*
D03*
Y090255D02*
D03*
X138029Y090452D02*
D03*
X138028Y090648D02*
D03*
Y090845D02*
D03*
Y091042D02*
D03*
Y091239D02*
D03*
Y091436D02*
D03*
Y091633D02*
D03*
X134691D02*
D03*
Y091436D02*
D03*
Y091239D02*
D03*
Y091042D02*
D03*
Y090845D02*
D03*
Y090648D02*
D03*
X134691Y090452D02*
D03*
X134691Y090255D02*
D03*
Y090058D02*
D03*
Y089861D02*
D03*
X134691Y089664D02*
D03*
Y089467D02*
D03*
D28*
X141949Y09305D02*
D03*
Y09355D02*
D03*
Y09405D02*
D03*
Y09455D02*
D03*
X143791D02*
D03*
Y09405D02*
D03*
Y09355D02*
D03*
Y09305D02*
D03*
X13095Y09251D02*
D03*
Y09301D02*
D03*
Y09351D02*
D03*
Y09401D02*
D03*
X129107Y09401D02*
D03*
Y09351D02*
D03*
Y09301D02*
D03*
Y09251D02*
D03*
D29*
X142575Y09504D02*
D03*
X143165D02*
D03*
X144835Y08339D02*
D03*
X144245D02*
D03*
X13975Y08842D02*
D03*
X139159D02*
D03*
X139095Y083D02*
D03*
X138505Y083D02*
D03*
X126675Y09557D02*
D03*
X126085D02*
D03*
X130245Y08669D02*
D03*
X129655Y08669D02*
D03*
X129655Y08616D02*
D03*
X130245D02*
D03*
X130305Y09455D02*
D03*
X129715D02*
D03*
X132733Y09564D02*
D03*
X132142D02*
D03*
X140255Y09204D02*
D03*
X139665D02*
D03*
X146495Y09559D02*
D03*
X145905D02*
D03*
X141605Y07995D02*
D03*
X141015D02*
D03*
X144195Y08183D02*
D03*
X144785D02*
D03*
X144255Y08395D02*
D03*
X144845D02*
D03*
X143615Y08395D02*
D03*
X143025Y08395D02*
D03*
Y0834D02*
D03*
X143615D02*
D03*
X13975Y08897D02*
D03*
X139159D02*
D03*
X128389Y08914D02*
D03*
X12898D02*
D03*
X128375Y08971D02*
D03*
X128965D02*
D03*
X137045Y08301D02*
D03*
X137635D02*
D03*
X131905Y08616D02*
D03*
X132495D02*
D03*
X131255Y08751D02*
D03*
X130665D02*
D03*
X131265Y08805D02*
D03*
X130675D02*
D03*
X139255Y09559D02*
D03*
X139845D02*
D03*
X139665Y0912D02*
D03*
X140255D02*
D03*
D30*
X139318Y093672D02*
D03*
X138442Y094548D02*
D03*
X126608Y093682D02*
D03*
X125732Y094558D02*
D03*
D31*
X14809Y08614D02*
D03*
Y086731D02*
D03*
X14633Y089797D02*
D03*
Y090387D02*
D03*
X14691Y089805D02*
D03*
Y090395D02*
D03*
X14633Y091541D02*
D03*
Y090951D02*
D03*
X138615Y087415D02*
D03*
Y086825D02*
D03*
X13805Y087415D02*
D03*
Y086825D02*
D03*
X13749Y087435D02*
D03*
Y086845D02*
D03*
X13168Y093471D02*
D03*
Y09288D02*
D03*
X12743Y09338D02*
D03*
Y092789D02*
D03*
X13351Y089639D02*
D03*
Y09023D02*
D03*
X13918Y087415D02*
D03*
Y086825D02*
D03*
X14187Y08708D02*
D03*
X14187Y087671D02*
D03*
X14242Y08708D02*
D03*
X14242Y087671D02*
D03*
X14577Y08708D02*
D03*
Y087671D02*
D03*
X14521Y08708D02*
D03*
Y087671D02*
D03*
X13351Y088485D02*
D03*
Y089075D02*
D03*
X145791Y088638D02*
D03*
X145791Y089229D02*
D03*
X14633Y089223D02*
D03*
Y088633D02*
D03*
X13405Y086815D02*
D03*
Y087405D02*
D03*
X13682Y087435D02*
D03*
X13682Y086845D02*
D03*
X1446Y093445D02*
D03*
Y094035D02*
D03*
X14026Y093825D02*
D03*
Y093235D02*
D03*
X14334Y080915D02*
D03*
Y080325D02*
D03*
X14335Y082055D02*
D03*
X14335Y081465D02*
D03*
X14521Y085605D02*
D03*
Y086195D02*
D03*
X14577Y085605D02*
D03*
X14577Y086195D02*
D03*
Y085045D02*
D03*
Y084455D02*
D03*
X14521Y085045D02*
D03*
X14521Y084455D02*
D03*
X1415Y086135D02*
D03*
Y085545D02*
D03*
Y08499D02*
D03*
Y084399D02*
D03*
X14092Y085585D02*
D03*
Y084995D02*
D03*
X13065Y088785D02*
D03*
Y089375D02*
D03*
X13475Y092995D02*
D03*
Y092405D02*
D03*
X14751Y08613D02*
D03*
X14751Y086721D02*
D03*
X13405Y088485D02*
D03*
Y089075D02*
D03*
D32*
X144902Y088564D02*
D03*
X144902Y08947D02*
D03*
X144902Y090376D02*
D03*
D33*
X142618Y08947D02*
D03*
D34*
X138382Y082392D02*
D03*
X13914Y08239D02*
D03*
X138768Y081408D02*
D03*
X137288D02*
D03*
X13766Y08239D02*
D03*
X136902Y082392D02*
D03*
X144488Y080308D02*
D03*
X14486Y08129D02*
D03*
X144102Y081292D02*
D03*
X142238Y081408D02*
D03*
X14261Y08239D02*
D03*
X141852Y082392D02*
D03*
D35*
X139599Y094411D02*
D03*
X139181Y094829D02*
D03*
X126938Y094372D02*
D03*
X12652Y09479D02*
D03*
D36*
X15071Y100949D02*
D03*
X149962Y100949D02*
D03*
X149962Y103041D02*
D03*
X15071Y103041D02*
D03*
X149962Y104087D02*
D03*
X15071D02*
D03*
X149962Y099903D02*
D03*
X15071Y099903D02*
D03*
X149962Y101995D02*
D03*
X15071Y101995D02*
D03*
D37*
X140143Y079421D02*
D03*
X138143D02*
D03*
D38*
X139143Y075259D02*
D03*
D39*
X12684Y08776D02*
D03*
Y08524D02*
D03*
X12845Y08526D02*
D03*
Y08778D02*
D03*
D40*
X142393Y09216D02*
D03*
X143967D02*
D03*
X130887Y09165D02*
D03*
X129313D02*
D03*
D41*
X128191Y093446D02*
D03*
Y092698D02*
D03*
X140971Y093906D02*
D03*
Y093158D02*
D03*
D42*
X132269Y095009D02*
D03*
X131851Y094591D02*
D03*
X145529Y094969D02*
D03*
X145111Y094551D02*
D03*
D43*
X132172Y094012D02*
D03*
X133048Y094888D02*
D03*
X146308Y094768D02*
D03*
X145432Y093892D02*
D03*
D44*
X14426Y087D02*
D03*
X14426Y087374D02*
D03*
X14426Y087748D02*
D03*
X143272Y087D02*
D03*
Y087748D02*
D03*
D45*
X138561Y08061D02*
D03*
X13988D02*
D03*
D46*
X14067Y08063D02*
D03*
X14191D02*
D03*
D47*
X140844Y082343D02*
D03*
X140096D02*
D03*
X14047Y081359D02*
D03*
D48*
X14575Y079391D02*
D03*
X14311Y07482D02*
D03*
X1441Y07896D02*
D03*
D49*
X142208Y08604D02*
D03*
Y08554D02*
D03*
X142208Y08504D02*
D03*
X142208Y08454D02*
D03*
X144432Y08604D02*
D03*
X144432Y08554D02*
D03*
X144432Y08504D02*
D03*
X144432Y08454D02*
D03*
D50*
X134692Y087573D02*
D03*
X136188D02*
D03*
X134692Y086707D02*
D03*
X136188D02*
D03*
D51*
X131386Y086918D02*
D03*
X13113Y086918D02*
D03*
X130874D02*
D03*
Y086162D02*
D03*
X13113D02*
D03*
X131386Y086162D02*
D03*
D52*
X14013Y08518D02*
D03*
X137374D02*
D03*
D53*
X14199Y077747D02*
D03*
Y076173D02*
D03*
M02*
