G04*
G04 #@! TF.GenerationSoftware,Altium Limited,Altium Designer,21.9.2 (33)*
G04*
G04 Layer_Color=8388736*
%FSTAX24Y24*%
%MOIN*%
G70*
G04*
G04 #@! TF.SameCoordinates,0CAA2080-A4D5-46B4-80B0-B41EDDDAA001*
G04*
G04*
G04 #@! TF.FilePolarity,Negative*
G04*
G01*
G75*
%ADD28R,0.0701X0.0283*%
%ADD47R,0.0354X0.0374*%
%ADD54O,0.0395X0.0867*%
%ADD55R,0.0178X0.0729*%
%ADD56R,0.0729X0.0178*%
%ADD57R,0.0454X0.0434*%
G04:AMPARAMS|DCode=58|XSize=45.4mil|YSize=43.4mil|CornerRadius=0mil|HoleSize=0mil|Usage=FLASHONLY|Rotation=45.000|XOffset=0mil|YOffset=0mil|HoleType=Round|Shape=Rectangle|*
%AMROTATEDRECTD58*
4,1,4,-0.0007,-0.0314,-0.0314,-0.0007,0.0007,0.0314,0.0314,0.0007,-0.0007,-0.0314,0.0*
%
%ADD58ROTATEDRECTD58*%

%ADD59R,0.0434X0.0454*%
%ADD60R,0.1025X0.0474*%
%ADD61R,0.1025X0.1379*%
%ADD62R,0.0415X0.0552*%
G04:AMPARAMS|DCode=63|XSize=43.4mil|YSize=45.4mil|CornerRadius=0mil|HoleSize=0mil|Usage=FLASHONLY|Rotation=225.000|XOffset=0mil|YOffset=0mil|HoleType=Round|Shape=Rectangle|*
%AMROTATEDRECTD63*
4,1,4,-0.0007,0.0314,0.0314,-0.0007,0.0007,-0.0314,-0.0314,0.0007,-0.0007,0.0314,0.0*
%
%ADD63ROTATEDRECTD63*%

%ADD64R,0.0552X0.0631*%
%ADD65C,0.0178*%
%ADD66R,0.0526X0.1402*%
%ADD67R,0.4240X0.2907*%
%ADD68R,0.1379X0.1261*%
%ADD69R,0.1064X0.0749*%
%ADD70R,0.0631X0.0552*%
G04:AMPARAMS|DCode=71|XSize=43.4mil|YSize=45.4mil|CornerRadius=0mil|HoleSize=0mil|Usage=FLASHONLY|Rotation=135.000|XOffset=0mil|YOffset=0mil|HoleType=Round|Shape=Rectangle|*
%AMROTATEDRECTD71*
4,1,4,0.0314,0.0007,-0.0007,-0.0314,-0.0314,-0.0007,0.0007,0.0314,0.0314,0.0007,0.0*
%
%ADD71ROTATEDRECTD71*%

G04:AMPARAMS|DCode=72|XSize=45.4mil|YSize=43.4mil|CornerRadius=0mil|HoleSize=0mil|Usage=FLASHONLY|Rotation=315.000|XOffset=0mil|YOffset=0mil|HoleType=Round|Shape=Rectangle|*
%AMROTATEDRECTD72*
4,1,4,-0.0314,0.0007,-0.0007,0.0314,0.0314,-0.0007,0.0007,-0.0314,-0.0314,0.0007,0.0*
%
%ADD72ROTATEDRECTD72*%

G04:AMPARAMS|DCode=73|XSize=55.7mil|YSize=30.9mil|CornerRadius=6.9mil|HoleSize=0mil|Usage=FLASHONLY|Rotation=180.000|XOffset=0mil|YOffset=0mil|HoleType=Round|Shape=RoundedRectangle|*
%AMROUNDEDRECTD73*
21,1,0.0557,0.0171,0,0,180.0*
21,1,0.0419,0.0309,0,0,180.0*
1,1,0.0137,-0.0210,0.0086*
1,1,0.0137,0.0210,0.0086*
1,1,0.0137,0.0210,-0.0086*
1,1,0.0137,-0.0210,-0.0086*
%
%ADD73ROUNDEDRECTD73*%
%ADD74R,0.0611X0.0789*%
%ADD75R,0.0434X0.0454*%
%ADD76R,0.0434X0.0454*%
%ADD77C,0.0680*%
%ADD78O,0.0789X0.0316*%
%ADD79R,0.0631X0.0474*%
G04:AMPARAMS|DCode=80|XSize=54.9mil|YSize=23.7mil|CornerRadius=6mil|HoleSize=0mil|Usage=FLASHONLY|Rotation=270.000|XOffset=0mil|YOffset=0mil|HoleType=Round|Shape=RoundedRectangle|*
%AMROUNDEDRECTD80*
21,1,0.0549,0.0118,0,0,270.0*
21,1,0.0429,0.0237,0,0,270.0*
1,1,0.0119,-0.0059,-0.0215*
1,1,0.0119,-0.0059,0.0215*
1,1,0.0119,0.0059,0.0215*
1,1,0.0119,0.0059,-0.0215*
%
%ADD80ROUNDEDRECTD80*%
%ADD81R,0.0552X0.0395*%
%ADD82R,0.0749X0.1064*%
%ADD83C,0.0800*%
G04:AMPARAMS|DCode=84|XSize=128mil|YSize=86.7mil|CornerRadius=0mil|HoleSize=0mil|Usage=FLASHONLY|Rotation=333.000|XOffset=0mil|YOffset=0mil|HoleType=Round|Shape=Round|*
%AMOVALD84*
21,1,0.0413,0.0867,0.0000,0.0000,333.0*
1,1,0.0867,-0.0184,0.0094*
1,1,0.0867,0.0184,-0.0094*
%
%ADD84OVALD84*%

G04:AMPARAMS|DCode=85|XSize=128mil|YSize=86.7mil|CornerRadius=0mil|HoleSize=0mil|Usage=FLASHONLY|Rotation=45.000|XOffset=0mil|YOffset=0mil|HoleType=Round|Shape=Round|*
%AMOVALD85*
21,1,0.0413,0.0867,0.0000,0.0000,45.0*
1,1,0.0867,-0.0146,-0.0146*
1,1,0.0867,0.0146,0.0146*
%
%ADD85OVALD85*%

G04:AMPARAMS|DCode=86|XSize=128mil|YSize=86.7mil|CornerRadius=0mil|HoleSize=0mil|Usage=FLASHONLY|Rotation=117.000|XOffset=0mil|YOffset=0mil|HoleType=Round|Shape=Round|*
%AMOVALD86*
21,1,0.0413,0.0867,0.0000,0.0000,117.0*
1,1,0.0867,0.0094,-0.0184*
1,1,0.0867,-0.0094,0.0184*
%
%ADD86OVALD86*%

G04:AMPARAMS|DCode=87|XSize=128mil|YSize=86.7mil|CornerRadius=0mil|HoleSize=0mil|Usage=FLASHONLY|Rotation=261.000|XOffset=0mil|YOffset=0mil|HoleType=Round|Shape=Round|*
%AMOVALD87*
21,1,0.0413,0.0867,0.0000,0.0000,261.0*
1,1,0.0867,0.0032,0.0204*
1,1,0.0867,-0.0032,-0.0204*
%
%ADD87OVALD87*%

G04:AMPARAMS|DCode=88|XSize=128mil|YSize=86.7mil|CornerRadius=0mil|HoleSize=0mil|Usage=FLASHONLY|Rotation=189.000|XOffset=0mil|YOffset=0mil|HoleType=Round|Shape=Round|*
%AMOVALD88*
21,1,0.0413,0.0867,0.0000,0.0000,189.0*
1,1,0.0867,0.0204,0.0032*
1,1,0.0867,-0.0204,-0.0032*
%
%ADD88OVALD88*%

%ADD89C,0.2639*%
%ADD90O,0.2836X0.1655*%
%ADD91C,0.2049*%
%ADD92C,0.0474*%
%ADD93O,0.0880X0.0780*%
%ADD94R,0.0880X0.0780*%
%ADD95C,0.1080*%
%ADD96R,0.0848X0.0848*%
%ADD97R,0.1261X0.1261*%
%ADD98C,0.1261*%
%ADD99C,0.1458*%
%ADD100R,0.1458X0.1458*%
%ADD101R,0.1261X0.1261*%
%ADD102R,0.1580X0.2480*%
%ADD103O,0.1580X0.2480*%
%ADD104R,0.1458X0.1458*%
%ADD105O,0.0880X0.1261*%
%ADD106R,0.0880X0.1261*%
%ADD107O,0.0880X0.1080*%
%ADD108R,0.0880X0.1080*%
%ADD109C,0.0316*%
D28*
X141949Y09305D02*
D03*
Y09355D02*
D03*
Y09405D02*
D03*
Y09455D02*
D03*
X143791D02*
D03*
Y09405D02*
D03*
Y09355D02*
D03*
Y09305D02*
D03*
X13095Y09251D02*
D03*
Y09301D02*
D03*
Y09351D02*
D03*
Y09401D02*
D03*
X129107Y09401D02*
D03*
Y09351D02*
D03*
Y09301D02*
D03*
Y09251D02*
D03*
D47*
X140096Y082343D02*
D03*
D54*
X148326Y09395D02*
D03*
X14872D02*
D03*
D55*
X135277Y088882D02*
D03*
X135474D02*
D03*
X135671D02*
D03*
X135868D02*
D03*
X136065D02*
D03*
X136262D02*
D03*
X136458D02*
D03*
X136655Y088882D02*
D03*
X136852Y088882D02*
D03*
X137049D02*
D03*
X137246D02*
D03*
X137443D02*
D03*
Y092219D02*
D03*
X137246D02*
D03*
X137049D02*
D03*
X136852D02*
D03*
X136655Y092219D02*
D03*
X136458Y092219D02*
D03*
X136262D02*
D03*
X136065D02*
D03*
X135868D02*
D03*
X135671D02*
D03*
X135474D02*
D03*
X135277D02*
D03*
D56*
X138029Y089467D02*
D03*
Y089664D02*
D03*
X138028Y089861D02*
D03*
Y090058D02*
D03*
Y090255D02*
D03*
X138029Y090452D02*
D03*
X138028Y090648D02*
D03*
Y090845D02*
D03*
Y091042D02*
D03*
Y091239D02*
D03*
Y091436D02*
D03*
Y091633D02*
D03*
X134691D02*
D03*
Y091436D02*
D03*
Y091239D02*
D03*
Y091042D02*
D03*
Y090845D02*
D03*
Y090648D02*
D03*
X134691Y090452D02*
D03*
X134691Y090255D02*
D03*
Y090058D02*
D03*
Y089861D02*
D03*
X134691Y089664D02*
D03*
Y089467D02*
D03*
D57*
X142575Y09504D02*
D03*
X143165D02*
D03*
X144835Y08339D02*
D03*
X144245D02*
D03*
X13975Y08842D02*
D03*
X139159D02*
D03*
X139095Y083D02*
D03*
X138505Y083D02*
D03*
X126675Y09557D02*
D03*
X126085D02*
D03*
X130245Y08669D02*
D03*
X129655Y08669D02*
D03*
X129655Y08616D02*
D03*
X130245D02*
D03*
X130305Y09455D02*
D03*
X129715D02*
D03*
X132733Y09564D02*
D03*
X132142D02*
D03*
X140255Y09204D02*
D03*
X139665D02*
D03*
X146495Y09559D02*
D03*
X145905D02*
D03*
X141605Y07995D02*
D03*
X141015D02*
D03*
X144195Y08183D02*
D03*
X144785D02*
D03*
X144255Y08395D02*
D03*
X144845D02*
D03*
X143615Y08395D02*
D03*
X143025Y08395D02*
D03*
Y0834D02*
D03*
X143615D02*
D03*
X13975Y08897D02*
D03*
X139159D02*
D03*
X128389Y08914D02*
D03*
X12898D02*
D03*
X128375Y08971D02*
D03*
X128965D02*
D03*
X137045Y08301D02*
D03*
X137635D02*
D03*
X131905Y08616D02*
D03*
X132495D02*
D03*
X131255Y08751D02*
D03*
X130665D02*
D03*
X131265Y08805D02*
D03*
X130675D02*
D03*
X139255Y09559D02*
D03*
X139845D02*
D03*
X139665Y0912D02*
D03*
X140255D02*
D03*
D58*
X139318Y093672D02*
D03*
X138442Y094548D02*
D03*
X126608Y093682D02*
D03*
X125732Y094558D02*
D03*
D59*
X14809Y08614D02*
D03*
Y086731D02*
D03*
X14633Y089797D02*
D03*
Y090387D02*
D03*
X14691Y089805D02*
D03*
Y090395D02*
D03*
X14633Y091541D02*
D03*
Y090951D02*
D03*
X138615Y087415D02*
D03*
Y086825D02*
D03*
X13805Y087415D02*
D03*
Y086825D02*
D03*
X13749Y087435D02*
D03*
Y086845D02*
D03*
X13168Y093471D02*
D03*
Y09288D02*
D03*
X12743Y09338D02*
D03*
Y092789D02*
D03*
X13351Y089639D02*
D03*
Y09023D02*
D03*
X13918Y087415D02*
D03*
Y086825D02*
D03*
X14187Y08708D02*
D03*
X14187Y087671D02*
D03*
X14242Y08708D02*
D03*
X14242Y087671D02*
D03*
X14577Y08708D02*
D03*
Y087671D02*
D03*
X14521Y08708D02*
D03*
Y087671D02*
D03*
X13351Y088485D02*
D03*
Y089075D02*
D03*
X145791Y088638D02*
D03*
X145791Y089229D02*
D03*
X14633Y089223D02*
D03*
Y088633D02*
D03*
X13405Y086815D02*
D03*
Y087405D02*
D03*
X13682Y087435D02*
D03*
X13682Y086845D02*
D03*
X1446Y093445D02*
D03*
Y094035D02*
D03*
X14026Y093825D02*
D03*
Y093235D02*
D03*
X14334Y080915D02*
D03*
Y080325D02*
D03*
X14335Y082055D02*
D03*
X14335Y081465D02*
D03*
X14521Y085605D02*
D03*
Y086195D02*
D03*
X14577Y085605D02*
D03*
X14577Y086195D02*
D03*
Y085045D02*
D03*
Y084455D02*
D03*
X14521Y085045D02*
D03*
X14521Y084455D02*
D03*
X1415Y086135D02*
D03*
Y085545D02*
D03*
Y08499D02*
D03*
Y084399D02*
D03*
X14092Y085585D02*
D03*
Y084995D02*
D03*
X13065Y088785D02*
D03*
Y089375D02*
D03*
X13475Y092995D02*
D03*
Y092405D02*
D03*
X14751Y08613D02*
D03*
X14751Y086721D02*
D03*
X13405Y088485D02*
D03*
Y089075D02*
D03*
D60*
X144902Y088564D02*
D03*
X144902Y08947D02*
D03*
X144902Y090376D02*
D03*
D61*
X142618Y08947D02*
D03*
D62*
X138382Y082392D02*
D03*
X13914Y08239D02*
D03*
X138768Y081408D02*
D03*
X137288D02*
D03*
X13766Y08239D02*
D03*
X136902Y082392D02*
D03*
X144488Y080308D02*
D03*
X14486Y08129D02*
D03*
X144102Y081292D02*
D03*
X142238Y081408D02*
D03*
X14261Y08239D02*
D03*
X141852Y082392D02*
D03*
D63*
X139599Y094411D02*
D03*
X139181Y094829D02*
D03*
X126938Y094372D02*
D03*
X12652Y09479D02*
D03*
D64*
X15071Y100949D02*
D03*
X149962Y100949D02*
D03*
X149962Y103041D02*
D03*
X15071Y103041D02*
D03*
X149962Y104087D02*
D03*
X15071D02*
D03*
X149962Y099903D02*
D03*
X15071Y099903D02*
D03*
X149962Y101995D02*
D03*
X15071Y101995D02*
D03*
D65*
X12766Y086993D02*
D03*
X12766Y08719D02*
D03*
X12764Y08597D02*
D03*
Y085773D02*
D03*
X14431Y0867D02*
D03*
X144507D02*
D03*
D66*
X140143Y079421D02*
D03*
X138143D02*
D03*
D67*
X139143Y075259D02*
D03*
D68*
X12684Y08776D02*
D03*
Y08524D02*
D03*
X12845Y08526D02*
D03*
Y08778D02*
D03*
D69*
X142393Y09216D02*
D03*
X143967D02*
D03*
X130887Y09165D02*
D03*
X129313D02*
D03*
D70*
X128191Y093446D02*
D03*
Y092698D02*
D03*
X140971Y093906D02*
D03*
Y093158D02*
D03*
D71*
X132269Y095009D02*
D03*
X131851Y094591D02*
D03*
X145529Y094969D02*
D03*
X145111Y094551D02*
D03*
D72*
X132172Y094012D02*
D03*
X133048Y094888D02*
D03*
X146308Y094768D02*
D03*
X145432Y093892D02*
D03*
D73*
X14426Y087D02*
D03*
X14426Y087374D02*
D03*
X14426Y087748D02*
D03*
X143272Y087D02*
D03*
Y087748D02*
D03*
D74*
X138561Y08061D02*
D03*
X13988D02*
D03*
D75*
X14067Y08063D02*
D03*
X14191D02*
D03*
D76*
X140844Y082343D02*
D03*
X14047Y081359D02*
D03*
D77*
X14575Y079391D02*
D03*
X14311Y07482D02*
D03*
X1441Y07896D02*
D03*
D78*
X142208Y08604D02*
D03*
Y08554D02*
D03*
X142208Y08504D02*
D03*
X142208Y08454D02*
D03*
X144432Y08604D02*
D03*
X144432Y08554D02*
D03*
X144432Y08504D02*
D03*
X144432Y08454D02*
D03*
D79*
X134692Y087573D02*
D03*
X136188D02*
D03*
X134692Y086707D02*
D03*
X136188D02*
D03*
D80*
X131386Y086918D02*
D03*
X13113Y086918D02*
D03*
X130874D02*
D03*
Y086162D02*
D03*
X13113D02*
D03*
X131386Y086162D02*
D03*
D81*
X14013Y08518D02*
D03*
X137374D02*
D03*
D82*
X14199Y077747D02*
D03*
Y076173D02*
D03*
D83*
X14619Y077095D02*
X147415D01*
X14798Y07653D01*
Y075D02*
Y07653D01*
X14716Y07418D02*
X14798Y075D01*
X14367Y07418D02*
X14716D01*
X14199Y07586D02*
X14367Y07418D01*
X140057Y076173D02*
X14199D01*
X135782Y079668D02*
X137703Y077747D01*
X14199D01*
X14415D02*
X144743D01*
X14199D02*
X14415D01*
X130782Y08207D02*
Y083668D01*
X12686Y07631D02*
Y081507D01*
X12919Y08526D02*
X130782Y083668D01*
X13347Y07631D02*
Y081727D01*
X135782Y084038D01*
X144743Y077747D02*
X145147Y077344D01*
X12686Y081507D02*
X128712Y083358D01*
D84*
X146378Y075907D02*
D03*
D85*
X14619Y077095D02*
D03*
D86*
X145002Y077284D02*
D03*
D87*
X145306Y075361D02*
D03*
D88*
X144455Y076211D02*
D03*
D89*
X133431Y07631D02*
D03*
X126821D02*
D03*
D90*
X13046Y10613D02*
D03*
Y111506D02*
D03*
D91*
X1506Y07457D02*
D03*
X12286D02*
D03*
Y11151D02*
D03*
X1506D02*
D03*
D92*
X131383Y090595D02*
D03*
X130713Y090595D02*
D03*
D93*
X15082Y07782D02*
D03*
Y07882D02*
D03*
Y07982D02*
D03*
Y08082D02*
D03*
Y08182D02*
D03*
Y08282D02*
D03*
Y08382D02*
D03*
Y08482D02*
D03*
Y08582D02*
D03*
Y08682D02*
D03*
Y08782D02*
D03*
Y08882D02*
D03*
Y08982D02*
D03*
Y09082D02*
D03*
Y09182D02*
D03*
Y09282D02*
D03*
Y09382D02*
D03*
Y09482D02*
D03*
Y09582D02*
D03*
X14982Y07782D02*
D03*
Y07882D02*
D03*
Y07982D02*
D03*
Y08082D02*
D03*
Y08182D02*
D03*
Y08282D02*
D03*
X14982Y08382D02*
D03*
X14982Y08482D02*
D03*
Y08582D02*
D03*
Y08682D02*
D03*
Y08782D02*
D03*
Y08882D02*
D03*
Y08982D02*
D03*
Y09082D02*
D03*
Y09182D02*
D03*
X14982Y09282D02*
D03*
X14982Y09382D02*
D03*
Y09482D02*
D03*
Y09582D02*
D03*
Y09682D02*
D03*
X1325Y08864D02*
D03*
Y08964D02*
D03*
Y09064D02*
D03*
D94*
X15082Y09682D02*
D03*
X1325Y09164D02*
D03*
D95*
X124696Y079422D02*
D03*
Y083358D02*
D03*
X128712D02*
D03*
Y079422D02*
D03*
X135782Y080101D02*
D03*
Y084038D02*
D03*
X131766D02*
D03*
Y080101D02*
D03*
D96*
X123712Y08139D02*
D03*
X130782Y08207D02*
D03*
D97*
X12294Y08605D02*
D03*
D98*
X12494D02*
D03*
X144743Y10851D02*
D03*
D99*
X12549Y09068D02*
D03*
X14003Y10932D02*
D03*
D100*
X12349Y09068D02*
D03*
D101*
X144743Y10651D02*
D03*
D102*
X14695Y1109D02*
D03*
D103*
X14395D02*
D03*
D104*
X14003Y10732D02*
D03*
D105*
X14721Y09675D02*
D03*
X14621D02*
D03*
X1273D02*
D03*
X1263D02*
D03*
D106*
X14521D02*
D03*
X1253D02*
D03*
D107*
X140573D02*
D03*
X139573D02*
D03*
X13246D02*
D03*
X13346D02*
D03*
D108*
X138573D02*
D03*
X13146D02*
D03*
D109*
X14047Y0813D02*
D03*
X12817Y08481D02*
D03*
X12754D02*
D03*
X12775D02*
D03*
X12796D02*
D03*
X12712D02*
D03*
X12733D02*
D03*
Y08502D02*
D03*
X12712D02*
D03*
X12775D02*
D03*
X12796D02*
D03*
X12817D02*
D03*
X12754D02*
D03*
X12733Y08523D02*
D03*
X12712D02*
D03*
X12775D02*
D03*
X12796D02*
D03*
X12817D02*
D03*
X12754D02*
D03*
X12733Y08544D02*
D03*
X12712D02*
D03*
X12775D02*
D03*
X12796D02*
D03*
X12817D02*
D03*
X12754D02*
D03*
X12817D02*
D03*
X1288D02*
D03*
X12859D02*
D03*
X12838D02*
D03*
X12922D02*
D03*
X12901D02*
D03*
Y08523D02*
D03*
X12922D02*
D03*
X12859D02*
D03*
X12838D02*
D03*
X12817D02*
D03*
X1288D02*
D03*
X12901Y08502D02*
D03*
X12922D02*
D03*
X12859D02*
D03*
X12838D02*
D03*
X12817D02*
D03*
X1288D02*
D03*
X12901Y08481D02*
D03*
X12922D02*
D03*
X12859D02*
D03*
X12838D02*
D03*
X12817D02*
D03*
X1288D02*
D03*
X12544Y08838D02*
D03*
Y08775D02*
D03*
Y08796D02*
D03*
Y08733D02*
D03*
Y08754D02*
D03*
X12523D02*
D03*
Y08733D02*
D03*
Y08796D02*
D03*
Y08817D02*
D03*
Y08838D02*
D03*
Y08775D02*
D03*
X12502Y08754D02*
D03*
Y08733D02*
D03*
Y08796D02*
D03*
Y08817D02*
D03*
Y08838D02*
D03*
Y08775D02*
D03*
X12481Y08754D02*
D03*
Y08796D02*
D03*
Y08817D02*
D03*
Y08838D02*
D03*
Y08775D02*
D03*
X12607D02*
D03*
Y08712D02*
D03*
Y08733D02*
D03*
Y08754D02*
D03*
Y0867D02*
D03*
Y08691D02*
D03*
X12586D02*
D03*
Y0867D02*
D03*
Y08733D02*
D03*
Y08754D02*
D03*
Y08775D02*
D03*
Y08712D02*
D03*
X12565Y08691D02*
D03*
Y0867D02*
D03*
Y08733D02*
D03*
Y08754D02*
D03*
Y08775D02*
D03*
Y08712D02*
D03*
X12544Y08691D02*
D03*
Y0867D02*
D03*
Y08733D02*
D03*
Y08712D02*
D03*
X12712Y09048D02*
D03*
Y09027D02*
D03*
Y09006D02*
D03*
Y0909D02*
D03*
Y09069D02*
D03*
X12733D02*
D03*
Y0909D02*
D03*
Y09027D02*
D03*
Y09006D02*
D03*
Y08985D02*
D03*
Y09048D02*
D03*
X12754Y09069D02*
D03*
Y0909D02*
D03*
Y09027D02*
D03*
Y09006D02*
D03*
Y08985D02*
D03*
Y09048D02*
D03*
X12775Y09069D02*
D03*
Y0909D02*
D03*
Y09027D02*
D03*
Y09006D02*
D03*
Y08985D02*
D03*
Y09048D02*
D03*
X12628Y08985D02*
D03*
Y09048D02*
D03*
Y09027D02*
D03*
Y09006D02*
D03*
Y0909D02*
D03*
Y09069D02*
D03*
X12649D02*
D03*
Y0909D02*
D03*
Y09027D02*
D03*
Y09006D02*
D03*
Y08985D02*
D03*
Y09048D02*
D03*
X1267Y09069D02*
D03*
Y0909D02*
D03*
Y09027D02*
D03*
Y09006D02*
D03*
Y08985D02*
D03*
Y09048D02*
D03*
X12691Y09069D02*
D03*
Y0909D02*
D03*
Y09027D02*
D03*
Y09006D02*
D03*
Y09048D02*
D03*
X12523Y08712D02*
D03*
Y08733D02*
D03*
Y08754D02*
D03*
Y0867D02*
D03*
Y08691D02*
D03*
X12502D02*
D03*
Y0867D02*
D03*
Y08733D02*
D03*
Y08754D02*
D03*
Y08775D02*
D03*
Y08712D02*
D03*
X12481Y08691D02*
D03*
Y0867D02*
D03*
Y08733D02*
D03*
Y08754D02*
D03*
Y08775D02*
D03*
Y08712D02*
D03*
X1246Y08691D02*
D03*
Y0867D02*
D03*
Y08733D02*
D03*
Y08754D02*
D03*
Y08775D02*
D03*
Y08712D02*
D03*
X12775Y0888D02*
D03*
Y08817D02*
D03*
Y08838D02*
D03*
Y08859D02*
D03*
Y08775D02*
D03*
Y08796D02*
D03*
X12754D02*
D03*
Y08775D02*
D03*
Y08838D02*
D03*
Y08859D02*
D03*
Y0888D02*
D03*
Y08817D02*
D03*
X12733Y08796D02*
D03*
Y08775D02*
D03*
Y08838D02*
D03*
Y08859D02*
D03*
Y0888D02*
D03*
Y08817D02*
D03*
X12712Y08796D02*
D03*
Y08838D02*
D03*
Y08817D02*
D03*
X12754Y0888D02*
D03*
Y08817D02*
D03*
Y08838D02*
D03*
Y08859D02*
D03*
Y08775D02*
D03*
Y08796D02*
D03*
X12733D02*
D03*
Y08775D02*
D03*
Y08838D02*
D03*
Y08859D02*
D03*
Y0888D02*
D03*
Y08817D02*
D03*
X12712Y08775D02*
D03*
Y08859D02*
D03*
X12691Y08796D02*
D03*
Y08775D02*
D03*
Y08838D02*
D03*
Y08859D02*
D03*
Y0888D02*
D03*
Y08817D02*
D03*
Y08817D02*
D03*
Y08838D02*
D03*
Y08859D02*
D03*
Y08775D02*
D03*
Y08796D02*
D03*
X1267D02*
D03*
Y08775D02*
D03*
Y08838D02*
D03*
Y08859D02*
D03*
Y0888D02*
D03*
Y08817D02*
D03*
X12649Y08796D02*
D03*
Y08775D02*
D03*
Y08838D02*
D03*
Y08859D02*
D03*
Y08817D02*
D03*
X12628Y08796D02*
D03*
Y08775D02*
D03*
Y08838D02*
D03*
Y08859D02*
D03*
Y08817D02*
D03*
X12649Y0888D02*
D03*
Y08817D02*
D03*
Y08838D02*
D03*
Y08859D02*
D03*
Y08775D02*
D03*
Y08796D02*
D03*
X12628D02*
D03*
Y08775D02*
D03*
Y08838D02*
D03*
Y08859D02*
D03*
Y0888D02*
D03*
Y08817D02*
D03*
X12607Y08796D02*
D03*
Y08838D02*
D03*
Y08859D02*
D03*
Y0888D02*
D03*
Y08817D02*
D03*
X12586Y08796D02*
D03*
Y08775D02*
D03*
Y08838D02*
D03*
Y08859D02*
D03*
Y08817D02*
D03*
Y08817D02*
D03*
Y08838D02*
D03*
Y08859D02*
D03*
Y08775D02*
D03*
Y08796D02*
D03*
X12565D02*
D03*
Y08775D02*
D03*
Y08838D02*
D03*
Y08859D02*
D03*
Y0888D02*
D03*
Y08817D02*
D03*
X12544Y08796D02*
D03*
Y08775D02*
D03*
Y08859D02*
D03*
Y0888D02*
D03*
Y08817D02*
D03*
X12523Y08796D02*
D03*
Y08775D02*
D03*
Y08838D02*
D03*
Y08859D02*
D03*
Y0888D02*
D03*
Y08817D02*
D03*
X12712Y0888D02*
D03*
Y08943D02*
D03*
Y08922D02*
D03*
Y08901D02*
D03*
Y08985D02*
D03*
Y08964D02*
D03*
X12733D02*
D03*
Y08985D02*
D03*
Y08922D02*
D03*
Y08901D02*
D03*
Y0888D02*
D03*
Y08943D02*
D03*
X12754Y08964D02*
D03*
Y08985D02*
D03*
Y08922D02*
D03*
Y08901D02*
D03*
Y08943D02*
D03*
X12775Y08964D02*
D03*
Y08985D02*
D03*
Y08922D02*
D03*
Y08901D02*
D03*
Y08943D02*
D03*
X12649Y08922D02*
D03*
Y08901D02*
D03*
Y08985D02*
D03*
Y08964D02*
D03*
X1267D02*
D03*
Y08985D02*
D03*
Y08922D02*
D03*
Y08901D02*
D03*
Y0888D02*
D03*
Y08943D02*
D03*
X12691Y08964D02*
D03*
Y08985D02*
D03*
Y08922D02*
D03*
Y08901D02*
D03*
Y08943D02*
D03*
X12712Y08964D02*
D03*
Y08985D02*
D03*
Y08922D02*
D03*
Y08901D02*
D03*
X12586Y0888D02*
D03*
Y08922D02*
D03*
Y08901D02*
D03*
Y08985D02*
D03*
Y08964D02*
D03*
X12607D02*
D03*
Y08985D02*
D03*
Y08922D02*
D03*
Y08901D02*
D03*
Y0888D02*
D03*
Y08943D02*
D03*
X12628Y08964D02*
D03*
Y08922D02*
D03*
Y08901D02*
D03*
Y0888D02*
D03*
Y08943D02*
D03*
X12649Y08964D02*
D03*
Y08985D02*
D03*
Y08922D02*
D03*
Y08901D02*
D03*
Y08943D02*
D03*
X12523Y08943D02*
D03*
Y08922D02*
D03*
Y08901D02*
D03*
Y08985D02*
D03*
Y08964D02*
D03*
X12544D02*
D03*
Y08985D02*
D03*
Y08922D02*
D03*
Y08901D02*
D03*
Y0888D02*
D03*
Y08943D02*
D03*
X12565Y08964D02*
D03*
Y08985D02*
D03*
Y08922D02*
D03*
Y08901D02*
D03*
Y0888D02*
D03*
Y08943D02*
D03*
X12586Y08964D02*
D03*
Y08985D02*
D03*
Y08922D02*
D03*
Y08901D02*
D03*
Y08943D02*
D03*
X13809Y07975D02*
D03*
Y08038D02*
D03*
Y08017D02*
D03*
Y07996D02*
D03*
Y0808D02*
D03*
Y08059D02*
D03*
X1383D02*
D03*
Y0808D02*
D03*
Y08017D02*
D03*
Y07996D02*
D03*
Y07975D02*
D03*
Y08038D02*
D03*
X13851Y08059D02*
D03*
Y0808D02*
D03*
Y08017D02*
D03*
Y07996D02*
D03*
Y07975D02*
D03*
Y08038D02*
D03*
X13872Y08059D02*
D03*
Y0808D02*
D03*
Y08017D02*
D03*
Y07996D02*
D03*
Y07975D02*
D03*
Y08038D02*
D03*
X13851Y07975D02*
D03*
Y08038D02*
D03*
Y08017D02*
D03*
Y07996D02*
D03*
Y0808D02*
D03*
Y08059D02*
D03*
X13872D02*
D03*
Y0808D02*
D03*
Y08017D02*
D03*
Y07996D02*
D03*
Y07975D02*
D03*
Y08038D02*
D03*
X13893Y08059D02*
D03*
Y0808D02*
D03*
Y08017D02*
D03*
Y07996D02*
D03*
Y07975D02*
D03*
Y08038D02*
D03*
X13914Y08059D02*
D03*
Y0808D02*
D03*
Y08017D02*
D03*
Y07996D02*
D03*
Y07975D02*
D03*
Y08038D02*
D03*
X13851Y07891D02*
D03*
Y07954D02*
D03*
Y07933D02*
D03*
Y07912D02*
D03*
Y07996D02*
D03*
Y07975D02*
D03*
X13872D02*
D03*
Y07996D02*
D03*
Y07933D02*
D03*
Y07912D02*
D03*
Y07891D02*
D03*
Y07954D02*
D03*
X13893Y07975D02*
D03*
Y07996D02*
D03*
Y07933D02*
D03*
Y07912D02*
D03*
Y07891D02*
D03*
Y07954D02*
D03*
X13914Y07975D02*
D03*
Y07996D02*
D03*
Y07933D02*
D03*
Y07912D02*
D03*
Y07891D02*
D03*
Y07954D02*
D03*
X13788Y07891D02*
D03*
Y07954D02*
D03*
Y07933D02*
D03*
Y07912D02*
D03*
Y07996D02*
D03*
Y07975D02*
D03*
X13809D02*
D03*
Y07996D02*
D03*
Y07933D02*
D03*
Y07912D02*
D03*
Y07891D02*
D03*
Y07954D02*
D03*
X1383Y07975D02*
D03*
Y07996D02*
D03*
Y07933D02*
D03*
Y07912D02*
D03*
Y07891D02*
D03*
Y07954D02*
D03*
X13851Y07975D02*
D03*
Y07996D02*
D03*
Y07933D02*
D03*
Y07912D02*
D03*
Y07891D02*
D03*
Y07954D02*
D03*
M02*
