ISO-10303-21;
HEADER;
/* Generated by software containing ST-Developer
 * from STEP Tools, Inc. (www.steptools.com) 
 */
/* OPTION: using custom renumber hook */

FILE_DESCRIPTION(
/* description */ ('STEP AP242',
'CAx-IF Rec.Pracs.---Representation and Presentation of Product Manufa
cturing Information (PMI)---4.0---2014-10-13',
'CAx-IF Rec.Pracs.---3D Tessellated Geometry---0.4---2014-09-14','2;1'),

/* implementation_level */ '2;1');

FILE_NAME(
/* name */ '6821d7dabbf1f474f2ee0dcf',
/* time_stamp */ '2025-05-12T11:13:31Z',
/* author */ (''),
/* organization */ (''),
/* preprocessor_version */ 'ST-DEVELOPER v20',
/* originating_system */ 'ONSHAPE BY PTC INC, 1.197',
/* authorisation */ '  ');

FILE_SCHEMA (('AP242_MANAGED_MODEL_BASED_3D_ENGINEERING_MIM_LF { 1 0 10303 442 1 1 4 }'));
ENDSEC;

DATA;
#10=SHAPE_REPRESENTATION_RELATIONSHIP('','',#808,#11);
#11=ADVANCED_BREP_SHAPE_REPRESENTATION('',(#806),#1384);
#12=CONICAL_SURFACE('',#875,0.0012,0.785398163397448);
#13=CONICAL_SURFACE('',#882,0.0012,0.785398163397448);
#14=B_SPLINE_SURFACE_WITH_KNOTS('',3,1,((#1245,#1246),(#1247,#1248),(#1249,
#1250),(#1251,#1252)),.RULED_SURF.,.F.,.F.,.F.,(4,4),(2,2),(0.0773878617003266,
1.),(0.,1.),.PIECEWISE_BEZIER_KNOTS.);
#15=B_SPLINE_SURFACE_WITH_KNOTS('',1,3,((#1362,#1363,#1364,#1365),(#1366,
#1367,#1368,#1369)),.RULED_SURF.,.F.,.F.,.F.,(2,2),(4,4),(0.,1.),(0.00443554905514811,
0.0196463173212749),.PIECEWISE_BEZIER_KNOTS.);
#16=B_SPLINE_CURVE_WITH_KNOTS('',3,(#1222,#1223,#1224,#1225),
 .UNSPECIFIED.,.F.,.F.,(4,4),(0.,0.00305164413852268),.UNSPECIFIED.);
#17=B_SPLINE_CURVE_WITH_KNOTS('',3,(#1230,#1231,#1232,#1233),
 .UNSPECIFIED.,.F.,.F.,(4,4),(0.,0.00270416345659799),.UNSPECIFIED.);
#18=B_SPLINE_CURVE_WITH_KNOTS('',3,(#1239,#1240,#1241,#1242),
 .UNSPECIFIED.,.F.,.F.,(4,4),(0.,1.),.UNSPECIFIED.);
#19=B_SPLINE_CURVE_WITH_KNOTS('',3,(#1253,#1254,#1255,#1256),
 .UNSPECIFIED.,.F.,.F.,(4,4),(0.,1.),.UNSPECIFIED.);
#20=B_SPLINE_CURVE_WITH_KNOTS('',3,(#1260,#1261,#1262,#1263),
 .UNSPECIFIED.,.F.,.F.,(4,4),(0.,1.),.UNSPECIFIED.);
#21=B_SPLINE_CURVE_WITH_KNOTS('',3,(#1280,#1281,#1282,#1283),
 .UNSPECIFIED.,.F.,.F.,(4,4),(0.,1.),.UNSPECIFIED.);
#22=B_SPLINE_CURVE_WITH_KNOTS('',3,(#1356,#1357,#1358,#1359),
 .UNSPECIFIED.,.F.,.F.,(4,4),(0.,1.),.UNSPECIFIED.);
#23=B_SPLINE_CURVE_WITH_KNOTS('',3,(#1370,#1371,#1372,#1373),
 .UNSPECIFIED.,.F.,.F.,(4,4),(0.,1.),.UNSPECIFIED.);
#24=ELLIPSE('',#828,0.00103077640640442,0.001);
#25=ELLIPSE('',#833,0.00103077640640441,0.001);
#26=ELLIPSE('',#841,0.00353553390593272,0.0025);
#27=ELLIPSE('',#842,0.00353553390593272,0.0025);
#28=ELLIPSE('',#844,0.00257694101601105,0.0025);
#29=ELLIPSE('',#847,0.00257694101601104,0.0025);
#30=ELLIPSE('',#855,0.00353553390593274,0.0025);
#31=ELLIPSE('',#858,0.00353553390593274,0.0025);
#32=ELLIPSE('',#860,0.00353553390593274,0.0025);
#33=ELLIPSE('',#861,0.00353553390593274,0.0025);
#34=CYLINDRICAL_SURFACE('',#817,0.001);
#35=CYLINDRICAL_SURFACE('',#820,0.001);
#36=CYLINDRICAL_SURFACE('',#825,0.001);
#37=CYLINDRICAL_SURFACE('',#831,0.001);
#38=CYLINDRICAL_SURFACE('',#839,0.0025);
#39=CYLINDRICAL_SURFACE('',#854,0.0025);
#40=CYLINDRICAL_SURFACE('',#859,0.0025);
#41=CYLINDRICAL_SURFACE('',#872,0.0005);
#42=CYLINDRICAL_SURFACE('',#873,0.0005);
#43=CIRCLE('',#811,0.0005);
#44=CIRCLE('',#812,0.0005);
#45=CIRCLE('',#814,0.0025);
#46=CIRCLE('',#816,0.0025);
#47=CIRCLE('',#818,0.001);
#48=CIRCLE('',#819,0.001);
#49=CIRCLE('',#821,0.001);
#50=CIRCLE('',#822,0.001);
#51=CIRCLE('',#824,0.001);
#52=CIRCLE('',#826,0.001);
#53=CIRCLE('',#827,0.001);
#54=CIRCLE('',#830,0.0025);
#55=CIRCLE('',#832,0.001);
#56=CIRCLE('',#834,0.001);
#57=CIRCLE('',#835,0.001);
#58=CIRCLE('',#840,0.0025);
#59=CIRCLE('',#843,0.0025);
#60=CIRCLE('',#850,0.0025);
#61=CIRCLE('',#852,0.0012);
#62=CIRCLE('',#853,0.0012);
#63=CIRCLE('',#856,0.0025);
#64=CIRCLE('',#857,0.0025);
#65=CIRCLE('',#869,0.0005);
#66=CIRCLE('',#870,0.0005);
#67=ORIENTED_EDGE('',*,*,#297,.F.);
#68=ORIENTED_EDGE('',*,*,#298,.T.);
#69=ORIENTED_EDGE('',*,*,#299,.T.);
#70=ORIENTED_EDGE('',*,*,#300,.T.);
#71=ORIENTED_EDGE('',*,*,#301,.F.);
#72=ORIENTED_EDGE('',*,*,#302,.F.);
#73=ORIENTED_EDGE('',*,*,#303,.T.);
#74=ORIENTED_EDGE('',*,*,#304,.T.);
#75=ORIENTED_EDGE('',*,*,#305,.F.);
#76=ORIENTED_EDGE('',*,*,#306,.F.);
#77=ORIENTED_EDGE('',*,*,#307,.T.);
#78=ORIENTED_EDGE('',*,*,#308,.T.);
#79=ORIENTED_EDGE('',*,*,#309,.T.);
#80=ORIENTED_EDGE('',*,*,#310,.F.);
#81=ORIENTED_EDGE('',*,*,#311,.F.);
#82=ORIENTED_EDGE('',*,*,#312,.T.);
#83=ORIENTED_EDGE('',*,*,#313,.T.);
#84=ORIENTED_EDGE('',*,*,#314,.F.);
#85=ORIENTED_EDGE('',*,*,#315,.T.);
#86=ORIENTED_EDGE('',*,*,#316,.T.);
#87=ORIENTED_EDGE('',*,*,#317,.F.);
#88=ORIENTED_EDGE('',*,*,#318,.T.);
#89=ORIENTED_EDGE('',*,*,#312,.F.);
#90=ORIENTED_EDGE('',*,*,#319,.F.);
#91=ORIENTED_EDGE('',*,*,#309,.F.);
#92=ORIENTED_EDGE('',*,*,#320,.T.);
#93=ORIENTED_EDGE('',*,*,#321,.F.);
#94=ORIENTED_EDGE('',*,*,#322,.F.);
#95=ORIENTED_EDGE('',*,*,#323,.T.);
#96=ORIENTED_EDGE('',*,*,#324,.T.);
#97=ORIENTED_EDGE('',*,*,#325,.T.);
#98=ORIENTED_EDGE('',*,*,#326,.T.);
#99=ORIENTED_EDGE('',*,*,#327,.F.);
#100=ORIENTED_EDGE('',*,*,#328,.F.);
#101=ORIENTED_EDGE('',*,*,#323,.F.);
#102=ORIENTED_EDGE('',*,*,#324,.F.);
#103=ORIENTED_EDGE('',*,*,#329,.F.);
#104=ORIENTED_EDGE('',*,*,#330,.T.);
#105=ORIENTED_EDGE('',*,*,#331,.T.);
#106=ORIENTED_EDGE('',*,*,#332,.T.);
#107=ORIENTED_EDGE('',*,*,#333,.F.);
#108=ORIENTED_EDGE('',*,*,#334,.F.);
#109=ORIENTED_EDGE('',*,*,#335,.F.);
#110=ORIENTED_EDGE('',*,*,#336,.T.);
#111=ORIENTED_EDGE('',*,*,#337,.F.);
#112=ORIENTED_EDGE('',*,*,#337,.T.);
#113=ORIENTED_EDGE('',*,*,#328,.T.);
#114=ORIENTED_EDGE('',*,*,#338,.T.);
#115=ORIENTED_EDGE('',*,*,#339,.F.);
#116=ORIENTED_EDGE('',*,*,#329,.T.);
#117=ORIENTED_EDGE('',*,*,#340,.T.);
#118=ORIENTED_EDGE('',*,*,#341,.T.);
#119=ORIENTED_EDGE('',*,*,#325,.F.);
#120=ORIENTED_EDGE('',*,*,#331,.F.);
#121=ORIENTED_EDGE('',*,*,#342,.T.);
#122=ORIENTED_EDGE('',*,*,#343,.T.);
#123=ORIENTED_EDGE('',*,*,#344,.T.);
#124=ORIENTED_EDGE('',*,*,#345,.T.);
#125=ORIENTED_EDGE('',*,*,#346,.F.);
#126=ORIENTED_EDGE('',*,*,#340,.F.);
#127=ORIENTED_EDGE('',*,*,#330,.F.);
#128=ORIENTED_EDGE('',*,*,#339,.T.);
#129=ORIENTED_EDGE('',*,*,#347,.T.);
#130=ORIENTED_EDGE('',*,*,#302,.T.);
#131=ORIENTED_EDGE('',*,*,#338,.F.);
#132=ORIENTED_EDGE('',*,*,#327,.T.);
#133=ORIENTED_EDGE('',*,*,#348,.T.);
#134=ORIENTED_EDGE('',*,*,#349,.T.);
#135=ORIENTED_EDGE('',*,*,#303,.F.);
#136=ORIENTED_EDGE('',*,*,#347,.F.);
#137=ORIENTED_EDGE('',*,*,#350,.F.);
#138=ORIENTED_EDGE('',*,*,#351,.T.);
#139=ORIENTED_EDGE('',*,*,#305,.T.);
#140=ORIENTED_EDGE('',*,*,#352,.F.);
#141=ORIENTED_EDGE('',*,*,#353,.F.);
#142=ORIENTED_EDGE('',*,*,#334,.T.);
#143=ORIENTED_EDGE('',*,*,#346,.T.);
#144=ORIENTED_EDGE('',*,*,#354,.T.);
#145=ORIENTED_EDGE('',*,*,#355,.T.);
#146=ORIENTED_EDGE('',*,*,#356,.F.);
#147=ORIENTED_EDGE('',*,*,#348,.F.);
#148=ORIENTED_EDGE('',*,*,#326,.F.);
#149=ORIENTED_EDGE('',*,*,#341,.F.);
#150=ORIENTED_EDGE('',*,*,#356,.T.);
#151=ORIENTED_EDGE('',*,*,#357,.T.);
#152=ORIENTED_EDGE('',*,*,#358,.T.);
#153=ORIENTED_EDGE('',*,*,#352,.T.);
#154=ORIENTED_EDGE('',*,*,#304,.F.);
#155=ORIENTED_EDGE('',*,*,#349,.F.);
#156=ORIENTED_EDGE('',*,*,#358,.F.);
#157=ORIENTED_EDGE('',*,*,#359,.T.);
#158=ORIENTED_EDGE('',*,*,#360,.T.);
#159=ORIENTED_EDGE('',*,*,#361,.T.);
#160=ORIENTED_EDGE('',*,*,#362,.T.);
#161=ORIENTED_EDGE('',*,*,#335,.T.);
#162=ORIENTED_EDGE('',*,*,#353,.T.);
#163=ORIENTED_EDGE('',*,*,#363,.T.);
#164=ORIENTED_EDGE('',*,*,#364,.T.);
#165=ORIENTED_EDGE('',*,*,#365,.T.);
#166=ORIENTED_EDGE('',*,*,#366,.T.);
#167=ORIENTED_EDGE('',*,*,#367,.T.);
#168=ORIENTED_EDGE('',*,*,#368,.T.);
#169=ORIENTED_EDGE('',*,*,#369,.T.);
#170=ORIENTED_EDGE('',*,*,#370,.T.);
#171=ORIENTED_EDGE('',*,*,#371,.T.);
#172=ORIENTED_EDGE('',*,*,#372,.T.);
#173=ORIENTED_EDGE('',*,*,#373,.T.);
#174=ORIENTED_EDGE('',*,*,#374,.T.);
#175=ORIENTED_EDGE('',*,*,#375,.T.);
#176=ORIENTED_EDGE('',*,*,#376,.T.);
#177=ORIENTED_EDGE('',*,*,#377,.T.);
#178=ORIENTED_EDGE('',*,*,#306,.T.);
#179=ORIENTED_EDGE('',*,*,#351,.F.);
#180=ORIENTED_EDGE('',*,*,#378,.T.);
#181=ORIENTED_EDGE('',*,*,#379,.F.);
#182=ORIENTED_EDGE('',*,*,#380,.F.);
#183=ORIENTED_EDGE('',*,*,#361,.F.);
#184=ORIENTED_EDGE('',*,*,#381,.T.);
#185=ORIENTED_EDGE('',*,*,#314,.T.);
#186=ORIENTED_EDGE('',*,*,#382,.T.);
#187=ORIENTED_EDGE('',*,*,#383,.T.);
#188=ORIENTED_EDGE('',*,*,#384,.T.);
#189=ORIENTED_EDGE('',*,*,#307,.F.);
#190=ORIENTED_EDGE('',*,*,#385,.T.);
#191=ORIENTED_EDGE('',*,*,#378,.F.);
#192=ORIENTED_EDGE('',*,*,#350,.T.);
#193=ORIENTED_EDGE('',*,*,#333,.T.);
#194=ORIENTED_EDGE('',*,*,#386,.T.);
#195=ORIENTED_EDGE('',*,*,#362,.F.);
#196=ORIENTED_EDGE('',*,*,#380,.T.);
#197=ORIENTED_EDGE('',*,*,#387,.F.);
#198=ORIENTED_EDGE('',*,*,#336,.F.);
#199=ORIENTED_EDGE('',*,*,#332,.F.);
#200=ORIENTED_EDGE('',*,*,#387,.T.);
#201=ORIENTED_EDGE('',*,*,#379,.T.);
#202=ORIENTED_EDGE('',*,*,#386,.F.);
#203=ORIENTED_EDGE('',*,*,#377,.F.);
#204=ORIENTED_EDGE('',*,*,#388,.T.);
#205=ORIENTED_EDGE('',*,*,#317,.T.);
#206=ORIENTED_EDGE('',*,*,#389,.F.);
#207=ORIENTED_EDGE('',*,*,#390,.T.);
#208=ORIENTED_EDGE('',*,*,#297,.T.);
#209=ORIENTED_EDGE('',*,*,#321,.T.);
#210=ORIENTED_EDGE('',*,*,#391,.T.);
#211=ORIENTED_EDGE('',*,*,#342,.F.);
#212=ORIENTED_EDGE('',*,*,#301,.T.);
#213=ORIENTED_EDGE('',*,*,#392,.T.);
#214=ORIENTED_EDGE('',*,*,#393,.F.);
#215=ORIENTED_EDGE('',*,*,#311,.T.);
#216=ORIENTED_EDGE('',*,*,#394,.T.);
#217=ORIENTED_EDGE('',*,*,#315,.F.);
#218=ORIENTED_EDGE('',*,*,#385,.F.);
#219=ORIENTED_EDGE('',*,*,#395,.F.);
#220=ORIENTED_EDGE('',*,*,#396,.T.);
#221=ORIENTED_EDGE('',*,*,#389,.T.);
#222=ORIENTED_EDGE('',*,*,#319,.T.);
#223=ORIENTED_EDGE('',*,*,#316,.F.);
#224=ORIENTED_EDGE('',*,*,#394,.F.);
#225=ORIENTED_EDGE('',*,*,#310,.T.);
#226=ORIENTED_EDGE('',*,*,#322,.T.);
#227=ORIENTED_EDGE('',*,*,#393,.T.);
#228=ORIENTED_EDGE('',*,*,#397,.T.);
#229=ORIENTED_EDGE('',*,*,#299,.F.);
#230=ORIENTED_EDGE('',*,*,#398,.T.);
#231=ORIENTED_EDGE('',*,*,#395,.T.);
#232=ORIENTED_EDGE('',*,*,#399,.T.);
#233=ORIENTED_EDGE('',*,*,#396,.F.);
#234=ORIENTED_EDGE('',*,*,#398,.F.);
#235=ORIENTED_EDGE('',*,*,#298,.F.);
#236=ORIENTED_EDGE('',*,*,#390,.F.);
#237=ORIENTED_EDGE('',*,*,#397,.F.);
#238=ORIENTED_EDGE('',*,*,#392,.F.);
#239=ORIENTED_EDGE('',*,*,#300,.F.);
#240=ORIENTED_EDGE('',*,*,#399,.F.);
#241=ORIENTED_EDGE('',*,*,#343,.F.);
#242=ORIENTED_EDGE('',*,*,#391,.F.);
#243=ORIENTED_EDGE('',*,*,#400,.F.);
#244=ORIENTED_EDGE('',*,*,#370,.F.);
#245=ORIENTED_EDGE('',*,*,#401,.F.);
#246=ORIENTED_EDGE('',*,*,#400,.T.);
#247=ORIENTED_EDGE('',*,*,#320,.F.);
#248=ORIENTED_EDGE('',*,*,#402,.F.);
#249=ORIENTED_EDGE('',*,*,#371,.F.);
#250=ORIENTED_EDGE('',*,*,#401,.T.);
#251=ORIENTED_EDGE('',*,*,#369,.F.);
#252=ORIENTED_EDGE('',*,*,#403,.F.);
#253=ORIENTED_EDGE('',*,*,#344,.F.);
#254=ORIENTED_EDGE('',*,*,#308,.F.);
#255=ORIENTED_EDGE('',*,*,#384,.F.);
#256=ORIENTED_EDGE('',*,*,#404,.F.);
#257=ORIENTED_EDGE('',*,*,#372,.F.);
#258=ORIENTED_EDGE('',*,*,#402,.T.);
#259=ORIENTED_EDGE('',*,*,#403,.T.);
#260=ORIENTED_EDGE('',*,*,#368,.F.);
#261=ORIENTED_EDGE('',*,*,#405,.F.);
#262=ORIENTED_EDGE('',*,*,#354,.F.);
#263=ORIENTED_EDGE('',*,*,#345,.F.);
#264=ORIENTED_EDGE('',*,*,#404,.T.);
#265=ORIENTED_EDGE('',*,*,#383,.F.);
#266=ORIENTED_EDGE('',*,*,#406,.F.);
#267=ORIENTED_EDGE('',*,*,#373,.F.);
#268=ORIENTED_EDGE('',*,*,#405,.T.);
#269=ORIENTED_EDGE('',*,*,#367,.F.);
#270=ORIENTED_EDGE('',*,*,#407,.F.);
#271=ORIENTED_EDGE('',*,*,#359,.F.);
#272=ORIENTED_EDGE('',*,*,#357,.F.);
#273=ORIENTED_EDGE('',*,*,#355,.F.);
#274=ORIENTED_EDGE('',*,*,#382,.F.);
#275=ORIENTED_EDGE('',*,*,#313,.F.);
#276=ORIENTED_EDGE('',*,*,#408,.F.);
#277=ORIENTED_EDGE('',*,*,#374,.F.);
#278=ORIENTED_EDGE('',*,*,#406,.T.);
#279=ORIENTED_EDGE('',*,*,#407,.T.);
#280=ORIENTED_EDGE('',*,*,#366,.F.);
#281=ORIENTED_EDGE('',*,*,#409,.F.);
#282=ORIENTED_EDGE('',*,*,#381,.F.);
#283=ORIENTED_EDGE('',*,*,#360,.F.);
#284=ORIENTED_EDGE('',*,*,#408,.T.);
#285=ORIENTED_EDGE('',*,*,#318,.F.);
#286=ORIENTED_EDGE('',*,*,#410,.F.);
#287=ORIENTED_EDGE('',*,*,#363,.F.);
#288=ORIENTED_EDGE('',*,*,#409,.T.);
#289=ORIENTED_EDGE('',*,*,#365,.F.);
#290=ORIENTED_EDGE('',*,*,#411,.F.);
#291=ORIENTED_EDGE('',*,*,#375,.F.);
#292=ORIENTED_EDGE('',*,*,#410,.T.);
#293=ORIENTED_EDGE('',*,*,#388,.F.);
#294=ORIENTED_EDGE('',*,*,#376,.F.);
#295=ORIENTED_EDGE('',*,*,#411,.T.);
#296=ORIENTED_EDGE('',*,*,#364,.F.);
#297=EDGE_CURVE('',#412,#413,#488,.T.);
#298=EDGE_CURVE('',#412,#414,#43,.T.);
#299=EDGE_CURVE('',#414,#415,#489,.T.);
#300=EDGE_CURVE('',#415,#416,#44,.T.);
#301=EDGE_CURVE('',#417,#416,#490,.T.);
#302=EDGE_CURVE('',#418,#417,#491,.T.);
#303=EDGE_CURVE('',#418,#419,#492,.T.);
#304=EDGE_CURVE('',#419,#420,#493,.T.);
#305=EDGE_CURVE('',#421,#420,#494,.T.);
#306=EDGE_CURVE('',#413,#421,#495,.T.);
#307=EDGE_CURVE('',#422,#423,#45,.F.);
#308=EDGE_CURVE('',#423,#424,#496,.T.);
#309=EDGE_CURVE('',#424,#425,#497,.F.);
#310=EDGE_CURVE('',#426,#425,#498,.T.);
#311=EDGE_CURVE('',#422,#426,#499,.T.);
#312=EDGE_CURVE('',#427,#428,#500,.T.);
#313=EDGE_CURVE('',#428,#429,#501,.T.);
#314=EDGE_CURVE('',#430,#429,#46,.F.);
#315=EDGE_CURVE('',#430,#431,#502,.T.);
#316=EDGE_CURVE('',#431,#427,#503,.T.);
#317=EDGE_CURVE('',#432,#433,#504,.F.);
#318=EDGE_CURVE('',#432,#428,#47,.T.);
#319=EDGE_CURVE('',#433,#427,#48,.F.);
#320=EDGE_CURVE('',#424,#434,#49,.T.);
#321=EDGE_CURVE('',#435,#434,#505,.T.);
#322=EDGE_CURVE('',#425,#435,#50,.F.);
#323=EDGE_CURVE('',#436,#436,#51,.T.);
#324=EDGE_CURVE('',#437,#438,#52,.T.);
#325=EDGE_CURVE('',#438,#439,#506,.T.);
#326=EDGE_CURVE('',#439,#440,#53,.T.);
#327=EDGE_CURVE('',#441,#440,#24,.T.);
#328=EDGE_CURVE('',#437,#441,#507,.T.);
#329=EDGE_CURVE('',#442,#437,#508,.T.);
#330=EDGE_CURVE('',#442,#443,#54,.T.);
#331=EDGE_CURVE('',#443,#438,#509,.T.);
#332=EDGE_CURVE('',#444,#445,#55,.T.);
#333=EDGE_CURVE('',#446,#445,#510,.T.);
#334=EDGE_CURVE('',#447,#446,#25,.F.);
#335=EDGE_CURVE('',#448,#447,#56,.F.);
#336=EDGE_CURVE('',#448,#444,#511,.T.);
#337=EDGE_CURVE('',#449,#449,#57,.T.);
#338=EDGE_CURVE('',#441,#450,#512,.T.);
#339=EDGE_CURVE('',#442,#450,#513,.T.);
#340=EDGE_CURVE('',#443,#451,#514,.T.);
#341=EDGE_CURVE('',#451,#439,#515,.T.);
#342=EDGE_CURVE('',#417,#452,#58,.F.);
#343=EDGE_CURVE('',#452,#453,#26,.T.);
#344=EDGE_CURVE('',#453,#454,#516,.F.);
#345=EDGE_CURVE('',#454,#455,#27,.T.);
#346=EDGE_CURVE('',#451,#455,#59,.T.);
#347=EDGE_CURVE('',#450,#418,#28,.T.);
#348=EDGE_CURVE('',#440,#456,#517,.T.);
#349=EDGE_CURVE('',#456,#419,#16,.T.);
#350=EDGE_CURVE('',#457,#446,#518,.T.);
#351=EDGE_CURVE('',#457,#421,#29,.T.);
#352=EDGE_CURVE('',#458,#420,#17,.T.);
#353=EDGE_CURVE('',#447,#458,#519,.T.);
#354=EDGE_CURVE('',#455,#459,#520,.T.);
#355=EDGE_CURVE('',#459,#460,#18,.T.);
#356=EDGE_CURVE('',#456,#460,#521,.T.);
#357=EDGE_CURVE('',#460,#461,#19,.T.);
#358=EDGE_CURVE('',#461,#458,#522,.F.);
#359=EDGE_CURVE('',#461,#462,#20,.T.);
#360=EDGE_CURVE('',#462,#463,#523,.T.);
#361=EDGE_CURVE('',#463,#464,#60,.T.);
#362=EDGE_CURVE('',#464,#448,#524,.T.);
#363=EDGE_CURVE('',#465,#466,#61,.F.);
#364=EDGE_CURVE('',#466,#467,#525,.T.);
#365=EDGE_CURVE('',#467,#468,#526,.T.);
#366=EDGE_CURVE('',#468,#469,#527,.T.);
#367=EDGE_CURVE('',#469,#470,#21,.T.);
#368=EDGE_CURVE('',#470,#471,#528,.T.);
#369=EDGE_CURVE('',#471,#472,#529,.T.);
#370=EDGE_CURVE('',#472,#473,#530,.T.);
#371=EDGE_CURVE('',#473,#474,#62,.F.);
#372=EDGE_CURVE('',#474,#475,#531,.T.);
#373=EDGE_CURVE('',#475,#476,#532,.T.);
#374=EDGE_CURVE('',#476,#465,#533,.T.);
#375=EDGE_CURVE('',#477,#478,#534,.F.);
#376=EDGE_CURVE('',#478,#479,#30,.T.);
#377=EDGE_CURVE('',#479,#413,#63,.F.);
#378=EDGE_CURVE('',#457,#480,#535,.T.);
#379=EDGE_CURVE('',#481,#480,#64,.T.);
#380=EDGE_CURVE('',#464,#481,#536,.T.);
#381=EDGE_CURVE('',#463,#477,#31,.T.);
#382=EDGE_CURVE('',#429,#482,#32,.T.);
#383=EDGE_CURVE('',#482,#483,#537,.F.);
#384=EDGE_CURVE('',#483,#423,#33,.F.);
#385=EDGE_CURVE('',#422,#430,#538,.T.);
#386=EDGE_CURVE('',#445,#480,#539,.T.);
#387=EDGE_CURVE('',#444,#481,#540,.T.);
#388=EDGE_CURVE('',#479,#432,#541,.T.);
#389=EDGE_CURVE('',#484,#433,#542,.T.);
#390=EDGE_CURVE('',#484,#412,#543,.T.);
#391=EDGE_CURVE('',#434,#452,#544,.T.);
#392=EDGE_CURVE('',#416,#485,#545,.F.);
#393=EDGE_CURVE('',#435,#485,#546,.T.);
#394=EDGE_CURVE('',#426,#431,#547,.T.);
#395=EDGE_CURVE('',#486,#487,#548,.T.);
#396=EDGE_CURVE('',#486,#484,#65,.T.);
#397=EDGE_CURVE('',#485,#487,#66,.T.);
#398=EDGE_CURVE('',#414,#486,#549,.F.);
#399=EDGE_CURVE('',#487,#415,#550,.T.);
#400=EDGE_CURVE('',#473,#434,#551,.T.);
#401=EDGE_CURVE('',#453,#472,#552,.T.);
#402=EDGE_CURVE('',#474,#424,#553,.T.);
#403=EDGE_CURVE('',#454,#471,#554,.T.);
#404=EDGE_CURVE('',#475,#483,#555,.T.);
#405=EDGE_CURVE('',#459,#470,#22,.F.);
#406=EDGE_CURVE('',#476,#482,#556,.F.);
#407=EDGE_CURVE('',#462,#469,#23,.T.);
#408=EDGE_CURVE('',#465,#428,#557,.T.);
#409=EDGE_CURVE('',#477,#468,#558,.T.);
#410=EDGE_CURVE('',#466,#432,#559,.T.);
#411=EDGE_CURVE('',#478,#467,#560,.F.);
#412=VERTEX_POINT('',#1113);
#413=VERTEX_POINT('',#1114);
#414=VERTEX_POINT('',#1116);
#415=VERTEX_POINT('',#1118);
#416=VERTEX_POINT('',#1120);
#417=VERTEX_POINT('',#1122);
#418=VERTEX_POINT('',#1124);
#419=VERTEX_POINT('',#1126);
#420=VERTEX_POINT('',#1128);
#421=VERTEX_POINT('',#1130);
#422=VERTEX_POINT('',#1134);
#423=VERTEX_POINT('',#1135);
#424=VERTEX_POINT('',#1137);
#425=VERTEX_POINT('',#1139);
#426=VERTEX_POINT('',#1141);
#427=VERTEX_POINT('',#1145);
#428=VERTEX_POINT('',#1146);
#429=VERTEX_POINT('',#1148);
#430=VERTEX_POINT('',#1150);
#431=VERTEX_POINT('',#1152);
#432=VERTEX_POINT('',#1156);
#433=VERTEX_POINT('',#1157);
#434=VERTEX_POINT('',#1162);
#435=VERTEX_POINT('',#1164);
#436=VERTEX_POINT('',#1168);
#437=VERTEX_POINT('',#1171);
#438=VERTEX_POINT('',#1172);
#439=VERTEX_POINT('',#1174);
#440=VERTEX_POINT('',#1176);
#441=VERTEX_POINT('',#1178);
#442=VERTEX_POINT('',#1182);
#443=VERTEX_POINT('',#1184);
#444=VERTEX_POINT('',#1188);
#445=VERTEX_POINT('',#1189);
#446=VERTEX_POINT('',#1191);
#447=VERTEX_POINT('',#1193);
#448=VERTEX_POINT('',#1195);
#449=VERTEX_POINT('',#1198);
#450=VERTEX_POINT('',#1202);
#451=VERTEX_POINT('',#1206);
#452=VERTEX_POINT('',#1210);
#453=VERTEX_POINT('',#1212);
#454=VERTEX_POINT('',#1214);
#455=VERTEX_POINT('',#1216);
#456=VERTEX_POINT('',#1221);
#457=VERTEX_POINT('',#1228);
#458=VERTEX_POINT('',#1234);
#459=VERTEX_POINT('',#1238);
#460=VERTEX_POINT('',#1243);
#461=VERTEX_POINT('',#1257);
#462=VERTEX_POINT('',#1264);
#463=VERTEX_POINT('',#1266);
#464=VERTEX_POINT('',#1268);
#465=VERTEX_POINT('',#1272);
#466=VERTEX_POINT('',#1273);
#467=VERTEX_POINT('',#1275);
#468=VERTEX_POINT('',#1277);
#469=VERTEX_POINT('',#1279);
#470=VERTEX_POINT('',#1284);
#471=VERTEX_POINT('',#1286);
#472=VERTEX_POINT('',#1288);
#473=VERTEX_POINT('',#1290);
#474=VERTEX_POINT('',#1292);
#475=VERTEX_POINT('',#1294);
#476=VERTEX_POINT('',#1296);
#477=VERTEX_POINT('',#1300);
#478=VERTEX_POINT('',#1301);
#479=VERTEX_POINT('',#1303);
#480=VERTEX_POINT('',#1306);
#481=VERTEX_POINT('',#1308);
#482=VERTEX_POINT('',#1313);
#483=VERTEX_POINT('',#1315);
#484=VERTEX_POINT('',#1326);
#485=VERTEX_POINT('',#1331);
#486=VERTEX_POINT('',#1337);
#487=VERTEX_POINT('',#1338);
#488=LINE('',#1112,#561);
#489=LINE('',#1117,#562);
#490=LINE('',#1121,#563);
#491=LINE('',#1123,#564);
#492=LINE('',#1125,#565);
#493=LINE('',#1127,#566);
#494=LINE('',#1129,#567);
#495=LINE('',#1131,#568);
#496=LINE('',#1136,#569);
#497=LINE('',#1138,#570);
#498=LINE('',#1140,#571);
#499=LINE('',#1142,#572);
#500=LINE('',#1144,#573);
#501=LINE('',#1147,#574);
#502=LINE('',#1151,#575);
#503=LINE('',#1153,#576);
#504=LINE('',#1155,#577);
#505=LINE('',#1163,#578);
#506=LINE('',#1173,#579);
#507=LINE('',#1179,#580);
#508=LINE('',#1181,#581);
#509=LINE('',#1185,#582);
#510=LINE('',#1190,#583);
#511=LINE('',#1196,#584);
#512=LINE('',#1201,#585);
#513=LINE('',#1203,#586);
#514=LINE('',#1205,#587);
#515=LINE('',#1207,#588);
#516=LINE('',#1213,#589);
#517=LINE('',#1220,#590);
#518=LINE('',#1227,#591);
#519=LINE('',#1235,#592);
#520=LINE('',#1237,#593);
#521=LINE('',#1244,#594);
#522=LINE('',#1258,#595);
#523=LINE('',#1265,#596);
#524=LINE('',#1269,#597);
#525=LINE('',#1274,#598);
#526=LINE('',#1276,#599);
#527=LINE('',#1278,#600);
#528=LINE('',#1285,#601);
#529=LINE('',#1287,#602);
#530=LINE('',#1289,#603);
#531=LINE('',#1293,#604);
#532=LINE('',#1295,#605);
#533=LINE('',#1297,#606);
#534=LINE('',#1299,#607);
#535=LINE('',#1305,#608);
#536=LINE('',#1309,#609);
#537=LINE('',#1314,#610);
#538=LINE('',#1317,#611);
#539=LINE('',#1319,#612);
#540=LINE('',#1321,#613);
#541=LINE('',#1324,#614);
#542=LINE('',#1325,#615);
#543=LINE('',#1327,#616);
#544=LINE('',#1329,#617);
#545=LINE('',#1330,#618);
#546=LINE('',#1332,#619);
#547=LINE('',#1334,#620);
#548=LINE('',#1336,#621);
#549=LINE('',#1342,#622);
#550=LINE('',#1343,#623);
#551=LINE('',#1347,#624);
#552=LINE('',#1348,#625);
#553=LINE('',#1350,#626);
#554=LINE('',#1352,#627);
#555=LINE('',#1354,#628);
#556=LINE('',#1361,#629);
#557=LINE('',#1375,#630);
#558=LINE('',#1377,#631);
#559=LINE('',#1379,#632);
#560=LINE('',#1381,#633);
#561=VECTOR('',#889,1.);
#562=VECTOR('',#892,1.);
#563=VECTOR('',#895,1.);
#564=VECTOR('',#896,1.);
#565=VECTOR('',#897,1.);
#566=VECTOR('',#898,1.);
#567=VECTOR('',#899,1.);
#568=VECTOR('',#900,1.);
#569=VECTOR('',#905,1.);
#570=VECTOR('',#906,1.);
#571=VECTOR('',#907,1.);
#572=VECTOR('',#908,1.);
#573=VECTOR('',#911,1.);
#574=VECTOR('',#912,1.);
#575=VECTOR('',#915,1.);
#576=VECTOR('',#916,1.);
#577=VECTOR('',#919,1.);
#578=VECTOR('',#928,1.);
#579=VECTOR('',#939,1.);
#580=VECTOR('',#944,1.);
#581=VECTOR('',#947,1.);
#582=VECTOR('',#950,1.);
#583=VECTOR('',#955,1.);
#584=VECTOR('',#960,1.);
#585=VECTOR('',#967,1.);
#586=VECTOR('',#968,1.);
#587=VECTOR('',#971,1.);
#588=VECTOR('',#972,1.);
#589=VECTOR('',#979,1.);
#590=VECTOR('',#988,1.);
#591=VECTOR('',#991,1.);
#592=VECTOR('',#994,1.);
#593=VECTOR('',#997,1.);
#594=VECTOR('',#998,1.);
#595=VECTOR('',#999,1.);
#596=VECTOR('',#1002,1.);
#597=VECTOR('',#1005,1.);
#598=VECTOR('',#1010,1.);
#599=VECTOR('',#1011,1.);
#600=VECTOR('',#1012,1.);
#601=VECTOR('',#1013,1.);
#602=VECTOR('',#1014,1.);
#603=VECTOR('',#1015,1.);
#604=VECTOR('',#1018,1.);
#605=VECTOR('',#1019,1.);
#606=VECTOR('',#1020,1.);
#607=VECTOR('',#1023,1.);
#608=VECTOR('',#1028,1.);
#609=VECTOR('',#1031,1.);
#610=VECTOR('',#1038,1.);
#611=VECTOR('',#1041,1.);
#612=VECTOR('',#1044,1.);
#613=VECTOR('',#1047,1.);
#614=VECTOR('',#1052,1.);
#615=VECTOR('',#1053,1.);
#616=VECTOR('',#1054,1.);
#617=VECTOR('',#1057,1.);
#618=VECTOR('',#1058,1.);
#619=VECTOR('',#1059,1.);
#620=VECTOR('',#1062,1.);
#621=VECTOR('',#1065,1.);
#622=VECTOR('',#1072,1.);
#623=VECTOR('',#1073,1.);
#624=VECTOR('',#1080,1.);
#625=VECTOR('',#1081,1.);
#626=VECTOR('',#1084,1.);
#627=VECTOR('',#1087,1.);
#628=VECTOR('',#1090,1.);
#629=VECTOR('',#1095,1.);
#630=VECTOR('',#1098,1.);
#631=VECTOR('',#1101,1.);
#632=VECTOR('',#1104,1.);
#633=VECTOR('',#1107,1.);
#634=EDGE_LOOP('',(#67,#68,#69,#70,#71,#72,#73,#74,#75,#76));
#635=EDGE_LOOP('',(#77,#78,#79,#80,#81));
#636=EDGE_LOOP('',(#82,#83,#84,#85,#86));
#637=EDGE_LOOP('',(#87,#88,#89,#90));
#638=EDGE_LOOP('',(#91,#92,#93,#94));
#639=EDGE_LOOP('',(#95));
#640=EDGE_LOOP('',(#96,#97,#98,#99,#100));
#641=EDGE_LOOP('',(#101));
#642=EDGE_LOOP('',(#102,#103,#104,#105));
#643=EDGE_LOOP('',(#106,#107,#108,#109,#110));
#644=EDGE_LOOP('',(#111));
#645=EDGE_LOOP('',(#112));
#646=EDGE_LOOP('',(#113,#114,#115,#116));
#647=EDGE_LOOP('',(#117,#118,#119,#120));
#648=EDGE_LOOP('',(#121,#122,#123,#124,#125,#126,#127,#128,#129,#130));
#649=EDGE_LOOP('',(#131,#132,#133,#134,#135,#136));
#650=EDGE_LOOP('',(#137,#138,#139,#140,#141,#142));
#651=EDGE_LOOP('',(#143,#144,#145,#146,#147,#148,#149));
#652=EDGE_LOOP('',(#150,#151,#152,#153,#154,#155));
#653=EDGE_LOOP('',(#156,#157,#158,#159,#160,#161,#162));
#654=EDGE_LOOP('',(#163,#164,#165,#166,#167,#168,#169,#170,#171,#172,#173,
#174));
#655=EDGE_LOOP('',(#175,#176,#177,#178,#179,#180,#181,#182,#183,#184));
#656=EDGE_LOOP('',(#185,#186,#187,#188,#189,#190));
#657=EDGE_LOOP('',(#191,#192,#193,#194));
#658=EDGE_LOOP('',(#195,#196,#197,#198));
#659=EDGE_LOOP('',(#199,#200,#201,#202));
#660=EDGE_LOOP('',(#203,#204,#205,#206,#207,#208));
#661=EDGE_LOOP('',(#209,#210,#211,#212,#213,#214));
#662=EDGE_LOOP('',(#215,#216,#217,#218));
#663=EDGE_LOOP('',(#219,#220,#221,#222,#223,#224,#225,#226,#227,#228));
#664=EDGE_LOOP('',(#229,#230,#231,#232));
#665=EDGE_LOOP('',(#233,#234,#235,#236));
#666=EDGE_LOOP('',(#237,#238,#239,#240));
#667=EDGE_LOOP('',(#241,#242,#243,#244,#245));
#668=EDGE_LOOP('',(#246,#247,#248,#249));
#669=EDGE_LOOP('',(#250,#251,#252,#253));
#670=EDGE_LOOP('',(#254,#255,#256,#257,#258));
#671=EDGE_LOOP('',(#259,#260,#261,#262,#263));
#672=EDGE_LOOP('',(#264,#265,#266,#267));
#673=EDGE_LOOP('',(#268,#269,#270,#271,#272,#273));
#674=EDGE_LOOP('',(#274,#275,#276,#277,#278));
#675=EDGE_LOOP('',(#279,#280,#281,#282,#283));
#676=EDGE_LOOP('',(#284,#285,#286,#287));
#677=EDGE_LOOP('',(#288,#289,#290,#291));
#678=EDGE_LOOP('',(#292,#293,#294,#295,#296));
#679=FACE_BOUND('',#634,.T.);
#680=FACE_BOUND('',#635,.T.);
#681=FACE_BOUND('',#636,.T.);
#682=FACE_BOUND('',#637,.T.);
#683=FACE_BOUND('',#638,.T.);
#684=FACE_BOUND('',#639,.T.);
#685=FACE_BOUND('',#640,.T.);
#686=FACE_BOUND('',#641,.T.);
#687=FACE_BOUND('',#642,.T.);
#688=FACE_BOUND('',#643,.T.);
#689=FACE_BOUND('',#644,.T.);
#690=FACE_BOUND('',#645,.T.);
#691=FACE_BOUND('',#646,.T.);
#692=FACE_BOUND('',#647,.T.);
#693=FACE_BOUND('',#648,.T.);
#694=FACE_BOUND('',#649,.T.);
#695=FACE_BOUND('',#650,.T.);
#696=FACE_BOUND('',#651,.T.);
#697=FACE_BOUND('',#652,.T.);
#698=FACE_BOUND('',#653,.T.);
#699=FACE_BOUND('',#654,.T.);
#700=FACE_BOUND('',#655,.T.);
#701=FACE_BOUND('',#656,.T.);
#702=FACE_BOUND('',#657,.T.);
#703=FACE_BOUND('',#658,.T.);
#704=FACE_BOUND('',#659,.T.);
#705=FACE_BOUND('',#660,.T.);
#706=FACE_BOUND('',#661,.T.);
#707=FACE_BOUND('',#662,.T.);
#708=FACE_BOUND('',#663,.T.);
#709=FACE_BOUND('',#664,.T.);
#710=FACE_BOUND('',#665,.T.);
#711=FACE_BOUND('',#666,.T.);
#712=FACE_BOUND('',#667,.T.);
#713=FACE_BOUND('',#668,.T.);
#714=FACE_BOUND('',#669,.T.);
#715=FACE_BOUND('',#670,.T.);
#716=FACE_BOUND('',#671,.T.);
#717=FACE_BOUND('',#672,.T.);
#718=FACE_BOUND('',#673,.T.);
#719=FACE_BOUND('',#674,.T.);
#720=FACE_BOUND('',#675,.T.);
#721=FACE_BOUND('',#676,.T.);
#722=FACE_BOUND('',#677,.T.);
#723=FACE_BOUND('',#678,.T.);
#724=PLANE('',#810);
#725=PLANE('',#813);
#726=PLANE('',#815);
#727=PLANE('',#823);
#728=PLANE('',#829);
#729=PLANE('',#836);
#730=PLANE('',#837);
#731=PLANE('',#838);
#732=PLANE('',#845);
#733=PLANE('',#846);
#734=PLANE('',#848);
#735=PLANE('',#849);
#736=PLANE('',#851);
#737=PLANE('',#862);
#738=PLANE('',#863);
#739=PLANE('',#864);
#740=PLANE('',#865);
#741=PLANE('',#866);
#742=PLANE('',#867);
#743=PLANE('',#868);
#744=PLANE('',#871);
#745=PLANE('',#874);
#746=PLANE('',#876);
#747=PLANE('',#877);
#748=PLANE('',#878);
#749=PLANE('',#879);
#750=PLANE('',#880);
#751=PLANE('',#881);
#752=PLANE('',#883);
#753=PLANE('',#884);
#754=ADVANCED_FACE('',(#679),#724,.F.);
#755=ADVANCED_FACE('',(#680),#725,.F.);
#756=ADVANCED_FACE('',(#681),#726,.T.);
#757=ADVANCED_FACE('',(#682),#34,.F.);
#758=ADVANCED_FACE('',(#683),#35,.F.);
#759=ADVANCED_FACE('',(#684),#727,.T.);
#760=ADVANCED_FACE('',(#685,#686),#36,.T.);
#761=ADVANCED_FACE('',(#687),#728,.T.);
#762=ADVANCED_FACE('',(#688,#689),#37,.T.);
#763=ADVANCED_FACE('',(#690),#729,.T.);
#764=ADVANCED_FACE('',(#691),#730,.T.);
#765=ADVANCED_FACE('',(#692),#731,.F.);
#766=ADVANCED_FACE('',(#693),#38,.T.);
#767=ADVANCED_FACE('',(#694),#732,.F.);
#768=ADVANCED_FACE('',(#695),#733,.T.);
#769=ADVANCED_FACE('',(#696),#734,.T.);
#770=ADVANCED_FACE('',(#697),#14,.T.);
#771=ADVANCED_FACE('',(#698),#735,.T.);
#772=ADVANCED_FACE('',(#699),#736,.T.);
#773=ADVANCED_FACE('',(#700),#39,.T.);
#774=ADVANCED_FACE('',(#701),#40,.T.);
#775=ADVANCED_FACE('',(#702),#737,.T.);
#776=ADVANCED_FACE('',(#703),#738,.F.);
#777=ADVANCED_FACE('',(#704),#739,.T.);
#778=ADVANCED_FACE('',(#705),#740,.T.);
#779=ADVANCED_FACE('',(#706),#741,.T.);
#780=ADVANCED_FACE('',(#707),#742,.T.);
#781=ADVANCED_FACE('',(#708),#743,.T.);
#782=ADVANCED_FACE('',(#709),#744,.T.);
#783=ADVANCED_FACE('',(#710),#41,.F.);
#784=ADVANCED_FACE('',(#711),#42,.F.);
#785=ADVANCED_FACE('',(#712),#745,.F.);
#786=ADVANCED_FACE('',(#713),#12,.F.);
#787=ADVANCED_FACE('',(#714),#746,.F.);
#788=ADVANCED_FACE('',(#715),#747,.T.);
#789=ADVANCED_FACE('',(#716),#748,.F.);
#790=ADVANCED_FACE('',(#717),#749,.F.);
#791=ADVANCED_FACE('',(#718),#15,.T.);
#792=ADVANCED_FACE('',(#719),#750,.F.);
#793=ADVANCED_FACE('',(#720),#751,.F.);
#794=ADVANCED_FACE('',(#721),#13,.F.);
#795=ADVANCED_FACE('',(#722),#752,.F.);
#796=ADVANCED_FACE('',(#723),#753,.F.);
#797=CLOSED_SHELL('',(#754,#755,#756,#757,#758,#759,#760,#761,#762,#763,
#764,#765,#766,#767,#768,#769,#770,#771,#772,#773,#774,#775,#776,#777,#778,
#779,#780,#781,#782,#783,#784,#785,#786,#787,#788,#789,#790,#791,#792,#793,
#794,#795,#796));
#798=STYLED_ITEM('',(#799),#806);
#799=PRESENTATION_STYLE_ASSIGNMENT((#800));
#800=SURFACE_STYLE_USAGE(.BOTH.,#801);
#801=SURFACE_SIDE_STYLE('',(#802));
#802=SURFACE_STYLE_FILL_AREA(#803);
#803=FILL_AREA_STYLE('',(#804));
#804=FILL_AREA_STYLE_COLOUR('',#805);
#805=COLOUR_RGB('',0.231372549019608,0.380392156862745,0.705882352941177);
#806=MANIFOLD_SOLID_BREP('Part 1',#797);
#807=SHAPE_DEFINITION_REPRESENTATION(#1389,#808);
#808=SHAPE_REPRESENTATION('Part 1',(#809),#1384);
#809=AXIS2_PLACEMENT_3D('',#1110,#885,#886);
#810=AXIS2_PLACEMENT_3D('',#1111,#887,#888);
#811=AXIS2_PLACEMENT_3D('',#1115,#890,#891);
#812=AXIS2_PLACEMENT_3D('',#1119,#893,#894);
#813=AXIS2_PLACEMENT_3D('',#1132,#901,#902);
#814=AXIS2_PLACEMENT_3D('',#1133,#903,#904);
#815=AXIS2_PLACEMENT_3D('',#1143,#909,#910);
#816=AXIS2_PLACEMENT_3D('',#1149,#913,#914);
#817=AXIS2_PLACEMENT_3D('',#1154,#917,#918);
#818=AXIS2_PLACEMENT_3D('',#1158,#920,#921);
#819=AXIS2_PLACEMENT_3D('',#1159,#922,#923);
#820=AXIS2_PLACEMENT_3D('',#1160,#924,#925);
#821=AXIS2_PLACEMENT_3D('',#1161,#926,#927);
#822=AXIS2_PLACEMENT_3D('',#1165,#929,#930);
#823=AXIS2_PLACEMENT_3D('',#1166,#931,#932);
#824=AXIS2_PLACEMENT_3D('',#1167,#933,#934);
#825=AXIS2_PLACEMENT_3D('',#1169,#935,#936);
#826=AXIS2_PLACEMENT_3D('',#1170,#937,#938);
#827=AXIS2_PLACEMENT_3D('',#1175,#940,#941);
#828=AXIS2_PLACEMENT_3D('',#1177,#942,#943);
#829=AXIS2_PLACEMENT_3D('',#1180,#945,#946);
#830=AXIS2_PLACEMENT_3D('',#1183,#948,#949);
#831=AXIS2_PLACEMENT_3D('',#1186,#951,#952);
#832=AXIS2_PLACEMENT_3D('',#1187,#953,#954);
#833=AXIS2_PLACEMENT_3D('',#1192,#956,#957);
#834=AXIS2_PLACEMENT_3D('',#1194,#958,#959);
#835=AXIS2_PLACEMENT_3D('',#1197,#961,#962);
#836=AXIS2_PLACEMENT_3D('',#1199,#963,#964);
#837=AXIS2_PLACEMENT_3D('',#1200,#965,#966);
#838=AXIS2_PLACEMENT_3D('',#1204,#969,#970);
#839=AXIS2_PLACEMENT_3D('',#1208,#973,#974);
#840=AXIS2_PLACEMENT_3D('',#1209,#975,#976);
#841=AXIS2_PLACEMENT_3D('',#1211,#977,#978);
#842=AXIS2_PLACEMENT_3D('',#1215,#980,#981);
#843=AXIS2_PLACEMENT_3D('',#1217,#982,#983);
#844=AXIS2_PLACEMENT_3D('',#1218,#984,#985);
#845=AXIS2_PLACEMENT_3D('',#1219,#986,#987);
#846=AXIS2_PLACEMENT_3D('',#1226,#989,#990);
#847=AXIS2_PLACEMENT_3D('',#1229,#992,#993);
#848=AXIS2_PLACEMENT_3D('',#1236,#995,#996);
#849=AXIS2_PLACEMENT_3D('',#1259,#1000,#1001);
#850=AXIS2_PLACEMENT_3D('',#1267,#1003,#1004);
#851=AXIS2_PLACEMENT_3D('',#1270,#1006,#1007);
#852=AXIS2_PLACEMENT_3D('',#1271,#1008,#1009);
#853=AXIS2_PLACEMENT_3D('',#1291,#1016,#1017);
#854=AXIS2_PLACEMENT_3D('',#1298,#1021,#1022);
#855=AXIS2_PLACEMENT_3D('',#1302,#1024,#1025);
#856=AXIS2_PLACEMENT_3D('',#1304,#1026,#1027);
#857=AXIS2_PLACEMENT_3D('',#1307,#1029,#1030);
#858=AXIS2_PLACEMENT_3D('',#1310,#1032,#1033);
#859=AXIS2_PLACEMENT_3D('',#1311,#1034,#1035);
#860=AXIS2_PLACEMENT_3D('',#1312,#1036,#1037);
#861=AXIS2_PLACEMENT_3D('',#1316,#1039,#1040);
#862=AXIS2_PLACEMENT_3D('',#1318,#1042,#1043);
#863=AXIS2_PLACEMENT_3D('',#1320,#1045,#1046);
#864=AXIS2_PLACEMENT_3D('',#1322,#1048,#1049);
#865=AXIS2_PLACEMENT_3D('',#1323,#1050,#1051);
#866=AXIS2_PLACEMENT_3D('',#1328,#1055,#1056);
#867=AXIS2_PLACEMENT_3D('',#1333,#1060,#1061);
#868=AXIS2_PLACEMENT_3D('',#1335,#1063,#1064);
#869=AXIS2_PLACEMENT_3D('',#1339,#1066,#1067);
#870=AXIS2_PLACEMENT_3D('',#1340,#1068,#1069);
#871=AXIS2_PLACEMENT_3D('',#1341,#1070,#1071);
#872=AXIS2_PLACEMENT_3D('',#1344,#1074,#1075);
#873=AXIS2_PLACEMENT_3D('',#1345,#1076,#1077);
#874=AXIS2_PLACEMENT_3D('',#1346,#1078,#1079);
#875=AXIS2_PLACEMENT_3D('',#1349,#1082,#1083);
#876=AXIS2_PLACEMENT_3D('',#1351,#1085,#1086);
#877=AXIS2_PLACEMENT_3D('',#1353,#1088,#1089);
#878=AXIS2_PLACEMENT_3D('',#1355,#1091,#1092);
#879=AXIS2_PLACEMENT_3D('',#1360,#1093,#1094);
#880=AXIS2_PLACEMENT_3D('',#1374,#1096,#1097);
#881=AXIS2_PLACEMENT_3D('',#1376,#1099,#1100);
#882=AXIS2_PLACEMENT_3D('',#1378,#1102,#1103);
#883=AXIS2_PLACEMENT_3D('',#1380,#1105,#1106);
#884=AXIS2_PLACEMENT_3D('',#1382,#1108,#1109);
#885=DIRECTION('',(0.,0.,1.));
#886=DIRECTION('',(1.,0.,0.));
#887=DIRECTION('',(0.,-1.,0.));
#888=DIRECTION('',(1.,0.,0.));
#889=DIRECTION('',(-1.,0.,0.));
#890=DIRECTION('',(0.,-1.,0.));
#891=DIRECTION('',(0.,0.,-1.));
#892=DIRECTION('',(0.0454076609186501,0.,0.9989685402103));
#893=DIRECTION('',(0.,-1.,0.));
#894=DIRECTION('',(0.,0.,-1.));
#895=DIRECTION('',(1.,0.,0.));
#896=DIRECTION('',(0.,0.,-1.));
#897=DIRECTION('',(1.,0.,0.));
#898=DIRECTION('',(0.,0.,-1.));
#899=DIRECTION('',(1.,0.,0.));
#900=DIRECTION('',(0.,0.,-1.));
#901=DIRECTION('',(3.03576608295942E-16,0.,-1.));
#902=DIRECTION('',(-1.,0.,-3.03576608295942E-16));
#903=DIRECTION('',(3.03576608295942E-16,0.,-1.));
#904=DIRECTION('',(-1.,0.,-3.03576608295942E-16));
#905=DIRECTION('',(1.,0.,3.03576608295942E-16));
#906=DIRECTION('',(0.,-1.,0.));
#907=DIRECTION('',(1.,0.,3.03576608295942E-16));
#908=DIRECTION('',(0.,-1.,0.));
#909=DIRECTION('',(0.,0.,-1.));
#910=DIRECTION('',(-1.,0.,0.));
#911=DIRECTION('',(0.,-1.,0.));
#912=DIRECTION('',(-1.,0.,0.));
#913=DIRECTION('',(0.,0.,-1.));
#914=DIRECTION('',(-1.,0.,0.));
#915=DIRECTION('',(0.,-1.,0.));
#916=DIRECTION('',(1.,0.,0.));
#917=DIRECTION('',(0.,1.,0.));
#918=DIRECTION('',(0.,0.,1.));
#919=DIRECTION('',(0.,-1.,0.));
#920=DIRECTION('',(0.,-1.,0.));
#921=DIRECTION('',(0.,0.,-1.));
#922=DIRECTION('',(0.,1.,0.));
#923=DIRECTION('',(0.,0.,1.));
#924=DIRECTION('',(0.,-1.,0.));
#925=DIRECTION('',(0.,0.,-1.));
#926=DIRECTION('',(0.,-1.,0.));
#927=DIRECTION('',(0.,0.,-1.));
#928=DIRECTION('',(0.,-1.,0.));
#929=DIRECTION('',(0.,1.,0.));
#930=DIRECTION('',(0.,0.,1.));
#931=DIRECTION('',(0.,0.,1.));
#932=DIRECTION('',(1.,0.,0.));
#933=DIRECTION('',(0.,0.,1.));
#934=DIRECTION('',(1.,0.,0.));
#935=DIRECTION('',(0.,0.,-1.));
#936=DIRECTION('',(-1.,0.,0.));
#937=DIRECTION('',(0.,0.,1.));
#938=DIRECTION('',(1.,0.,0.));
#939=DIRECTION('',(0.,0.,-1.));
#940=DIRECTION('',(0.,0.,1.));
#941=DIRECTION('',(1.,0.,0.));
#942=DIRECTION('',(0.,-0.242535625036334,-0.970142500145332));
#943=DIRECTION('',(0.,0.970142500145332,-0.242535625036334));
#944=DIRECTION('',(0.,0.,-1.));
#945=DIRECTION('',(0.,0.,1.));
#946=DIRECTION('',(1.,0.,0.));
#947=DIRECTION('',(1.,0.,0.));
#948=DIRECTION('',(0.,0.,1.));
#949=DIRECTION('',(1.,0.,0.));
#950=DIRECTION('',(1.,0.,0.));
#951=DIRECTION('',(0.,0.,-1.));
#952=DIRECTION('',(-1.,0.,0.));
#953=DIRECTION('',(0.,0.,-1.));
#954=DIRECTION('',(-1.,0.,0.));
#955=DIRECTION('',(0.,0.,-1.));
#956=DIRECTION('',(0.,0.242535625036332,-0.970142500145332));
#957=DIRECTION('',(0.,-0.970142500145332,-0.242535625036332));
#958=DIRECTION('',(0.,0.,-1.));
#959=DIRECTION('',(-1.,0.,0.));
#960=DIRECTION('',(0.,0.,-1.));
#961=DIRECTION('',(0.,0.,-1.));
#962=DIRECTION('',(-1.,0.,0.));
#963=DIRECTION('',(0.,0.,-1.));
#964=DIRECTION('',(-1.,0.,0.));
#965=DIRECTION('',(0.,1.,0.));
#966=DIRECTION('',(0.,0.,1.));
#967=DIRECTION('',(-1.,0.,0.));
#968=DIRECTION('',(0.,0.,-1.));
#969=DIRECTION('',(0.,1.,0.));
#970=DIRECTION('',(0.,0.,1.));
#971=DIRECTION('',(0.,0.,-1.));
#972=DIRECTION('',(1.,0.,0.));
#973=DIRECTION('',(0.,0.,-1.));
#974=DIRECTION('',(-1.,0.,0.));
#975=DIRECTION('',(0.,0.,-1.));
#976=DIRECTION('',(-1.,0.,0.));
#977=DIRECTION('',(0.,0.707106781186547,0.707106781186548));
#978=DIRECTION('',(0.,0.707106781186548,-0.707106781186547));
#979=DIRECTION('',(0.,0.,-1.));
#980=DIRECTION('',(0.,0.707106781186547,-0.707106781186548));
#981=DIRECTION('',(0.,-0.707106781186548,-0.707106781186547));
#982=DIRECTION('',(0.,0.,1.));
#983=DIRECTION('',(1.,0.,0.));
#984=DIRECTION('',(0.,-0.242535625036334,-0.970142500145332));
#985=DIRECTION('',(0.,0.970142500145332,-0.242535625036334));
#986=DIRECTION('',(0.,-0.242535625036334,-0.970142500145332));
#987=DIRECTION('',(0.,0.970142500145332,-0.242535625036334));
#988=DIRECTION('',(1.,0.,0.));
#989=DIRECTION('',(0.,0.242535625036332,-0.970142500145332));
#990=DIRECTION('',(0.,0.970142500145332,0.242535625036332));
#991=DIRECTION('',(1.,0.,0.));
#992=DIRECTION('',(0.,0.242535625036332,-0.970142500145332));
#993=DIRECTION('',(0.,-0.970142500145332,-0.242535625036332));
#994=DIRECTION('',(1.,0.,0.));
#995=DIRECTION('',(0.,0.,1.));
#996=DIRECTION('',(1.,0.,0.));
#997=DIRECTION('',(1.,0.,0.));
#998=DIRECTION('',(0.74740931868366,-0.66436383882992,0.));
#999=DIRECTION('',(0.658504607868519,-0.752576694706877,0.));
#1000=DIRECTION('',(0.,0.,-1.));
#1001=DIRECTION('',(-1.,0.,0.));
#1002=DIRECTION('',(-1.,0.,0.));
#1003=DIRECTION('',(0.,0.,-1.));
#1004=DIRECTION('',(-1.,0.,0.));
#1005=DIRECTION('',(1.,0.,0.));
#1006=DIRECTION('',(0.,-1.,0.));
#1007=DIRECTION('',(1.,0.,0.));
#1008=DIRECTION('',(0.,-1.,0.));
#1009=DIRECTION('',(0.,0.,-1.));
#1010=DIRECTION('',(-1.,0.,0.));
#1011=DIRECTION('',(0.,0.,-1.));
#1012=DIRECTION('',(1.,0.,0.));
#1013=DIRECTION('',(-1.,0.,0.));
#1014=DIRECTION('',(0.,0.,-1.));
#1015=DIRECTION('',(1.,0.,0.));
#1016=DIRECTION('',(0.,-1.,0.));
#1017=DIRECTION('',(0.,0.,-1.));
#1018=DIRECTION('',(-1.,0.,-3.03576608295942E-16));
#1019=DIRECTION('',(0.,0.,-1.));
#1020=DIRECTION('',(1.,0.,0.));
#1021=DIRECTION('',(0.,0.,-1.));
#1022=DIRECTION('',(-1.,0.,0.));
#1023=DIRECTION('',(0.,0.,-1.));
#1024=DIRECTION('',(0.,0.707106781186547,-0.707106781186548));
#1025=DIRECTION('',(0.,-0.707106781186548,-0.707106781186547));
#1026=DIRECTION('',(0.,0.,1.));
#1027=DIRECTION('',(1.,0.,0.));
#1028=DIRECTION('',(0.,0.,-1.));
#1029=DIRECTION('',(0.,0.,-1.));
#1030=DIRECTION('',(-1.,0.,0.));
#1031=DIRECTION('',(0.,0.,-1.));
#1032=DIRECTION('',(0.,0.707106781186547,0.707106781186548));
#1033=DIRECTION('',(0.,0.707106781186548,-0.707106781186547));
#1034=DIRECTION('',(0.,0.,-1.));
#1035=DIRECTION('',(-1.,0.,0.));
#1036=DIRECTION('',(0.,0.707106781186547,0.707106781186548));
#1037=DIRECTION('',(0.,0.707106781186548,-0.707106781186547));
#1038=DIRECTION('',(0.,0.,-1.));
#1039=DIRECTION('',(-2.14661078335673E-16,-0.707106781186547,0.707106781186548));
#1040=DIRECTION('',(-2.14661078335673E-16,-0.707106781186548,-0.707106781186547));
#1041=DIRECTION('',(0.,0.,-1.));
#1042=DIRECTION('',(0.,1.,0.));
#1043=DIRECTION('',(0.,0.,1.));
#1044=DIRECTION('',(-1.,0.,0.));
#1045=DIRECTION('',(0.,1.,0.));
#1046=DIRECTION('',(0.,0.,1.));
#1047=DIRECTION('',(-1.,0.,0.));
#1048=DIRECTION('',(0.,0.,-1.));
#1049=DIRECTION('',(-1.,0.,0.));
#1050=DIRECTION('',(0.,0.,1.));
#1051=DIRECTION('',(1.,0.,0.));
#1052=DIRECTION('',(1.,0.,0.));
#1053=DIRECTION('',(-1.,0.,0.));
#1054=DIRECTION('',(0.,1.,0.));
#1055=DIRECTION('',(0.,0.,-1.));
#1056=DIRECTION('',(-1.,0.,0.));
#1057=DIRECTION('',(-1.,0.,0.));
#1058=DIRECTION('',(0.,1.,0.));
#1059=DIRECTION('',(1.,0.,0.));
#1060=DIRECTION('',(1.,0.,0.));
#1061=DIRECTION('',(0.,0.,-1.));
#1062=DIRECTION('',(0.,0.,-1.));
#1063=DIRECTION('',(0.,1.,0.));
#1064=DIRECTION('',(-1.,0.,0.));
#1065=DIRECTION('',(0.0454076609186501,0.,0.9989685402103));
#1066=DIRECTION('',(0.,1.,0.));
#1067=DIRECTION('',(0.,0.,1.));
#1068=DIRECTION('',(0.,1.,0.));
#1069=DIRECTION('',(0.,0.,1.));
#1070=DIRECTION('',(-0.9989685402103,0.,0.0454076609186501));
#1071=DIRECTION('',(0.0454076609186501,0.,0.9989685402103));
#1072=DIRECTION('',(0.,1.,0.));
#1073=DIRECTION('',(0.,1.,0.));
#1074=DIRECTION('',(0.,-1.,0.));
#1075=DIRECTION('',(0.,0.,-1.));
#1076=DIRECTION('',(0.,-1.,0.));
#1077=DIRECTION('',(0.,0.,-1.));
#1078=DIRECTION('',(0.,0.707106781186547,0.707106781186548));
#1079=DIRECTION('',(1.,0.,0.));
#1080=DIRECTION('',(0.,0.707106781186548,-0.707106781186547));
#1081=DIRECTION('',(0.896616734523424,-0.313112145542577,0.313112145542577));
#1082=DIRECTION('',(0.,-1.,0.));
#1083=DIRECTION('',(0.,0.,-1.));
#1084=DIRECTION('',(-3.83323354170844E-16,0.707106781186548,0.707106781186547));
#1085=DIRECTION('',(0.329690236697897,0.944089163069932,0.));
#1086=DIRECTION('',(0.,0.,-1.));
#1087=DIRECTION('',(0.896616734523424,-0.313112145542577,-0.313112145542577));
#1088=DIRECTION('',(-2.14661078335673E-16,-0.707106781186547,0.707106781186548));
#1089=DIRECTION('',(-1.,0.,-3.03576608295942E-16));
#1090=DIRECTION('',(-0.896616734523423,0.313112145542579,0.313112145542578));
#1091=DIRECTION('',(0.,0.707106781186547,-0.707106781186548));
#1092=DIRECTION('',(-1.,0.,0.));
#1093=DIRECTION('',(0.329690236697899,0.944089163069931,0.));
#1094=DIRECTION('',(0.,0.,-1.));
#1095=DIRECTION('',(0.896616734523423,-0.313112145542579,0.313112145542578));
#1096=DIRECTION('',(0.,0.707106781186547,0.707106781186548));
#1097=DIRECTION('',(1.,0.,0.));
#1098=DIRECTION('',(0.,0.707106781186548,-0.707106781186547));
#1099=DIRECTION('',(0.,0.707106781186547,0.707106781186548));
#1100=DIRECTION('',(1.,0.,0.));
#1101=DIRECTION('',(0.896616734523423,-0.313112145542579,0.313112145542578));
#1102=DIRECTION('',(0.,-1.,0.));
#1103=DIRECTION('',(0.,0.,-1.));
#1104=DIRECTION('',(0.,0.707106781186548,0.707106781186547));
#1105=DIRECTION('',(0.329690236697899,0.944089163069931,0.));
#1106=DIRECTION('',(0.,0.,-1.));
#1107=DIRECTION('',(-0.896616734523423,0.313112145542579,0.313112145542578));
#1108=DIRECTION('',(0.,0.707106781186547,-0.707106781186548));
#1109=DIRECTION('',(-1.,0.,0.));
#1110=CARTESIAN_POINT('',(0.,0.,0.));
#1111=CARTESIAN_POINT('',(0.,0.004,6.93889390390723E-18));
#1112=CARTESIAN_POINT('',(-0.0045,0.004,-0.0055));
#1113=CARTESIAN_POINT('',(0.000522211010328513,0.004,-0.0055));
#1114=CARTESIAN_POINT('',(-0.0085,0.004,-0.0055));
#1115=CARTESIAN_POINT('',(0.000522211010328513,0.004,-0.005));
#1116=CARTESIAN_POINT('',(0.00102169528043366,0.004,-0.00502270383045932));
#1117=CARTESIAN_POINT('',(0.00125,0.004,4.33680868994202E-18));
#1118=CARTESIAN_POINT('',(0.00147624073497912,0.004,0.00497729616954068));
#1119=CARTESIAN_POINT('',(0.000976756464873969,0.004,0.005));
#1120=CARTESIAN_POINT('',(0.000976756464873969,0.004,0.0055));
#1121=CARTESIAN_POINT('',(-0.0045,0.004,0.0055));
#1122=CARTESIAN_POINT('',(-0.0085,0.004,0.0055));
#1123=CARTESIAN_POINT('',(-0.0085,0.004,0.007502));
#1124=CARTESIAN_POINT('',(-0.0085,0.004,0.007));
#1125=CARTESIAN_POINT('',(-0.0245456882927706,0.004,0.007));
#1126=CARTESIAN_POINT('',(0.005,0.004,0.007));
#1127=CARTESIAN_POINT('',(0.005,0.004,0.007502));
#1128=CARTESIAN_POINT('',(0.005,0.004,-0.007));
#1129=CARTESIAN_POINT('',(-0.0245456882927706,0.004,-0.007));
#1130=CARTESIAN_POINT('',(-0.0085,0.004,-0.007));
#1131=CARTESIAN_POINT('',(-0.0085,0.004,0.007502));
#1132=CARTESIAN_POINT('',(-0.0045,0.004,0.0035));
#1133=CARTESIAN_POINT('',(-0.007,0.002,0.0035));
#1134=CARTESIAN_POINT('',(-0.0085,0.004,0.0035));
#1135=CARTESIAN_POINT('',(-0.00873493515728975,0.0002,0.0035));
#1136=CARTESIAN_POINT('',(-0.0005,0.0002,0.0035));
#1137=CARTESIAN_POINT('',(-0.0005,0.0002,0.0035));
#1138=CARTESIAN_POINT('',(-0.0005,0.004,0.0035));
#1139=CARTESIAN_POINT('',(-0.0005,0.0022,0.0035));
#1140=CARTESIAN_POINT('',(-0.0045,0.0022,0.0035));
#1141=CARTESIAN_POINT('',(-0.0085,0.0022,0.0035));
#1142=CARTESIAN_POINT('',(-0.0085,0.004,0.0035));
#1143=CARTESIAN_POINT('',(-0.0045,0.004,-0.0035));
#1144=CARTESIAN_POINT('',(-0.0005,0.,-0.0035));
#1145=CARTESIAN_POINT('',(-0.0005,0.0022,-0.0035));
#1146=CARTESIAN_POINT('',(-0.0005,0.0002,-0.0035));
#1147=CARTESIAN_POINT('',(-0.0045,0.0002,-0.0035));
#1148=CARTESIAN_POINT('',(-0.00873493515728975,0.0002,-0.0035));
#1149=CARTESIAN_POINT('',(-0.007,0.002,-0.0035));
#1150=CARTESIAN_POINT('',(-0.0085,0.004,-0.0035));
#1151=CARTESIAN_POINT('',(-0.0085,0.004,-0.0035));
#1152=CARTESIAN_POINT('',(-0.0085,0.0022,-0.0035));
#1153=CARTESIAN_POINT('',(-0.0045,0.0022,-0.0035));
#1154=CARTESIAN_POINT('',(-0.0005,0.004,-0.0045));
#1155=CARTESIAN_POINT('',(-0.0005,0.004,-0.0055));
#1156=CARTESIAN_POINT('',(-0.0005,0.0002,-0.0055));
#1157=CARTESIAN_POINT('',(-0.0005,0.0022,-0.0055));
#1158=CARTESIAN_POINT('',(-0.0005,0.0002,-0.0045));
#1159=CARTESIAN_POINT('',(-0.0005,0.0022,-0.0045));
#1160=CARTESIAN_POINT('',(-0.0005,0.004,0.0045));
#1161=CARTESIAN_POINT('',(-0.0005,0.0002,0.0045));
#1162=CARTESIAN_POINT('',(-0.0005,0.0002,0.0055));
#1163=CARTESIAN_POINT('',(-0.0005,0.004,0.0055));
#1164=CARTESIAN_POINT('',(-0.0005,0.0022,0.0055));
#1165=CARTESIAN_POINT('',(-0.0005,0.0022,0.0045));
#1166=CARTESIAN_POINT('',(-1.7347234759768E-18,0.004,0.0095));
#1167=CARTESIAN_POINT('',(-0.0075,0.002,0.0095));
#1168=CARTESIAN_POINT('',(-0.0065,0.002,0.0095));
#1169=CARTESIAN_POINT('',(-0.0075,0.002,0.269317621135332));
#1170=CARTESIAN_POINT('',(-0.0075,0.002,0.008));
#1171=CARTESIAN_POINT('',(-0.00836602540378444,0.0025,0.008));
#1172=CARTESIAN_POINT('',(-0.00836602540378444,0.0015,0.008));
#1173=CARTESIAN_POINT('',(-0.00836602540378444,0.0015,0.260317621135332));
#1174=CARTESIAN_POINT('',(-0.00836602540378444,0.0015,0.0075));
#1175=CARTESIAN_POINT('',(-0.0075,0.002,0.0075));
#1176=CARTESIAN_POINT('',(-0.0065,0.002,0.0075));
#1177=CARTESIAN_POINT('',(-0.0075,0.002,0.0075));
#1178=CARTESIAN_POINT('',(-0.00836602540378444,0.0025,0.007375));
#1179=CARTESIAN_POINT('',(-0.00836602540378444,0.0025,0.260317621135332));
#1180=CARTESIAN_POINT('',(-1.7347234759768E-18,0.004,0.008));
#1181=CARTESIAN_POINT('',(-0.00890775757328381,0.0025,0.008));
#1182=CARTESIAN_POINT('',(-0.00944948974278318,0.0025,0.008));
#1183=CARTESIAN_POINT('',(-0.007,0.002,0.008));
#1184=CARTESIAN_POINT('',(-0.00944948974278318,0.0015,0.008));
#1185=CARTESIAN_POINT('',(-0.00890775757328381,0.0015,0.008));
#1186=CARTESIAN_POINT('',(-0.0075,0.002,0.269317621135332));
#1187=CARTESIAN_POINT('',(-0.0075,0.002,-0.008));
#1188=CARTESIAN_POINT('',(-0.00836602540378444,0.0015,-0.008));
#1189=CARTESIAN_POINT('',(-0.00836602540378444,0.0025,-0.008));
#1190=CARTESIAN_POINT('',(-0.00836602540378444,0.0025,0.260317621135332));
#1191=CARTESIAN_POINT('',(-0.00836602540378444,0.0025,-0.007375));
#1192=CARTESIAN_POINT('',(-0.0075,0.002,-0.0075));
#1193=CARTESIAN_POINT('',(-0.0065,0.002,-0.0075));
#1194=CARTESIAN_POINT('',(-0.0075,0.002,-0.0075));
#1195=CARTESIAN_POINT('',(-0.00836602540378444,0.0015,-0.0075));
#1196=CARTESIAN_POINT('',(-0.00836602540378444,0.0015,0.260317621135332));
#1197=CARTESIAN_POINT('',(-0.0075,0.002,-0.0095));
#1198=CARTESIAN_POINT('',(-0.0085,0.002,-0.0095));
#1199=CARTESIAN_POINT('',(-0.0005,0.004,-0.0095));
#1200=CARTESIAN_POINT('',(-0.00890775757328381,0.0025,0.260317621135332));
#1201=CARTESIAN_POINT('',(-0.00890775757328381,0.0025,0.007375));
#1202=CARTESIAN_POINT('',(-0.00944948974278318,0.0025,0.007375));
#1203=CARTESIAN_POINT('',(-0.00944948974278318,0.0025,0.260317621135332));
#1204=CARTESIAN_POINT('',(-0.00890775757328381,0.0015,0.260317621135332));
#1205=CARTESIAN_POINT('',(-0.00944948974278318,0.0015,0.260317621135332));
#1206=CARTESIAN_POINT('',(-0.00944948974278318,0.0015,0.0075));
#1207=CARTESIAN_POINT('',(-0.00890775757328381,0.0015,0.0075));
#1208=CARTESIAN_POINT('',(-0.007,0.002,0.260317621135332));
#1209=CARTESIAN_POINT('',(-0.007,0.002,0.0055));
#1210=CARTESIAN_POINT('',(-0.00873493515728975,0.0002,0.0055));
#1211=CARTESIAN_POINT('',(-0.007,0.002,0.0037));
#1212=CARTESIAN_POINT('',(-0.00855628489818221,4.34782608695651E-5,0.00565652173913045));
#1213=CARTESIAN_POINT('',(-0.00855628489818221,4.34782608695651E-5,0.260317621135332));
#1214=CARTESIAN_POINT('',(-0.00855628489818221,4.34782608695651E-5,0.00734347826086956));
#1215=CARTESIAN_POINT('',(-0.007,0.002,0.0093));
#1216=CARTESIAN_POINT('',(-0.00873493515728975,0.0002,0.0075));
#1217=CARTESIAN_POINT('',(-0.007,0.002,0.0075));
#1218=CARTESIAN_POINT('',(-0.007,0.002,0.0075));
#1219=CARTESIAN_POINT('',(-0.0245456882927706,0.003,0.00725));
#1220=CARTESIAN_POINT('',(-0.0245456882927706,0.002,0.0075));
#1221=CARTESIAN_POINT('',(0.00725,0.002,0.0075));
#1222=CARTESIAN_POINT('',(0.00725,0.002,0.0075));
#1223=CARTESIAN_POINT('',(0.00649747727763333,0.00266399063738235,0.00733400234065441));
#1224=CARTESIAN_POINT('',(0.00574745175307402,0.00333064022112774,0.00716733994471807));
#1225=CARTESIAN_POINT('',(0.005,0.004,0.007));
#1226=CARTESIAN_POINT('',(-0.0245456882927706,0.003,-0.00725));
#1227=CARTESIAN_POINT('',(-0.0245456882927706,0.0025,-0.007375));
#1228=CARTESIAN_POINT('',(-0.00944948974278318,0.0025,-0.007375));
#1229=CARTESIAN_POINT('',(-0.007,0.002,-0.0075));
#1230=CARTESIAN_POINT('',(0.00675,0.002,-0.0075));
#1231=CARTESIAN_POINT('',(0.00616990846681922,0.00266933638443936,-0.00733266590389016));
#1232=CARTESIAN_POINT('',(0.00558654937570942,0.00333598183881952,-0.00716600454029512));
#1233=CARTESIAN_POINT('',(0.005,0.004,-0.007));
#1234=CARTESIAN_POINT('',(0.00675,0.002,-0.0075));
#1235=CARTESIAN_POINT('',(-0.0245456882927706,0.002,-0.0075));
#1236=CARTESIAN_POINT('',(-1.7347234759768E-18,0.004,0.0075));
#1237=CARTESIAN_POINT('',(-1.7347234759768E-18,0.0002,0.0075));
#1238=CARTESIAN_POINT('',(0.00905000234206019,0.0002,0.0075));
#1239=CARTESIAN_POINT('',(0.00905000234206019,0.0002,0.0075));
#1240=CARTESIAN_POINT('',(0.00906899131013133,0.000249786546991395,0.0075));
#1241=CARTESIAN_POINT('',(0.00908798027820246,0.00029957309398279,0.0075));
#1242=CARTESIAN_POINT('',(0.0091069692462736,0.000349359640974185,0.0075));
#1243=CARTESIAN_POINT('',(0.00910696975926902,0.000349360213983092,0.0075));
#1244=CARTESIAN_POINT('',(0.00725,0.002,0.0075));
#1245=CARTESIAN_POINT('',(0.00822914248404886,0.000309551446801306,-0.0075));
#1246=CARTESIAN_POINT('',(0.00915175462234853,0.000309551446801305,0.0075));
#1247=CARTESIAN_POINT('',(0.00715276165603257,0.0015397009645342,-0.0075));
#1248=CARTESIAN_POINT('',(0.00776783641489902,0.0015397009645342,0.0075));
#1249=CARTESIAN_POINT('',(0.00607638082801628,0.00276985048226711,-0.0075));
#1250=CARTESIAN_POINT('',(0.00638391820744951,0.00276985048226711,0.0075));
#1251=CARTESIAN_POINT('',(0.005,0.004,-0.0075));
#1252=CARTESIAN_POINT('',(0.005,0.004,0.0075));
#1253=CARTESIAN_POINT('',(0.00910696975853588,0.000349360214634767,0.0075));
#1254=CARTESIAN_POINT('',(0.00880942407938782,0.000343427501208236,0.00250000000593081));
#1255=CARTESIAN_POINT('',(0.00851039522188488,0.000337494787781705,-0.00249999998813839));
#1256=CARTESIAN_POINT('',(0.00820988318602706,0.000331562074355175,-0.00749999998220758));
#1257=CARTESIAN_POINT('',(0.00820988318358793,0.000331562075899504,-0.0075));
#1258=CARTESIAN_POINT('',(0.00675,0.002,-0.0075));
#1259=CARTESIAN_POINT('',(-0.0005,0.004,-0.0075));
#1260=CARTESIAN_POINT('',(0.00820988255268806,0.00033156152386211,-0.0075));
#1261=CARTESIAN_POINT('',(0.00818992288140243,0.00028770768257474,-0.0075));
#1262=CARTESIAN_POINT('',(0.00816996321011681,0.00024385384128737,-0.0075));
#1263=CARTESIAN_POINT('',(0.00815000353883118,0.0002,-0.0075));
#1264=CARTESIAN_POINT('',(0.00815000353883118,0.0002,-0.0075));
#1265=CARTESIAN_POINT('',(-0.0005,0.0002,-0.0075));
#1266=CARTESIAN_POINT('',(-0.00873493515728975,0.0002,-0.0075));
#1267=CARTESIAN_POINT('',(-0.007,0.002,-0.0075));
#1268=CARTESIAN_POINT('',(-0.00944948974278318,0.0015,-0.0075));
#1269=CARTESIAN_POINT('',(-0.0005,0.0015,-0.0075));
#1270=CARTESIAN_POINT('',(0.,0.,6.93889390390723E-18));
#1271=CARTESIAN_POINT('',(-0.0005,0.,-0.0045));
#1272=CARTESIAN_POINT('',(-0.0005,0.,-0.0033));
#1273=CARTESIAN_POINT('',(-0.0005,0.,-0.0057));
#1274=CARTESIAN_POINT('',(0.,0.,-0.0057));
#1275=CARTESIAN_POINT('',(-0.00843178210632764,0.,-0.0057));
#1276=CARTESIAN_POINT('',(-0.00843178210632764,0.,-0.0075));
#1277=CARTESIAN_POINT('',(-0.00843178210632764,0.,-0.0073));
#1278=CARTESIAN_POINT('',(0.,0.,-0.0073));
#1279=CARTESIAN_POINT('',(0.00807119254367474,0.,-0.0073));
#1280=CARTESIAN_POINT('',(0.00807119254367474,0.,-0.00729999997981807));
#1281=CARTESIAN_POINT('',(0.00836797663060245,0.,-0.00243333331317897));
#1282=CARTESIAN_POINT('',(0.00866476071753015,0.,0.00243333335346013));
#1283=CARTESIAN_POINT('',(0.00896154480445786,0.,0.00730000002009923));
#1284=CARTESIAN_POINT('',(0.00896154480445786,0.,0.00730000002009922));
#1285=CARTESIAN_POINT('',(0.,0.,0.0073));
#1286=CARTESIAN_POINT('',(-0.00843178210632764,0.,0.0073));
#1287=CARTESIAN_POINT('',(-0.00843178210632764,0.,0.0055));
#1288=CARTESIAN_POINT('',(-0.00843178210632764,0.,0.0057));
#1289=CARTESIAN_POINT('',(0.,0.,0.0057));
#1290=CARTESIAN_POINT('',(-0.0005,0.,0.0057));
#1291=CARTESIAN_POINT('',(-0.0005,0.,0.0045));
#1292=CARTESIAN_POINT('',(-0.0005,0.,0.0033));
#1293=CARTESIAN_POINT('',(-0.0085,0.,0.0033));
#1294=CARTESIAN_POINT('',(-0.00843178210632764,0.,0.0033));
#1295=CARTESIAN_POINT('',(-0.00843178210632764,0.,-0.0035));
#1296=CARTESIAN_POINT('',(-0.00843178210632764,0.,-0.0033));
#1297=CARTESIAN_POINT('',(0.,0.,-0.0033));
#1298=CARTESIAN_POINT('',(-0.007,0.002,0.007502));
#1299=CARTESIAN_POINT('',(-0.00855628489818222,4.34782608695651E-5,0.007502));
#1300=CARTESIAN_POINT('',(-0.00855628489818222,4.34782608695651E-5,-0.00734347826086956));
#1301=CARTESIAN_POINT('',(-0.00855628489818222,4.34782608695651E-5,-0.00565652173913043));
#1302=CARTESIAN_POINT('',(-0.007,0.002,-0.0037));
#1303=CARTESIAN_POINT('',(-0.00873493515728975,0.0002,-0.0055));
#1304=CARTESIAN_POINT('',(-0.007,0.002,-0.0055));
#1305=CARTESIAN_POINT('',(-0.00944948974278318,0.0025,0.260317621135332));
#1306=CARTESIAN_POINT('',(-0.00944948974278318,0.0025,-0.008));
#1307=CARTESIAN_POINT('',(-0.007,0.002,-0.008));
#1308=CARTESIAN_POINT('',(-0.00944948974278318,0.0015,-0.008));
#1309=CARTESIAN_POINT('',(-0.00944948974278318,0.0015,0.260317621135332));
#1310=CARTESIAN_POINT('',(-0.007,0.002,-0.0093));
#1311=CARTESIAN_POINT('',(-0.007,0.002,0.007502));
#1312=CARTESIAN_POINT('',(-0.007,0.002,-0.0053));
#1313=CARTESIAN_POINT('',(-0.00855628489818222,4.34782608695651E-5,-0.00334347826086956));
#1314=CARTESIAN_POINT('',(-0.00855628489818222,4.34782608695651E-5,0.007502));
#1315=CARTESIAN_POINT('',(-0.00855628489818222,4.34782608695651E-5,0.00334347826086956));
#1316=CARTESIAN_POINT('',(-0.007,0.002,0.0053));
#1317=CARTESIAN_POINT('',(-0.0085,0.004,0.007502));
#1318=CARTESIAN_POINT('',(-0.00890775757328381,0.0025,0.260317621135332));
#1319=CARTESIAN_POINT('',(-0.00890775757328381,0.0025,-0.008));
#1320=CARTESIAN_POINT('',(-0.00890775757328381,0.0015,0.260317621135332));
#1321=CARTESIAN_POINT('',(-0.00890775757328381,0.0015,-0.008));
#1322=CARTESIAN_POINT('',(-0.0005,0.004,-0.008));
#1323=CARTESIAN_POINT('',(-0.0045,0.004,-0.0055));
#1324=CARTESIAN_POINT('',(-0.0045,0.0002,-0.0055));
#1325=CARTESIAN_POINT('',(-0.0045,0.0022,-0.0055));
#1326=CARTESIAN_POINT('',(0.000522211010328513,0.0022,-0.0055));
#1327=CARTESIAN_POINT('',(0.000522211010328513,0.004,-0.0055));
#1328=CARTESIAN_POINT('',(-0.0045,0.004,0.0055));
#1329=CARTESIAN_POINT('',(-0.0045,0.0002,0.0055));
#1330=CARTESIAN_POINT('',(0.000976756464873969,0.0022,0.0055));
#1331=CARTESIAN_POINT('',(0.000976756464873969,0.0022,0.0055));
#1332=CARTESIAN_POINT('',(-0.0045,0.0022,0.0055));
#1333=CARTESIAN_POINT('',(-0.0085,0.0022,4.33680868994202E-18));
#1334=CARTESIAN_POINT('',(-0.0085,0.0022,4.33680868994202E-18));
#1335=CARTESIAN_POINT('',(-0.00175,0.0022,0.));
#1336=CARTESIAN_POINT('',(0.00125,0.0022,4.33680868994202E-18));
#1337=CARTESIAN_POINT('',(0.00102169528043366,0.0022,-0.00502270383045932));
#1338=CARTESIAN_POINT('',(0.00147624073497912,0.0022,0.00497729616954068));
#1339=CARTESIAN_POINT('',(0.000522211010328513,0.0022,-0.005));
#1340=CARTESIAN_POINT('',(0.000976756464873969,0.0022,0.005));
#1341=CARTESIAN_POINT('',(0.00125,0.0022,4.33680868994202E-18));
#1342=CARTESIAN_POINT('',(0.00102169528043366,0.0022,-0.00502270383045932));
#1343=CARTESIAN_POINT('',(0.00147624073497912,0.004,0.00497729616954068));
#1344=CARTESIAN_POINT('',(0.000522211010328513,0.004,-0.005));
#1345=CARTESIAN_POINT('',(0.000976756464873969,0.0022,0.005));
#1346=CARTESIAN_POINT('',(0.,0.,0.0057));
#1347=CARTESIAN_POINT('',(-0.0005,0.,0.0057));
#1348=CARTESIAN_POINT('',(0.0630499735598055,-0.0249625118760133,0.0306625118760133));
#1349=CARTESIAN_POINT('',(-0.0005,0.,0.0045));
#1350=CARTESIAN_POINT('',(-0.0005,0.,0.0033));
#1351=CARTESIAN_POINT('',(-0.00843178210632764,0.,0.260317621135332));
#1352=CARTESIAN_POINT('',(-0.00165329060908387,-0.00236715191064579,0.00493284808935422));
#1353=CARTESIAN_POINT('',(-0.0045,0.0002,0.0035));
#1354=CARTESIAN_POINT('',(-0.00538323430369781,-0.00106459907172924,0.00223540092827076));
#1355=CARTESIAN_POINT('',(0.,0.,0.0073));
#1356=CARTESIAN_POINT('',(0.00896154483287925,6.68940133281177E-11,0.00730000006689401));
#1357=CARTESIAN_POINT('',(0.0089910306692729,6.66667112626757E-5,0.00736666671126268));
#1358=CARTESIAN_POINT('',(0.00902051650566654,0.000133333355631338,0.00743333335563134));
#1359=CARTESIAN_POINT('',(0.00905000234206019,0.0002,0.0075));
#1360=CARTESIAN_POINT('',(-0.00843178210632764,0.,0.007502));
#1361=CARTESIAN_POINT('',(-0.00539921145680779,-0.00105901960784316,-0.00224098039215684));
#1362=CARTESIAN_POINT('',(0.00805380033265642,-2.14860349499509E-20,-0.00758446888798391));
#1363=CARTESIAN_POINT('',(0.00836323094854799,1.79102061050991E-20,-0.00252366365606472));
#1364=CARTESIAN_POINT('',(0.00867176314597713,-2.7542458700839E-20,0.00253719648076574));
#1365=CARTESIAN_POINT('',(0.00897968238815828,1.14964448599533E-19,0.00759809389048196));
#1366=CARTESIAN_POINT('',(0.0082042720957394,0.00033142821840821,-0.00759366916376145));
#1367=CARTESIAN_POINT('',(0.00850742449852048,0.000338639314864361,-0.00253246198745928));
#1368=CARTESIAN_POINT('',(0.00880997189686873,0.000344503857819609,0.00252877656929746));
#1369=CARTESIAN_POINT('',(0.00911234748920863,0.000349447670544637,0.00759002220752059));
#1370=CARTESIAN_POINT('',(0.00815000353883119,0.000200000000000001,-0.0075));
#1371=CARTESIAN_POINT('',(0.00812373320550355,0.000133333330285773,-0.00743333333028577));
#1372=CARTESIAN_POINT('',(0.00809746287217592,6.66666605715447E-5,-0.00736666666057155));
#1373=CARTESIAN_POINT('',(0.00807119253884828,-9.14268342831642E-12,-0.00729999999085732));
#1374=CARTESIAN_POINT('',(0.,0.,-0.0033));
#1375=CARTESIAN_POINT('',(-0.0005,0.,-0.0033));
#1376=CARTESIAN_POINT('',(0.,0.,-0.0073));
#1377=CARTESIAN_POINT('',(-0.00427624509890375,-0.00145117647058827,-0.00584882352941173));
#1378=CARTESIAN_POINT('',(-0.0005,0.,-0.0045));
#1379=CARTESIAN_POINT('',(-0.0005,0.,-0.0057));
#1380=CARTESIAN_POINT('',(-0.00843178210632764,0.,0.007502));
#1381=CARTESIAN_POINT('',(-0.0121381325705899,0.00129431372549023,-0.00440568627450976));
#1382=CARTESIAN_POINT('',(0.,0.,-0.0057));
#1383=MECHANICAL_DESIGN_GEOMETRIC_PRESENTATION_REPRESENTATION('',(#798),
#1384);
#1384=(
GEOMETRIC_REPRESENTATION_CONTEXT(3)
GLOBAL_UNCERTAINTY_ASSIGNED_CONTEXT((#1385))
GLOBAL_UNIT_ASSIGNED_CONTEXT((#1388,#1387,#1386))
REPRESENTATION_CONTEXT('Part 1','TOP_LEVEL_ASSEMBLY_PART')
);
#1385=UNCERTAINTY_MEASURE_WITH_UNIT(LENGTH_MEASURE(2.E-5),#1388,
'DISTANCE_ACCURACY_VALUE','Maximum Tolerance applied to model');
#1386=(
NAMED_UNIT(*)
SI_UNIT($,.STERADIAN.)
SOLID_ANGLE_UNIT()
);
#1387=(
NAMED_UNIT(*)
PLANE_ANGLE_UNIT()
SI_UNIT($,.RADIAN.)
);
#1388=(
LENGTH_UNIT()
NAMED_UNIT(*)
SI_UNIT($,.METRE.)
);
#1389=PRODUCT_DEFINITION_SHAPE('','',#1390);
#1390=PRODUCT_DEFINITION('','',#1392,#1391);
#1391=PRODUCT_DEFINITION_CONTEXT('',#1398,'design');
#1392=PRODUCT_DEFINITION_FORMATION_WITH_SPECIFIED_SOURCE('','',#1394,
 .NOT_KNOWN.);
#1393=PRODUCT_RELATED_PRODUCT_CATEGORY('','',(#1394));
#1394=PRODUCT('Part 1','Part 1','Part 1',(#1396));
#1395=PRODUCT_CATEGORY('','');
#1396=PRODUCT_CONTEXT('',#1398,'mechanical');
#1397=APPLICATION_PROTOCOL_DEFINITION('international standard',
'ap242_managed_model_based_3d_engineering',2011,#1398);
#1398=APPLICATION_CONTEXT('managed model based 3d engineering');
ENDSEC;
END-ISO-10303-21;
