G04*
G04 #@! TF.GenerationSoftware,Altium Limited,Altium Designer,21.9.2 (33)*
G04*
G04 Layer_Color=128*
%FSTAX24Y24*%
%MOIN*%
G70*
G04*
G04 #@! TF.SameCoordinates,89EE2CFE-D071-483F-B308-50D8B9642E5A*
G04*
G04*
G04 #@! TF.FilePolarity,Positive*
G04*
G01*
G75*
%ADD89C,0.0020*%
D89*
X039734Y015089D02*
X03997D01*
X039852Y014971D02*
Y015207D01*
X039734Y011939D02*
X03997D01*
X039852Y011821D02*
Y012057D01*
X04086Y015089D02*
X041096D01*
X040978Y014971D02*
Y015207D01*
X04086Y011939D02*
X041096D01*
X040978Y011821D02*
Y012057D01*
X040276Y015089D02*
X040555D01*
X040415Y014949D02*
Y015229D01*
X040276Y011939D02*
X040555D01*
X040415Y0118D02*
Y012079D01*
X030407Y01815D02*
X030807D01*
X030607Y01795D02*
Y01835D01*
X030407Y01915D02*
X030807D01*
X030607Y01895D02*
Y01935D01*
X025765Y01966D02*
X026075D01*
X02592Y019505D02*
Y019815D01*
X028475Y01778D02*
X028785D01*
X02863Y017625D02*
Y017935D01*
X028475Y01966D02*
X028785D01*
X02863Y019505D02*
Y019815D01*
X025765Y01778D02*
X026075D01*
X02592Y017625D02*
Y017935D01*
X025765Y024695D02*
X026075D01*
X02592Y02454D02*
Y02485D01*
X028475Y022815D02*
X028785D01*
X02863Y02266D02*
Y02297D01*
X028475Y024695D02*
X028785D01*
X02863Y02454D02*
Y02485D01*
X025765Y022815D02*
X026075D01*
X02592Y02266D02*
Y02297D01*
X025765Y02973D02*
X026075D01*
X02592Y029575D02*
Y029885D01*
X028475Y02785D02*
X028785D01*
X02863Y027695D02*
Y028005D01*
X028475Y02973D02*
X028785D01*
X02863Y029575D02*
Y029885D01*
X025765Y02785D02*
X026075D01*
X02592Y027695D02*
Y028005D01*
X025765Y034765D02*
X026075D01*
X02592Y03461D02*
Y03492D01*
X028475Y032885D02*
X028785D01*
X02863Y03273D02*
Y03304D01*
X028475Y034765D02*
X028785D01*
X02863Y03461D02*
Y03492D01*
X025765Y032885D02*
X026075D01*
X02592Y03273D02*
Y03304D01*
X025765Y0398D02*
X026075D01*
X02592Y039645D02*
Y039955D01*
X028475Y03792D02*
X028785D01*
X02863Y037765D02*
Y038075D01*
X028475Y0398D02*
X028785D01*
X02863Y039645D02*
Y039955D01*
X025765Y03792D02*
X026075D01*
X02592Y037765D02*
Y038075D01*
X051543Y03415D02*
X051977D01*
X05176Y033933D02*
Y034367D01*
X051543Y03315D02*
X051977D01*
X05176Y032933D02*
Y033367D01*
X051543Y03215D02*
X051977D01*
X05176Y031933D02*
Y032367D01*
X051543Y03115D02*
X051977D01*
X05176Y030933D02*
Y031367D01*
X051543Y03015D02*
X051977D01*
X05176Y029933D02*
Y030367D01*
X051543Y02915D02*
X051977D01*
X05176Y028933D02*
Y029367D01*
X051543Y02815D02*
X051977D01*
X05176Y027933D02*
Y028367D01*
X051543Y02715D02*
X051977D01*
X05176Y026933D02*
Y027367D01*
X051543Y02615D02*
X051977D01*
X05176Y025933D02*
Y026367D01*
X051543Y02515D02*
X051977D01*
X05176Y024933D02*
Y025367D01*
X051543Y02415D02*
X051977D01*
X05176Y023933D02*
Y024367D01*
X051543Y02315D02*
X051977D01*
X05176Y022933D02*
Y023367D01*
X051543Y02215D02*
X051977D01*
X05176Y021933D02*
Y022367D01*
X051543Y02115D02*
X051977D01*
X05176Y020933D02*
Y021367D01*
X051543Y02015D02*
X051977D01*
X05176Y019933D02*
Y020367D01*
X051543Y01915D02*
X051977D01*
X05176Y018933D02*
Y019367D01*
X051543Y01815D02*
X051977D01*
X05176Y017933D02*
Y018367D01*
X051543Y01715D02*
X051977D01*
X05176Y016933D02*
Y017367D01*
X051543Y01615D02*
X051977D01*
X05176Y015933D02*
Y016367D01*
X051543Y01515D02*
X051977D01*
X05176Y014933D02*
Y015367D01*
X050543Y03415D02*
X050977D01*
X05076Y033933D02*
Y034367D01*
X050543Y03315D02*
X050977D01*
X05076Y032933D02*
Y033367D01*
X050543Y03215D02*
X050977D01*
X05076Y031933D02*
Y032367D01*
X050543Y03115D02*
X050977D01*
X05076Y030933D02*
Y031367D01*
X050543Y03015D02*
X050977D01*
X05076Y029933D02*
Y030367D01*
X050543Y02915D02*
X050977D01*
X05076Y028933D02*
Y029367D01*
X050543Y02815D02*
X050977D01*
X05076Y027933D02*
Y028367D01*
X050543Y02715D02*
X050977D01*
X05076Y026933D02*
Y027367D01*
X050543Y02615D02*
X050977D01*
X05076Y025933D02*
Y026367D01*
X050543Y02515D02*
X050977D01*
X05076Y024933D02*
Y025367D01*
X050543Y02415D02*
X050977D01*
X05076Y023933D02*
Y024367D01*
X050543Y02315D02*
X050977D01*
X05076Y022933D02*
Y023367D01*
X050543Y02215D02*
X050977D01*
X05076Y021933D02*
Y022367D01*
X050543Y02115D02*
X050977D01*
X05076Y020933D02*
Y021367D01*
X050543Y02015D02*
X050977D01*
X05076Y019933D02*
Y020367D01*
X050543Y01915D02*
X050977D01*
X05076Y018933D02*
Y019367D01*
X050543Y01815D02*
X050977D01*
X05076Y017933D02*
Y018367D01*
X050543Y01715D02*
X050977D01*
X05076Y016933D02*
Y017367D01*
X050543Y01615D02*
X050977D01*
X05076Y015933D02*
Y016367D01*
X050543Y01515D02*
X050977D01*
X05076Y014933D02*
Y015367D01*
X045653Y03625D02*
X046047D01*
X04585Y036054D02*
Y036447D01*
X045653Y0394D02*
X046047D01*
X04585Y039203D02*
Y039597D01*
X042897Y0394D02*
X043291D01*
X043094Y039203D02*
Y039597D01*
X042897Y03625D02*
X043291D01*
X043094Y036054D02*
Y036447D01*
X036399Y040062D02*
X036478D01*
X036438Y040022D02*
Y040101D01*
X036911Y040062D02*
X036989D01*
X03695Y040022D02*
Y040101D01*
X036399Y03955D02*
X036478D01*
X036438Y039511D02*
Y039589D01*
X036911Y03955D02*
X036989D01*
X03695Y039511D02*
Y039589D01*
X036399Y039038D02*
X036478D01*
X036438Y038999D02*
Y039078D01*
X036911Y039038D02*
X036989D01*
X03695Y038999D02*
Y039078D01*
X036399Y038526D02*
X036478D01*
X036438Y038487D02*
Y038566D01*
X036911Y038526D02*
X036989D01*
X03695Y038487D02*
Y038566D01*
X033193Y0192D02*
X033507D01*
X03335Y019043D02*
Y019357D01*
X036193Y019205D02*
X036507D01*
X03635Y019048D02*
Y019362D01*
X024843Y04315D02*
X025157D01*
X025Y042993D02*
Y043307D01*
X024843Y04215D02*
X025157D01*
X025Y041993D02*
Y042307D01*
X030936Y047034D02*
X031369D01*
X031153Y046818D02*
Y047251D01*
X030936Y04605D02*
X031369D01*
X031153Y045833D02*
Y046267D01*
X030936Y045066D02*
X031369D01*
X031153Y044849D02*
Y045282D01*
X025228Y047034D02*
X025661D01*
X025444Y046818D02*
Y047251D01*
X025228Y045066D02*
X025661D01*
X025444Y044849D02*
Y045282D01*
X027806Y048255D02*
X028594D01*
X0282Y047861D02*
Y048648D01*
X027806Y043845D02*
X028594D01*
X0282Y043452D02*
Y044239D01*
X040183Y0481D02*
X040617D01*
X0404Y047883D02*
Y048317D01*
X041183Y0481D02*
X041617D01*
X0414Y047883D02*
Y048317D01*
X039183Y0481D02*
X039617D01*
X0394Y047883D02*
Y048317D01*
X038183Y0481D02*
X038617D01*
X0384Y047883D02*
Y048317D01*
X037183Y0481D02*
X037617D01*
X0374Y047883D02*
Y048317D01*
X036183Y0481D02*
X036617D01*
X0364Y047883D02*
Y048317D01*
X035183Y0481D02*
X035617D01*
X0354Y047883D02*
Y048317D01*
X034183Y0481D02*
X034617D01*
X0344Y047883D02*
Y048317D01*
X042183Y0481D02*
X042617D01*
X0424Y047883D02*
Y048317D01*
X043183Y0481D02*
X043617D01*
X0434Y047883D02*
Y048317D01*
X044183Y0481D02*
X044617D01*
X0444Y047883D02*
Y048317D01*
X045183Y0481D02*
X045617D01*
X0454Y047883D02*
Y048317D01*
X046183Y0481D02*
X046617D01*
X0464Y047883D02*
Y048317D01*
X047183Y0481D02*
X047617D01*
X0474Y047883D02*
Y048317D01*
X05091Y0119D02*
X05217D01*
X05154Y01127D02*
Y01253D01*
X05091Y04884D02*
X05217D01*
X05154Y04821D02*
Y04947D01*
X02317Y04884D02*
X02443D01*
X0238Y04821D02*
Y04947D01*
X02317Y0119D02*
X02443D01*
X0238Y01127D02*
Y01253D01*
X033752Y03305D02*
X033948D01*
X03385Y032952D02*
Y033148D01*
X030752Y0419D02*
X030948D01*
X03085Y041802D02*
Y041998D01*
X031252Y0419D02*
X031448D01*
X03135Y041802D02*
Y041998D01*
X031002Y0419D02*
X031198D01*
X0311Y041802D02*
Y041998D01*
X031252Y0419D02*
X031448D01*
X03135Y041802D02*
Y041998D01*
X031252Y04215D02*
X031448D01*
X03135Y042052D02*
Y042248D01*
X031252Y04165D02*
X031448D01*
X03135Y041552D02*
Y041748D01*
X031002Y04165D02*
X031198D01*
X0311Y041552D02*
Y041748D01*
X030752Y04165D02*
X030948D01*
X03085Y041552D02*
Y041748D01*
X031252Y04165D02*
X031448D01*
X03135Y041552D02*
Y041748D01*
X031002Y04215D02*
X031198D01*
X0311Y042052D02*
Y042248D01*
X030752Y04215D02*
X030948D01*
X03085Y042052D02*
Y042248D01*
X031252Y04215D02*
X031448D01*
X03135Y042052D02*
Y042248D01*
X035602Y02535D02*
X035798D01*
X0357Y025252D02*
Y025448D01*
X036102Y02535D02*
X036298D01*
X0362Y025252D02*
Y025448D01*
X035852Y02535D02*
X036048D01*
X03595Y025252D02*
Y025448D01*
X036102Y02535D02*
X036298D01*
X0362Y025252D02*
Y025448D01*
X036102Y0256D02*
X036298D01*
X0362Y025502D02*
Y025698D01*
X036102Y0251D02*
X036298D01*
X0362Y025002D02*
Y025198D01*
X035852Y0251D02*
X036048D01*
X03595Y025002D02*
Y025198D01*
X035602Y0251D02*
X035798D01*
X0357Y025002D02*
Y025198D01*
X036102Y0251D02*
X036298D01*
X0362Y025002D02*
Y025198D01*
X035852Y0256D02*
X036048D01*
X03595Y025502D02*
Y025698D01*
X035602Y0256D02*
X035798D01*
X0357Y025502D02*
Y025698D01*
X036102Y0256D02*
X036298D01*
X0362Y025502D02*
Y025698D01*
X037952Y0253D02*
X038148D01*
X03805Y025202D02*
Y025398D01*
X038452Y0253D02*
X038648D01*
X03855Y025202D02*
Y025398D01*
X038202Y0253D02*
X038398D01*
X0383Y025202D02*
Y025398D01*
X038452Y0253D02*
X038648D01*
X03855Y025202D02*
Y025398D01*
X038452Y02555D02*
X038648D01*
X03855Y025452D02*
Y025648D01*
X038452Y02505D02*
X038648D01*
X03855Y024952D02*
Y025148D01*
X038202Y02505D02*
X038398D01*
X0383Y024952D02*
Y025148D01*
X037952Y02505D02*
X038148D01*
X03805Y024952D02*
Y025148D01*
X038452Y02505D02*
X038648D01*
X03855Y024952D02*
Y025148D01*
X038202Y02555D02*
X038398D01*
X0383Y025452D02*
Y025648D01*
X037952Y02555D02*
X038148D01*
X03805Y025452D02*
Y025648D01*
X038452Y02555D02*
X038648D01*
X03855Y025452D02*
Y025648D01*
X037352Y0337D02*
X037548D01*
X03745Y033602D02*
Y033798D01*
X037852Y0337D02*
X038048D01*
X03795Y033602D02*
Y033798D01*
X037602Y0337D02*
X037798D01*
X0377Y033602D02*
Y033798D01*
X037852Y0337D02*
X038048D01*
X03795Y033602D02*
Y033798D01*
X037852Y03395D02*
X038048D01*
X03795Y033852D02*
Y034048D01*
X037852Y03345D02*
X038048D01*
X03795Y033352D02*
Y033548D01*
X037602Y03345D02*
X037798D01*
X0377Y033352D02*
Y033548D01*
X037352Y03345D02*
X037548D01*
X03745Y033352D02*
Y033548D01*
X037852Y03345D02*
X038048D01*
X03795Y033352D02*
Y033548D01*
X037602Y03395D02*
X037798D01*
X0377Y033852D02*
Y034048D01*
X037352Y03395D02*
X037548D01*
X03745Y033852D02*
Y034048D01*
X037852Y03395D02*
X038048D01*
X03795Y033852D02*
Y034048D01*
X040202Y03395D02*
X040398D01*
X0403Y033852D02*
Y034048D01*
X039702Y03395D02*
X039898D01*
X0398Y033852D02*
Y034048D01*
X039952Y03395D02*
X040148D01*
X04005Y033852D02*
Y034048D01*
X040202Y03345D02*
X040398D01*
X0403Y033352D02*
Y033548D01*
X039702Y03345D02*
X039898D01*
X0398Y033352D02*
Y033548D01*
X039952Y03345D02*
X040148D01*
X04005Y033352D02*
Y033548D01*
X040202Y03345D02*
X040398D01*
X0403Y033352D02*
Y033548D01*
X040202Y03395D02*
X040398D01*
X0403Y033852D02*
Y034048D01*
X040202Y0337D02*
X040398D01*
X0403Y033602D02*
Y033798D01*
X039952Y0337D02*
X040148D01*
X04005Y033602D02*
Y033798D01*
X040202Y0337D02*
X040398D01*
X0403Y033602D02*
Y033798D01*
X039702Y0337D02*
X039898D01*
X0398Y033602D02*
Y033798D01*
X038677Y032625D02*
X038873D01*
X038775Y032527D02*
Y032723D01*
X045502Y032D02*
X045698D01*
X0456Y031902D02*
Y032098D01*
X046252Y03265D02*
X046448D01*
X04635Y032552D02*
Y032748D01*
X045652Y02935D02*
X045848D01*
X04575Y029252D02*
Y029448D01*
X045702Y02885D02*
X045898D01*
X0458Y028752D02*
Y028948D01*
X046652Y0332D02*
X046848D01*
X04675Y033102D02*
Y033298D01*
X051152Y0317D02*
X051348D01*
X05125Y031602D02*
Y031798D01*
X049802Y0352D02*
X049998D01*
X0499Y035102D02*
Y035298D01*
X032752Y0291D02*
X032948D01*
X03285Y029002D02*
Y029198D01*
X040102Y02945D02*
X040298D01*
X0402Y029352D02*
Y029548D01*
X038202Y0253D02*
X038398D01*
X0383Y025202D02*
Y025398D01*
X037606Y0278D02*
X037803D01*
X037705Y027702D02*
Y027898D01*
X029914Y045389D02*
X030111D01*
X030013Y045291D02*
Y045488D01*
X030722Y037895D02*
X030919D01*
X03082Y037796D02*
Y037993D01*
X030702Y0434D02*
X030898D01*
X0308Y043302D02*
Y043498D01*
X027442Y040695D02*
X027639D01*
X027541Y040597D02*
Y040794D01*
X037802Y0186D02*
X037998D01*
X0379Y018502D02*
Y018698D01*
X039752Y0199D02*
X039948D01*
X03985Y019802D02*
Y019998D01*
X043402Y02645D02*
X043598D01*
X0435Y026352D02*
Y026548D01*
X043852Y02625D02*
X044048D01*
X04395Y026152D02*
Y026348D01*
X049902Y02965D02*
X050098D01*
X05Y029552D02*
Y029748D01*
X039252Y0135D02*
X039448D01*
X03935Y013402D02*
Y013598D01*
X042402Y01385D02*
X042598D01*
X0425Y013752D02*
Y013948D01*
X041802Y01385D02*
X041998D01*
X0419Y013752D02*
Y013948D01*
X038902Y013955D02*
X039098D01*
X039Y013856D02*
Y014053D01*
X041802Y0131D02*
X041998D01*
X0419Y013002D02*
Y013198D01*
X033552Y045D02*
X033748D01*
X03365Y044902D02*
Y045098D01*
X034252Y04495D02*
X034448D01*
X03435Y044852D02*
Y045048D01*
X040252Y0467D02*
X040448D01*
X04035Y046602D02*
Y046798D01*
X038802Y0381D02*
X038998D01*
X0389Y038002D02*
Y038198D01*
X039052Y0401D02*
X039248D01*
X03915Y040002D02*
Y040198D01*
X034902Y0401D02*
X035098D01*
X035Y040002D02*
Y040198D01*
X038629Y036349D02*
X038826D01*
X038728Y03625D02*
Y036447D01*
M02*
