M48
;Layer_Color=9474304
;FILE_FORMAT=2:4
INCH,LZ
;TYPE=PLATED
T1F00S00C0.0079
T2F00S00C0.0197
T4F00S00C0.0310
T5F00S00C0.0315
T6F00S00C0.0394
T7F00S00C0.0400
T8F00S00C0.0433
T10F00S00C0.1260
;TYPE=NON_PLATED
T11F00S00C0.0280
%
T01
X036438Y038526
X03695Y038526
Y039038
X036438
X036438Y03955
Y040062
X03695
Y03955
T02
X03935Y0135
X039Y013955
X0419Y01385
X0425
X0419Y0131
X05Y02965
X04575Y02935
X0458Y02885
X04395Y02625
X0435Y02645
X03855Y02555
Y0253
X0383
X03805
Y02505
X0383
X03855
X0383Y02555
X03805
X0362Y0256
Y02535
X03595
X0357
Y0251
X03595
X0362
X03595Y0256
X0357
X037705Y0278
X0402Y02945
X03285Y0291
X0379Y0186
X03985Y0199
X03082Y037895
X03085Y04165
Y0419
X0311
Y04165
Y04215
X03085
X0308Y0434
X030013Y045389
X027541Y040695
X03135Y04165
Y0419
Y04215
X03365Y045
X03435Y04495
X035Y0401
X03915
X0389Y0381
X038728Y036349
X03795Y03395
Y0337
X0377
X03745
Y03345
X0377
X03795
X0377Y03395
X03745
X0398
X04005
X0403
Y0337
Y03345
X04005
X0398
Y0337
X04005
X038775Y032625
X03385Y03305
X0456Y032
X04635Y03265
X04675Y0332
X04035Y0467
X0499Y0352
X05125Y0317
T04
X02592Y01778
Y01966
X02863
Y01778
Y022815
Y024695
X02592
Y022815
X02592Y02785
Y02973
X02863
X02863Y02785
Y032885
Y034765
X02592
Y032885
X02592Y03792
Y0398
X02863Y0398
X02863Y03792
T05
X03335Y0192
X03635Y019205
X025Y04215
Y04315
T06
X043094Y03625
X04585
Y0394
X043094
T07
X030607Y01815
Y01915
T08
X05076Y01515
X05176
Y01615
Y01715
Y01815
Y01915
Y02015
Y02115
X05076
Y02215
Y02315
X05176
Y02215
Y02415
Y02515
Y02615
Y02715
Y02815
Y02915
Y03015
X05076
Y03115
X05176Y03115
X05076Y02915
Y02815
Y02715
Y02615
Y02515
Y02415
Y02015
Y01915
Y01815
Y01715
Y01615
X031153Y045066
X031153Y04605
X025444Y045066
X05076Y03415
X05176
Y03315
X05076
Y03215
X05176Y03215
X0474Y0481
X0464
X0454
X0444
X0434
X0424
X0414
X0404
X0394
X0384
X0374
X0364
X0354
X0344
X031153Y047034
X025444
T10
X0238Y0119
X05154
Y04884
X0238
T11
X040415Y011939
Y015089
M30
