G04*
G04 #@! TF.GenerationSoftware,Altium Limited,Altium Designer,21.9.2 (33)*
G04*
G04 Layer_Physical_Order=1*
G04 Layer_Color=255*
%FSTAX24Y24*%
%MOIN*%
G70*
G04*
G04 #@! TF.SameCoordinates,89EE2CFE-D071-483F-B308-50D8B9642E5A*
G04*
G04*
G04 #@! TF.FilePolarity,Positive*
G04*
G01*
G75*
%ADD13C,0.0080*%
%ADD20R,0.0374X0.0394*%
%ADD21R,0.0669X0.0984*%
%ADD22R,0.0394X0.0374*%
G04:AMPARAMS|DCode=23|XSize=53.9mil|YSize=23.2mil|CornerRadius=5.8mil|HoleSize=0mil|Usage=FLASHONLY|Rotation=270.000|XOffset=0mil|YOffset=0mil|HoleType=Round|Shape=RoundedRectangle|*
%AMROUNDEDRECTD23*
21,1,0.0539,0.0116,0,0,270.0*
21,1,0.0423,0.0232,0,0,270.0*
1,1,0.0116,-0.0058,-0.0212*
1,1,0.0116,-0.0058,0.0212*
1,1,0.0116,0.0058,0.0212*
1,1,0.0116,0.0058,-0.0212*
%
%ADD23ROUNDEDRECTD23*%
%ADD24R,0.0472X0.0551*%
%ADD25R,0.0709X0.1220*%
%ADD26R,0.1575X0.0787*%
%ADD27R,0.0551X0.0472*%
G04:AMPARAMS|DCode=28|XSize=61mil|YSize=23.6mil|CornerRadius=0.6mil|HoleSize=0mil|Usage=FLASHONLY|Rotation=180.000|XOffset=0mil|YOffset=0mil|HoleType=Round|Shape=RoundedRectangle|*
%AMROUNDEDRECTD28*
21,1,0.0610,0.0224,0,0,180.0*
21,1,0.0598,0.0236,0,0,180.0*
1,1,0.0012,-0.0299,0.0112*
1,1,0.0012,0.0299,0.0112*
1,1,0.0012,0.0299,-0.0112*
1,1,0.0012,-0.0299,-0.0112*
%
%ADD28ROUNDEDRECTD28*%
%ADD29R,0.0394X0.0945*%
%ADD30R,0.1299X0.0945*%
%ADD31R,0.0472X0.0335*%
%ADD32R,0.0354X0.0374*%
%ADD61C,0.0350*%
%ADD62O,0.0787X0.0315*%
%ADD63R,0.1161X0.1929*%
%ADD64C,0.0200*%
%ADD65C,0.0150*%
%ADD66C,0.0120*%
%ADD67O,0.0433X0.0630*%
%ADD68C,0.0280*%
%ADD69C,0.0650*%
%ADD70P,0.0704X8X292.5*%
%ADD71C,0.0750*%
%ADD72C,0.0669*%
%ADD73R,0.0669X0.0669*%
%ADD74C,0.0594*%
%ADD75C,0.0118*%
%ADD76C,0.0591*%
%ADD77R,0.0591X0.0591*%
%ADD78C,0.0630*%
%ADD79R,0.0630X0.0630*%
G04:AMPARAMS|DCode=80|XSize=122mil|YSize=118.1mil|CornerRadius=29.5mil|HoleSize=0mil|Usage=FLASHONLY|Rotation=0.000|XOffset=0mil|YOffset=0mil|HoleType=Round|Shape=RoundedRectangle|*
%AMROUNDEDRECTD80*
21,1,0.1220,0.0591,0,0,0.0*
21,1,0.0630,0.1181,0,0,0.0*
1,1,0.0591,0.0315,-0.0295*
1,1,0.0591,-0.0315,-0.0295*
1,1,0.0591,-0.0315,0.0295*
1,1,0.0591,0.0315,0.0295*
%
%ADD80ROUNDEDRECTD80*%
%ADD81C,0.1969*%
%ADD82C,0.0354*%
G36*
X041145Y048644D02*
Y048512D01*
X041102Y048488D01*
X041012Y048398D01*
X040948Y048287D01*
X040926Y048203D01*
X040874D01*
X040852Y048287D01*
X040788Y048398D01*
X040698Y048488D01*
X040587Y048552D01*
X040464Y048585D01*
X040336D01*
X040213Y048552D01*
X040102Y048488D01*
X040012Y048398D01*
X039948Y048287D01*
X039926Y048203D01*
X039874D01*
X039852Y048287D01*
X039788Y048398D01*
X039698Y048488D01*
X039587Y048552D01*
X039464Y048585D01*
X039336D01*
X039213Y048552D01*
X039102Y048488D01*
X039012Y048398D01*
X038948Y048287D01*
X038926Y048203D01*
X038874D01*
X038852Y048287D01*
X038788Y048398D01*
X038698Y048488D01*
X038587Y048552D01*
X038464Y048585D01*
X038336D01*
X038213Y048552D01*
X038102Y048488D01*
X038012Y048398D01*
X037948Y048287D01*
X037926Y048203D01*
X037874D01*
X037852Y048287D01*
X037788Y048398D01*
X037698Y048488D01*
X037587Y048552D01*
X037464Y048585D01*
X037336D01*
X037213Y048552D01*
X037102Y048488D01*
X037012Y048398D01*
X036948Y048287D01*
X036926Y048203D01*
X036874D01*
X036852Y048287D01*
X036788Y048398D01*
X036698Y048488D01*
X036587Y048552D01*
X036464Y048585D01*
X036336D01*
X036213Y048552D01*
X036102Y048488D01*
X036012Y048398D01*
X035948Y048287D01*
X035915Y048164D01*
Y048036D01*
X035948Y047913D01*
X036012Y047802D01*
X036102Y047712D01*
X036213Y047648D01*
X036336Y047615D01*
X036464D01*
X036587Y047648D01*
X036698Y047712D01*
X036788Y047802D01*
X036852Y047913D01*
X036874Y047997D01*
X036926D01*
X036948Y047913D01*
X037012Y047802D01*
X037102Y047712D01*
X037213Y047648D01*
X037336Y047615D01*
X037464D01*
X037587Y047648D01*
X037698Y047712D01*
X037788Y047802D01*
X037852Y047913D01*
X037874Y047997D01*
X037926D01*
X037948Y047913D01*
X038012Y047802D01*
X038102Y047712D01*
X038145Y047688D01*
Y04765D01*
X038165Y047552D01*
X03822Y04747D01*
X041204Y044485D01*
X04118Y044439D01*
X0411Y044455D01*
X03381D01*
X033654Y044612D01*
X033673Y044658D01*
X033962D01*
Y044854D01*
X033963Y044855D01*
X034013Y044832D01*
Y044658D01*
X034202D01*
X034224Y044645D01*
X034307Y044623D01*
X034393D01*
X034476Y044645D01*
X034498Y044658D01*
X034687D01*
Y045248D01*
Y045942D01*
X034605D01*
Y047659D01*
X034698Y047712D01*
X034788Y047802D01*
X034852Y047913D01*
X034885Y048036D01*
Y048164D01*
X034852Y048287D01*
X034788Y048398D01*
X034698Y048488D01*
X034655Y048512D01*
Y048644D01*
X034856Y048845D01*
X040944D01*
X041145Y048644D01*
D02*
G37*
G36*
X046145Y048694D02*
Y048512D01*
X046102Y048488D01*
X046012Y048398D01*
X045948Y048287D01*
X045926Y048203D01*
X045874D01*
X045852Y048287D01*
X045788Y048398D01*
X045698Y048488D01*
X045587Y048552D01*
X045464Y048585D01*
X045336D01*
X045213Y048552D01*
X045102Y048488D01*
X045012Y048398D01*
X044948Y048287D01*
X044926Y048203D01*
X044874D01*
X044852Y048287D01*
X044788Y048398D01*
X044698Y048488D01*
X044587Y048552D01*
X044464Y048585D01*
X044336D01*
X044213Y048552D01*
X044102Y048488D01*
X044012Y048398D01*
X043948Y048287D01*
X043926Y048203D01*
X043874D01*
X043852Y048287D01*
X043788Y048398D01*
X043698Y048488D01*
X043587Y048552D01*
X043464Y048585D01*
X043336D01*
X043213Y048552D01*
X043102Y048488D01*
X043012Y048398D01*
X042948Y048287D01*
X042926Y048203D01*
X042874D01*
X042852Y048287D01*
X042788Y048398D01*
X042698Y048488D01*
X042655Y048512D01*
Y048594D01*
X042856Y048795D01*
X046044D01*
X046145Y048694D01*
D02*
G37*
G36*
X045948Y047913D02*
X046012Y047802D01*
X046102Y047712D01*
X046213Y047648D01*
X046336Y047615D01*
X046464D01*
X046587Y047648D01*
X046698Y047712D01*
X046788Y047802D01*
X046852Y047913D01*
X046874Y047997D01*
X046926D01*
X046948Y047913D01*
X047012Y047802D01*
X047102Y047712D01*
X047186Y047664D01*
Y0444D01*
X047202Y044318D01*
X047249Y044249D01*
X052056Y039441D01*
Y034589D01*
X052013Y034564D01*
X051947Y034602D01*
X051824Y034635D01*
X051696D01*
X051573Y034602D01*
X051462Y034538D01*
X051372Y034448D01*
X051308Y034337D01*
X051295Y034286D01*
X051245Y034292D01*
Y034635D01*
X051015D01*
Y03654D01*
X050995Y036638D01*
X05094Y03672D01*
X04808Y03958D01*
X047998Y039636D01*
X0479Y039655D01*
X046219D01*
X046208Y039674D01*
X046124Y039758D01*
X046022Y039816D01*
X045909Y039847D01*
X045791D01*
X045678Y039816D01*
X045576Y039758D01*
X045492Y039674D01*
X045455Y039609D01*
X045405Y039623D01*
Y04735D01*
X045385Y047448D01*
X04533Y04753D01*
X045283Y047578D01*
X045308Y047623D01*
X045336Y047615D01*
X045464D01*
X045587Y047648D01*
X045698Y047712D01*
X045788Y047802D01*
X045852Y047913D01*
X045874Y047997D01*
X045926D01*
X045948Y047913D01*
D02*
G37*
G36*
X039948D02*
X040012Y047802D01*
X040102Y047712D01*
X040213Y047648D01*
X040336Y047615D01*
X040464D01*
X040587Y047648D01*
X040698Y047712D01*
X040788Y047802D01*
X040852Y047913D01*
X040874Y047997D01*
X040926D01*
X040948Y047913D01*
X041012Y047802D01*
X041102Y047712D01*
X041213Y047648D01*
X041336Y047615D01*
X041464D01*
X041587Y047648D01*
X041698Y047712D01*
X041788Y047802D01*
X041852Y047913D01*
X041874Y047997D01*
X041926D01*
X041948Y047913D01*
X042012Y047802D01*
X042102Y047712D01*
X042213Y047648D01*
X042336Y047615D01*
X042464D01*
X042587Y047648D01*
X042698Y047712D01*
X042788Y047802D01*
X042852Y047913D01*
X042874Y047997D01*
X042926D01*
X042948Y047913D01*
X043012Y047802D01*
X043102Y047712D01*
X043213Y047648D01*
X043336Y047615D01*
X043464D01*
X043587Y047648D01*
X043698Y047712D01*
X043788Y047802D01*
X043852Y047913D01*
X043874Y047997D01*
X043926D01*
X043948Y047913D01*
X044012Y047802D01*
X044102Y047712D01*
X044213Y047648D01*
X044336Y047615D01*
X044464D01*
X044511Y047628D01*
X044895Y047244D01*
Y042581D01*
X044849Y042562D01*
X040677Y046733D01*
Y046743D01*
X040655Y046826D01*
X040612Y046901D01*
X040551Y046962D01*
X040476Y047005D01*
X040393Y047027D01*
X040307D01*
X040224Y047005D01*
X040149Y046962D01*
X040088Y046901D01*
X040045Y046826D01*
X040023Y046743D01*
Y046657D01*
X040045Y046574D01*
X040088Y046499D01*
X040149Y046438D01*
X040224Y046395D01*
X040307Y046373D01*
X040317D01*
X044495Y042194D01*
Y041981D01*
X044449Y041962D01*
X04233Y04408D01*
X038698Y047713D01*
X038788Y047802D01*
X038852Y047913D01*
X038874Y047997D01*
X038926D01*
X038948Y047913D01*
X039012Y047802D01*
X039102Y047712D01*
X039213Y047648D01*
X039336Y047615D01*
X039464D01*
X039587Y047648D01*
X039698Y047712D01*
X039788Y047802D01*
X039852Y047913D01*
X039874Y047997D01*
X039926D01*
X039948Y047913D01*
D02*
G37*
G36*
X050658Y049555D02*
X05057Y049434D01*
X050489Y049275D01*
X050434Y049106D01*
X050406Y048929D01*
Y048751D01*
X050434Y048574D01*
X050489Y048405D01*
X05057Y048246D01*
X050675Y048101D01*
X050801Y047975D01*
X050946Y04787D01*
X051105Y047789D01*
X051274Y047734D01*
X051451Y047706D01*
X051629D01*
X051806Y047734D01*
X051975Y047789D01*
X052134Y04787D01*
X052255Y047958D01*
X052305Y047932D01*
Y039863D01*
X052259Y039844D01*
X047614Y044489D01*
Y047664D01*
X047698Y047712D01*
X047788Y047802D01*
X047852Y047913D01*
X047885Y048036D01*
Y048164D01*
X047852Y048287D01*
X047788Y048398D01*
X047698Y048488D01*
X047587Y048552D01*
X047464Y048585D01*
X047336D01*
X047213Y048552D01*
X047102Y048488D01*
X047012Y048398D01*
X046948Y048287D01*
X046926Y048203D01*
X046874D01*
X046852Y048287D01*
X046788Y048398D01*
X046698Y048488D01*
X046655Y048512D01*
Y0488D01*
X046635Y048898D01*
X04658Y04898D01*
X04633Y04923D01*
X046248Y049285D01*
X04615Y049305D01*
X04275D01*
X042652Y049285D01*
X04257Y04923D01*
X04222Y04888D01*
X042165Y048798D01*
X042145Y0487D01*
Y048512D01*
X042102Y048488D01*
X042012Y048398D01*
X041948Y048287D01*
X041926Y048203D01*
X041874D01*
X041852Y048287D01*
X041788Y048398D01*
X041698Y048488D01*
X041655Y048512D01*
Y04875D01*
X041635Y048848D01*
X04158Y04893D01*
X04123Y04928D01*
X041148Y049335D01*
X04105Y049355D01*
X03045D01*
X030352Y049335D01*
X03027Y04928D01*
X02982Y04883D01*
X029764Y048748D01*
X029745Y04865D01*
Y04558D01*
X029708Y045516D01*
X029686Y045433D01*
Y045346D01*
X029708Y045263D01*
X029751Y045189D01*
X029812Y045128D01*
X029886Y045085D01*
X02997Y045062D01*
X030056D01*
X030139Y045085D01*
X030214Y045128D01*
X030274Y045189D01*
X030318Y045263D01*
X03034Y045346D01*
Y045433D01*
X030318Y045516D01*
X030274Y04559D01*
X030255Y04561D01*
Y048544D01*
X030556Y048845D01*
X034125D01*
X034156Y048806D01*
X034145Y04875D01*
Y048512D01*
X034102Y048488D01*
X034012Y048398D01*
X033948Y048287D01*
X033915Y048164D01*
Y048036D01*
X033948Y047913D01*
X034012Y047802D01*
X034095Y04772D01*
Y045942D01*
X034013D01*
Y04585D01*
X033962D01*
Y045942D01*
X033288D01*
Y04585D01*
X033237D01*
Y045942D01*
X032563D01*
Y045391D01*
X032537Y045352D01*
X031863D01*
Y04526D01*
X0316D01*
X031541Y045363D01*
X03145Y045454D01*
X03134Y045517D01*
X031217Y04555D01*
X031089D01*
X030966Y045517D01*
X030855Y045454D01*
X030765Y045363D01*
X030701Y045253D01*
X030668Y04513D01*
Y045002D01*
X030701Y044879D01*
X030765Y044768D01*
X030855Y044678D01*
X030966Y044614D01*
X031Y044605D01*
X030994Y044555D01*
X029306D01*
X02739Y046471D01*
X027307Y046526D01*
X027209Y046545D01*
X025667D01*
X025653Y046595D01*
X025742Y046646D01*
X025832Y046737D01*
X025896Y046847D01*
X025929Y04697D01*
Y047098D01*
X025896Y047221D01*
X025832Y047332D01*
X025742Y047422D01*
X025631Y047486D01*
X025508Y047519D01*
X02538D01*
X025257Y047486D01*
X025147Y047422D01*
X025056Y047332D01*
X024992Y047221D01*
X024959Y047098D01*
Y04697D01*
X024972Y046923D01*
X024686Y046637D01*
X024363D01*
Y045944D01*
X025037D01*
Y046036D01*
X027104D01*
X0285Y04464D01*
X028479Y04459D01*
X027885D01*
X027769Y044574D01*
X02766Y04453D01*
X027567Y044458D01*
X027496Y044365D01*
X027451Y044257D01*
X027436Y044141D01*
Y04355D01*
X027451Y043434D01*
X027496Y043325D01*
X027567Y043232D01*
X02766Y043161D01*
X027769Y043116D01*
X027885Y043101D01*
X028515D01*
X028631Y043116D01*
X02874Y043161D01*
X028833Y043232D01*
X028904Y043325D01*
X028949Y043434D01*
X028964Y04355D01*
Y044105D01*
X029014Y044125D01*
X02902Y04412D01*
X029102Y044064D01*
X0292Y044045D01*
X0324D01*
X032498Y044064D01*
X03258Y04412D01*
X033002Y044542D01*
X033524Y04402D01*
X033607Y043965D01*
X033705Y043945D01*
X040994D01*
X043695Y041244D01*
Y02855D01*
X043714Y028452D01*
X04377Y02837D01*
X04577Y02637D01*
X045852Y026314D01*
X04595Y026295D01*
X048254D01*
X050288Y024261D01*
X050275Y024214D01*
Y024086D01*
X050308Y023963D01*
X050372Y023852D01*
X050462Y023762D01*
X050573Y023698D01*
X050657Y023676D01*
Y023624D01*
X050573Y023602D01*
X050462Y023538D01*
X050372Y023448D01*
X050308Y023337D01*
X050275Y023214D01*
Y023086D01*
X050308Y022963D01*
X050372Y022852D01*
X050462Y022762D01*
X050573Y022698D01*
X050657Y022676D01*
Y022624D01*
X050573Y022602D01*
X050462Y022538D01*
X050372Y022448D01*
X050308Y022337D01*
X050275Y022214D01*
Y022086D01*
X050308Y021963D01*
X050372Y021852D01*
X050462Y021762D01*
X050573Y021698D01*
X050657Y021676D01*
Y021624D01*
X050573Y021602D01*
X050462Y021538D01*
X050372Y021448D01*
X050308Y021337D01*
X050275Y021214D01*
Y021086D01*
X050308Y020963D01*
X050372Y020852D01*
X050462Y020762D01*
X050573Y020698D01*
X050657Y020676D01*
Y020624D01*
X050573Y020602D01*
X050462Y020538D01*
X050372Y020448D01*
X050308Y020337D01*
X050275Y020214D01*
Y020086D01*
X050308Y019963D01*
X050372Y019852D01*
X050462Y019762D01*
X050573Y019698D01*
X050696Y019665D01*
X050824D01*
X050947Y019698D01*
X050977Y019716D01*
X051021Y019691D01*
Y01766D01*
X05103Y017611D01*
X050986Y017579D01*
X050947Y017602D01*
X050824Y017635D01*
X050696D01*
X050573Y017602D01*
X050462Y017538D01*
X050372Y017448D01*
X050308Y017337D01*
X050275Y017214D01*
Y017086D01*
X050308Y016963D01*
X050372Y016852D01*
X050462Y016762D01*
X050573Y016698D01*
X050657Y016676D01*
Y016624D01*
X050573Y016602D01*
X050462Y016538D01*
X050372Y016448D01*
X050308Y016337D01*
X050275Y016214D01*
Y016086D01*
X050308Y015963D01*
X050372Y015852D01*
X050462Y015762D01*
X050573Y015698D01*
X050657Y015676D01*
Y015624D01*
X050573Y015602D01*
X050462Y015538D01*
X050372Y015448D01*
X050308Y015337D01*
X050275Y015214D01*
Y015086D01*
X050308Y014963D01*
X050372Y014852D01*
X050462Y014762D01*
X050573Y014698D01*
X050696Y014665D01*
X050824D01*
X050947Y014698D01*
X051058Y014762D01*
X051148Y014852D01*
X051212Y014963D01*
X051234Y015047D01*
X051286D01*
X051308Y014963D01*
X051372Y014852D01*
X051462Y014762D01*
X051573Y014698D01*
X051696Y014665D01*
X051824D01*
X051947Y014698D01*
X052058Y014762D01*
X052148Y014852D01*
X052212Y014963D01*
X052245Y015086D01*
Y015214D01*
X052212Y015337D01*
X052148Y015448D01*
X052058Y015538D01*
X051947Y015602D01*
X051863Y015624D01*
Y015676D01*
X051947Y015698D01*
X052058Y015762D01*
X052148Y015852D01*
X052212Y015963D01*
X052245Y016086D01*
Y016214D01*
X052212Y016337D01*
X052148Y016448D01*
X052058Y016538D01*
X051947Y016602D01*
X051863Y016624D01*
Y016676D01*
X051947Y016698D01*
X052058Y016762D01*
X052148Y016852D01*
X052212Y016963D01*
X052245Y017086D01*
Y017214D01*
X052212Y017337D01*
X052148Y017448D01*
X052058Y017538D01*
X051947Y017602D01*
X051863Y017624D01*
Y017676D01*
X051947Y017698D01*
X052058Y017762D01*
X052148Y017852D01*
X052212Y017963D01*
X052245Y018086D01*
Y018214D01*
X052212Y018337D01*
X052148Y018448D01*
X052058Y018538D01*
X051947Y018602D01*
X051863Y018624D01*
Y018676D01*
X051947Y018698D01*
X052058Y018762D01*
X052148Y018852D01*
X052212Y018963D01*
X052245Y019086D01*
Y019214D01*
X052212Y019337D01*
X052148Y019448D01*
X052058Y019538D01*
X051947Y019602D01*
X051863Y019624D01*
Y019676D01*
X051947Y019698D01*
X052058Y019762D01*
X052148Y019852D01*
X052212Y019963D01*
X052245Y020086D01*
Y020214D01*
X052212Y020337D01*
X052148Y020448D01*
X052058Y020538D01*
X051947Y020602D01*
X051863Y020624D01*
Y020676D01*
X051947Y020698D01*
X052058Y020762D01*
X052148Y020852D01*
X052212Y020963D01*
X052245Y021086D01*
Y021214D01*
X052212Y021337D01*
X052148Y021448D01*
X052058Y021538D01*
X051947Y021602D01*
X051863Y021624D01*
Y021676D01*
X051947Y021698D01*
X052058Y021762D01*
X052148Y021852D01*
X052212Y021963D01*
X052245Y022086D01*
Y022214D01*
X052212Y022337D01*
X052148Y022448D01*
X052058Y022538D01*
X051947Y022602D01*
X051863Y022624D01*
Y022676D01*
X051947Y022698D01*
X052058Y022762D01*
X052148Y022852D01*
X052212Y022963D01*
X052245Y023086D01*
Y023214D01*
X052212Y023337D01*
X052148Y023448D01*
X052058Y023538D01*
X051947Y023602D01*
X051863Y023624D01*
Y023676D01*
X051947Y023698D01*
X052058Y023762D01*
X052148Y023852D01*
X052212Y023963D01*
X052245Y024086D01*
Y024214D01*
X052212Y024337D01*
X052148Y024448D01*
X052058Y024538D01*
X051947Y024602D01*
X051863Y024624D01*
Y024676D01*
X051947Y024698D01*
X052058Y024762D01*
X052148Y024852D01*
X052212Y024963D01*
X052245Y025086D01*
Y025214D01*
X052212Y025337D01*
X052148Y025448D01*
X052058Y025538D01*
X051947Y025602D01*
X051863Y025624D01*
Y025676D01*
X051947Y025698D01*
X052058Y025762D01*
X052148Y025852D01*
X052212Y025963D01*
X052245Y026086D01*
Y026214D01*
X052212Y026337D01*
X052148Y026448D01*
X052058Y026538D01*
X051947Y026602D01*
X051863Y026624D01*
Y026676D01*
X051947Y026698D01*
X052058Y026762D01*
X052148Y026852D01*
X052212Y026963D01*
X052245Y027086D01*
Y027214D01*
X052212Y027337D01*
X052148Y027448D01*
X052058Y027538D01*
X051947Y027602D01*
X051863Y027624D01*
Y027676D01*
X051947Y027698D01*
X052058Y027762D01*
X052148Y027852D01*
X052212Y027963D01*
X052245Y028086D01*
Y028214D01*
X052212Y028337D01*
X052148Y028448D01*
X052058Y028538D01*
X051947Y028602D01*
X051863Y028624D01*
Y028676D01*
X051947Y028698D01*
X052058Y028762D01*
X052148Y028852D01*
X052212Y028963D01*
X052245Y029086D01*
Y029214D01*
X052212Y029337D01*
X052148Y029448D01*
X052058Y029538D01*
X051947Y029602D01*
X051863Y029624D01*
Y029676D01*
X051947Y029698D01*
X052058Y029762D01*
X052148Y029852D01*
X052212Y029963D01*
X052245Y030086D01*
Y030214D01*
X05222Y030307D01*
X052259Y030346D01*
X052305Y030327D01*
Y012808D01*
X052255Y012782D01*
X052134Y01287D01*
X051975Y012951D01*
X051806Y013006D01*
X051629Y013034D01*
X051451D01*
X051274Y013006D01*
X051105Y012951D01*
X050946Y01287D01*
X050801Y012765D01*
X050675Y012639D01*
X05057Y012494D01*
X050489Y012335D01*
X050434Y012166D01*
X050406Y011989D01*
Y011811D01*
X050434Y011634D01*
X050489Y011465D01*
X05057Y011306D01*
X050658Y011185D01*
X050632Y011135D01*
X048627D01*
X048609Y011182D01*
X048771Y011329D01*
X048992Y011572D01*
X049188Y011837D01*
X049358Y012119D01*
X049498Y012417D01*
X049609Y012726D01*
X049689Y013046D01*
X049738Y013371D01*
X049754Y0137D01*
X049738Y014029D01*
X049689Y014354D01*
X049609Y014674D01*
X049498Y014983D01*
X049358Y015281D01*
X049188Y015563D01*
X048992Y015828D01*
X048771Y016071D01*
X048528Y016292D01*
X048263Y016488D01*
X047981Y016658D01*
X047683Y016798D01*
X047374Y016909D01*
X047054Y016989D01*
X046729Y017038D01*
X0464Y017054D01*
X046071Y017038D01*
X045746Y016989D01*
X045426Y016909D01*
X045117Y016798D01*
X044819Y016658D01*
X044537Y016488D01*
X044272Y016292D01*
X044029Y016071D01*
X043808Y015828D01*
X043612Y015563D01*
X043442Y015281D01*
X043302Y014983D01*
X043191Y014674D01*
X043111Y014354D01*
X043063Y014029D01*
X043046Y0137D01*
X043063Y013371D01*
X043111Y013046D01*
X043191Y012726D01*
X043302Y012417D01*
X043442Y012119D01*
X043612Y011837D01*
X043808Y011572D01*
X044029Y011329D01*
X044191Y011182D01*
X044173Y011135D01*
X035548D01*
X035538Y011184D01*
X035584Y011203D01*
X035849Y01135D01*
X036097Y011525D01*
X036323Y011727D01*
X036525Y011953D01*
X0367Y012201D01*
X036847Y012466D01*
X036963Y012747D01*
X037047Y013038D01*
X037098Y013337D01*
X037115Y01364D01*
X037098Y013943D01*
X037047Y014242D01*
X036963Y014533D01*
X036847Y014814D01*
X0367Y015079D01*
X036525Y015327D01*
X036323Y015553D01*
X036097Y015755D01*
X035849Y01593D01*
X035584Y016077D01*
X035303Y016193D01*
X035012Y016277D01*
X034713Y016328D01*
X03441Y016345D01*
X034107Y016328D01*
X033808Y016277D01*
X033517Y016193D01*
X033236Y016077D01*
X032971Y01593D01*
X032723Y015755D01*
X032497Y015553D01*
X032295Y015327D01*
X03212Y015079D01*
X031973Y014814D01*
X031857Y014533D01*
X031773Y014242D01*
X031722Y013943D01*
X031705Y01364D01*
X031722Y013337D01*
X031773Y013038D01*
X031857Y012747D01*
X031973Y012466D01*
X03212Y012201D01*
X032295Y011953D01*
X032497Y011727D01*
X032723Y011525D01*
X032971Y01135D01*
X033236Y011203D01*
X033282Y011184D01*
X033272Y011135D01*
X028938D01*
X028928Y011184D01*
X028974Y011203D01*
X029239Y01135D01*
X029487Y011525D01*
X029713Y011727D01*
X029915Y011953D01*
X03009Y012201D01*
X030237Y012466D01*
X030353Y012747D01*
X030437Y013038D01*
X030488Y013337D01*
X030505Y01364D01*
X030488Y013943D01*
X030437Y014242D01*
X030353Y014533D01*
X030237Y014814D01*
X03009Y015079D01*
X029915Y015327D01*
X029713Y015553D01*
X029487Y015755D01*
X029239Y01593D01*
X028974Y016077D01*
X028693Y016193D01*
X028402Y016277D01*
X028103Y016328D01*
X0278Y016345D01*
X027497Y016328D01*
X027198Y016277D01*
X026907Y016193D01*
X026626Y016077D01*
X026361Y01593D01*
X026113Y015755D01*
X025887Y015553D01*
X025685Y015327D01*
X02551Y015079D01*
X025363Y014814D01*
X025247Y014533D01*
X025163Y014242D01*
X025112Y013943D01*
X025095Y01364D01*
X025112Y013337D01*
X025163Y013038D01*
X025247Y012747D01*
X025363Y012466D01*
X02551Y012201D01*
X025685Y011953D01*
X025887Y011727D01*
X026113Y011525D01*
X026361Y01135D01*
X026626Y011203D01*
X026672Y011184D01*
X026662Y011135D01*
X024708D01*
X024682Y011185D01*
X02477Y011306D01*
X024851Y011465D01*
X024906Y011634D01*
X024934Y011811D01*
Y011989D01*
X024906Y012166D01*
X024851Y012335D01*
X02477Y012494D01*
X024665Y012639D01*
X024539Y012765D01*
X024394Y01287D01*
X024235Y012951D01*
X024066Y013006D01*
X023889Y013034D01*
X023711D01*
X023534Y013006D01*
X023365Y012951D01*
X023206Y01287D01*
X023085Y012782D01*
X023035Y012808D01*
Y047932D01*
X023085Y047958D01*
X023206Y04787D01*
X023365Y047789D01*
X023534Y047734D01*
X023711Y047706D01*
X023889D01*
X024066Y047734D01*
X024235Y047789D01*
X024394Y04787D01*
X024539Y047975D01*
X024665Y048101D01*
X02477Y048246D01*
X024851Y048405D01*
X024906Y048574D01*
X024934Y048751D01*
Y048929D01*
X024906Y049106D01*
X024851Y049275D01*
X02477Y049434D01*
X024682Y049555D01*
X024708Y049605D01*
X050632D01*
X050658Y049555D01*
D02*
G37*
G36*
X045492Y039126D02*
X045576Y039042D01*
X045678Y038984D01*
X045791Y038953D01*
X045909D01*
X046022Y038984D01*
X046124Y039042D01*
X046208Y039126D01*
X046219Y039145D01*
X047794D01*
X050505Y036434D01*
Y034635D01*
X050275D01*
Y033905D01*
X04665D01*
X046552Y033886D01*
X04647Y03383D01*
X045455Y032815D01*
X045405Y032836D01*
Y036028D01*
X045455Y036041D01*
X045492Y035976D01*
X045576Y035893D01*
X045678Y035834D01*
X045791Y035804D01*
X045909D01*
X046022Y035834D01*
X046124Y035893D01*
X046208Y035976D01*
X046219Y035996D01*
X048744D01*
X049573Y035167D01*
Y035157D01*
X049595Y035074D01*
X049638Y034999D01*
X049699Y034938D01*
X049774Y034895D01*
X049857Y034873D01*
X049943D01*
X050026Y034895D01*
X050101Y034938D01*
X050162Y034999D01*
X050205Y035074D01*
X050227Y035157D01*
Y035243D01*
X050205Y035326D01*
X050162Y035401D01*
X050101Y035462D01*
X050026Y035505D01*
X049943Y035527D01*
X049933D01*
X04903Y036431D01*
X048947Y036486D01*
X04885Y036505D01*
X046219D01*
X046208Y036525D01*
X046124Y036608D01*
X046022Y036667D01*
X045909Y036697D01*
X045791D01*
X045678Y036667D01*
X045576Y036608D01*
X045492Y036525D01*
X045455Y03646D01*
X045405Y036473D01*
Y039177D01*
X045455Y039191D01*
X045492Y039126D01*
D02*
G37*
G36*
X051288Y033261D02*
X051275Y033214D01*
Y033086D01*
X051308Y032963D01*
X051322Y032939D01*
X051293Y032898D01*
X05126Y032905D01*
X046558D01*
X046551Y032912D01*
X046476Y032955D01*
X046405Y032974D01*
X046383Y033022D01*
X046756Y033395D01*
X051154D01*
X051288Y033261D01*
D02*
G37*
G36*
X046026Y032595D02*
X046045Y032524D01*
X046088Y032449D01*
X046149Y032388D01*
X046224Y032345D01*
X046307Y032323D01*
X046393D01*
X046476Y032345D01*
X046551Y032388D01*
X046558Y032395D01*
X051154D01*
X051288Y032261D01*
X051275Y032214D01*
Y032086D01*
X051281Y032067D01*
X05125Y032027D01*
X051207D01*
X051124Y032005D01*
X051049Y031962D01*
X050988Y031901D01*
X050945Y031826D01*
X050923Y031743D01*
Y031657D01*
X050945Y031574D01*
X050988Y031499D01*
X051021Y031467D01*
Y030609D01*
X050977Y030584D01*
X050947Y030602D01*
X050824Y030635D01*
X050696D01*
X050573Y030602D01*
X050462Y030538D01*
X050372Y030448D01*
X050348Y030405D01*
X045906D01*
X045405Y030906D01*
Y031685D01*
X045448Y03171D01*
X045474Y031695D01*
X045557Y031673D01*
X045643D01*
X045726Y031695D01*
X045801Y031738D01*
X045862Y031799D01*
X045905Y031874D01*
X045927Y031957D01*
Y032043D01*
X045905Y032126D01*
X045862Y032201D01*
X045855Y032208D01*
Y032494D01*
X045978Y032617D01*
X046026Y032595D01*
D02*
G37*
G36*
X04562Y02997D02*
X045702Y029915D01*
X0458Y029895D01*
X045877D01*
X045892Y029845D01*
X04587Y02983D01*
X045717Y029677D01*
X045707D01*
X045624Y029655D01*
X045549Y029612D01*
X045488Y029551D01*
X045445Y029476D01*
X045423Y029393D01*
Y029307D01*
X045445Y029224D01*
X045488Y029149D01*
X045549Y029088D01*
X045552Y029065D01*
X045538Y029051D01*
X045495Y028976D01*
X045473Y028893D01*
Y028807D01*
X045495Y028724D01*
X045538Y028649D01*
X045599Y028588D01*
X045674Y028545D01*
X045757Y028523D01*
X045843D01*
X045926Y028545D01*
X046001Y028588D01*
X046062Y028649D01*
X046105Y028724D01*
X046127Y028807D01*
Y028817D01*
X046206Y028895D01*
X050348D01*
X050372Y028852D01*
X050462Y028762D01*
X050573Y028698D01*
X050657Y028676D01*
Y028624D01*
X050573Y028602D01*
X050462Y028538D01*
X050372Y028448D01*
X050348Y028405D01*
X045506D01*
X045005Y028906D01*
Y030519D01*
X045051Y030538D01*
X04562Y02997D01*
D02*
G37*
G36*
X050372Y027852D02*
X050462Y027762D01*
X050573Y027698D01*
X050657Y027676D01*
Y027624D01*
X050573Y027602D01*
X050462Y027538D01*
X050372Y027448D01*
X050348Y027405D01*
X046006D01*
X045562Y027849D01*
X045581Y027895D01*
X050348D01*
X050372Y027852D01*
D02*
G37*
G36*
Y026852D02*
X050462Y026762D01*
X050573Y026698D01*
X050657Y026676D01*
Y026624D01*
X050573Y026602D01*
X050462Y026538D01*
X050372Y026448D01*
X050308Y026337D01*
X050275Y026214D01*
Y026086D01*
X050308Y025963D01*
X050372Y025852D01*
X050462Y025762D01*
X050573Y025698D01*
X050657Y025676D01*
Y025624D01*
X050573Y025602D01*
X050462Y025538D01*
X050372Y025448D01*
X050308Y025337D01*
X050275Y025214D01*
Y025086D01*
X050283Y025058D01*
X050238Y025032D01*
X04854Y02673D01*
X048458Y026786D01*
X04836Y026805D01*
X046056D01*
X046012Y026849D01*
X046031Y026895D01*
X050348D01*
X050372Y026852D01*
D02*
G37*
%LPC*%
G36*
X028515Y048999D02*
X027885D01*
X027769Y048984D01*
X02766Y048939D01*
X027567Y048868D01*
X027496Y048775D01*
X027451Y048666D01*
X027436Y04855D01*
Y047959D01*
X027451Y047843D01*
X027496Y047735D01*
X027567Y047642D01*
X02766Y047571D01*
X027769Y047526D01*
X027885Y04751D01*
X028515D01*
X028631Y047526D01*
X02874Y047571D01*
X028833Y047642D01*
X028904Y047735D01*
X028949Y047843D01*
X028964Y047959D01*
Y04855D01*
X028949Y048666D01*
X028904Y048775D01*
X028833Y048868D01*
X02874Y048939D01*
X028631Y048984D01*
X028515Y048999D01*
D02*
G37*
G36*
X031217Y047519D02*
X031089D01*
X030966Y047486D01*
X030855Y047422D01*
X030765Y047332D01*
X030701Y047221D01*
X030668Y047098D01*
Y04697D01*
X030701Y046847D01*
X030765Y046737D01*
X030855Y046646D01*
X030966Y046583D01*
X031089Y04655D01*
X031217D01*
X03134Y046583D01*
X03145Y046646D01*
X031541Y046737D01*
X031565Y046779D01*
X031863D01*
Y046498D01*
X032537D01*
Y047192D01*
X032214D01*
X032191Y047214D01*
X032109Y04727D01*
X032011Y047289D01*
X031565D01*
X031541Y047332D01*
X03145Y047422D01*
X03134Y047486D01*
X031217Y047519D01*
D02*
G37*
G36*
X027584Y041023D02*
X027497D01*
X027414Y041D01*
X027391Y040987D01*
X026608D01*
Y040853D01*
X026574Y04083D01*
X026544Y040784D01*
X026064Y040305D01*
X025989Y040325D01*
X025851D01*
X025717Y040289D01*
X025598Y04022D01*
X0255Y040122D01*
X025431Y040003D01*
X025395Y039869D01*
Y039855D01*
X024836Y039297D01*
X024513D01*
Y038603D01*
X025187D01*
Y038927D01*
X025625Y039364D01*
X025717Y039311D01*
X025851Y039275D01*
X025989D01*
X026123Y039311D01*
X026242Y03938D01*
X02634Y039478D01*
X026409Y039597D01*
X026445Y039731D01*
Y039869D01*
X026425Y039944D01*
X026793Y040313D01*
X02729D01*
Y035987D01*
X026608D01*
Y035664D01*
X026171Y035226D01*
X026123Y035254D01*
X025989Y03529D01*
X025851D01*
X025717Y035254D01*
X025598Y035185D01*
X0255Y035087D01*
X025431Y034968D01*
X025421Y034932D01*
X024836Y034347D01*
X024513D01*
Y033653D01*
X025187D01*
Y033977D01*
X025577Y034366D01*
X025598Y034345D01*
X025717Y034276D01*
X025851Y03424D01*
X025989D01*
X026123Y034276D01*
X026242Y034345D01*
X02634Y034443D01*
X026409Y034562D01*
X026445Y034696D01*
Y03478D01*
X026978Y035313D01*
X027198D01*
Y035313D01*
X02729D01*
Y030987D01*
X026608D01*
Y030853D01*
X026574Y03083D01*
X026519Y030748D01*
X026505Y030675D01*
X026064Y030235D01*
X025989Y030255D01*
X025851D01*
X025717Y030219D01*
X025598Y03015D01*
X0255Y030052D01*
X025431Y029933D01*
X025395Y029799D01*
Y029661D01*
X025397Y029653D01*
X024986Y029242D01*
X024663D01*
Y028548D01*
X025337D01*
Y028872D01*
X02571Y029245D01*
X025717Y029241D01*
X025851Y029205D01*
X025989D01*
X026123Y029241D01*
X026242Y02931D01*
X02634Y029408D01*
X026409Y029527D01*
X026445Y029661D01*
Y029799D01*
X026425Y029874D01*
X026863Y030313D01*
X02729D01*
Y025837D01*
X026608D01*
Y025722D01*
X026545Y02568D01*
X026064Y0252D01*
X025989Y02522D01*
X025851D01*
X025717Y025184D01*
X025598Y025115D01*
X0255Y025017D01*
X025431Y024898D01*
X025395Y024764D01*
Y024626D01*
X025399Y02461D01*
X024936Y024147D01*
X024613D01*
Y023453D01*
X025287D01*
Y023777D01*
X025717Y024206D01*
X025717Y024206D01*
X025851Y02417D01*
X025989D01*
X026123Y024206D01*
X026242Y024275D01*
X02634Y024373D01*
X026409Y024492D01*
X026445Y024626D01*
Y024764D01*
X026425Y024839D01*
X026748Y025163D01*
X02729D01*
Y021087D01*
X026608D01*
Y020708D01*
X026064Y020165D01*
X025989Y020185D01*
X025851D01*
X025717Y020149D01*
X025598Y02008D01*
X0255Y019982D01*
X025431Y019863D01*
X025395Y019729D01*
Y019701D01*
X025036Y019342D01*
X024713D01*
Y018648D01*
X025387D01*
Y018972D01*
X025634Y019219D01*
X025717Y019171D01*
X025851Y019135D01*
X025989D01*
X026123Y019171D01*
X026242Y01924D01*
X02634Y019338D01*
X026409Y019457D01*
X026445Y019591D01*
Y019729D01*
X026425Y019804D01*
X027033Y020413D01*
X027892D01*
Y021087D01*
X0278D01*
Y025163D01*
X027892D01*
Y025837D01*
X0278D01*
Y030313D01*
X027892D01*
Y030987D01*
X0278D01*
Y035313D01*
X027892D01*
Y035987D01*
X0278D01*
Y040313D01*
X027892D01*
Y040987D01*
X02769D01*
X027667Y041D01*
X027584Y041023D01*
D02*
G37*
G36*
X028699Y040325D02*
X028561D01*
X028427Y040289D01*
X028308Y04022D01*
X02821Y040122D01*
X028141Y040003D01*
X028105Y039869D01*
Y039731D01*
X028141Y039597D01*
X02821Y039478D01*
X028308Y03938D01*
X028427Y039311D01*
X028561Y039275D01*
X028699D01*
X028833Y039311D01*
X028952Y03938D01*
X02905Y039478D01*
X029119Y039597D01*
X029155Y039731D01*
Y039869D01*
X029119Y040003D01*
X02905Y040122D01*
X028952Y04022D01*
X028833Y040289D01*
X028699Y040325D01*
D02*
G37*
G36*
X035337Y041042D02*
X034663D01*
Y041037D01*
X034063D01*
Y040945D01*
X033991D01*
X033893Y040926D01*
X03381Y040871D01*
X03367Y04073D01*
X033614Y040648D01*
X033595Y04055D01*
Y040442D01*
X033513D01*
Y039748D01*
X034063D01*
Y039148D01*
X034737D01*
Y039289D01*
X035265D01*
X035271Y039285D01*
X035332Y039273D01*
X03593D01*
X035991Y039285D01*
X036043Y039319D01*
X036077Y039371D01*
X036089Y039432D01*
Y039656D01*
X036077Y039717D01*
X036047Y039762D01*
X036042Y039783D01*
Y039805D01*
X036047Y039826D01*
X036077Y039871D01*
X036089Y039932D01*
Y040156D01*
X036077Y040217D01*
X036043Y040269D01*
X035991Y040303D01*
X035942Y040313D01*
X035947Y040363D01*
X036002D01*
Y041037D01*
X035337D01*
Y041042D01*
D02*
G37*
G36*
X032352Y040222D02*
X031659D01*
Y038978D01*
X031659D01*
X031676Y038936D01*
X031577Y038837D01*
X031103D01*
Y038163D01*
Y037563D01*
X031195D01*
Y03685D01*
X031214Y036752D01*
X03127Y03667D01*
X03442Y03352D01*
X034502Y033465D01*
X0346Y033445D01*
X036821D01*
Y033156D01*
X037304D01*
X037324Y033145D01*
X037407Y033123D01*
X037493D01*
X037575Y033145D01*
X037657Y033123D01*
X037743D01*
X037825Y033145D01*
X037859Y033136D01*
X038422Y032572D01*
Y031745D01*
X038359Y031719D01*
X038304Y031677D01*
X038254Y031692D01*
Y03186D01*
X037246D01*
Y03034D01*
X037495D01*
Y029912D01*
X037456Y02988D01*
X037434Y029884D01*
X037318D01*
X037237Y029868D01*
X037168Y029822D01*
X037122Y029753D01*
X037106Y029672D01*
Y029249D01*
X037108Y029239D01*
X037062Y029214D01*
X037008Y029268D01*
X036925Y029323D01*
X036828Y029342D01*
X036685D01*
Y02973D01*
X036455D01*
Y030682D01*
X036435Y030779D01*
X03638Y030862D01*
X036286Y030956D01*
Y03186D01*
X035277D01*
Y03034D01*
X035945D01*
Y02973D01*
X035715D01*
Y028445D01*
X036685D01*
Y028803D01*
X036735Y02882D01*
X037106Y028449D01*
Y028328D01*
X037122Y028247D01*
X037168Y028178D01*
X037237Y028132D01*
X037318Y028116D01*
X037434D01*
X037515Y028132D01*
X037584Y028178D01*
X03763Y028247D01*
X037646Y028328D01*
Y028751D01*
X03763Y028832D01*
X037584Y028901D01*
X037515Y028947D01*
X037434Y028963D01*
X03732D01*
X037294Y028993D01*
X037317Y029037D01*
X037318Y029037D01*
X037434D01*
X037515Y029053D01*
X037563Y029085D01*
X037611Y029053D01*
X037692Y029037D01*
X037808D01*
X037889Y029053D01*
X037937Y029085D01*
X037985Y029053D01*
X038066Y029037D01*
X038182D01*
X038263Y029053D01*
X038332Y029099D01*
X038335Y029103D01*
X038987D01*
Y029694D01*
Y029922D01*
X039042D01*
Y029823D01*
Y029023D01*
X039814D01*
Y029823D01*
Y030674D01*
X039052D01*
X039015Y030713D01*
X039019Y030751D01*
X039066Y030757D01*
X039141Y030788D01*
X039206Y030837D01*
X039255Y030901D01*
X039286Y030976D01*
X039296Y031052D01*
X039297Y031056D01*
X039297Y03145D01*
X039296Y031454D01*
X039286Y03153D01*
X039255Y031605D01*
X039206Y031669D01*
X039141Y031719D01*
X039078Y031745D01*
Y032495D01*
X03908Y032499D01*
X03909Y032536D01*
X039092Y03254D01*
X039092Y032545D01*
X039102Y032582D01*
Y03262D01*
X039103Y032625D01*
Y032683D01*
X039092Y032768D01*
X039059Y032847D01*
X039007Y032915D01*
X038696Y033226D01*
Y034174D01*
X03896Y034438D01*
X039012Y034506D01*
X039044Y034585D01*
X039056Y034669D01*
Y035073D01*
X039114D01*
Y035923D01*
Y036774D01*
X038342D01*
Y036676D01*
X038239D01*
Y03716D01*
X03723D01*
Y03564D01*
X038239D01*
Y036021D01*
X038342D01*
Y035923D01*
Y035073D01*
X0384D01*
Y034805D01*
X037859Y034264D01*
X037825Y034255D01*
X037743Y034277D01*
X037657D01*
X037575Y034255D01*
X037493Y034277D01*
X037407D01*
X037324Y034255D01*
X037304Y034244D01*
X036821D01*
Y033955D01*
X034706D01*
X031705Y036956D01*
Y037563D01*
X031797D01*
Y038163D01*
Y038336D01*
X032186Y038725D01*
X032241Y038808D01*
X03226Y038906D01*
Y038978D01*
X032352D01*
Y040222D01*
D02*
G37*
G36*
X031142Y043737D02*
X030448D01*
Y043063D01*
Y042506D01*
X0303D01*
Y041261D01*
X030845D01*
Y040222D01*
X030753D01*
Y038978D01*
X031447D01*
Y040222D01*
X031355D01*
Y041261D01*
X0319D01*
Y042506D01*
X031142D01*
Y043063D01*
Y043737D01*
D02*
G37*
G36*
X038004Y041037D02*
X03731D01*
Y040363D01*
X037442D01*
X037446Y040313D01*
X037397Y040303D01*
X037345Y040269D01*
X037311Y040217D01*
X037299Y040156D01*
Y039932D01*
X037311Y039871D01*
X037341Y039826D01*
X037346Y039805D01*
Y039783D01*
X037341Y039762D01*
X037311Y039717D01*
X037299Y039656D01*
Y039432D01*
X037311Y039371D01*
X037341Y039326D01*
X037346Y039305D01*
Y039283D01*
X037341Y039262D01*
X037311Y039217D01*
X037299Y039156D01*
Y038932D01*
X037311Y038871D01*
X037341Y038826D01*
X037346Y038805D01*
Y038783D01*
X037341Y038762D01*
X037311Y038717D01*
X037299Y038656D01*
Y038432D01*
X037311Y038371D01*
X037334Y038337D01*
X037311Y038287D01*
X036108D01*
Y038287D01*
X036076Y038291D01*
X036056Y03834D01*
X036077Y038371D01*
X036089Y038432D01*
Y038656D01*
X036077Y038717D01*
X036043Y038769D01*
X035991Y038803D01*
X03593Y038815D01*
X035812D01*
X035795Y038828D01*
X035716Y038861D01*
X035631Y038872D01*
X035546Y038861D01*
X035467Y038828D01*
X035451Y038815D01*
X035332D01*
X035271Y038803D01*
X035219Y038769D01*
X035185Y038717D01*
X035173Y038656D01*
Y038432D01*
X035185Y038371D01*
X035219Y038319D01*
X035271Y038285D01*
X035303Y038279D01*
Y038119D01*
Y03716D01*
X035261D01*
Y036703D01*
X034885D01*
Y037017D01*
X033915D01*
Y035733D01*
X034885D01*
Y036047D01*
X035261D01*
Y03564D01*
X03627D01*
Y03716D01*
X035959D01*
Y037622D01*
X036108D01*
Y037613D01*
X037392D01*
Y037622D01*
X03765D01*
X037692Y037628D01*
X037735Y037633D01*
X037814Y037666D01*
X037882Y037718D01*
X037989Y037825D01*
X038041Y037893D01*
X038074Y037972D01*
X038085Y038057D01*
Y038279D01*
X038117Y038285D01*
X038169Y038319D01*
X038203Y038371D01*
X038215Y038432D01*
Y03862D01*
X038265Y038647D01*
X03828Y038637D01*
X038378Y038617D01*
X038473D01*
Y038486D01*
X040924D01*
Y038617D01*
X042566D01*
X042664Y038637D01*
X042747Y038692D01*
X043014Y038959D01*
X043035Y038953D01*
X043153D01*
X043267Y038984D01*
X043368Y039042D01*
X043452Y039126D01*
X04351Y039228D01*
X043541Y039341D01*
Y039459D01*
X04351Y039572D01*
X043452Y039674D01*
X043368Y039758D01*
X043267Y039816D01*
X043153Y039847D01*
X043035D01*
X042922Y039816D01*
X04282Y039758D01*
X042737Y039674D01*
X042678Y039572D01*
X042647Y039459D01*
Y039341D01*
X042653Y039319D01*
X042461Y039127D01*
X040924D01*
Y039258D01*
X039492D01*
Y039887D01*
X038902D01*
Y040437D01*
X038208D01*
Y040298D01*
X038196Y040289D01*
X038158Y040276D01*
X038117Y040303D01*
X038056Y040315D01*
X038012D01*
Y040554D01*
X038004Y040597D01*
Y041037D01*
D02*
G37*
G36*
X028699Y03529D02*
X028561D01*
X028427Y035254D01*
X028308Y035185D01*
X02821Y035087D01*
X028141Y034968D01*
X028105Y034834D01*
Y034696D01*
X028141Y034562D01*
X02821Y034443D01*
X028308Y034345D01*
X028427Y034276D01*
X028561Y03424D01*
X028699D01*
X028833Y034276D01*
X028952Y034345D01*
X02905Y034443D01*
X029119Y034562D01*
X029155Y034696D01*
Y034834D01*
X029119Y034968D01*
X02905Y035087D01*
X028952Y035185D01*
X028833Y035254D01*
X028699Y03529D01*
D02*
G37*
G36*
X028699Y030255D02*
X028561D01*
X028427Y030219D01*
X028308Y03015D01*
X02821Y030052D01*
X028141Y029933D01*
X028105Y029799D01*
Y029661D01*
X028141Y029527D01*
X02821Y029408D01*
X028308Y02931D01*
X028427Y029241D01*
X028561Y029205D01*
X028699D01*
X028833Y029241D01*
X028952Y02931D01*
X02905Y029408D01*
X029119Y029527D01*
X029155Y029661D01*
Y029799D01*
X029119Y029933D01*
X02905Y030052D01*
X028952Y03015D01*
X028833Y030219D01*
X028699Y030255D01*
D02*
G37*
G36*
X025465Y042615D02*
X024535D01*
Y041685D01*
X025465D01*
Y041895D01*
X027494D01*
X029245Y040144D01*
Y03475D01*
X029265Y034652D01*
X02932Y03457D01*
X033695Y030194D01*
Y02625D01*
X033714Y026152D01*
X03377Y02607D01*
X03467Y02517D01*
X034752Y025115D01*
X03485Y025095D01*
X035021D01*
Y024806D01*
X035554D01*
X035574Y024795D01*
X035657Y024773D01*
X035743D01*
X035825Y024795D01*
X035907Y024773D01*
X035993D01*
X036075Y024795D01*
X036157Y024773D01*
X036243D01*
X036326Y024795D01*
X036346Y024806D01*
X036896D01*
Y025894D01*
X036455D01*
Y02687D01*
X036685D01*
Y026995D01*
X037358D01*
Y026913D01*
X038642D01*
Y027463D01*
Y028137D01*
X038509D01*
Y028368D01*
X038493Y02845D01*
X038447Y02852D01*
X038394Y028572D01*
Y028751D01*
X038378Y028832D01*
X038332Y028901D01*
X038263Y028947D01*
X038182Y028963D01*
X038066D01*
X037985Y028947D01*
X037916Y028901D01*
X03787Y028832D01*
X037854Y028751D01*
Y028328D01*
X03787Y028247D01*
X037916Y028178D01*
X037921Y028174D01*
X037948Y028137D01*
X037948D01*
X037948Y028137D01*
Y027587D01*
X037358D01*
Y027505D01*
X036685D01*
Y028155D01*
X035715D01*
Y02687D01*
X035945D01*
Y025927D01*
X035907D01*
X035825Y025905D01*
X035743Y025927D01*
X035657D01*
X035574Y025905D01*
X035554Y025894D01*
X035021D01*
Y025605D01*
X034956D01*
X034205Y026356D01*
Y0303D01*
X034186Y030398D01*
X03413Y03048D01*
X029755Y034856D01*
Y04025D01*
X029736Y040348D01*
X02968Y04043D01*
X02778Y04233D01*
X027698Y042386D01*
X0276Y042405D01*
X025465D01*
Y042615D01*
D02*
G37*
G36*
X028699Y02522D02*
X028561D01*
X028427Y025184D01*
X028308Y025115D01*
X02821Y025017D01*
X028141Y024898D01*
X028105Y024764D01*
Y024626D01*
X028141Y024492D01*
X02821Y024373D01*
X028308Y024275D01*
X028427Y024206D01*
X028561Y02417D01*
X028699D01*
X028833Y024206D01*
X028952Y024275D01*
X02905Y024373D01*
X029119Y024492D01*
X029155Y024626D01*
Y024764D01*
X029119Y024898D01*
X02905Y025017D01*
X028952Y025115D01*
X028833Y025184D01*
X028699Y02522D01*
D02*
G37*
G36*
X034707Y020487D02*
X034053D01*
Y020263D01*
X033429Y01964D01*
X033409Y019645D01*
X033291D01*
X033178Y019615D01*
X033077Y019556D01*
X032994Y019473D01*
X032935Y019372D01*
X032905Y019259D01*
Y019141D01*
X032935Y019028D01*
X032994Y018927D01*
X033077Y018844D01*
X033148Y018803D01*
X03317Y01877D01*
X03387Y01807D01*
X033952Y018015D01*
X03405Y017995D01*
X03685D01*
X036867Y017999D01*
X036892Y017952D01*
X036694Y017755D01*
X034006D01*
X03259Y019171D01*
X032507Y019226D01*
X032409Y019245D01*
X031987D01*
Y019337D01*
X031313D01*
Y01887D01*
X031267Y01885D01*
X031082Y019035D01*
Y019388D01*
X030844Y019625D01*
X030369D01*
X030132Y019388D01*
Y018913D01*
X030369Y018675D01*
X030721D01*
X031176Y01822D01*
X031259Y018164D01*
X031313Y018154D01*
Y018053D01*
X031987D01*
Y018736D01*
X032304D01*
X03372Y01732D01*
X033802Y017264D01*
X0339Y017245D01*
X0368D01*
X036898Y017264D01*
X03698Y01732D01*
X037933Y018273D01*
X037943D01*
X038026Y018295D01*
X038101Y018338D01*
X038162Y018399D01*
X038205Y018474D01*
X038227Y018557D01*
Y018643D01*
X038205Y018726D01*
X038162Y018801D01*
X038101Y018862D01*
X038026Y018905D01*
X037947Y018926D01*
X037942Y01893D01*
X037921Y018977D01*
X037943Y01901D01*
X037963Y019108D01*
Y019285D01*
X038094D01*
Y019919D01*
X037322D01*
Y019285D01*
X037453D01*
Y019213D01*
X036744Y018505D01*
X034156D01*
X033716Y018944D01*
X033765Y019028D01*
X033795Y019141D01*
Y019259D01*
X03379Y019279D01*
X034323Y019813D01*
X034707D01*
Y020487D01*
D02*
G37*
G36*
X039737Y020242D02*
Y020242D01*
X039063D01*
Y01956D01*
X038765D01*
X038703Y019547D01*
X038304D01*
Y018913D01*
X039076D01*
Y018958D01*
X039737D01*
Y01954D01*
X039764Y019571D01*
X039777Y019581D01*
X039807Y019573D01*
X039893D01*
X039976Y019595D01*
X040051Y019638D01*
X040112Y019699D01*
X040155Y019774D01*
X040177Y019857D01*
Y019943D01*
X040155Y020026D01*
X040112Y020101D01*
X040051Y020162D01*
X039976Y020205D01*
X039893Y020227D01*
X039807D01*
X03977Y020217D01*
X039737Y020242D01*
D02*
G37*
G36*
X028699Y020185D02*
X028561D01*
X028427Y020149D01*
X028308Y02008D01*
X02821Y019982D01*
X028141Y019863D01*
X028105Y019729D01*
Y019591D01*
X028141Y019457D01*
X02821Y019338D01*
X028308Y01924D01*
X028427Y019171D01*
X028561Y019135D01*
X028699D01*
X028833Y019171D01*
X028952Y01924D01*
X02905Y019338D01*
X029119Y019457D01*
X029155Y019591D01*
Y019729D01*
X029119Y019863D01*
X02905Y019982D01*
X028952Y02008D01*
X028833Y020149D01*
X028699Y020185D01*
D02*
G37*
G36*
X032893Y029427D02*
X032807D01*
X032724Y029405D01*
X032649Y029362D01*
X032588Y029301D01*
X032545Y029226D01*
X032523Y029143D01*
Y029057D01*
X032545Y028974D01*
X032588Y028899D01*
X032595Y028892D01*
Y02605D01*
X032615Y025952D01*
X03267Y02587D01*
X035365Y023174D01*
Y020487D01*
X035293D01*
Y019813D01*
X035401D01*
X03544Y019755D01*
X035905Y01929D01*
Y01876D01*
X036795D01*
Y01965D01*
X036265D01*
X035947Y019968D01*
Y020487D01*
X035875D01*
Y02328D01*
X035856Y023377D01*
X0358Y02346D01*
X033105Y026156D01*
Y028892D01*
X033112Y028899D01*
X033155Y028974D01*
X033177Y029057D01*
Y029143D01*
X033155Y029226D01*
X033112Y029301D01*
X033051Y029362D01*
X032976Y029405D01*
X032893Y029427D01*
D02*
G37*
G36*
X040454Y015379D02*
X040377D01*
X040304Y015359D01*
X040237Y015321D01*
X040183Y015267D01*
X040145Y015201D01*
X040126Y015127D01*
Y015051D01*
X040145Y014977D01*
X040183Y014911D01*
X040237Y014857D01*
X040304Y014819D01*
X040377Y014799D01*
X040454D01*
X040527Y014819D01*
X040593Y014857D01*
X040647Y014911D01*
X040685Y014977D01*
X040705Y015051D01*
Y015127D01*
X040685Y015201D01*
X040647Y015267D01*
X040593Y015321D01*
X040527Y015359D01*
X040454Y015379D01*
D02*
G37*
G36*
X043543Y026777D02*
X043457D01*
X043374Y026755D01*
X043299Y026712D01*
X043238Y026651D01*
X043195Y026576D01*
X043173Y026493D01*
Y026483D01*
X04172Y02503D01*
X041665Y024948D01*
X041645Y02485D01*
Y014792D01*
X041563D01*
Y014098D01*
Y013694D01*
X039616D01*
X039612Y013701D01*
X039551Y013762D01*
X039476Y013805D01*
X039393Y013827D01*
X039337D01*
Y014302D01*
X038663D01*
Y013608D01*
X038999D01*
X03903Y013568D01*
X039023Y013543D01*
Y013457D01*
X039045Y013374D01*
X039088Y013299D01*
X039149Y013238D01*
X039224Y013195D01*
X039307Y013173D01*
X039393D01*
X039476Y013195D01*
X039551Y013238D01*
X039612Y013299D01*
X039616Y013306D01*
X041563D01*
Y012753D01*
X042237D01*
Y01333D01*
X042287Y013363D01*
X042432Y013508D01*
X042837D01*
Y014098D01*
Y014792D01*
X042755D01*
Y024744D01*
X043933Y025923D01*
X043993D01*
X044076Y025945D01*
X044151Y025988D01*
X044212Y026049D01*
X044255Y026124D01*
X044277Y026207D01*
Y026293D01*
X044255Y026376D01*
X044212Y026451D01*
X044151Y026512D01*
X044076Y026555D01*
X043993Y026577D01*
X043907D01*
X043824Y026555D01*
X043794Y026595D01*
X043762Y026651D01*
X043701Y026712D01*
X043626Y026755D01*
X043543Y026777D01*
D02*
G37*
G36*
X040454Y012229D02*
X040377D01*
X040304Y012209D01*
X040237Y012171D01*
X040183Y012117D01*
X040145Y012051D01*
X040126Y011978D01*
Y011901D01*
X040145Y011828D01*
X040183Y011761D01*
X040237Y011708D01*
X040304Y011669D01*
X040377Y01165D01*
X040454D01*
X040527Y011669D01*
X040593Y011708D01*
X040647Y011761D01*
X040685Y011828D01*
X040705Y011901D01*
Y011978D01*
X040685Y012051D01*
X040647Y012117D01*
X040593Y012171D01*
X040527Y012209D01*
X040454Y012229D01*
D02*
G37*
%LPD*%
G36*
X039144Y031056D02*
X038356D01*
Y03145D01*
X039144D01*
X039144Y031056D01*
D02*
G37*
G36*
X042245Y024769D02*
Y014792D01*
X042155D01*
Y024744D01*
X042199Y024788D01*
X042245Y024769D01*
D02*
G37*
D13*
X04215Y0135D02*
X0425Y01385D01*
X03935Y0135D02*
X04215D01*
D20*
X039Y013955D02*
D03*
Y014545D02*
D03*
X0419Y0131D02*
D03*
Y012509D02*
D03*
X0425Y013855D02*
D03*
Y014445D02*
D03*
X0419Y013855D02*
D03*
Y014445D02*
D03*
X03865Y02945D02*
D03*
Y030041D02*
D03*
X0344Y038905D02*
D03*
Y039495D02*
D03*
X03385Y039505D02*
D03*
Y040095D02*
D03*
X0344Y0401D02*
D03*
Y040691D02*
D03*
X035Y040695D02*
D03*
Y040105D02*
D03*
X0394Y019895D02*
D03*
Y019305D02*
D03*
X03165Y018991D02*
D03*
Y0184D02*
D03*
X02505Y018995D02*
D03*
Y018405D02*
D03*
X02495Y0238D02*
D03*
Y023209D02*
D03*
X025Y028895D02*
D03*
Y028305D02*
D03*
X02485Y034D02*
D03*
Y033409D02*
D03*
Y03895D02*
D03*
Y038359D02*
D03*
X03435Y045005D02*
D03*
Y045595D02*
D03*
X033625Y045005D02*
D03*
Y045595D02*
D03*
X0329Y045005D02*
D03*
Y045595D02*
D03*
X0322Y045005D02*
D03*
Y045595D02*
D03*
Y046845D02*
D03*
Y046255D02*
D03*
X0247Y046291D02*
D03*
Y0457D02*
D03*
D21*
X0362Y027513D02*
D03*
Y029087D02*
D03*
X0344Y03795D02*
D03*
Y036375D02*
D03*
D22*
X038295Y02725D02*
D03*
X037705D02*
D03*
Y0278D02*
D03*
X038295Y0278D02*
D03*
X036455Y03795D02*
D03*
X037045D02*
D03*
X038555Y03955D02*
D03*
X039145D02*
D03*
Y0401D02*
D03*
X038555D02*
D03*
X037066Y0407D02*
D03*
X037657D02*
D03*
X036245D02*
D03*
X035655D02*
D03*
X03145Y0379D02*
D03*
X030859D02*
D03*
X03145Y0385D02*
D03*
X030859D02*
D03*
X026955Y0255D02*
D03*
X027545D02*
D03*
X026955Y03065D02*
D03*
X027545D02*
D03*
X026955Y03565D02*
D03*
X027545Y03565D02*
D03*
X026955Y04065D02*
D03*
X027545D02*
D03*
X030795Y0428D02*
D03*
X030205D02*
D03*
X030795Y0434D02*
D03*
X030205D02*
D03*
X027545Y02075D02*
D03*
X026955D02*
D03*
D23*
X037376Y029461D02*
D03*
X03775D02*
D03*
X038124Y029461D02*
D03*
Y028539D02*
D03*
X03775Y028539D02*
D03*
X037376Y028539D02*
D03*
D24*
X039428Y029449D02*
D03*
X040176D02*
D03*
X039428Y030249D02*
D03*
X040176D02*
D03*
X038728Y035499D02*
D03*
X039476D02*
D03*
X038728Y036349D02*
D03*
X039476D02*
D03*
D25*
X03775Y0311D02*
D03*
X035782D02*
D03*
X035766Y0364D02*
D03*
X037734D02*
D03*
D26*
X040042Y0337D02*
D03*
X037758D02*
D03*
X038242Y02535D02*
D03*
X035958D02*
D03*
D27*
X040499Y038872D02*
D03*
Y038124D02*
D03*
X039699Y038872D02*
D03*
Y038124D02*
D03*
X038899Y038872D02*
D03*
Y038124D02*
D03*
D28*
X035631Y038544D02*
D03*
Y039044D02*
D03*
Y039544D02*
D03*
Y040044D02*
D03*
X037757Y040044D02*
D03*
Y039544D02*
D03*
Y039044D02*
D03*
Y038544D02*
D03*
D29*
X030194Y0396D02*
D03*
X0311D02*
D03*
X032006D02*
D03*
D30*
X0311Y041883D02*
D03*
D31*
X037708Y019602D02*
D03*
X03869Y01923D02*
D03*
X038692Y019988D02*
D03*
D32*
X03562Y02015D02*
D03*
X03438D02*
D03*
D61*
X043166Y012299D02*
G03*
X042845Y012509I-000321J-00014D01*
G01*
X0433Y0171D02*
X04535Y01915D01*
X0433Y016285D02*
Y0171D01*
X04365Y016079D02*
X043795Y016079D01*
X043403Y016182D02*
X043505Y016079D01*
X0419Y012509D02*
X042845D01*
X043795Y016079D02*
X043897Y016182D01*
X043505Y016079D02*
X04365Y016079D01*
X0433Y016285D02*
X043403Y016182D01*
X05076Y01815D02*
Y01915D01*
X04535D02*
X05076D01*
X038775Y032625D02*
Y032683D01*
X037758Y0337D02*
X038775Y032683D01*
X03875Y0326D02*
X038775Y032625D01*
X03875Y03145D02*
Y0326D01*
X040176Y02945D02*
Y030249D01*
X037758Y0337D02*
X038728Y034669D01*
X039426Y03025D02*
X039428Y030249D01*
Y029399D02*
Y030249D01*
X03875Y03025D02*
X039426D01*
X040176Y030249D02*
Y033566D01*
X040042Y0337D02*
X040176Y033566D01*
X038728Y034669D02*
Y035499D01*
Y036349D01*
X037786D02*
X038728D01*
X037734Y0364D02*
X037786Y036349D01*
X037757Y038057D02*
Y038544D01*
X03765Y03795D02*
X037757Y038057D01*
X037045Y03795D02*
X03765D01*
X035631Y038119D02*
Y038544D01*
Y036535D02*
Y038119D01*
Y036535D02*
X035766Y0364D01*
X035631Y038119D02*
X0358Y03795D01*
X036455D01*
X035741Y036375D02*
X035766Y0364D01*
X0344Y036375D02*
X035741D01*
D62*
X03875Y03145D02*
D03*
X03875Y031056D02*
D03*
D63*
X036694Y039294D02*
D03*
D64*
X03275Y03305D02*
X03385D01*
X030859Y034941D02*
X03275Y03305D01*
X030859Y034941D02*
Y037895D01*
X03145Y03685D02*
Y0379D01*
X0346Y0337D02*
X037758D01*
X03145Y03685D02*
X0346Y0337D01*
X0456Y032D02*
Y0326D01*
X04665Y03365D01*
X05126D01*
X04635Y03265D02*
X05126D01*
X05176Y03215D01*
X0458Y03015D02*
X05076D01*
X04515Y0308D02*
Y04735D01*
Y0308D02*
X0458Y03015D01*
X04605Y02965D02*
X05D01*
X04575Y02935D02*
X04605Y02965D01*
X0458Y02885D02*
X0461Y02915D01*
X05076D01*
X04675Y0332D02*
X0468Y03315D01*
X05076D01*
X04395Y02855D02*
Y04135D01*
X04475Y0288D02*
Y0423D01*
X04395Y02855D02*
X04595Y02655D01*
X0444Y02865D02*
Y04165D01*
Y02865D02*
X0459Y02715D01*
X0454Y02815D02*
X05076D01*
X04475Y0288D02*
X0454Y02815D01*
X036029Y025421D02*
X0362Y025592D01*
X0444Y0481D02*
X04515Y04735D01*
X04035Y0467D02*
X04475Y0423D01*
X04215Y0439D02*
X0444Y04165D01*
X0411Y0442D02*
X04395Y04135D01*
X05126Y03365D02*
X05176Y03315D01*
X04585Y03625D02*
X04885D01*
X0499Y0352D01*
X05076Y03415D02*
Y03654D01*
X04585Y0394D02*
X0479D01*
X05076Y03654D01*
X038692Y0249D02*
X04105Y022542D01*
X038242Y02535D02*
X038692Y0249D01*
Y019988D02*
Y0249D01*
X040263Y0155D02*
X04105Y016287D01*
X039852Y015089D02*
X040263Y0155D01*
X04105Y016287D02*
Y022542D01*
X03285Y02605D02*
Y0291D01*
Y02605D02*
X03562Y02328D01*
Y02015D02*
Y02328D01*
X03395Y02625D02*
X03485Y02535D01*
X03395Y02625D02*
Y0303D01*
X03485Y02535D02*
X035958D01*
X0295Y03475D02*
Y04025D01*
Y03475D02*
X03395Y0303D01*
X030795Y0428D02*
Y0434D01*
X03475Y0491D02*
X04105D01*
X03045D02*
X03475D01*
X02995Y0454D02*
X03Y04545D01*
X02996Y045389D02*
X030013D01*
X02995Y0454D02*
X02996Y045389D01*
X03Y04545D02*
Y04865D01*
X03045Y0491D01*
X03145Y0379D02*
Y0385D01*
X0276Y04215D02*
X0295Y04025D01*
X025Y04215D02*
X0276D01*
X027545Y02075D02*
Y04065D01*
X027541Y040695D02*
X027545Y040691D01*
Y04065D02*
Y040691D01*
X0292Y0443D02*
X0324D01*
X027209Y046291D02*
X0292Y0443D01*
X0324D02*
X0329Y0448D01*
X030795Y042188D02*
Y0428D01*
Y042188D02*
X0311Y041883D01*
Y0396D02*
Y041883D01*
X032006Y038906D02*
Y0396D01*
X0316Y0385D02*
X032006Y038906D01*
X03145Y0385D02*
X0316D01*
X030859Y0379D02*
Y0385D01*
X030194Y039165D02*
X030859Y0385D01*
X030194Y039165D02*
Y0396D01*
X030205Y0428D02*
Y0434D01*
Y03961D02*
Y0428D01*
X030194Y0396D02*
X030205Y03961D01*
X04836Y02655D02*
X05076Y02415D01*
X04595Y02655D02*
X04836D01*
X0459Y02715D02*
X05076D01*
X0368Y0175D02*
X0379Y0186D01*
X0339Y0175D02*
X0368D01*
X032409Y018991D02*
X0339Y0175D01*
X03165Y018991D02*
X032409D01*
X039845Y019895D02*
X03985Y0199D01*
X0394Y019895D02*
X039845D01*
X0419Y02485D02*
X0435Y02645D01*
X0419Y014445D02*
Y02485D01*
X0439Y02625D02*
X04395D01*
X0425Y02485D02*
X0439Y02625D01*
X0425Y014445D02*
Y02485D01*
X037708Y019108D02*
Y019602D01*
X03685Y01825D02*
X037708Y019108D01*
X03405Y01825D02*
X03685D01*
X031357Y0184D02*
X03165D01*
X030607Y01915D02*
X031357Y0184D01*
X03335Y01895D02*
X03405Y01825D01*
X038765Y019305D02*
X0394D01*
X03869Y01923D02*
X038765Y019305D01*
X03335Y01895D02*
Y0192D01*
X03562Y019935D02*
X03635Y019205D01*
X03562Y019935D02*
Y02015D01*
X03335Y0192D02*
X0343Y02015D01*
X03438D01*
X0322Y045595D02*
Y04595D01*
X031253D02*
X0322D01*
Y046255D01*
X031153Y04605D02*
X031253Y04595D01*
X027545Y04065D02*
X027545Y04065D01*
X02592Y01966D02*
X026955Y020695D01*
Y02075D01*
X02592Y024695D02*
X026725Y0255D01*
X026955D01*
X026755Y040635D02*
Y04065D01*
X02592Y0398D02*
X026755Y040635D01*
X02607Y034765D02*
X026955Y03565D01*
X02592Y034765D02*
X02607D01*
X026755Y030565D02*
Y03065D01*
X02592Y02973D02*
X026755Y030565D01*
X025295Y018405D02*
X02592Y01778D01*
X02505Y018405D02*
X025295D01*
X025715Y01966D02*
X02592D01*
X02505Y018995D02*
X025715Y01966D01*
X025526Y023209D02*
X02592Y022815D01*
X02495Y023209D02*
X025526D01*
X025845Y024695D02*
X02592D01*
X02495Y0238D02*
X025845Y024695D01*
X025465Y028305D02*
X02592Y02785D01*
X025Y028305D02*
X025465D01*
X025835Y02973D02*
X02592D01*
X025Y028895D02*
X025835Y02973D01*
X025396Y033409D02*
X02592Y032885D01*
X02485Y033409D02*
X025396D01*
X025615Y034765D02*
X02592D01*
X02485Y034D02*
X025615Y034765D01*
X025481Y038359D02*
X02592Y03792D01*
X02485Y038359D02*
X025481D01*
X0257Y0398D02*
X02592D01*
X02485Y03895D02*
X0257Y0398D01*
X033705Y0442D02*
X0411D01*
X0329Y045005D02*
X033705Y0442D01*
X033645Y045005D02*
X03365Y045D01*
X033625Y045005D02*
X033645D01*
X040499Y038124D02*
X04122D01*
X043094Y03625D01*
X040499Y038872D02*
X042566D01*
X043094Y0394D01*
X0329Y0448D02*
Y045005D01*
X03435Y04495D02*
Y045005D01*
X0329Y045595D02*
X03435D01*
Y04805D02*
X0344Y0481D01*
X03435Y045595D02*
Y04805D01*
X0247Y046291D02*
X027209D01*
X025334Y045066D02*
X025444D01*
X0247Y0457D02*
X025334Y045066D01*
X025444Y047034D02*
X025444D01*
X0247Y046291D02*
X025444Y047034D01*
X031153D02*
X032011D01*
X0322Y046845D01*
X031214Y045005D02*
X0322D01*
X031153Y045066D02*
X031214Y045005D01*
X0414Y0481D02*
Y04875D01*
X04105Y0491D02*
X0414Y04875D01*
X0344D02*
X03475Y0491D01*
X0344Y0481D02*
Y04875D01*
X0384Y04765D02*
X04215Y0439D01*
X0384Y04765D02*
Y0481D01*
X0464D02*
Y0488D01*
X04615Y04905D02*
X0464Y0488D01*
X04275Y04905D02*
X04615D01*
X0424Y0487D02*
X04275Y04905D01*
X0424Y0481D02*
Y0487D01*
X05076Y03115D02*
X05076Y03115D01*
X036463Y02725D02*
X037705D01*
X0362Y027513D02*
X036463Y02725D01*
X0362Y025592D02*
Y027513D01*
X035782Y0311D02*
X0362Y030682D01*
Y029087D02*
Y030682D01*
X036828Y029087D02*
X037376Y028539D01*
X0362Y029087D02*
X036828D01*
X03775Y030041D02*
Y0311D01*
X03875Y03025D02*
Y031056D01*
Y030141D02*
Y03025D01*
X038135Y02945D02*
X03865D01*
X038124Y029461D02*
X038135Y02945D01*
X037841Y030041D02*
X03865D01*
X03775Y029461D02*
Y02995D01*
X037841Y030041D01*
X03775Y02995D02*
Y030041D01*
X03865D02*
X03875Y030141D01*
X0391Y038872D02*
X039699D01*
X038899D02*
X0391D01*
X039145Y038918D01*
Y03955D01*
X0389Y038124D02*
X039699D01*
X036781Y039381D02*
X036851Y039311D01*
X0344Y03795D02*
Y038905D01*
Y039495D02*
Y0401D01*
Y039495D02*
X034449Y039544D01*
X035631D01*
X035625Y03905D02*
X035631Y039044D01*
X03505Y03905D02*
X035625D01*
X034905Y038905D02*
X03505Y03905D01*
X0344Y038905D02*
X034905D01*
X033945D02*
X0344D01*
X03385Y039D02*
X033945Y038905D01*
X03385Y039D02*
Y039505D01*
Y040095D02*
Y04055D01*
X033991Y040691D01*
X0344D01*
X035631Y040676D02*
X03565Y040695D01*
X035D02*
X03565D01*
X035655Y0407D01*
X035631Y040044D02*
Y040676D01*
X036694Y039294D02*
Y040251D01*
X036245Y0407D02*
X036694Y040251D01*
X037066Y039772D02*
X037189Y039649D01*
X036851Y039311D02*
X037049D01*
X037189Y039963D02*
Y040161D01*
X037066Y040284D02*
X037189Y040161D01*
X036694Y039294D02*
X036781Y039381D01*
X037189Y039451D02*
Y039649D01*
X037066Y040284D02*
Y040655D01*
X037049Y039311D02*
X037189Y039451D01*
X037066Y03984D02*
X037189Y039963D01*
X037066Y039772D02*
Y03984D01*
X037657Y040655D02*
X037757Y040554D01*
Y040044D02*
Y040554D01*
X038555Y03955D02*
Y0401D01*
X037757Y039544D02*
X037763Y03955D01*
X038555D01*
X039476Y035499D02*
X040042Y034933D01*
Y0337D02*
Y034933D01*
X039476Y036349D02*
Y037901D01*
Y035499D02*
Y036349D01*
Y037901D02*
X039699Y038124D01*
X040499D01*
X039699Y038872D02*
X040499D01*
X038378D02*
X038899D01*
X038206Y039044D02*
X038378Y038872D01*
X037757Y039044D02*
X038206D01*
D65*
X05125Y01766D02*
Y0317D01*
Y01766D02*
X05176Y01715D01*
D66*
X040539Y0115D02*
X040978Y011939D01*
X04025Y0115D02*
X040539D01*
X039852Y011898D02*
X04025Y0115D01*
X039852Y011898D02*
Y011939D01*
X040567Y0155D02*
X040978Y015089D01*
X040263Y0155D02*
X040567D01*
X039544Y015089D02*
X039852D01*
X039Y014545D02*
X039544Y015089D01*
X040978Y011939D02*
X04133D01*
X0419Y012509D01*
X0474Y0444D02*
X05227Y03953D01*
Y03066D02*
Y03953D01*
X05176Y03015D02*
X05227Y03066D01*
X0474Y0444D02*
Y0481D01*
X038124Y028539D02*
X038295Y028368D01*
Y0278D02*
Y028368D01*
Y02725D02*
Y0278D01*
X03775Y027845D02*
Y028539D01*
X037705Y0278D02*
X03775Y027845D01*
X039145Y0401D02*
X03915D01*
X036521Y039237D02*
X036579Y039179D01*
X036694Y039294D01*
X036239Y039044D02*
Y039121D01*
X036356Y039237D01*
X036521D01*
X035631Y039044D02*
X036239D01*
D67*
X039852Y015089D02*
D03*
Y011939D02*
D03*
X040978Y015089D02*
D03*
Y011939D02*
D03*
D68*
X040415Y015089D02*
D03*
Y011939D02*
D03*
D69*
X030607Y01815D02*
D03*
D70*
Y01915D02*
D03*
D71*
X02592Y01966D02*
D03*
X02863Y01778D02*
D03*
Y01966D02*
D03*
X02592Y01778D02*
D03*
Y024695D02*
D03*
X02863Y022815D02*
D03*
Y024695D02*
D03*
X02592Y022815D02*
D03*
X02592Y02973D02*
D03*
X02863Y02785D02*
D03*
X02863Y02973D02*
D03*
X02592Y02785D02*
D03*
X02592Y034765D02*
D03*
X02863Y032885D02*
D03*
Y034765D02*
D03*
X02592Y032885D02*
D03*
X02592Y0398D02*
D03*
X02863Y03792D02*
D03*
X02863Y0398D02*
D03*
X02592Y03792D02*
D03*
D72*
X05176Y03415D02*
D03*
Y03315D02*
D03*
Y03215D02*
D03*
Y03115D02*
D03*
Y03015D02*
D03*
Y02915D02*
D03*
Y02815D02*
D03*
Y02715D02*
D03*
Y02615D02*
D03*
Y02515D02*
D03*
Y02415D02*
D03*
Y02315D02*
D03*
Y02215D02*
D03*
Y02115D02*
D03*
Y02015D02*
D03*
Y01915D02*
D03*
Y01815D02*
D03*
Y01715D02*
D03*
Y01615D02*
D03*
Y01515D02*
D03*
X05076Y03315D02*
D03*
Y03215D02*
D03*
Y03115D02*
D03*
Y03015D02*
D03*
Y02915D02*
D03*
Y02815D02*
D03*
Y02715D02*
D03*
Y02615D02*
D03*
Y02515D02*
D03*
Y02415D02*
D03*
Y02315D02*
D03*
Y02215D02*
D03*
Y02115D02*
D03*
Y02015D02*
D03*
Y01915D02*
D03*
Y01815D02*
D03*
Y01715D02*
D03*
Y01615D02*
D03*
Y01515D02*
D03*
X031153Y047034D02*
D03*
X031153Y04605D02*
D03*
X031153Y045066D02*
D03*
X025444Y047034D02*
D03*
Y045066D02*
D03*
X0404Y0481D02*
D03*
X0414D02*
D03*
X0394D02*
D03*
X0384D02*
D03*
X0374D02*
D03*
X0364D02*
D03*
X0354D02*
D03*
X0344D02*
D03*
X0424D02*
D03*
X0434D02*
D03*
X0444D02*
D03*
X0454D02*
D03*
X0464D02*
D03*
X0474D02*
D03*
D73*
X05076Y03415D02*
D03*
D74*
X04585Y03625D02*
D03*
Y0394D02*
D03*
X043094D02*
D03*
Y03625D02*
D03*
D75*
X036438Y040062D02*
D03*
X03695D02*
D03*
X036438Y03955D02*
D03*
X03695D02*
D03*
X036438Y039038D02*
D03*
X03695D02*
D03*
X036438Y038526D02*
D03*
X03695Y038526D02*
D03*
D76*
X03335Y0192D02*
D03*
D77*
X03635Y019205D02*
D03*
D78*
X025Y04315D02*
D03*
D79*
Y04215D02*
D03*
D80*
X0282Y048255D02*
D03*
Y043845D02*
D03*
D81*
X05154Y0119D02*
D03*
Y04884D02*
D03*
X0238D02*
D03*
Y0119D02*
D03*
D82*
X03385Y03305D02*
D03*
X03085Y0419D02*
D03*
X03135D02*
D03*
X0311D02*
D03*
X03135D02*
D03*
Y04215D02*
D03*
Y04165D02*
D03*
X0311D02*
D03*
X03085D02*
D03*
X03135D02*
D03*
X0311Y04215D02*
D03*
X03085D02*
D03*
X03135D02*
D03*
X0357Y02535D02*
D03*
X0362D02*
D03*
X03595D02*
D03*
X0362D02*
D03*
Y0256D02*
D03*
Y0251D02*
D03*
X03595D02*
D03*
X0357D02*
D03*
X0362D02*
D03*
X03595Y0256D02*
D03*
X0357D02*
D03*
X0362D02*
D03*
X03805Y0253D02*
D03*
X03855D02*
D03*
X0383D02*
D03*
X03855D02*
D03*
Y02555D02*
D03*
Y02505D02*
D03*
X0383D02*
D03*
X03805D02*
D03*
X03855D02*
D03*
X0383Y02555D02*
D03*
X03805D02*
D03*
X03855D02*
D03*
X03745Y0337D02*
D03*
X03795D02*
D03*
X0377D02*
D03*
X03795D02*
D03*
Y03395D02*
D03*
Y03345D02*
D03*
X0377D02*
D03*
X03745D02*
D03*
X03795D02*
D03*
X0377Y03395D02*
D03*
X03745D02*
D03*
X03795D02*
D03*
X0403D02*
D03*
X0398D02*
D03*
X04005D02*
D03*
X0403Y03345D02*
D03*
X0398D02*
D03*
X04005D02*
D03*
X0403D02*
D03*
Y03395D02*
D03*
Y0337D02*
D03*
X04005D02*
D03*
X0403D02*
D03*
X0398D02*
D03*
X038775Y032625D02*
D03*
X0456Y032D02*
D03*
X04635Y03265D02*
D03*
X04575Y02935D02*
D03*
X0458Y02885D02*
D03*
X04675Y0332D02*
D03*
X05125Y0317D02*
D03*
X0499Y0352D02*
D03*
X03285Y0291D02*
D03*
X0402Y02945D02*
D03*
X0383Y0253D02*
D03*
X037705Y0278D02*
D03*
X030013Y045389D02*
D03*
X03082Y037895D02*
D03*
X0308Y0434D02*
D03*
X027541Y040695D02*
D03*
X0379Y0186D02*
D03*
X03985Y0199D02*
D03*
X0435Y02645D02*
D03*
X04395Y02625D02*
D03*
X05Y02965D02*
D03*
X03935Y0135D02*
D03*
X0425Y01385D02*
D03*
X0419D02*
D03*
X039Y013955D02*
D03*
X0419Y0131D02*
D03*
X03365Y045D02*
D03*
X03435Y04495D02*
D03*
X04035Y0467D02*
D03*
X0389Y0381D02*
D03*
X03915Y0401D02*
D03*
X035D02*
D03*
X038728Y036349D02*
D03*
M02*
