G04*
G04 #@! TF.GenerationSoftware,Altium Limited,Altium Designer,21.9.2 (33)*
G04*
G04 Layer_Color=8421504*
%FSTAX24Y24*%
%MOIN*%
G70*
G04*
G04 #@! TF.SameCoordinates,89EE2CFE-D071-483F-B308-50D8B9642E5A*
G04*
G04*
G04 #@! TF.FilePolarity,Positive*
G04*
G01*
G75*
%ADD20R,0.0374X0.0394*%
%ADD21R,0.0669X0.0984*%
%ADD22R,0.0394X0.0374*%
G04:AMPARAMS|DCode=23|XSize=53.9mil|YSize=23.2mil|CornerRadius=5.8mil|HoleSize=0mil|Usage=FLASHONLY|Rotation=270.000|XOffset=0mil|YOffset=0mil|HoleType=Round|Shape=RoundedRectangle|*
%AMROUNDEDRECTD23*
21,1,0.0539,0.0116,0,0,270.0*
21,1,0.0423,0.0232,0,0,270.0*
1,1,0.0116,-0.0058,-0.0212*
1,1,0.0116,-0.0058,0.0212*
1,1,0.0116,0.0058,0.0212*
1,1,0.0116,0.0058,-0.0212*
%
%ADD23ROUNDEDRECTD23*%
%ADD24R,0.0472X0.0551*%
%ADD25R,0.0709X0.1220*%
%ADD26R,0.1575X0.0787*%
%ADD27R,0.0551X0.0472*%
G04:AMPARAMS|DCode=28|XSize=61mil|YSize=23.6mil|CornerRadius=0.6mil|HoleSize=0mil|Usage=FLASHONLY|Rotation=180.000|XOffset=0mil|YOffset=0mil|HoleType=Round|Shape=RoundedRectangle|*
%AMROUNDEDRECTD28*
21,1,0.0610,0.0224,0,0,180.0*
21,1,0.0598,0.0236,0,0,180.0*
1,1,0.0012,-0.0299,0.0112*
1,1,0.0012,0.0299,0.0112*
1,1,0.0012,0.0299,-0.0112*
1,1,0.0012,-0.0299,-0.0112*
%
%ADD28ROUNDEDRECTD28*%
%ADD29R,0.0394X0.0945*%
%ADD30R,0.1299X0.0945*%
%ADD31R,0.0472X0.0335*%
%ADD32R,0.0354X0.0374*%
G36*
X036161Y039963D02*
X037228D01*
Y038625D01*
X036161Y038625D01*
X036161Y039963D01*
D02*
G37*
D20*
X039Y013955D02*
D03*
Y014545D02*
D03*
X0419Y0131D02*
D03*
Y012509D02*
D03*
X0425Y013855D02*
D03*
Y014445D02*
D03*
X0419Y013855D02*
D03*
Y014445D02*
D03*
X03865Y02945D02*
D03*
Y030041D02*
D03*
X0344Y038905D02*
D03*
Y039495D02*
D03*
X03385Y039505D02*
D03*
Y040095D02*
D03*
X0344Y0401D02*
D03*
Y040691D02*
D03*
X035Y040695D02*
D03*
Y040105D02*
D03*
X0394Y019895D02*
D03*
Y019305D02*
D03*
X03165Y018991D02*
D03*
Y0184D02*
D03*
X02505Y018995D02*
D03*
Y018405D02*
D03*
X02495Y0238D02*
D03*
Y023209D02*
D03*
X025Y028895D02*
D03*
Y028305D02*
D03*
X02485Y034D02*
D03*
Y033409D02*
D03*
Y03895D02*
D03*
Y038359D02*
D03*
X03435Y045005D02*
D03*
Y045595D02*
D03*
X033625Y045005D02*
D03*
Y045595D02*
D03*
X0329Y045005D02*
D03*
Y045595D02*
D03*
X0322Y045005D02*
D03*
Y045595D02*
D03*
Y046845D02*
D03*
Y046255D02*
D03*
X0247Y046291D02*
D03*
Y0457D02*
D03*
D21*
X0362Y027513D02*
D03*
Y029087D02*
D03*
X0344Y03795D02*
D03*
Y036375D02*
D03*
D22*
X038295Y02725D02*
D03*
X037705D02*
D03*
Y0278D02*
D03*
X038295Y0278D02*
D03*
X036455Y03795D02*
D03*
X037045D02*
D03*
X038555Y03955D02*
D03*
X039145D02*
D03*
Y0401D02*
D03*
X038555D02*
D03*
X037066Y0407D02*
D03*
X037657D02*
D03*
X036245D02*
D03*
X035655D02*
D03*
X03145Y0379D02*
D03*
X030859D02*
D03*
X03145Y0385D02*
D03*
X030859D02*
D03*
X026955Y0255D02*
D03*
X027545D02*
D03*
X026955Y03065D02*
D03*
X027545D02*
D03*
X026955Y03565D02*
D03*
X027545Y03565D02*
D03*
X026955Y04065D02*
D03*
X027545D02*
D03*
X030795Y0428D02*
D03*
X030205D02*
D03*
X030795Y0434D02*
D03*
X030205D02*
D03*
X027545Y02075D02*
D03*
X026955D02*
D03*
D23*
X037376Y029461D02*
D03*
X03775D02*
D03*
X038124Y029461D02*
D03*
Y028539D02*
D03*
X03775Y028539D02*
D03*
X037376Y028539D02*
D03*
D24*
X039428Y029449D02*
D03*
X040176D02*
D03*
X039428Y030249D02*
D03*
X040176D02*
D03*
X038728Y035499D02*
D03*
X039476D02*
D03*
X038728Y036349D02*
D03*
X039476D02*
D03*
D25*
X03775Y0311D02*
D03*
X035782D02*
D03*
X035766Y0364D02*
D03*
X037734D02*
D03*
D26*
X040042Y0337D02*
D03*
X037758D02*
D03*
X038242Y02535D02*
D03*
X035958D02*
D03*
D27*
X040499Y038872D02*
D03*
Y038124D02*
D03*
X039699Y038872D02*
D03*
Y038124D02*
D03*
X038899Y038872D02*
D03*
Y038124D02*
D03*
D28*
X035631Y038544D02*
D03*
Y039044D02*
D03*
Y039544D02*
D03*
Y040044D02*
D03*
X037757Y040044D02*
D03*
Y039544D02*
D03*
Y039044D02*
D03*
Y038544D02*
D03*
D29*
X030194Y0396D02*
D03*
X0311D02*
D03*
X032006D02*
D03*
D30*
X0311Y041883D02*
D03*
D31*
X037708Y019602D02*
D03*
X03869Y01923D02*
D03*
X038692Y019988D02*
D03*
D32*
X03562Y02015D02*
D03*
X03438D02*
D03*
M02*
