G04*
G04 #@! TF.GenerationSoftware,Altium Limited,Altium Designer,21.9.2 (33)*
G04*
G04 Layer_Color=255*
%FSTAX24Y24*%
%MOIN*%
G70*
G04*
G04 #@! TF.SameCoordinates,89EE2CFE-D071-483F-B308-50D8B9642E5A*
G04*
G04*
G04 #@! TF.FilePolarity,Positive*
G04*
G01*
G75*
%ADD67O,0.0433X0.0630*%
%ADD68C,0.0280*%
%ADD69C,0.0650*%
%ADD70P,0.0704X8X292.5*%
%ADD71C,0.0750*%
%ADD72C,0.0669*%
%ADD73R,0.0669X0.0669*%
%ADD74C,0.0594*%
%ADD75C,0.0118*%
%ADD76C,0.0591*%
%ADD77R,0.0591X0.0591*%
%ADD78C,0.0630*%
%ADD79R,0.0630X0.0630*%
G04:AMPARAMS|DCode=80|XSize=122mil|YSize=118.1mil|CornerRadius=29.5mil|HoleSize=0mil|Usage=FLASHONLY|Rotation=0.000|XOffset=0mil|YOffset=0mil|HoleType=Round|Shape=RoundedRectangle|*
%AMROUNDEDRECTD80*
21,1,0.1220,0.0591,0,0,0.0*
21,1,0.0630,0.1181,0,0,0.0*
1,1,0.0591,0.0315,-0.0295*
1,1,0.0591,-0.0315,-0.0295*
1,1,0.0591,-0.0315,0.0295*
1,1,0.0591,0.0315,0.0295*
%
%ADD80ROUNDEDRECTD80*%
%ADD81C,0.1969*%
%ADD83R,0.0453X0.0118*%
D67*
X039852Y015089D02*
D03*
Y011939D02*
D03*
X040978Y015089D02*
D03*
Y011939D02*
D03*
D68*
X040415Y015089D02*
D03*
Y011939D02*
D03*
D69*
X030607Y01815D02*
D03*
D70*
Y01915D02*
D03*
D71*
X02592Y01966D02*
D03*
X02863Y01778D02*
D03*
Y01966D02*
D03*
X02592Y01778D02*
D03*
Y024695D02*
D03*
X02863Y022815D02*
D03*
Y024695D02*
D03*
X02592Y022815D02*
D03*
X02592Y02973D02*
D03*
X02863Y02785D02*
D03*
X02863Y02973D02*
D03*
X02592Y02785D02*
D03*
X02592Y034765D02*
D03*
X02863Y032885D02*
D03*
Y034765D02*
D03*
X02592Y032885D02*
D03*
X02592Y0398D02*
D03*
X02863Y03792D02*
D03*
X02863Y0398D02*
D03*
X02592Y03792D02*
D03*
D72*
X05176Y03415D02*
D03*
Y03315D02*
D03*
Y03215D02*
D03*
Y03115D02*
D03*
Y03015D02*
D03*
Y02915D02*
D03*
Y02815D02*
D03*
Y02715D02*
D03*
Y02615D02*
D03*
Y02515D02*
D03*
Y02415D02*
D03*
Y02315D02*
D03*
Y02215D02*
D03*
Y02115D02*
D03*
Y02015D02*
D03*
Y01915D02*
D03*
Y01815D02*
D03*
Y01715D02*
D03*
Y01615D02*
D03*
Y01515D02*
D03*
X05076Y03315D02*
D03*
Y03215D02*
D03*
Y03115D02*
D03*
Y03015D02*
D03*
Y02915D02*
D03*
Y02815D02*
D03*
Y02715D02*
D03*
Y02615D02*
D03*
Y02515D02*
D03*
Y02415D02*
D03*
Y02315D02*
D03*
Y02215D02*
D03*
Y02115D02*
D03*
Y02015D02*
D03*
Y01915D02*
D03*
Y01815D02*
D03*
Y01715D02*
D03*
Y01615D02*
D03*
Y01515D02*
D03*
X031153Y047034D02*
D03*
X031153Y04605D02*
D03*
X031153Y045066D02*
D03*
X025444Y047034D02*
D03*
Y045066D02*
D03*
X0404Y0481D02*
D03*
X0414D02*
D03*
X0394D02*
D03*
X0384D02*
D03*
X0374D02*
D03*
X0364D02*
D03*
X0354D02*
D03*
X0344D02*
D03*
X0424D02*
D03*
X0434D02*
D03*
X0444D02*
D03*
X0454D02*
D03*
X0464D02*
D03*
X0474D02*
D03*
D73*
X05076Y03415D02*
D03*
D74*
X04585Y03625D02*
D03*
Y0394D02*
D03*
X043094D02*
D03*
Y03625D02*
D03*
D75*
X036438Y040062D02*
D03*
X03695D02*
D03*
X036438Y03955D02*
D03*
X03695D02*
D03*
X036438Y039038D02*
D03*
X03695D02*
D03*
X036438Y038526D02*
D03*
X03695Y038526D02*
D03*
D76*
X03335Y0192D02*
D03*
D77*
X03635Y019205D02*
D03*
D78*
X025Y04315D02*
D03*
D79*
Y04215D02*
D03*
D80*
X0282Y048255D02*
D03*
Y043845D02*
D03*
D81*
X05154Y0119D02*
D03*
Y04884D02*
D03*
X0238D02*
D03*
Y0119D02*
D03*
D83*
X039831Y012628D02*
D03*
Y012825D02*
D03*
Y014203D02*
D03*
Y0144D02*
D03*
X041D02*
D03*
Y014203D02*
D03*
Y012825D02*
D03*
Y012628D02*
D03*
X039831Y014597D02*
D03*
Y014006D02*
D03*
Y013809D02*
D03*
Y013613D02*
D03*
Y013416D02*
D03*
Y013219D02*
D03*
Y013022D02*
D03*
X041Y014597D02*
D03*
Y014006D02*
D03*
Y013809D02*
D03*
Y013613D02*
D03*
Y013416D02*
D03*
Y013219D02*
D03*
Y013022D02*
D03*
X039831Y012431D02*
D03*
X041D02*
D03*
M02*
